<svg width="54" height="54" viewBox="0 0 54 54" fill="none" xmlns="http://www.w3.org/2000/svg">
<rect x="1" y="1" width="52" height="52" rx="6" fill="#08684B" stroke="#85FFA0" stroke-width="2"/>
<path d="M2 16.0215L2.61776 16.562C3.57012 17.3953 4.1164 18.5992 4.1164 19.8647V34.136C4.1164 35.4014 3.57012 36.6053 2.61776 37.4386L2 37.9792V16.0215Z" fill="#85FFA0"/>
<path d="M52 37.9785L51.3822 37.438C50.4299 36.6047 49.8836 35.4008 49.8836 34.1353L49.8836 19.864C49.8836 18.5986 50.4299 17.3947 51.3822 16.5614L52 16.0208L52 37.9785Z" fill="#85FFA0"/>
<path d="M43.4619 31.9297L36.4873 33.6987L33.8048 41.5868H37.0238L42.1743 37.9386L43.4619 31.9297Z" fill="#85FFA0"/>
<path d="M12.2355 28.3867L17.064 33.0521L17.8149 41.6899L12.8793 37.6124L12.2355 28.3867Z" fill="#85FFA0"/>
<path fill-rule="evenodd" clip-rule="evenodd" d="M29.3837 13.1211L18.4661 21.8207L28.209 27.2627L29.3837 13.1211ZM17.8458 23.3593L19.3749 41.5881H25.1056L27.9834 29.0217L17.8458 23.3593ZM26.7939 41.5881H32.0364L36.4765 28.8546L29.59 29.3786L26.7939 41.5881ZM30.9912 13.6496L36.6329 27.1923L29.8231 27.7104L30.9912 13.6496Z" fill="#85FFA0"/>
<rect x="12.235" y="14.0723" width="8.96211" height="3.01394" fill="#85FFA0"/>
<rect x="18.2224" y="11.0977" width="8.96211" height="3.01394" transform="rotate(90 18.2224 11.0977)" fill="#85FFA0"/>
</svg>
