<svg width="54" height="54" viewBox="0 0 54 54" fill="none" xmlns="http://www.w3.org/2000/svg">
<rect x="1.98413" y="1.98413" width="50.0317" height="50.0317" rx="6.09524" fill="#600868" stroke="#FF7FE3" stroke-width="2.03175"/>
<path d="M3 16.4609L4.33791 17.6316C4.77883 18.0174 5.03175 18.5748 5.03175 19.1607V34.8406C5.03175 35.4265 4.77883 35.9838 4.33791 36.3696L3 37.5403V16.4609Z" fill="#FF7FE3"/>
<path d="M51 37.5391L49.6621 36.3684C49.2212 35.9826 48.9683 35.4252 48.9683 34.8393L48.9683 19.1594C48.9683 18.5735 49.2212 18.0162 49.6621 17.6304L51 16.4597L51 37.5391Z" fill="#FF7FE3"/>
<path fill-rule="evenodd" clip-rule="evenodd" d="M28.1104 30.99C29.505 30.6027 30.6036 29.504 30.9908 28.1094H37.943C37.4235 33.2976 33.2984 37.4232 28.1104 37.9435V30.99ZM25.8893 40.0816V42.893H28.1104V40.0816C34.4753 39.5483 39.549 34.4744 40.0819 28.1094H42.8934V25.8883H40.0818C39.5484 19.5238 34.4749 14.4504 28.1104 13.9172V11.1055L25.8893 11.1055V13.9172C19.5246 14.4502 14.4509 19.5237 13.9175 25.8883H11.1058L11.1058 28.1094H13.9175C14.4503 34.4745 19.5243 39.5485 25.8893 40.0816ZM25.8893 37.9435C20.7012 37.4234 16.5759 33.2977 16.0564 28.1094H23.0086C23.3958 29.5041 24.4946 30.6029 25.8893 30.9901V37.9435ZM16.0567 25.8883L23.0087 25.8883C23.396 24.4937 24.4947 23.3951 25.8893 23.008V16.0571C20.7022 16.5772 16.5775 20.7013 16.0567 25.8883ZM28.1104 16.0572V23.008C29.5049 23.3953 30.6034 24.4938 30.9907 25.8883L37.9427 25.8883C37.422 20.7015 33.2974 16.5773 28.1104 16.0572Z" fill="#FF7FE3"/>
</svg>
