<svg width="54" height="54" viewBox="0 0 54 54" fill="none" xmlns="http://www.w3.org/2000/svg">
<rect x="1" y="1" width="52" height="52" rx="6" fill="#380868" stroke="#923DFF" stroke-width="2"/>
<path d="M2 16.0215L2.61776 16.562C3.57012 17.3953 4.1164 18.5992 4.1164 19.8647V34.136C4.1164 35.4014 3.57012 36.6053 2.61776 37.4386L2 37.9792V16.0215Z" fill="#923DFF"/>
<path d="M51.9999 37.9785L51.3822 37.438C50.4298 36.6047 49.8835 35.4008 49.8835 34.1353L49.8835 19.864C49.8835 18.5986 50.4298 17.3947 51.3822 16.5614L51.9999 16.0208L51.9999 37.9785Z" fill="#923DFF"/>
<path fill-rule="evenodd" clip-rule="evenodd" d="M29.2573 7.50391H24.7409L25.3317 12.2567C22.4926 12.5743 19.8956 13.693 17.772 15.3816L14.8078 11.6191L11.6142 14.8127L15.3936 17.7563C13.702 19.8771 12.5795 22.4719 12.2573 25.3094L7.49988 24.7448V29.2613L12.2547 28.6702C12.5724 31.5088 13.6911 34.1054 15.3794 36.2287L11.6142 39.1951L14.8078 42.3887L17.7535 38.6066C19.874 40.2982 22.4684 41.4208 25.3056 41.7432L24.7408 46.5023H29.2572L28.666 41.7462C31.5042 41.429 34.1005 40.3111 36.2238 38.6236L39.1902 42.3888L42.3838 39.1952L38.6023 36.2499C40.2948 34.1294 41.4181 31.5345 41.7409 28.6968L46.4982 29.2613V24.7449L41.7442 25.3359C41.4271 22.4972 40.3091 19.9005 38.6214 17.7769L42.3838 14.8128L39.1902 11.6192L36.2471 15.3979C34.1262 13.7054 31.531 12.5822 28.6929 12.2597L29.2573 7.50391ZM18.7905 16.6743C20.6839 15.1672 23.0013 14.1699 25.5348 13.8901L25.6657 14.9434C23.3293 15.199 21.1924 16.1181 19.4474 17.5082L18.7905 16.6743ZM34.5839 17.5334C32.843 16.1372 30.7088 15.2111 28.3739 14.9479L28.499 13.8941C31.0311 14.1806 33.346 15.184 35.2358 16.6964L34.5839 17.5334ZM36.4954 19.4519L37.3286 18.7954C38.8349 20.6889 39.8315 23.0059 40.1108 25.539L39.0582 25.6698C38.8031 23.3337 37.8848 21.197 36.4954 19.4519ZM39.0533 28.3778L40.1065 28.5028C39.8197 31.0346 38.8162 33.3491 37.3038 35.2386L36.467 34.5868C37.8633 32.8463 38.7896 30.7124 39.0533 28.3778ZM34.5489 36.4976L35.2053 37.3308C33.3121 38.8368 30.9955 39.8333 28.4629 40.1128L28.332 39.0599C30.6677 38.8047 32.804 37.8866 34.5489 36.4976ZM25.6246 39.0551L25.4995 40.1088C22.9683 39.8223 20.6542 38.8196 18.7649 37.3081L19.4171 36.4707C21.1574 37.8661 23.2907 38.7917 25.6246 39.0551ZM17.506 34.5533L16.6722 35.2102C15.1653 33.3171 14.1681 31.0002 13.8881 28.4671L14.9418 28.3361C15.1974 30.672 16.1162 32.8086 17.506 34.5533ZM14.9461 25.6285L13.8917 25.5034C14.1779 22.9718 15.1806 20.6574 16.6921 18.7677L17.5297 19.4201C16.1344 21.1607 15.209 23.2943 14.9461 25.6285ZM26.9995 20.2598L29.0203 24.2196L33.4108 24.9179L30.2693 28.0635L30.9619 32.4549L26.9995 30.4391L23.0371 32.4549L23.7297 28.0635L20.5881 24.9179L24.9786 24.2196L26.9995 20.2598Z" fill="#923DFF"/>
</svg>
