<svg width="520" height="187" viewBox="0 0 520 187" fill="none" xmlns="http://www.w3.org/2000/svg">
<g opacity="0.1">
<path d="M-65.0518 -24C-25.3693 -9.07134 -69.6814 7.90152 -55.1312 25.1221C-39.9196 42.8383 -7.7326 42.5905 14.0928 66.5012C27.9816 81.6157 -69.461 125.163 -73.8701 140.711C-78.9407 159.418 -32.2035 168.958 -50.9424 187.231C-62.1858 198.133 -73.4291 208.974 -84.6725 219.876" stroke="url(#paint0_linear_1386_16833)" stroke-miterlimit="10"/>
<path d="M-42.3447 -24C-15.8897 -14.0889 -26.6922 -3.18648 -32.4241 8.0255C-35.29 13.6005 -36.8332 19.2374 -31.9831 24.9363C-17.2124 42.5905 14.9744 42.6525 34.8157 66.2535C38.7839 70.9612 31.9498 78.2087 21.1474 86.4473C-2.00075 103.916 -41.9037 125.72 -49.8402 137.737C-50.5016 138.729 -50.9426 139.658 -51.163 140.525C-54.6904 155.825 -24.4876 165.117 -23.6058 178.002C-23.3853 180.851 -24.708 183.886 -28.0149 187.169C-39.0378 198.072 -50.5016 208.974 -61.745 219.876" stroke="url(#paint1_linear_1386_16833)" stroke-miterlimit="10"/>
<path d="M-19.6373 -24C6.59723 -14.1508 -3.98481 -3.31049 -9.49627 7.90149C-12.3622 13.4146 -13.9055 19.0516 -9.27586 24.7505C5.05392 42.2809 37.4613 42.7144 55.098 66.0056C58.6253 70.7134 51.5707 77.9609 40.5478 86.1376C16.7383 103.668 -20.7396 125.349 -27.7943 137.552C-28.4556 138.543 -28.8966 139.472 -28.8966 140.339C-31.5421 155.578 -2.00072 164.993 -1.11888 177.878C-0.898425 180.727 -2.00063 183.762 -5.30751 187.045C-16.11 198.01 -27.5739 208.912 -39.0377 219.814" stroke="url(#paint2_linear_1386_16833)" stroke-miterlimit="10"/>
<path d="M3.06985 -24C29.3044 -14.1508 18.9429 -3.37241 13.4314 7.77763C10.5655 13.2907 9.24265 18.8658 13.6518 24.5647C27.7611 41.9711 59.9481 42.7764 75.8211 65.7579C79.1279 70.5276 71.4118 77.7131 60.1684 85.8279C35.6976 103.482 0.644756 124.977 -5.52807 137.366C-5.96899 138.357 -6.40991 139.286 -6.63036 140.153C-8.61449 155.268 20.2656 164.807 21.3679 177.816C21.5883 180.665 20.486 183.7 17.1791 186.983C6.5971 197.948 -5.08708 208.85 -16.3304 219.876" stroke="url(#paint3_linear_1386_16833)" stroke-miterlimit="10"/>
<path d="M25.9972 -24C52.0113 -14.2127 42.0907 -3.43432 36.3588 7.65377C33.7133 13.1049 32.1702 18.7419 36.5793 24.3788C50.2477 41.6614 82.4346 42.8383 96.3234 65.51C99.1894 70.3417 91.2529 77.4653 79.7891 85.5181C54.6568 103.234 22.0291 124.605 16.7381 137.18C16.2972 138.171 15.8562 139.1 15.8562 139.968C14.7539 155.02 42.9725 164.683 44.0748 177.692C44.2953 180.603 43.193 183.638 40.1066 186.921C29.7451 197.948 18.0607 208.85 6.59692 219.876" stroke="url(#paint4_linear_1386_16833)" stroke-miterlimit="10"/>
<path d="M48.7049 -24C74.4985 -14.2747 64.7984 -3.49624 59.2869 7.52991C56.6414 12.981 55.3186 18.556 59.5073 24.193C72.7348 41.3516 104.701 42.9003 116.826 65.2623C119.472 70.1559 110.874 77.2176 99.1898 85.2084C73.3962 102.987 43.1935 124.234 38.7843 136.994C38.3434 137.985 38.1228 138.914 38.1228 139.782C37.6819 154.772 65.2392 164.56 66.562 177.568C66.7825 180.479 65.6802 183.515 62.5938 186.798C52.4527 197.886 40.5479 208.788 29.0841 219.814" stroke="url(#paint5_linear_1386_16833)" stroke-miterlimit="10"/>
<path d="M71.4119 -24C97.2055 -14.3366 87.7257 -3.62009 82.2143 7.40605C79.5688 12.8572 78.2461 18.3701 82.4348 24.0071C95.4418 41.0419 127.188 43.0242 137.329 65.0146C139.533 69.9082 130.495 76.9698 118.81 84.8987C92.3554 102.739 64.5777 123.862 61.0503 136.808C60.8299 137.799 60.6094 138.729 60.6094 139.596C60.8298 154.524 87.9462 164.436 89.2689 177.444C89.4894 180.355 88.3871 183.453 85.5211 186.736C75.6005 197.824 63.4754 208.726 52.0116 219.876" stroke="url(#paint6_linear_1386_16833)" stroke-miterlimit="10"/>
<path d="M94.1193 -24C119.692 -14.3366 110.654 -3.68216 105.142 7.28204C102.497 12.6712 101.174 18.2464 105.363 23.8214C117.708 40.7323 149.454 43.0861 157.832 64.7667C159.816 69.7223 150.336 76.722 138.211 84.589C111.095 102.491 85.5215 123.428 82.876 136.684C82.6555 137.676 82.4351 138.605 82.4351 139.472C83.5373 154.339 109.992 164.374 111.315 177.444C111.535 180.417 110.654 183.453 107.567 186.736C97.6466 197.886 85.7419 208.788 74.2781 219.938" stroke="url(#paint7_linear_1386_16833)" stroke-miterlimit="10"/>
<path d="M116.826 -24C142.399 -14.3986 133.361 -3.74407 128.07 7.15818C125.424 12.5474 124.322 18.0605 128.29 23.6355C140.415 40.4225 171.72 43.21 178.334 64.519C179.877 69.5365 169.957 76.4742 157.832 84.2792C130.054 102.243 106.906 123.057 105.142 136.499C104.922 137.49 104.922 138.419 104.922 139.286C106.685 154.029 132.479 164.25 134.022 177.32C134.463 180.293 133.361 183.329 130.495 186.612C120.795 197.762 108.669 208.726 97.2056 219.876" stroke="url(#paint8_linear_1386_16833)" stroke-miterlimit="10"/>
<path d="M139.754 -24C165.107 -14.4605 156.509 -3.86793 151.218 7.03432C148.572 12.3616 147.47 17.8746 151.438 23.4496C163.122 40.1128 194.207 43.3339 199.057 64.2092C200.159 69.2887 189.798 76.1646 177.673 83.9077C149.013 101.996 128.511 122.623 127.629 136.251C127.629 137.242 127.408 138.171 127.629 139.038C130.054 153.719 155.406 164.064 156.95 177.134C157.391 180.108 156.288 183.205 153.643 186.488C144.163 197.7 132.038 208.664 120.354 219.814" stroke="url(#paint9_linear_1386_16833)" stroke-miterlimit="10"/>
<path d="M162.461 -24C187.593 -14.5225 179.216 -3.92985 174.145 6.91046C171.72 12.2377 170.618 17.6888 174.366 23.2638C185.609 39.803 216.253 43.3958 219.56 63.9614C220.442 69.1028 209.419 75.9168 197.073 83.5979C167.752 101.748 149.454 122.189 149.674 136.065C149.674 137.056 149.674 137.985 149.895 138.853C152.981 153.471 177.673 163.878 179.436 177.01C179.877 179.984 178.775 183.081 176.129 186.364C166.87 197.576 154.524 208.54 142.84 219.814" stroke="url(#paint10_linear_1386_16833)" stroke-miterlimit="10"/>
<path d="M185.168 -24C210.301 -14.5844 202.144 -3.99176 197.073 6.7866C194.648 12.1138 193.546 17.5648 197.294 23.0779C208.096 39.4932 238.299 43.5197 240.063 63.7137C240.504 68.917 229.26 75.669 216.694 83.2882C186.712 101.5 170.618 121.818 171.941 135.879C171.941 136.87 171.941 137.799 172.162 138.667C175.909 153.224 200.16 163.754 201.923 176.948C202.364 179.984 201.482 183.081 198.837 186.302C189.798 197.576 177.452 208.54 165.768 219.814" stroke="url(#paint11_linear_1386_16833)" stroke-miterlimit="10"/>
<path d="M207.875 -24C232.787 -14.5844 225.071 -4.05383 220.001 6.66259C217.576 11.9279 216.473 17.3791 220.001 22.8922C230.583 39.2456 260.124 43.7056 260.345 63.4659C260.345 68.7312 248.66 75.4213 235.874 82.9785C205.23 101.252 191.562 121.446 193.766 135.693C193.987 136.684 193.987 137.614 194.207 138.481C198.616 152.914 222.426 163.63 224.189 176.825C224.63 179.86 223.748 182.957 221.103 186.24C212.285 197.576 199.718 208.54 188.034 219.814" stroke="url(#paint12_linear_1386_16833)" stroke-miterlimit="10"/>
<path d="M230.583 -24C255.495 -14.6464 247.779 -4.17769 242.929 6.53873C240.504 11.804 239.622 17.1933 242.929 22.7063C253.07 38.9358 281.95 43.8294 280.847 63.2181C280.627 68.5453 268.281 75.2354 255.495 82.6688C223.969 101.004 212.726 121.012 216.033 135.507C216.253 136.499 216.474 137.428 216.694 138.295C221.985 152.666 244.913 163.506 246.897 176.701C247.338 179.736 246.456 182.833 244.031 186.116C235.433 197.452 222.646 208.416 210.962 219.814" stroke="url(#paint13_linear_1386_16833)" stroke-miterlimit="10"/>
<path d="M253.51 -24C278.202 -14.7083 270.926 -4.2396 266.076 6.41488C263.651 11.6182 262.769 17.0694 266.076 22.5205C275.776 38.6261 304.216 43.9534 301.57 62.9704C300.909 68.3595 288.122 74.9876 275.115 82.3591C242.928 100.757 233.889 120.641 238.299 135.322C238.519 136.313 238.739 137.242 239.18 138.109C245.133 152.418 267.619 163.383 269.604 176.577C270.045 179.612 269.163 182.771 266.738 186.054C258.36 197.452 245.574 208.416 233.669 219.814" stroke="url(#paint14_linear_1386_16833)" stroke-miterlimit="10"/>
<path d="M276.218 -24C300.688 -14.7702 293.854 -4.30152 289.004 6.29102C286.579 11.4944 285.918 16.8835 289.004 22.3346C298.484 38.3163 326.041 44.0772 322.073 62.7225C320.971 68.1736 307.964 74.7399 294.736 82.0493C261.888 100.571 255.054 120.207 260.565 135.136C261.006 136.127 261.227 137.056 261.447 137.923C268.061 152.171 289.886 163.259 292.091 176.515C292.532 179.612 291.65 182.709 289.445 185.992C281.288 197.39 268.281 208.416 256.597 219.814" stroke="url(#paint15_linear_1386_16833)" stroke-miterlimit="10"/>
<path d="M298.925 -24C323.396 -14.8322 316.562 -4.42537 311.932 6.16716C309.728 11.3705 308.846 16.6976 311.932 22.1488C320.971 38.0066 347.867 44.2011 342.576 62.4748C341.032 67.9878 327.585 74.492 314.357 81.8015C280.627 100.385 276.438 119.897 282.831 135.074C283.272 136.065 283.493 136.994 283.934 137.861C291.209 152.047 312.593 163.197 314.798 176.515C315.239 179.612 314.578 182.771 312.153 185.992C304.216 197.452 291.209 208.478 279.304 219.938" stroke="url(#paint16_linear_1386_16833)" stroke-miterlimit="10"/>
<path d="M321.632 -24C345.882 -14.8322 339.489 -4.48744 334.859 6.04315C332.655 11.1846 331.773 16.5119 334.859 21.963C343.457 37.697 369.471 44.3251 363.299 62.2271C361.314 67.8021 347.426 74.2442 333.978 81.4917C299.586 100.137 297.602 119.526 305.098 134.888C305.538 135.879 305.98 136.808 306.42 137.737C314.357 151.799 335.3 163.135 337.505 176.453C337.946 179.55 337.285 182.709 335.08 185.992C327.364 197.452 314.136 208.478 302.232 220" stroke="url(#paint17_linear_1386_16833)" stroke-miterlimit="10"/>
<path d="M344.339 -24C368.589 -14.8941 362.417 -4.54935 357.787 5.91929C355.582 11.0607 354.921 16.388 357.787 21.7772C366.164 37.3872 391.297 44.4489 383.801 61.9792C381.376 67.6161 367.046 73.9964 353.598 81.182C318.545 99.8893 318.546 119.092 327.364 134.702C327.805 135.693 328.246 136.622 328.907 137.552C337.505 151.551 357.787 163.011 360.212 176.329C360.873 179.426 359.992 182.585 357.787 185.868C350.291 197.39 337.064 208.416 324.939 219.938" stroke="url(#paint18_linear_1386_16833)" stroke-miterlimit="10"/>
<path d="M367.267 -24C391.297 -14.9561 385.344 -4.61127 380.935 5.79543C378.731 10.8749 378.069 16.2021 380.935 21.5913C388.872 37.0775 413.122 44.6347 404.524 61.6695C401.658 67.4303 386.887 73.6868 373.219 80.8104C337.284 99.5797 339.71 118.659 349.63 134.454C350.292 135.446 350.732 136.375 351.173 137.304C360.432 151.241 380.274 162.825 382.699 176.205C383.36 179.364 382.478 182.524 380.494 185.807C372.999 197.39 359.771 208.416 347.866 220" stroke="url(#paint19_linear_1386_16833)" stroke-miterlimit="10"/>
<path d="M389.974 -24C413.784 -15.018 408.272 -4.73513 403.863 5.67157C401.659 10.751 401.218 16.0163 403.863 21.4054C411.359 36.7677 434.727 44.7586 425.027 61.4217C421.72 67.2445 406.509 73.439 392.84 80.5007C356.244 99.3319 360.874 118.287 371.897 134.269C372.558 135.26 372.999 136.189 373.66 137.118C383.361 150.994 402.981 162.701 405.406 176.081C406.068 179.24 405.406 182.4 403.202 185.683C395.927 197.266 382.479 208.292 370.574 219.938" stroke="url(#paint20_linear_1386_16833)" stroke-miterlimit="10"/>
<path d="M412.681 -24C436.49 -15.08 431.199 -4.79704 426.79 5.54771C424.586 10.5652 424.145 15.8923 426.79 21.2196C434.065 36.458 456.332 44.8824 445.529 61.1739C441.561 67.0586 426.129 73.1913 412.46 80.191C374.983 99.0841 382.037 117.853 394.162 134.083C394.824 135.074 395.485 136.003 396.147 136.932C406.508 150.684 425.467 162.577 428.113 175.957C428.774 179.116 428.113 182.338 426.129 185.559C419.074 197.204 405.626 208.231 393.501 219.876" stroke="url(#paint21_linear_1386_16833)" stroke-miterlimit="10"/>
<path d="M435.389 -24C458.978 -15.08 453.907 -4.85911 449.719 5.4237C447.734 10.4412 447.293 15.7066 449.498 21.0339C456.332 36.1484 477.717 45.0064 465.812 60.9262C461.403 66.8728 445.75 72.9435 431.641 79.8813C393.502 98.8363 402.54 117.482 415.988 133.897C416.87 134.888 417.311 135.817 418.193 136.746C429.216 150.436 447.734 162.392 450.38 175.895C451.041 179.117 450.38 182.276 448.616 185.559C441.782 197.204 428.114 208.292 415.988 220" stroke="url(#paint22_linear_1386_16833)" stroke-miterlimit="10"/>
<path d="M458.316 -24C481.905 -15.1419 477.055 -4.98297 472.866 5.29984C470.882 10.3174 470.441 15.5208 472.646 20.848C479.039 35.8386 499.321 45.1303 486.535 60.6784C481.684 66.6871 465.591 72.6957 451.482 79.5715C412.461 98.5886 423.924 117.11 438.475 133.711C439.356 134.64 440.018 135.631 440.9 136.561C452.584 150.188 470.441 162.268 473.307 175.771C473.968 178.993 473.307 182.214 471.543 185.435C464.93 197.142 451.261 208.23 439.136 219.938" stroke="url(#paint23_linear_1386_16833)" stroke-miterlimit="10"/>
<path d="M481.023 -24C504.392 -15.2039 499.762 -5.04488 495.794 5.17598C493.81 10.1316 493.369 15.3349 495.574 20.6621C501.746 35.5289 520.706 45.2541 507.038 60.4306C501.526 66.5011 485.212 72.4479 470.882 79.2618C430.979 98.3408 444.648 116.738 460.521 133.525C461.403 134.454 462.064 135.446 462.946 136.375C475.292 149.941 492.708 162.144 495.574 175.648C496.235 178.869 495.794 182.09 494.03 185.373C487.637 197.142 473.748 208.169 461.623 219.938" stroke="url(#paint24_linear_1386_16833)" stroke-miterlimit="10"/>
<path d="M503.73 -24C526.878 -15.2658 522.69 -5.1068 518.721 5.05212C516.737 10.0077 516.517 15.211 518.501 20.4763C524.233 35.281 542.31 45.3781 527.54 60.1828C521.587 66.3154 504.833 72.2001 490.503 78.9521C449.939 98.093 465.811 116.305 482.566 133.401C483.448 134.331 484.33 135.322 485.212 136.251C498.219 149.755 515.194 162.082 518.06 175.586C518.721 178.807 518.28 182.028 516.517 185.311C510.344 197.08 496.455 208.169 484.109 220" stroke="url(#paint25_linear_1386_16833)" stroke-miterlimit="10"/>
<path d="M526.437 -24C549.585 -15.3278 545.617 -5.16871 541.649 4.92826C539.665 9.82189 539.445 15.0251 541.429 20.2904C546.72 34.9713 563.695 45.4399 548.042 59.935C541.429 66.0675 524.453 71.9524 509.903 78.6424C468.457 97.8452 486.534 115.933 504.612 133.216C505.714 134.145 506.596 135.136 507.478 136.065C520.926 149.507 537.46 161.958 540.547 175.524C541.208 178.807 540.767 182.028 539.224 185.249C533.272 197.08 519.162 208.169 506.817 220" stroke="url(#paint26_linear_1386_16833)" stroke-miterlimit="10"/>
<path d="M549.145 -24C572.072 -15.3278 568.325 -5.29272 564.577 4.80425C562.593 9.69788 562.593 14.8394 564.356 20.1047C569.427 34.6617 585.079 45.5639 568.545 59.6873C561.27 65.8817 544.074 71.7046 529.524 78.3327C487.416 97.5974 507.478 115.561 526.879 133.03C527.981 133.959 528.862 134.95 529.965 135.879C544.074 149.197 560.168 161.834 563.254 175.4C563.915 178.683 563.474 181.904 561.931 185.187C556.199 197.019 541.87 208.107 529.744 220" stroke="url(#paint27_linear_1386_16833)" stroke-miterlimit="10"/>
</g>
<defs>
<linearGradient id="paint0_linear_1386_16833" x1="-84.6725" y1="97.9381" x2="32.623" y2="100.163" gradientUnits="userSpaceOnUse">
<stop stop-color="#9A9A9C"/>
<stop offset="0.255208" stop-color="#8869C0"/>
<stop offset="0.484375" stop-color="#3FC2EA"/>
<stop offset="0.666667" stop-color="#C2FFFF"/>
<stop offset="0.927083" stop-color="white"/>
</linearGradient>
<linearGradient id="paint1_linear_1386_16833" x1="-61.745" y1="97.9381" x2="52.7188" y2="100.057" gradientUnits="userSpaceOnUse">
<stop stop-color="#9A9A9C"/>
<stop offset="0.255208" stop-color="#8869C0"/>
<stop offset="0.484375" stop-color="#3FC2EA"/>
<stop offset="0.666667" stop-color="#C2FFFF"/>
<stop offset="0.927083" stop-color="white"/>
</linearGradient>
<linearGradient id="paint2_linear_1386_16833" x1="-39.0377" y1="97.9071" x2="72.3238" y2="99.9131" gradientUnits="userSpaceOnUse">
<stop stop-color="#9A9A9C"/>
<stop offset="0.255208" stop-color="#8869C0"/>
<stop offset="0.484375" stop-color="#3FC2EA"/>
<stop offset="0.666667" stop-color="#C2FFFF"/>
<stop offset="0.927083" stop-color="white"/>
</linearGradient>
<linearGradient id="paint3_linear_1386_16833" x1="-16.3304" y1="97.9381" x2="92.5397" y2="99.8549" gradientUnits="userSpaceOnUse">
<stop stop-color="#9A9A9C"/>
<stop offset="0.255208" stop-color="#8869C0"/>
<stop offset="0.484375" stop-color="#3FC2EA"/>
<stop offset="0.666667" stop-color="#C2FFFF"/>
<stop offset="0.927083" stop-color="white"/>
</linearGradient>
<linearGradient id="paint4_linear_1386_16833" x1="6.59692" y1="97.9381" x2="112.413" y2="99.7488" gradientUnits="userSpaceOnUse">
<stop stop-color="#9A9A9C"/>
<stop offset="0.255208" stop-color="#8869C0"/>
<stop offset="0.484375" stop-color="#3FC2EA"/>
<stop offset="0.666667" stop-color="#C2FFFF"/>
<stop offset="0.927083" stop-color="white"/>
</linearGradient>
<linearGradient id="paint5_linear_1386_16833" x1="29.0841" y1="97.9071" x2="132.451" y2="99.6354" gradientUnits="userSpaceOnUse">
<stop stop-color="#9A9A9C"/>
<stop offset="0.255208" stop-color="#8869C0"/>
<stop offset="0.484375" stop-color="#3FC2EA"/>
<stop offset="0.666667" stop-color="#C2FFFF"/>
<stop offset="0.927083" stop-color="white"/>
</linearGradient>
<linearGradient id="paint6_linear_1386_16833" x1="52.0116" y1="97.9381" x2="152.365" y2="99.5666" gradientUnits="userSpaceOnUse">
<stop stop-color="#9A9A9C"/>
<stop offset="0.255208" stop-color="#8869C0"/>
<stop offset="0.484375" stop-color="#3FC2EA"/>
<stop offset="0.666667" stop-color="#C2FFFF"/>
<stop offset="0.927083" stop-color="white"/>
</linearGradient>
<linearGradient id="paint7_linear_1386_16833" x1="74.2781" y1="97.969" x2="172.486" y2="99.5282" gradientUnits="userSpaceOnUse">
<stop stop-color="#9A9A9C"/>
<stop offset="0.255208" stop-color="#8869C0"/>
<stop offset="0.484375" stop-color="#3FC2EA"/>
<stop offset="0.666667" stop-color="#C2FFFF"/>
<stop offset="0.927083" stop-color="white"/>
</linearGradient>
<linearGradient id="paint8_linear_1386_16833" x1="97.2056" y1="97.9381" x2="192.45" y2="99.405" gradientUnits="userSpaceOnUse">
<stop stop-color="#9A9A9C"/>
<stop offset="0.255208" stop-color="#8869C0"/>
<stop offset="0.484375" stop-color="#3FC2EA"/>
<stop offset="0.666667" stop-color="#C2FFFF"/>
<stop offset="0.927083" stop-color="white"/>
</linearGradient>
<linearGradient id="paint9_linear_1386_16833" x1="120.354" y1="97.9071" x2="212.666" y2="99.2854" gradientUnits="userSpaceOnUse">
<stop stop-color="#9A9A9C"/>
<stop offset="0.255208" stop-color="#8869C0"/>
<stop offset="0.484375" stop-color="#3FC2EA"/>
<stop offset="0.666667" stop-color="#C2FFFF"/>
<stop offset="0.927083" stop-color="white"/>
</linearGradient>
<linearGradient id="paint10_linear_1386_16833" x1="142.84" y1="97.9071" x2="232.793" y2="99.2158" gradientUnits="userSpaceOnUse">
<stop stop-color="#9A9A9C"/>
<stop offset="0.255208" stop-color="#8869C0"/>
<stop offset="0.484375" stop-color="#3FC2EA"/>
<stop offset="0.666667" stop-color="#C2FFFF"/>
<stop offset="0.927083" stop-color="white"/>
</linearGradient>
<linearGradient id="paint11_linear_1386_16833" x1="165.768" y1="97.9071" x2="252.837" y2="99.1332" gradientUnits="userSpaceOnUse">
<stop stop-color="#9A9A9C"/>
<stop offset="0.255208" stop-color="#8869C0"/>
<stop offset="0.484375" stop-color="#3FC2EA"/>
<stop offset="0.666667" stop-color="#C2FFFF"/>
<stop offset="0.927083" stop-color="white"/>
</linearGradient>
<linearGradient id="paint12_linear_1386_16833" x1="188.034" y1="97.9071" x2="272.765" y2="99.0682" gradientUnits="userSpaceOnUse">
<stop stop-color="#9A9A9C"/>
<stop offset="0.255208" stop-color="#8869C0"/>
<stop offset="0.484375" stop-color="#3FC2EA"/>
<stop offset="0.666667" stop-color="#C2FFFF"/>
<stop offset="0.927083" stop-color="white"/>
</linearGradient>
<linearGradient id="paint13_linear_1386_16833" x1="210.962" y1="97.9071" x2="292.888" y2="98.9926" gradientUnits="userSpaceOnUse">
<stop stop-color="#9A9A9C"/>
<stop offset="0.255208" stop-color="#8869C0"/>
<stop offset="0.484375" stop-color="#3FC2EA"/>
<stop offset="0.666667" stop-color="#C2FFFF"/>
<stop offset="0.927083" stop-color="white"/>
</linearGradient>
<linearGradient id="paint14_linear_1386_16833" x1="233.669" y1="97.9071" x2="313.437" y2="98.9362" gradientUnits="userSpaceOnUse">
<stop stop-color="#9A9A9C"/>
<stop offset="0.255208" stop-color="#8869C0"/>
<stop offset="0.484375" stop-color="#3FC2EA"/>
<stop offset="0.666667" stop-color="#C2FFFF"/>
<stop offset="0.927083" stop-color="white"/>
</linearGradient>
<linearGradient id="paint15_linear_1386_16833" x1="256.597" y1="97.9071" x2="333.776" y2="98.8705" gradientUnits="userSpaceOnUse">
<stop stop-color="#9A9A9C"/>
<stop offset="0.255208" stop-color="#8869C0"/>
<stop offset="0.484375" stop-color="#3FC2EA"/>
<stop offset="0.666667" stop-color="#C2FFFF"/>
<stop offset="0.927083" stop-color="white"/>
</linearGradient>
<linearGradient id="paint16_linear_1386_16833" x1="279.304" y1="97.969" x2="354.247" y2="98.8769" gradientUnits="userSpaceOnUse">
<stop stop-color="#9A9A9C"/>
<stop offset="0.255208" stop-color="#8869C0"/>
<stop offset="0.484375" stop-color="#3FC2EA"/>
<stop offset="0.666667" stop-color="#C2FFFF"/>
<stop offset="0.927083" stop-color="white"/>
</linearGradient>
<linearGradient id="paint17_linear_1386_16833" x1="301.527" y1="98" x2="375.01" y2="98.8726" gradientUnits="userSpaceOnUse">
<stop stop-color="#9A9A9C"/>
<stop offset="0.255208" stop-color="#8869C0"/>
<stop offset="0.484375" stop-color="#3FC2EA"/>
<stop offset="0.666667" stop-color="#C2FFFF"/>
<stop offset="0.927083" stop-color="white"/>
</linearGradient>
<linearGradient id="paint18_linear_1386_16833" x1="322.457" y1="97.969" x2="395.956" y2="98.8423" gradientUnits="userSpaceOnUse">
<stop stop-color="#9A9A9C"/>
<stop offset="0.255208" stop-color="#8869C0"/>
<stop offset="0.484375" stop-color="#3FC2EA"/>
<stop offset="0.666667" stop-color="#C2FFFF"/>
<stop offset="0.927083" stop-color="white"/>
</linearGradient>
<linearGradient id="paint19_linear_1386_16833" x1="343.259" y1="98" x2="417.181" y2="98.8831" gradientUnits="userSpaceOnUse">
<stop stop-color="#9A9A9C"/>
<stop offset="0.255208" stop-color="#8869C0"/>
<stop offset="0.484375" stop-color="#3FC2EA"/>
<stop offset="0.666667" stop-color="#C2FFFF"/>
<stop offset="0.927083" stop-color="white"/>
</linearGradient>
<linearGradient id="paint20_linear_1386_16833" x1="363.963" y1="97.969" x2="438.238" y2="98.8608" gradientUnits="userSpaceOnUse">
<stop stop-color="#9A9A9C"/>
<stop offset="0.255208" stop-color="#8869C0"/>
<stop offset="0.484375" stop-color="#3FC2EA"/>
<stop offset="0.666667" stop-color="#C2FFFF"/>
<stop offset="0.927083" stop-color="white"/>
</linearGradient>
<linearGradient id="paint21_linear_1386_16833" x1="384.464" y1="97.9381" x2="459.426" y2="98.8467" gradientUnits="userSpaceOnUse">
<stop stop-color="#9A9A9C"/>
<stop offset="0.255208" stop-color="#8869C0"/>
<stop offset="0.484375" stop-color="#3FC2EA"/>
<stop offset="0.666667" stop-color="#C2FFFF"/>
<stop offset="0.927083" stop-color="white"/>
</linearGradient>
<linearGradient id="paint22_linear_1386_16833" x1="404.388" y1="98" x2="480.511" y2="98.9365" gradientUnits="userSpaceOnUse">
<stop stop-color="#9A9A9C"/>
<stop offset="0.255208" stop-color="#8869C0"/>
<stop offset="0.484375" stop-color="#3FC2EA"/>
<stop offset="0.666667" stop-color="#C2FFFF"/>
<stop offset="0.927083" stop-color="white"/>
</linearGradient>
<linearGradient id="paint23_linear_1386_16833" x1="424.885" y1="97.969" x2="501.984" y2="98.9299" gradientUnits="userSpaceOnUse">
<stop stop-color="#9A9A9C"/>
<stop offset="0.255208" stop-color="#8869C0"/>
<stop offset="0.484375" stop-color="#3FC2EA"/>
<stop offset="0.666667" stop-color="#C2FFFF"/>
<stop offset="0.927083" stop-color="white"/>
</linearGradient>
<linearGradient id="paint24_linear_1386_16833" x1="444.767" y1="97.969" x2="523.412" y2="98.9688" gradientUnits="userSpaceOnUse">
<stop stop-color="#9A9A9C"/>
<stop offset="0.255208" stop-color="#8869C0"/>
<stop offset="0.484375" stop-color="#3FC2EA"/>
<stop offset="0.666667" stop-color="#C2FFFF"/>
<stop offset="0.927083" stop-color="white"/>
</linearGradient>
<linearGradient id="paint25_linear_1386_16833" x1="464.939" y1="98" x2="544.942" y2="99.0344" gradientUnits="userSpaceOnUse">
<stop stop-color="#9A9A9C"/>
<stop offset="0.255208" stop-color="#8869C0"/>
<stop offset="0.484375" stop-color="#3FC2EA"/>
<stop offset="0.666667" stop-color="#C2FFFF"/>
<stop offset="0.927083" stop-color="white"/>
</linearGradient>
<linearGradient id="paint26_linear_1386_16833" x1="484.687" y1="98" x2="566.512" y2="99.082" gradientUnits="userSpaceOnUse">
<stop stop-color="#9A9A9C"/>
<stop offset="0.255208" stop-color="#8869C0"/>
<stop offset="0.484375" stop-color="#3FC2EA"/>
<stop offset="0.666667" stop-color="#C2FFFF"/>
<stop offset="0.927083" stop-color="white"/>
</linearGradient>
<linearGradient id="paint27_linear_1386_16833" x1="504.694" y1="98" x2="588.173" y2="99.1262" gradientUnits="userSpaceOnUse">
<stop stop-color="#9A9A9C"/>
<stop offset="0.255208" stop-color="#8869C0"/>
<stop offset="0.484375" stop-color="#3FC2EA"/>
<stop offset="0.666667" stop-color="#C2FFFF"/>
<stop offset="0.927083" stop-color="white"/>
</linearGradient>
</defs>
</svg>
