<svg width="36" height="37" viewBox="0 0 36 37" fill="none" xmlns="http://www.w3.org/2000/svg">
<rect x="0.5" y="1.32227" width="35" height="35" rx="17.5" fill="#303030"/>
<g clip-path="url(#clip0_1386_18719)">
<g filter="url(#filter0_d_1386_18719)">
<path fill-rule="evenodd" clip-rule="evenodd" d="M16.2336 9.54386C16.2336 10.1204 15.7703 10.5878 15.1989 10.5878C14.6275 10.5878 14.1643 10.1204 14.1643 9.54386C14.1643 8.96736 14.6275 8.5 15.1989 8.5C15.7703 8.5 16.2336 8.96736 16.2336 9.54386ZM19.0215 10.6036C19.5929 10.6036 20.0561 10.1363 20.0561 9.55975C20.0561 8.98324 19.5929 8.51589 19.0215 8.51589C18.45 8.51589 17.9869 8.98324 17.9869 9.55975C17.9869 10.1363 18.45 10.6036 19.0215 10.6036ZM24.173 11.2462C24.173 11.8228 23.7097 12.29 23.1383 12.29C22.567 12.29 22.1037 11.8228 22.1037 11.2462C22.1037 10.6697 22.567 10.2024 23.1383 10.2024C23.7097 10.2024 24.173 10.6697 24.173 11.2462ZM21.9031 12.0055C21.9031 12.4755 21.5254 12.8565 21.0596 12.8565C20.5939 12.8565 20.2163 12.4755 20.2163 12.0055C20.2163 11.5356 20.5939 11.1546 21.0596 11.1546C21.5254 11.1546 21.9031 11.5356 21.9031 12.0055ZM14.3491 19.8481C14.5984 19.8481 14.8006 19.6441 14.8006 19.3925C14.8006 19.1409 14.5984 18.937 14.3491 18.937C14.0998 18.937 13.8977 19.1409 13.8977 19.3925C13.8977 19.6441 14.0998 19.8481 14.3491 19.8481ZM13.9744 20.5136C14.2426 20.5199 14.4551 20.7445 14.4487 21.0152C14.4425 21.2859 14.2198 21.5002 13.9515 21.4938C13.6832 21.4874 13.4708 21.2629 13.4771 20.9922C13.4834 20.7214 13.706 20.5072 13.9744 20.5136ZM14.1959 17.5766C14.4919 17.5766 14.7319 17.3344 14.7319 17.0356C14.7319 16.7368 14.4919 16.4947 14.1959 16.4947C13.8997 16.4947 13.6597 16.7368 13.6597 17.0356C13.6597 17.3344 13.8997 17.5766 14.1959 17.5766ZM14.5809 15.5424C14.5809 15.897 14.296 16.1845 13.9445 16.1845C13.593 16.1845 13.308 15.897 13.308 15.5424C13.308 15.1878 13.593 14.9003 13.9445 14.9003C14.296 14.9003 14.5809 15.1878 14.5809 15.5424ZM14.7696 18.725C15.0189 18.725 15.2211 18.521 15.2211 18.2694C15.2211 18.0179 15.0189 17.814 14.7696 17.814C14.5202 17.814 14.3181 18.0179 14.3181 18.2694C14.3181 18.521 14.5202 18.725 14.7696 18.725ZM15.9387 19.1363C15.9387 19.3442 15.7716 19.5127 15.5657 19.5127C15.3596 19.5127 15.1925 19.3442 15.1925 19.1363C15.1925 18.9284 15.3596 18.7599 15.5657 18.7599C15.7716 18.7599 15.9387 18.9284 15.9387 19.1363ZM15.4337 20.4049C15.6398 20.4049 15.8069 20.2364 15.8069 20.0284C15.8069 19.8206 15.6398 19.6521 15.4337 19.6521C15.2276 19.6521 15.0606 19.8206 15.0606 20.0284C15.0606 20.2364 15.2276 20.4049 15.4337 20.4049ZM16.0419 17.0294C16.0419 17.2809 15.8399 17.4849 15.5905 17.4849C15.3412 17.4849 15.139 17.2809 15.139 17.0294C15.139 16.7778 15.3412 16.5738 15.5905 16.5738C15.8399 16.5738 16.0419 16.7778 16.0419 17.0294ZM15.8953 18.4023C16.1013 18.4023 16.2684 18.2338 16.2684 18.0259C16.2684 17.818 16.1013 17.6495 15.8953 17.6495C15.6893 17.6495 15.5222 17.818 15.5222 18.0259C15.5222 18.2338 15.6893 18.4023 15.8953 18.4023ZM16.7011 20.427C16.7011 20.5999 16.5622 20.7401 16.3907 20.7401C16.2193 20.7401 16.0803 20.5999 16.0803 20.427C16.0803 20.254 16.2193 20.1139 16.3907 20.1139C16.5622 20.1139 16.7011 20.254 16.7011 20.427ZM16.626 21.246C16.63 21.0731 16.4943 20.9297 16.323 20.9257C16.1516 20.9216 16.0095 21.0585 16.0054 21.2314C16.0014 21.4043 16.1371 21.5477 16.3084 21.5517C16.4799 21.5559 16.6219 21.419 16.626 21.246ZM16.7632 19.6899C16.7632 19.8629 16.6243 20.003 16.4528 20.003C16.2814 20.003 16.1424 19.8629 16.1424 19.6899C16.1424 19.5169 16.2814 19.3767 16.4528 19.3767C16.6243 19.3767 16.7632 19.5169 16.7632 19.6899ZM16.5569 19.1552C16.7284 19.1552 16.8673 19.0151 16.8673 18.8421C16.8673 18.6692 16.7284 18.5289 16.5569 18.5289C16.3856 18.5289 16.2465 18.6692 16.2465 18.8421C16.2465 19.0151 16.3856 19.1552 16.5569 19.1552ZM16.9897 18.0101C16.9897 18.183 16.8507 18.3232 16.6793 18.3232C16.5079 18.3232 16.3689 18.183 16.3689 18.0101C16.3689 17.8371 16.5079 17.6969 16.6793 17.6969C16.8507 17.6969 16.9897 17.8371 16.9897 18.0101ZM16.7382 17.4057C16.9443 17.4057 17.1113 17.2372 17.1113 17.0294C17.1113 16.8214 16.9443 16.6529 16.7382 16.6529C16.5321 16.6529 16.365 16.8214 16.365 17.0294C16.365 17.2372 16.5321 17.4057 16.7382 17.4057ZM18.8832 13.8309C18.8832 14.1855 18.5983 14.473 18.2468 14.473C17.8953 14.473 17.6103 14.1855 17.6103 13.8309C17.6103 13.4762 17.8953 13.1887 18.2468 13.1887C18.5983 13.1887 18.8832 13.4762 18.8832 13.8309ZM17.3628 15.3683C17.6589 15.3683 17.899 15.1262 17.899 14.8275C17.899 14.5287 17.6589 14.2865 17.3628 14.2865C17.0667 14.2865 16.8267 14.5287 16.8267 14.8275C16.8267 15.1262 17.0667 15.3683 17.3628 15.3683ZM17.378 15.9379C17.378 16.1895 17.1758 16.3934 16.9264 16.3934C16.6771 16.3934 16.4749 16.1895 16.4749 15.9379C16.4749 15.6864 16.6771 15.4825 16.9264 15.4825C17.1758 15.4825 17.378 15.6864 17.378 15.9379ZM15.8386 15.0267C16.1901 15.0267 16.4751 14.7392 16.4751 14.3845C16.4751 14.0299 16.1901 13.7424 15.8386 13.7424C15.4871 13.7424 15.2021 14.0299 15.2021 14.3845C15.2021 14.7392 15.4871 15.0267 15.8386 15.0267ZM16.0584 15.7512C16.0584 16.05 15.8184 16.2921 15.5222 16.2921C15.2262 16.2921 14.9862 16.05 14.9862 15.7512C14.9862 15.4524 15.2262 15.2102 15.5222 15.2102C15.8184 15.2102 16.0584 15.4524 16.0584 15.7512ZM15.6462 21.2097C15.6513 20.988 15.4772 20.804 15.2574 20.7988C15.0375 20.7936 14.8552 20.9693 14.8501 21.1911C14.845 21.4129 15.019 21.5968 15.2389 21.602C15.4588 21.6072 15.6411 21.4316 15.6462 21.2097ZM20.1879 12.8502C20.1879 13.252 19.8649 13.5777 19.4668 13.5777C19.0685 13.5777 18.7456 13.252 18.7456 12.8502C18.7456 12.4484 19.0685 12.1227 19.4668 12.1227C19.8649 12.1227 20.1879 12.4484 20.1879 12.8502ZM18.372 11.3221C18.372 11.7921 17.9944 12.1731 17.5286 12.1731C17.0629 12.1731 16.6852 11.7921 16.6852 11.3221C16.6852 10.8522 17.0629 10.4712 17.5286 10.4712C17.9944 10.4712 18.372 10.8522 18.372 11.3221ZM16.5004 13.6505C16.8987 13.6505 17.2215 13.3248 17.2215 12.923C17.2215 12.5212 16.8987 12.1955 16.5004 12.1955C16.1021 12.1955 15.7793 12.5212 15.7793 12.923C15.7793 13.3248 16.1021 13.6505 16.5004 13.6505ZM14.4247 12.7141C14.8905 12.7141 15.2681 12.3331 15.2681 11.8632C15.2681 11.3932 14.8905 11.0122 14.4247 11.0122C13.9589 11.0122 13.5813 11.3932 13.5813 11.8632C13.5813 12.3331 13.9589 12.7141 14.4247 12.7141ZM14.7407 13.8626C14.7407 14.2644 14.4178 14.5901 14.0196 14.5901C13.6213 14.5901 13.2984 14.2644 13.2984 13.8626C13.2984 13.4607 13.6213 13.1351 14.0196 13.1351C14.4178 13.1351 14.7407 13.4607 14.7407 13.8626ZM13.2889 18.9653C13.585 18.9653 13.825 18.7231 13.825 18.4245C13.825 18.1257 13.585 17.8835 13.2889 17.8835C12.9928 17.8835 12.7528 18.1257 12.7528 18.4245C12.7528 18.7231 12.9928 18.9653 13.2889 18.9653ZM13.0538 17.0674C13.0538 17.422 12.7689 17.7094 12.4174 17.7094C12.0658 17.7094 11.7809 17.422 11.7809 17.0674C11.7809 16.7126 12.0658 16.4252 12.4174 16.4252C12.7689 16.4252 13.0538 16.7126 13.0538 17.0674ZM11.878 16.0643C12.2762 16.0643 12.5991 15.7386 12.5991 15.3368C12.5991 14.935 12.2762 14.6093 11.878 14.6093C11.4797 14.6093 11.1569 14.935 11.1569 15.3368C11.1569 15.7386 11.4797 16.0643 11.878 16.0643ZM12.6139 19.8339C12.9289 19.8412 13.1784 20.1049 13.1711 20.4227C13.1638 20.7406 12.9024 20.9923 12.5874 20.9849C12.2723 20.9776 12.0229 20.7139 12.0302 20.396C12.0375 20.0782 12.2988 19.8265 12.6139 19.8339ZM12.117 11.6415C12.6884 11.6415 13.1516 11.1742 13.1516 10.5977C13.1516 10.0212 12.6884 9.55383 12.117 9.55383C11.5456 9.55383 11.0823 10.0212 11.0823 10.5977C11.0823 11.1742 11.5456 11.6415 12.117 11.6415ZM12.5837 13.2013C12.5837 13.6713 12.2061 14.0522 11.7403 14.0522C11.2745 14.0522 10.8969 13.6713 10.8969 13.2013C10.8969 12.7313 11.2745 12.3504 11.7403 12.3504C12.2061 12.3504 12.5837 12.7313 12.5837 13.2013ZM10.2435 12.9467C10.2561 12.4052 9.83127 11.9561 9.29464 11.9434C8.75802 11.9307 8.31282 12.3593 8.30026 12.9008C8.2877 13.4421 8.71254 13.8913 9.24916 13.904C9.78578 13.9166 10.231 13.488 10.2435 12.9467ZM9.68172 14.8034C10.1266 14.8139 10.4788 15.1863 10.4684 15.6351C10.458 16.0839 10.0889 16.4393 9.64402 16.4288C9.19915 16.4183 8.84694 16.0459 8.85735 15.5971C8.86777 15.1482 9.23685 14.7929 9.68172 14.8034ZM11.0888 17.7549C11.098 17.355 10.7842 17.0233 10.3878 17.0139C9.9914 17.0045 9.66253 17.3211 9.65325 17.7211C9.64397 18.121 9.9578 18.4528 10.3542 18.4622C10.7506 18.4716 11.0795 18.1549 11.0888 17.7549ZM11.3708 18.6532C11.7257 18.6616 12.0066 18.9586 11.9983 19.3166C11.99 19.6747 11.6956 19.9582 11.3407 19.9497C10.9859 19.9413 10.7049 19.6443 10.7132 19.2863C10.7215 18.9283 11.0159 18.6448 11.3708 18.6532ZM14.9037 29.4841C15.4751 29.4841 15.9382 29.0168 15.9382 28.4403C15.9382 27.8638 15.4751 27.3964 14.9037 27.3964C14.3322 27.3964 13.869 27.8638 13.869 28.4403C13.869 29.0168 14.3322 29.4841 14.9037 29.4841ZM22.5795 18.0514C22.9343 18.0598 23.2153 18.3568 23.207 18.7149C23.1986 19.0729 22.9043 19.3563 22.5493 19.3479C22.1945 19.3395 21.9136 19.0425 21.9219 18.6845C21.9302 18.3265 22.2246 18.043 22.5795 18.0514ZM21.5073 21.5784C21.8588 21.5784 22.1438 21.2909 22.1438 20.9363C22.1438 20.5817 21.8588 20.2942 21.5073 20.2942C21.1558 20.2942 20.8709 20.5817 20.8709 20.9363C20.8709 21.2909 21.1558 21.5784 21.5073 21.5784ZM21.3334 17.0166C21.6484 17.024 21.8978 17.2876 21.8905 17.6056C21.883 17.9234 21.6216 18.175 21.3066 18.1676C20.9915 18.1601 20.7421 17.8965 20.7495 17.5786C20.7569 17.2607 21.0183 17.0091 21.3334 17.0166ZM22.0469 23.3944C22.4452 23.3944 22.768 23.0686 22.768 22.6668C22.768 22.265 22.4452 21.9393 22.0469 21.9393C21.6486 21.9393 21.3258 22.265 21.3258 22.6668C21.3258 23.0686 21.6486 23.3944 22.0469 23.3944ZM20.2661 20.968C20.2661 21.2668 20.026 21.5089 19.7299 21.5089C19.4339 21.5089 19.1938 21.2668 19.1938 20.968C19.1938 20.6693 19.4339 20.4271 19.7299 20.4271C20.026 20.4271 20.2661 20.6693 20.2661 20.968ZM19.9803 23.1034C20.3318 23.1034 20.6167 22.8159 20.6167 22.4612C20.6167 22.1066 20.3318 21.8191 19.9803 21.8191C19.6288 21.8191 19.3438 22.1066 19.3438 22.4612C19.3438 22.8159 19.6288 23.1034 19.9803 23.1034ZM17.5566 20.9744C17.5566 21.1822 17.3895 21.3507 17.1836 21.3507C16.9775 21.3507 16.8104 21.1822 16.8104 20.9744C16.8104 20.7664 16.9775 20.5979 17.1836 20.5979C17.3895 20.5979 17.5566 20.7664 17.5566 20.9744ZM17.246 20.3068C17.4174 20.3068 17.5564 20.1665 17.5564 19.9936C17.5564 19.8207 17.4174 19.6805 17.246 19.6805C17.0746 19.6805 16.9355 19.8207 16.9355 19.9936C16.9355 20.1665 17.0746 20.3068 17.246 20.3068ZM17.6759 19.1613C17.6759 19.3343 17.5369 19.4745 17.3655 19.4745C17.194 19.4745 17.0551 19.3343 17.0551 19.1613C17.0551 18.9883 17.194 18.8481 17.3655 18.8481C17.5369 18.8481 17.6759 18.9883 17.6759 19.1613ZM17.5346 17.8897C17.706 17.8897 17.8449 17.7495 17.8449 17.5766C17.8449 17.4036 17.706 17.2634 17.5346 17.2634C17.3632 17.2634 17.2242 17.4036 17.2242 17.5766C17.2242 17.7495 17.3632 17.8897 17.5346 17.8897ZM17.616 16.4537C17.7873 16.4578 17.9229 16.6012 17.9189 16.7741C17.9149 16.947 17.7727 17.0838 17.6014 17.0798C17.43 17.0758 17.2944 16.9324 17.2984 16.7594C17.3024 16.5865 17.4445 16.4496 17.616 16.4537ZM17.4715 18.6267C17.643 18.6267 17.7819 18.4865 17.7819 18.3135C17.7819 18.1406 17.643 18.0004 17.4715 18.0004C17.3001 18.0004 17.1611 18.1406 17.1611 18.3135C17.1611 18.4865 17.3001 18.6267 17.4715 18.6267ZM18.3966 19.9715C18.3966 20.1794 18.2295 20.3479 18.0236 20.3479C17.8175 20.3479 17.6504 20.1794 17.6504 19.9715C17.6504 19.7636 17.8175 19.5951 18.0236 19.5951C18.2295 19.5951 18.3966 19.7636 18.3966 19.9715ZM18.3313 21.4298C18.5806 21.4298 18.7827 21.2258 18.7827 20.9743C18.7827 20.7228 18.5806 20.5188 18.3313 20.5188C18.082 20.5188 17.8798 20.7228 17.8798 20.9743C17.8798 21.2258 18.082 21.4298 18.3313 21.4298ZM18.732 18.8671C18.732 19.075 18.565 19.2435 18.359 19.2435C18.1529 19.2435 17.9859 19.075 17.9859 18.8671C17.9859 18.6592 18.1529 18.4907 18.359 18.4907C18.565 18.4907 18.732 18.6592 18.732 18.8671ZM18.488 18.3483C18.6941 18.3483 18.8611 18.1798 18.8611 17.9719C18.8611 17.764 18.6941 17.5955 18.488 17.5955C18.2819 17.5955 18.1149 17.764 18.1149 17.9719C18.1149 18.1798 18.2819 18.3483 18.488 18.3483ZM18.6825 16.4004C18.9024 16.4056 19.0765 16.5895 19.0713 16.8114C19.0661 17.0331 18.8838 17.2088 18.6639 17.2036C18.444 17.1983 18.27 17.0143 18.2751 16.7925C18.2803 16.5707 18.4627 16.3952 18.6825 16.4004ZM15.6751 24.8149C16.0266 24.8149 16.3116 24.5274 16.3116 24.1728C16.3116 23.8181 16.0266 23.5306 15.6751 23.5306C15.3236 23.5306 15.0387 23.8181 15.0387 24.1728C15.0387 24.5274 15.3236 24.8149 15.6751 24.8149ZM17.0991 23.1762C17.0991 23.4749 16.859 23.7171 16.5629 23.7171C16.2668 23.7171 16.0267 23.4749 16.0267 23.1762C16.0267 22.8775 16.2668 22.6353 16.5629 22.6353C16.859 22.6353 17.0991 22.8775 17.0991 23.1762ZM16.9982 22.5181C17.2475 22.5181 17.4496 22.3142 17.4496 22.0627C17.4496 21.8111 17.2475 21.6072 16.9982 21.6072C16.7487 21.6072 16.5467 21.8111 16.5467 22.0627C16.5467 22.3142 16.7487 22.5181 16.9982 22.5181ZM18.7226 23.6191C18.7226 23.9737 18.4376 24.2612 18.0861 24.2612C17.7346 24.2612 17.4497 23.9737 17.4497 23.6191C17.4497 23.2645 17.7346 22.977 18.0861 22.977C18.4376 22.977 18.7226 23.2645 18.7226 23.6191ZM18.3997 22.7934C18.6957 22.7934 18.9358 22.5512 18.9358 22.2524C18.9358 21.9538 18.6957 21.7116 18.3997 21.7116C18.1036 21.7116 17.8635 21.9538 17.8635 22.2524C17.8635 22.5512 18.1036 22.7934 18.3997 22.7934ZM19.6037 19.7343C19.6037 19.9859 19.4015 20.1898 19.1521 20.1898C18.9028 20.1898 18.7007 19.9859 18.7007 19.7343C18.7007 19.4827 18.9028 19.2788 19.1521 19.2788C19.4015 19.2788 19.6037 19.4827 19.6037 19.7343ZM19.5726 19.0665C19.8219 19.0665 20.0241 18.8625 20.0241 18.6109C20.0241 18.3593 19.8219 18.1554 19.5726 18.1554C19.3233 18.1554 19.1211 18.3593 19.1211 18.6109C19.1211 18.8625 19.3233 19.0665 19.5726 19.0665ZM19.969 16.5077C20.2374 16.514 20.4498 16.7386 20.4435 17.0094C20.4372 17.2801 20.2146 17.4944 19.9462 17.488C19.6779 17.4816 19.4656 17.257 19.4718 16.9863C19.4781 16.7156 19.7007 16.5013 19.969 16.5077ZM10.7867 27.8012C11.3581 27.8012 11.8213 27.3339 11.8213 26.7574C11.8213 26.1808 11.3581 25.7136 10.7867 25.7136C10.2153 25.7136 9.75208 26.1808 9.75208 26.7574C9.75208 27.3339 10.2153 27.8012 10.7867 27.8012ZM13.7085 25.9981C13.7085 26.468 13.3309 26.849 12.8651 26.849C12.3993 26.849 12.0217 26.468 12.0217 25.9981C12.0217 25.5282 12.3993 25.1472 12.8651 25.1472C13.3309 25.1472 13.7085 25.5282 13.7085 25.9981ZM14.4582 25.8779C14.8565 25.8779 15.1793 25.5521 15.1793 25.1503C15.1793 24.7485 14.8565 24.4227 14.4582 24.4227C14.0599 24.4227 13.7371 24.7485 13.7371 25.1503C13.7371 25.5521 14.0599 25.8779 14.4582 25.8779ZM17.2396 26.6815C17.2396 27.1514 16.862 27.5324 16.3962 27.5324C15.9304 27.5324 15.5529 27.1514 15.5529 26.6815C15.5529 26.2116 15.9304 25.8306 16.3962 25.8306C16.862 25.8306 17.2396 26.2116 17.2396 26.6815ZM17.4244 25.8081C17.8227 25.8081 18.1455 25.4825 18.1455 25.0807C18.1455 24.6788 17.8227 24.3531 17.4244 24.3531C17.0263 24.3531 16.7033 24.6788 16.7033 25.0807C16.7033 25.4825 17.0263 25.8081 17.4244 25.8081ZM19.7579 28.4562C19.7579 29.0326 19.2947 29.5 18.7233 29.5C18.1518 29.5 17.6887 29.0326 17.6887 28.4562C17.6887 27.8797 18.1518 27.4123 18.7233 27.4123C19.2947 27.4123 19.7579 27.8797 19.7579 28.4562ZM19.5011 26.9913C19.9669 26.9913 20.3444 26.6104 20.3444 26.1405C20.3444 25.6705 19.9669 25.2895 19.5011 25.2895C19.0353 25.2895 18.6577 25.6705 18.6577 26.1405C18.6577 26.6104 19.0353 26.9913 19.5011 26.9913ZM20.6264 24.141C20.6264 24.5428 20.3036 24.8686 19.9053 24.8686C19.5071 24.8686 19.1842 24.5428 19.1842 24.141C19.1842 23.7392 19.5071 23.4136 19.9053 23.4136C20.3036 23.4136 20.6264 23.7392 20.6264 24.141ZM20.633 20.1166C20.9291 20.1166 21.1692 19.8744 21.1692 19.5757C21.1692 19.2769 20.9291 19.0348 20.633 19.0348C20.3369 19.0348 20.0969 19.2769 20.0969 19.5757C20.0969 19.8744 20.3369 20.1166 20.633 20.1166ZM22.8427 27.4059C22.8427 27.9824 22.3795 28.4498 21.8081 28.4498C21.2367 28.4498 20.7735 27.9824 20.7735 27.4059C20.7735 26.8294 21.2367 26.3621 21.8081 26.3621C22.3795 26.3621 22.8427 26.8294 22.8427 27.4059ZM22.1816 25.6532C22.6474 25.6532 23.025 25.2722 23.025 24.8023C23.025 24.3324 22.6474 23.9514 22.1816 23.9514C21.7158 23.9514 21.3382 24.3324 21.3382 24.8023C21.3382 25.2722 21.7158 25.6532 22.1816 25.6532ZM23.5661 19.5402C23.9625 19.5496 24.2763 19.8813 24.267 20.2813C24.2577 20.6812 23.9288 20.9979 23.5324 20.9885C23.1361 20.9792 22.8221 20.6474 22.8314 20.2474C22.8407 19.8475 23.1696 19.5308 23.5661 19.5402ZM25.0639 22.4053C25.0742 21.9564 24.722 21.5841 24.2772 21.5736C23.8322 21.563 23.4632 21.9184 23.4527 22.3672C23.4424 22.8161 23.7946 23.1884 24.2394 23.199C24.6843 23.2095 25.0534 22.8542 25.0639 22.4053ZM24.6745 24.0978C25.2111 24.1105 25.6359 24.5596 25.6235 25.101C25.611 25.6424 25.1658 26.071 24.6292 26.0584C24.0925 26.0458 23.6677 25.5967 23.6802 25.0553C23.6927 24.5139 24.1378 24.0852 24.6745 24.0978Z" fill="white"/>
</g>
</g>
<rect x="0.5" y="1.32227" width="35" height="35" rx="17.5" stroke="#272727"/>
<defs>
<filter id="filter0_d_1386_18719" x="4.29999" y="4.5" width="25.3238" height="29" filterUnits="userSpaceOnUse" color-interpolation-filters="sRGB">
<feFlood flood-opacity="0" result="BackgroundImageFix"/>
<feColorMatrix in="SourceAlpha" type="matrix" values="0 0 0 0 0 0 0 0 0 0 0 0 0 0 0 0 0 0 127 0" result="hardAlpha"/>
<feOffset/>
<feGaussianBlur stdDeviation="2"/>
<feComposite in2="hardAlpha" operator="out"/>
<feColorMatrix type="matrix" values="0 0 0 0 0.995833 0 0 0 0 0.995833 0 0 0 0 0.995833 0 0 0 0.25 0"/>
<feBlend mode="normal" in2="BackgroundImageFix" result="effect1_dropShadow_1386_18719"/>
<feBlend mode="normal" in="SourceGraphic" in2="effect1_dropShadow_1386_18719" result="shape"/>
</filter>
<clipPath id="clip0_1386_18719">
<rect width="24" height="24" fill="white" transform="translate(5 7)"/>
</clipPath>
</defs>
</svg>
