<svg width="36" height="37" viewBox="0 0 36 37" fill="none" xmlns="http://www.w3.org/2000/svg">
<rect x="0.5" y="1.32227" width="35" height="35" rx="17.5" fill="#303030"/>
<g clip-path="url(#clip0_1386_18691)">
<g filter="url(#filter0_d_1386_18691)">
<path fill-rule="evenodd" clip-rule="evenodd" d="M7 18.8227L18.0039 7.82227L29 18.8255L18.0039 29.8223L7 18.8227V18.8227ZM24.5017 15.521C24.0445 16.0318 23.0476 17.3182 23.0476 18.8227C23.0476 20.3272 24.0445 21.6135 24.5017 22.1243C21.5648 21.9689 19.2166 18.8227 19.2166 18.8227C19.2166 18.8227 21.5648 15.6764 24.5017 15.521V15.521ZM11.5142 15.521C14.4511 15.6764 16.7993 18.8227 16.7993 18.8227C16.7993 18.8227 14.4511 21.9689 11.5142 22.1243C11.9714 21.6135 12.9682 20.3272 12.9682 18.8227C12.9682 17.3182 11.9714 16.0318 11.5142 15.521V15.521ZM11.0489 15.5404C10.5842 16.0634 9.6117 17.3366 9.6117 18.8227C9.6117 20.3145 10.5919 21.5919 11.0543 22.111L13.4332 24.4917L13.4443 24.4808C14.3967 23.5495 15.9798 22.3256 17.7846 22.2324C17.3302 22.739 16.3282 24.027 16.3282 25.5343C16.3282 27.0416 17.3302 28.3297 17.7846 28.8363L18.0039 29.066L18.2231 28.8363C18.6775 28.3297 19.6795 27.0416 19.6795 25.5343C19.6795 24.027 18.6775 22.739 18.2231 22.2324C20.035 22.326 21.6234 23.5591 22.5746 24.4917L25.0095 22.0548L25.0152 22.0484C25.4966 21.4951 26.4042 20.2582 26.4042 18.8227C26.4042 17.3815 25.4895 16.1405 25.0095 15.5905L22.5859 13.1649L22.5747 13.1759C21.6234 14.1084 20.0349 15.3415 18.2231 15.4351C18.6775 14.9285 19.6795 13.6405 19.6795 12.1332C19.6795 10.6258 18.6775 9.33781 18.2231 8.83123L18.0039 8.57929L17.7846 8.83123C17.3302 9.33781 16.3282 10.6258 16.3282 12.1332C16.3282 13.6405 17.3302 14.9285 17.7846 15.4351C15.9657 15.3412 14.3719 14.0987 13.4218 13.1649L11.0489 15.5404V15.5404Z" fill="white"/>
</g>
</g>
<rect x="0.5" y="1.32227" width="35" height="35" rx="17.5" stroke="#272727"/>
<defs>
<filter id="filter0_d_1386_18691" x="3" y="3.82227" width="30" height="30" filterUnits="userSpaceOnUse" color-interpolation-filters="sRGB">
<feFlood flood-opacity="0" result="BackgroundImageFix"/>
<feColorMatrix in="SourceAlpha" type="matrix" values="0 0 0 0 0 0 0 0 0 0 0 0 0 0 0 0 0 0 127 0" result="hardAlpha"/>
<feOffset/>
<feGaussianBlur stdDeviation="2"/>
<feComposite in2="hardAlpha" operator="out"/>
<feColorMatrix type="matrix" values="0 0 0 0 1 0 0 0 0 1 0 0 0 0 1 0 0 0 0.25 0"/>
<feBlend mode="normal" in2="BackgroundImageFix" result="effect1_dropShadow_1386_18691"/>
<feBlend mode="normal" in="SourceGraphic" in2="effect1_dropShadow_1386_18691" result="shape"/>
</filter>
<clipPath id="clip0_1386_18691">
<rect width="24" height="24" fill="white" transform="translate(6 6.82227)"/>
</clipPath>
</defs>
</svg>
