<svg width="24" height="25" viewBox="0 0 24 25" fill="none" xmlns="http://www.w3.org/2000/svg">
<path d="M9 22.5H15C20 22.5 22 20.5 22 15.5V9.5C22 4.5 20 2.5 15 2.5H9C4 2.5 2 4.5 2 9.5V15.5C2 20.5 4 22.5 9 22.5Z" stroke="url(#paint0_linear_1_396)" stroke-width="1.5" stroke-linecap="round" stroke-linejoin="round"/>
<path d="M15.5703 18.9996V15.0996" stroke="url(#paint1_linear_1_396)" stroke-width="1.5" stroke-miterlimit="10" stroke-linecap="round" stroke-linejoin="round"/>
<path d="M15.5703 7.95V6" stroke="url(#paint2_linear_1_396)" stroke-width="1.5" stroke-miterlimit="10" stroke-linecap="round" stroke-linejoin="round"/>
<path d="M15.5697 13.1492C17.0057 13.1492 18.1697 11.9852 18.1697 10.5492C18.1697 9.11328 17.0057 7.94922 15.5697 7.94922C14.1338 7.94922 12.9697 9.11328 12.9697 10.5492C12.9697 11.9852 14.1338 13.1492 15.5697 13.1492Z" stroke="url(#paint3_linear_1_396)" stroke-width="1.5" stroke-miterlimit="10" stroke-linecap="round" stroke-linejoin="round"/>
<path d="M8.42969 19.0008V17.0508" stroke="url(#paint4_linear_1_396)" stroke-width="1.5" stroke-miterlimit="10" stroke-linecap="round" stroke-linejoin="round"/>
<path d="M8.42969 9.9V6" stroke="url(#paint5_linear_1_396)" stroke-width="1.5" stroke-miterlimit="10" stroke-linecap="round" stroke-linejoin="round"/>
<path d="M8.43008 17.0496C9.86602 17.0496 11.0301 15.8855 11.0301 14.4496C11.0301 13.0137 9.86602 11.8496 8.43008 11.8496C6.99414 11.8496 5.83008 13.0137 5.83008 14.4496C5.83008 15.8855 6.99414 17.0496 8.43008 17.0496Z" stroke="url(#paint6_linear_1_396)" stroke-width="1.5" stroke-miterlimit="10" stroke-linecap="round" stroke-linejoin="round"/>
<defs>
<linearGradient id="paint0_linear_1_396" x1="2.26144" y1="4.3421" x2="23.7035" y2="5.55012" gradientUnits="userSpaceOnUse">
<stop stop-color="#00D1FF"/>
<stop offset="1" stop-color="#3AB8FF"/>
</linearGradient>
<linearGradient id="paint1_linear_1_396" x1="15.5834" y1="15.4588" x2="16.6587" y2="15.4744" gradientUnits="userSpaceOnUse">
<stop stop-color="#00D1FF"/>
<stop offset="1" stop-color="#3AB8FF"/>
</linearGradient>
<linearGradient id="paint2_linear_1_396" x1="15.5834" y1="6.1796" x2="16.658" y2="6.21065" gradientUnits="userSpaceOnUse">
<stop stop-color="#00D1FF"/>
<stop offset="1" stop-color="#3AB8FF"/>
</linearGradient>
<linearGradient id="paint3_linear_1_396" x1="13.0377" y1="8.42817" x2="18.6126" y2="8.74225" gradientUnits="userSpaceOnUse">
<stop stop-color="#00D1FF"/>
<stop offset="1" stop-color="#3AB8FF"/>
</linearGradient>
<linearGradient id="paint4_linear_1_396" x1="8.44276" y1="17.2304" x2="9.51737" y2="17.2614" gradientUnits="userSpaceOnUse">
<stop stop-color="#00D1FF"/>
<stop offset="1" stop-color="#3AB8FF"/>
</linearGradient>
<linearGradient id="paint5_linear_1_396" x1="8.44276" y1="6.35921" x2="9.51804" y2="6.37474" gradientUnits="userSpaceOnUse">
<stop stop-color="#00D1FF"/>
<stop offset="1" stop-color="#3AB8FF"/>
</linearGradient>
<linearGradient id="paint6_linear_1_396" x1="5.89805" y1="12.3286" x2="11.473" y2="12.6426" gradientUnits="userSpaceOnUse">
<stop stop-color="#00D1FF"/>
<stop offset="1" stop-color="#3AB8FF"/>
</linearGradient>
</defs>
</svg>
