<svg width="16" height="16" viewBox="0 0 16 16" fill="none" xmlns="http://www.w3.org/2000/svg">
<path d="M8.00004 1.33301C4.32671 1.33301 1.33337 4.32634 1.33337 7.99967C1.33337 11.673 4.32671 14.6663 8.00004 14.6663C11.6734 14.6663 14.6667 11.673 14.6667 7.99967C14.6667 4.32634 11.6734 1.33301 8.00004 1.33301ZM7.50004 5.33301C7.50004 5.05967 7.72671 4.83301 8.00004 4.83301C8.27337 4.83301 8.50004 5.05967 8.50004 5.33301V8.66634C8.50004 8.93967 8.27337 9.16634 8.00004 9.16634C7.72671 9.16634 7.50004 8.93967 7.50004 8.66634V5.33301ZM8.61337 10.9197C8.58004 11.0063 8.53337 11.073 8.47337 11.1397C8.40671 11.1997 8.33337 11.2463 8.25337 11.2797C8.17337 11.313 8.08671 11.333 8.00004 11.333C7.91337 11.333 7.82671 11.313 7.74671 11.2797C7.66671 11.2463 7.59337 11.1997 7.52671 11.1397C7.46671 11.073 7.42004 11.0063 7.38671 10.9197C7.35337 10.8397 7.33337 10.753 7.33337 10.6663C7.33337 10.5797 7.35337 10.493 7.38671 10.413C7.42004 10.333 7.46671 10.2597 7.52671 10.193C7.59337 10.133 7.66671 10.0863 7.74671 10.053C7.90671 9.98634 8.09337 9.98634 8.25337 10.053C8.33337 10.0863 8.40671 10.133 8.47337 10.193C8.53337 10.2597 8.58004 10.333 8.61337 10.413C8.64671 10.493 8.66671 10.5797 8.66671 10.6663C8.66671 10.753 8.64671 10.8397 8.61337 10.9197Z" fill="#6568FF"/>
</svg>
