<svg width="16" height="16" viewBox="0 0 16 16" fill="none" xmlns="http://www.w3.org/2000/svg">
<path d="M10.794 1.33398H5.20732C2.78065 1.33398 1.33398 2.78065 1.33398 5.20732V10.7873C1.33398 13.2207 2.78065 14.6673 5.20732 14.6673H10.7873C13.214 14.6673 14.6607 13.2207 14.6607 10.794V5.20732C14.6673 2.78065 13.2207 1.33398 10.794 1.33398ZM11.214 7.21398C11.0207 7.40732 10.7007 7.40732 10.5073 7.21398L8.50065 5.20732V12.0007C8.50065 12.274 8.27398 12.5007 8.00065 12.5007C7.72732 12.5007 7.50065 12.274 7.50065 12.0007V5.20732L5.49398 7.21398C5.30065 7.40732 4.98065 7.40732 4.78732 7.21398C4.68732 7.11398 4.64065 6.98732 4.64065 6.86065C4.64065 6.73398 4.69398 6.60065 4.78732 6.50732L7.64732 3.64732C7.74065 3.55398 7.86732 3.50065 8.00065 3.50065C8.13398 3.50065 8.26065 3.55398 8.35398 3.64732L11.214 6.50732C11.4073 6.70065 11.4073 7.01398 11.214 7.21398Z" fill="white"/>
</svg>
