<svg width="14" height="14" viewBox="0 0 14 14" fill="none" xmlns="http://www.w3.org/2000/svg">
<path d="M1.26731 8.13223L1.96342 7.96895L1.26731 8.13223ZM1.26731 4.66397L1.96342 4.82725L1.26731 4.66397ZM11.1016 4.66397L11.7977 4.50069V4.50069L11.1016 4.66397ZM11.1016 8.13223L11.7977 8.29551L11.1016 8.13223ZM7.91861 11.3153L7.75532 10.6192L7.91861 11.3153ZM4.45035 11.3153L4.28707 12.0114L4.45035 11.3153ZM4.45035 1.48094L4.28706 0.78483L4.45035 1.48094ZM7.91861 1.48094L8.08189 0.78483L7.91861 1.48094ZM12.0011 13.2259C12.2803 13.5051 12.733 13.5051 13.0122 13.2259C13.2915 12.9466 13.2915 12.4939 13.0122 12.2147L12.0011 13.2259ZM1.96342 7.96895C1.72106 6.93574 1.72106 5.86046 1.96342 4.82725L0.571208 4.50069C0.278465 5.74869 0.278465 7.04751 0.571208 8.29552L1.96342 7.96895ZM10.4055 4.82726C10.6479 5.86046 10.6479 6.93574 10.4055 7.96894L11.7977 8.29551C12.0905 7.04751 12.0905 5.74869 11.7977 4.50069L10.4055 4.82726ZM7.75532 10.6192C6.72211 10.8615 5.64684 10.8615 4.61363 10.6192L4.28707 12.0114C5.53507 12.3041 6.83389 12.3041 8.08189 12.0114L7.75532 10.6192ZM4.61363 2.17704C5.64684 1.93468 6.72212 1.93468 7.75532 2.17704L8.08189 0.78483C6.83389 0.492088 5.53507 0.492088 4.28706 0.78483L4.61363 2.17704ZM4.61363 10.6192C3.29864 10.3107 2.27188 9.28394 1.96342 7.96895L0.571208 8.29552C1.00369 10.1393 2.44331 11.5789 4.28707 12.0114L4.61363 10.6192ZM8.08189 12.0114C9.92564 11.5789 11.3653 10.1393 11.7977 8.29551L10.4055 7.96894C10.0971 9.28394 9.07032 10.3107 7.75532 10.6192L8.08189 12.0114ZM7.75532 2.17704C9.07032 2.4855 10.0971 3.51226 10.4055 4.82726L11.7977 4.50069C11.3653 2.65694 9.92565 1.21732 8.08189 0.78483L7.75532 2.17704ZM4.28706 0.78483C2.44331 1.21732 1.00369 2.65693 0.571208 4.50069L1.96342 4.82725C2.27188 3.51226 3.29864 2.4855 4.61363 2.17704L4.28706 0.78483ZM9.67185 10.8966L12.0011 13.2259L13.0122 12.2147L10.683 9.88547L9.67185 10.8966Z" fill="#4B4C56"/>
</svg>
