<svg width="16" height="15" viewBox="0 0 16 15" fill="none" xmlns="http://www.w3.org/2000/svg">
<g filter="url(#filter0_b_1386_18409)">
<path d="M12.0358 9.20462C11.8412 9.40008 11.7517 9.68276 11.7961 9.95999L12.4643 13.7913C12.5207 14.1161 12.3884 14.4447 12.126 14.6324C11.869 14.8271 11.527 14.8504 11.2466 14.6947L7.91752 12.8958C7.80176 12.832 7.67323 12.7977 7.54169 12.7938C7.40609 12.7938 7.26504 12.7936 7.14571 12.858C7.14213 12.8599 7.13858 12.8619 7.13504 12.8639L3.8052 14.6713C3.64059 14.757 3.45418 14.7873 3.27153 14.757C2.82655 14.6698 2.52964 14.2306 2.60255 13.7672L3.27153 9.93585C3.31587 9.65628 3.22643 9.37204 3.03175 9.17347L0.317514 6.4479C0.0905139 6.21974 0.0115899 5.87709 0.115319 5.56794C0.216041 5.25956 0.473107 5.0345 0.783542 4.98389L4.51928 4.42242C4.8034 4.39205 5.05295 4.21294 5.18074 3.94817L6.82686 0.451665C6.86595 0.373792 6.91631 0.302148 6.9772 0.241407L6.98406 0.235873C7.02451 0.203284 7.06099 0.165396 7.10081 0.132048C7.1418 0.0977219 7.191 0.0761028 7.24097 0.0571034L7.24779 0.0545113C7.33211 0.0185422 7.42283 0 7.5145 0H7.69202C7.97464 0.0303706 8.22344 0.205585 8.35348 0.467239L10.0214 3.94817C10.1417 4.20282 10.3754 4.37959 10.6453 4.42242L14.381 4.98389C14.6967 5.03061 14.9605 5.25644 15.065 5.56794C15.1635 5.88021 15.0786 6.22285 14.847 6.4479L12.0358 9.20462Z" fill="#585858" fill-opacity="0.5"/>
<path d="M11.7773 8.94093L11.7772 8.94091L11.7742 8.94399C11.4941 9.22522 11.3688 9.6273 11.4314 10.0183L11.4314 10.0183L11.4322 10.0234L12.1004 13.8545C12.1332 14.0432 12.0551 14.229 11.9112 14.332L11.9111 14.3319L11.9031 14.338C11.7629 14.4441 11.5787 14.4567 11.426 14.3718L11.4222 14.3698L8.09591 12.5724C8.09538 12.5721 8.09485 12.5718 8.09433 12.5716C7.92629 12.4792 7.74073 12.4302 7.55262 12.4246L7.55262 12.4245H7.54169C7.53509 12.4245 7.52808 12.4244 7.52068 12.4244C7.39925 12.424 7.17391 12.4231 6.97033 12.533L6.9703 12.533L6.95886 12.5393L3.63226 14.345C3.53989 14.3924 3.4374 14.409 3.33741 14.3935C3.10143 14.3443 2.92506 14.1024 2.96697 13.8273L3.63534 9.99937L3.63538 9.99938L3.63628 9.99371C3.69858 9.60099 3.57369 9.19871 3.29547 8.91492L3.29548 8.91491L3.29344 8.91286L0.579331 6.18743C0.452381 6.05982 0.405542 5.86398 0.465454 5.68541L0.466385 5.6826C0.525842 5.50057 0.673397 5.37681 0.841042 5.34871L4.5671 4.7887C4.97915 4.74162 5.33338 4.48159 5.51334 4.1087L5.51336 4.1087L5.51487 4.10548L7.15876 0.613741C7.17859 0.574996 7.20193 0.541538 7.22732 0.514012C7.25375 0.49206 7.27696 0.470617 7.29343 0.455384L7.29525 0.453696C7.3133 0.437003 7.32414 0.426982 7.33403 0.418494C7.3344 0.4183 7.33482 0.418082 7.33529 0.41784C7.34158 0.414636 7.35212 0.409956 7.37222 0.402314L7.24097 0.0571034L7.37222 0.402313L7.37904 0.399721L7.38593 0.397102L7.39271 0.394211C7.43121 0.377786 7.47264 0.369318 7.5145 0.369318H7.66927C7.8158 0.390672 7.94873 0.484295 8.02172 0.629546L9.68746 4.10589C9.68762 4.10622 9.68777 4.10656 9.68793 4.10689C9.85909 4.46847 10.1941 4.72476 10.5874 4.78717L10.5874 4.78719L10.5904 4.78764L14.3261 5.3491L14.3269 5.34923C14.4985 5.37462 14.651 5.49867 14.7138 5.68218C14.7694 5.86274 14.7185 6.05775 14.5896 6.18309L14.5885 6.18421L11.7773 8.94093Z" stroke="url(#paint0_linear_1386_18409)" stroke-width="0.738636"/>
</g>
<defs>
<filter id="filter0_b_1386_18409" x="-425.93" y="-426" width="867.035" height="866.797" filterUnits="userSpaceOnUse" color-interpolation-filters="sRGB">
<feFlood flood-opacity="0" result="BackgroundImageFix"/>
<feGaussianBlur in="BackgroundImageFix" stdDeviation="213"/>
<feComposite in2="SourceAlpha" operator="in" result="effect1_backgroundBlur_1386_18409"/>
<feBlend mode="normal" in="SourceGraphic" in2="effect1_backgroundBlur_1386_18409" result="shape"/>
</filter>
<linearGradient id="paint0_linear_1386_18409" x1="7.58786" y1="0" x2="7.58786" y2="14.7969" gradientUnits="userSpaceOnUse">
<stop stop-color="white" stop-opacity="0.35"/>
<stop offset="1" stop-color="white" stop-opacity="0"/>
</linearGradient>
</defs>
</svg>
