<svg width="16" height="15" viewBox="0 0 16 15" fill="none" xmlns="http://www.w3.org/2000/svg">
<path d="M11.9655 9.20462C11.7709 9.40008 11.6814 9.68276 11.7258 9.95999L12.394 13.7913C12.4504 14.1161 12.3181 14.4447 12.0557 14.6324C11.7987 14.8271 11.4567 14.8504 11.1763 14.6947L7.84721 12.8958C7.73145 12.832 7.60292 12.7977 7.47138 12.7938H7.26768C7.19702 12.8047 7.12787 12.8281 7.06473 12.8639L3.73489 14.6713C3.57028 14.757 3.38387 14.7873 3.20121 14.757C2.75623 14.6698 2.45933 14.2306 2.53224 13.7672L3.20121 9.93585C3.24556 9.65628 3.15611 9.37204 2.96144 9.17347L0.247202 6.4479C0.0202014 6.21974 -0.0587226 5.87709 0.0450061 5.56794C0.145728 5.25956 0.402795 5.0345 0.713229 4.98389L4.44896 4.42242C4.73309 4.39205 4.98264 4.21294 5.11042 3.94817L6.75655 0.451665C6.79564 0.373792 6.846 0.302148 6.90688 0.241407L6.97453 0.186896C7.00986 0.146402 7.05045 0.112916 7.09555 0.0856606L7.17748 0.0545113L7.30526 0H7.62171C7.90433 0.0303706 8.15313 0.205585 8.28317 0.467239L9.95109 3.94817C10.0714 4.20282 10.3051 4.37959 10.575 4.42242L14.3107 4.98389C14.6264 5.03061 14.8902 5.25644 14.9947 5.56794C15.0932 5.88021 15.0082 6.22285 14.7767 6.4479L11.9655 9.20462Z" fill="url(#paint0_linear_1386_18407)"/>
<defs>
<linearGradient id="paint0_linear_1386_18407" x1="7.51755" y1="0" x2="7.51755" y2="14.7969" gradientUnits="userSpaceOnUse">
<stop stop-color="#FFC52F"/>
<stop offset="1" stop-color="#FFD56A"/>
</linearGradient>
</defs>
</svg>
