<svg width="32" height="25" viewBox="0 0 32 25" fill="none" xmlns="http://www.w3.org/2000/svg">
<g filter="url(#filter0_d_1137_11928)">
<path fill-rule="evenodd" clip-rule="evenodd" d="M27.2042 6.76569C27.2042 8.29314 24.1119 9.53138 20.2974 9.53138C16.4828 9.53138 13.3905 8.29314 13.3905 6.76569C13.3905 5.23824 16.4828 4 20.2974 4C24.1119 4 27.2042 5.23824 27.2042 6.76569ZM27.36 8.35529C27.3593 8.35538 27.359 8.35393 27.359 8.3508C27.359 8.2809 27.3023 8.22424 27.2324 8.22424C27.1972 8.22424 27.1653 8.23863 27.1424 8.26185C26.3649 9.31784 23.5951 10.0989 20.2975 10.0989C18.261 10.0989 16.4259 9.80102 15.137 9.32452C15.8023 10.2825 16.2199 11.4725 16.2968 12.7592C17.434 13.0298 18.8122 13.1883 20.2975 13.1883C24.1979 13.1883 27.36 12.0956 27.36 10.7476V8.35529ZM15.8183 15.8622C16.1177 15.0618 16.2732 14.2585 16.3039 13.4803C17.4372 13.7129 18.7606 13.8465 20.1744 13.8465C23.549 13.8465 26.57 13.0854 27.6196 12.0328C27.6597 11.998 27.7122 11.9769 27.7695 11.9769C27.896 11.9769 27.9985 12.0794 27.9985 12.2058C27.9985 12.2102 27.999 12.213 27.9999 12.2144L27.9997 13.7324L28 13.7603C28 15.4351 25.1508 16.526 21.0931 16.526C19.0793 16.526 17.1354 16.3447 15.8183 15.8622ZM13.9571 18.8103C14.5397 18.2087 15.0521 17.4946 15.4651 16.6708C15.5055 16.5901 15.5444 16.5094 15.5818 16.4285C16.8663 16.9616 18.7673 17.3084 21.2262 17.2053C23.6532 17.2053 25.8142 16.6876 27.2036 15.9705V17.4302H27.2033C27.2035 17.4391 27.2036 17.4481 27.2036 17.4571C27.2036 19.41 25.1582 20.2228 20.2967 20.2228C16.5615 19.973 14.7581 19.5205 13.9571 18.8103ZM18.3843 6.01062L19.3962 7.42807L21.7006 7.45194L22.375 6.01062L21.0348 6.36796L20.3689 5.41011L19.7534 6.35542L18.3843 6.01062ZM13.0107 14.6346C14.2029 11.2853 12.9042 8.06209 10.6988 7.27708C8.49345 6.49206 5.73919 8.5708 4.547 11.9201C3.35481 15.2693 4.17615 18.6208 6.38151 19.4058C8.58688 20.1909 11.8186 17.9838 13.0107 14.6346ZM6.68707 13.6486L7.52922 11.2784L8.0061 12.7115L9.71141 11.2779L9.30669 13.6193L10.783 13.3837L8.9444 15.4351L6.68707 13.6486ZM7.92742 20.094C10.5934 20.4809 13.5199 19.1113 15.0049 16.1493C16.6429 12.8824 15.4322 9.38506 13.0457 8.08785C12.7636 7.94642 12.4697 7.8442 12.1679 7.77916C14.018 9.37764 14.7044 12.6547 13.1684 15.7182C12.0244 17.9999 9.9302 19.5998 7.92742 20.094Z" fill="#FF7FE3"/>
</g>
<defs>
<filter id="filter0_d_1137_11928" x="0" y="0" width="32" height="24.2227" filterUnits="userSpaceOnUse" color-interpolation-filters="sRGB">
<feFlood flood-opacity="0" result="BackgroundImageFix"/>
<feColorMatrix in="SourceAlpha" type="matrix" values="0 0 0 0 0 0 0 0 0 0 0 0 0 0 0 0 0 0 127 0" result="hardAlpha"/>
<feOffset/>
<feGaussianBlur stdDeviation="2"/>
<feComposite in2="hardAlpha" operator="out"/>
<feColorMatrix type="matrix" values="0 0 0 0 1 0 0 0 0 0 0 0 0 0 0.933333 0 0 0 1 0"/>
<feBlend mode="normal" in2="BackgroundImageFix" result="effect1_dropShadow_1137_11928"/>
<feBlend mode="normal" in="SourceGraphic" in2="effect1_dropShadow_1137_11928" result="shape"/>
</filter>
</defs>
</svg>
