<svg width="28" height="28" viewBox="0 0 28 28" fill="none" xmlns="http://www.w3.org/2000/svg">
<g filter="url(#filter0_d_1137_14039)">
<path d="M24 10.5C24 13.76 21.6 16.45 18.48 16.92V16.86C18.17 12.98 15.02 9.83 11.11 9.52H11.08C11.55 6.4 14.24 4 17.5 4C21.09 4 24 6.91 24 10.5Z" fill="url(#paint0_linear_1137_14039)"/>
</g>
<g filter="url(#filter1_d_1137_14039)">
<path d="M16.98 16.98C16.73 13.81 14.19 11.27 11.02 11.02C10.85 11.01 10.67 11 10.5 11C6.91 11 4 13.91 4 17.5C4 21.09 6.91 24 10.5 24C14.09 24 17 21.09 17 17.5C17 17.33 16.99 17.15 16.98 16.98ZM11.38 18.38L10.5 20L9.62 18.38L8 17.5L9.62 16.62L10.5 15L11.38 16.62L13 17.5L11.38 18.38Z" fill="url(#paint1_linear_1137_14039)"/>
</g>
<defs>
<filter id="filter0_d_1137_14039" x="7.07996" y="0" width="20.92" height="20.9199" filterUnits="userSpaceOnUse" color-interpolation-filters="sRGB">
<feFlood flood-opacity="0" result="BackgroundImageFix"/>
<feColorMatrix in="SourceAlpha" type="matrix" values="0 0 0 0 0 0 0 0 0 0 0 0 0 0 0 0 0 0 127 0" result="hardAlpha"/>
<feOffset/>
<feGaussianBlur stdDeviation="2"/>
<feComposite in2="hardAlpha" operator="out"/>
<feColorMatrix type="matrix" values="0 0 0 0 0.145226 0 0 0 0 0.689269 0 0 0 0 0.995833 0 0 0 1 0"/>
<feBlend mode="normal" in2="BackgroundImageFix" result="effect1_dropShadow_1137_14039"/>
<feBlend mode="normal" in="SourceGraphic" in2="effect1_dropShadow_1137_14039" result="shape"/>
</filter>
<filter id="filter1_d_1137_14039" x="0" y="7" width="21" height="21" filterUnits="userSpaceOnUse" color-interpolation-filters="sRGB">
<feFlood flood-opacity="0" result="BackgroundImageFix"/>
<feColorMatrix in="SourceAlpha" type="matrix" values="0 0 0 0 0 0 0 0 0 0 0 0 0 0 0 0 0 0 127 0" result="hardAlpha"/>
<feOffset/>
<feGaussianBlur stdDeviation="2"/>
<feComposite in2="hardAlpha" operator="out"/>
<feColorMatrix type="matrix" values="0 0 0 0 0.145226 0 0 0 0 0.689269 0 0 0 0 0.995833 0 0 0 1 0"/>
<feBlend mode="normal" in2="BackgroundImageFix" result="effect1_dropShadow_1137_14039"/>
<feBlend mode="normal" in="SourceGraphic" in2="effect1_dropShadow_1137_14039" result="shape"/>
</filter>
<linearGradient id="paint0_linear_1137_14039" x1="11.2488" y1="5.19" x2="25.1004" y2="5.97038" gradientUnits="userSpaceOnUse">
<stop stop-color="#00D1FF"/>
<stop offset="1" stop-color="#3AB8FF"/>
</linearGradient>
<linearGradient id="paint1_linear_1137_14039" x1="4.16993" y1="12.1974" x2="18.1073" y2="12.9826" gradientUnits="userSpaceOnUse">
<stop stop-color="#00D1FF"/>
<stop offset="1" stop-color="#3AB8FF"/>
</linearGradient>
</defs>
</svg>
