<svg width="96" height="83" viewBox="0 0 96 83" fill="none" xmlns="http://www.w3.org/2000/svg">
<circle opacity="0.3" cx="39" cy="26" r="25" stroke="url(#paint0_linear_1137_19475)" stroke-width="2"/>
<g filter="url(#filter0_f_1137_19475)">
<path d="M63.8788 30.2979C63.263 33.9267 61.8628 37.3775 59.7759 40.4094C57.689 43.4414 54.9657 45.9815 51.796 47.8525C48.6263 49.7235 45.0866 50.8804 41.4237 51.2425C37.7608 51.6045 34.063 51.163 30.5884 49.9487" stroke="#79CFFF" stroke-width="3"/>
</g>
<g filter="url(#filter1_f_1137_19475)">
<path d="M63.8788 30.2979C63.263 33.9267 61.8628 37.3775 59.7759 40.4094C57.689 43.4414 54.9657 45.9815 51.796 47.8525C48.6263 49.7235 45.0866 50.8804 41.4237 51.2425C37.7608 51.6045 34.063 51.163 30.5884 49.9487" stroke="#79CFFF" stroke-width="2"/>
</g>
<g filter="url(#filter2_f_1137_19475)">
<path d="M63.8788 30.2979C63.263 33.9267 61.8628 37.3775 59.7759 40.4094C57.689 43.4414 54.9657 45.9815 51.796 47.8525C48.6263 49.7235 45.0866 50.8804 41.4237 51.2425C37.7608 51.6045 34.063 51.163 30.5884 49.9487" stroke="#79CFFF"/>
</g>
<path d="M63.8788 30.2979C63.263 33.9267 61.8628 37.3775 59.7759 40.4094C57.689 43.4414 54.9657 45.9815 51.796 47.8525C48.6263 49.7235 45.0866 50.8804 41.4237 51.2425C37.7608 51.6045 34.063 51.163 30.5884 49.9487" stroke="url(#paint1_linear_1137_19475)" stroke-width="3" stroke-linecap="round"/>
<g filter="url(#filter3_d_1137_19475)">
<path d="M46.4562 21.97C46.4562 21.8171 46.395 21.6718 46.288 21.5647L43.4433 18.72C43.2215 18.4983 42.8544 18.4983 42.6327 18.72C42.4109 18.9418 42.4109 19.3089 42.6327 19.5306L44.5062 21.4042H32.118C31.8044 21.4042 31.5444 21.6642 31.5444 21.9777C31.5444 22.2912 31.8044 22.5436 32.118 22.5436H44.4986L42.6327 24.4094C42.4109 24.6312 42.4109 24.9983 42.6327 25.22C42.7474 25.3347 42.8927 25.3883 43.038 25.3883C43.1833 25.3883 43.3286 25.3347 43.4433 25.22L46.2803 22.383C46.3338 22.3294 46.3797 22.2606 46.4103 22.1842C46.4103 22.1765 46.4103 22.1689 46.418 22.1612C46.4409 22.1 46.4562 22.0389 46.4562 21.97Z" fill="url(#paint2_linear_1137_19475)"/>
<path d="M45.8827 29.4561H33.5021L35.368 27.5902C35.5897 27.3684 35.5897 27.0014 35.368 26.7796C35.1462 26.5578 34.7791 26.5578 34.5574 26.7796L31.7203 29.6167C31.6668 29.6702 31.6209 29.739 31.5903 29.8155C31.5903 29.8231 31.5903 29.8308 31.5827 29.8384C31.5597 29.8996 31.5444 29.9684 31.5444 30.0373C31.5444 30.1902 31.6056 30.3355 31.7127 30.4425L34.5574 33.2873C34.6721 33.402 34.8174 33.4555 34.9627 33.4555C35.108 33.4555 35.2533 33.402 35.368 33.2873C35.5897 33.0655 35.5897 32.6984 35.368 32.4767L33.4944 30.6031H45.8827C46.1962 30.6031 46.4562 30.3431 46.4562 30.0296C46.4562 29.7161 46.1962 29.4561 45.8827 29.4561Z" fill="url(#paint3_linear_1137_19475)"/>
</g>
<defs>
<filter id="filter0_f_1137_19475" x="0.09375" y="0.046875" width="95.2637" height="82.8184" filterUnits="userSpaceOnUse" color-interpolation-filters="sRGB">
<feFlood flood-opacity="0" result="BackgroundImageFix"/>
<feBlend mode="normal" in="SourceGraphic" in2="BackgroundImageFix" result="shape"/>
<feGaussianBlur stdDeviation="15" result="effect1_foregroundBlur_1137_19475"/>
</filter>
<filter id="filter1_f_1137_19475" x="0.258301" y="0.130859" width="94.6064" height="82.2344" filterUnits="userSpaceOnUse" color-interpolation-filters="sRGB">
<feFlood flood-opacity="0" result="BackgroundImageFix"/>
<feBlend mode="normal" in="SourceGraphic" in2="BackgroundImageFix" result="shape"/>
<feGaussianBlur stdDeviation="15" result="effect1_foregroundBlur_1137_19475"/>
</filter>
<filter id="filter2_f_1137_19475" x="20.4233" y="20.2139" width="53.9482" height="41.6514" filterUnits="userSpaceOnUse" color-interpolation-filters="sRGB">
<feFlood flood-opacity="0" result="BackgroundImageFix"/>
<feBlend mode="normal" in="SourceGraphic" in2="BackgroundImageFix" result="shape"/>
<feGaussianBlur stdDeviation="5" result="effect1_foregroundBlur_1137_19475"/>
</filter>
<filter id="filter3_d_1137_19475" x="25.8237" y="12.8232" width="26.353" height="26.3525" filterUnits="userSpaceOnUse" color-interpolation-filters="sRGB">
<feFlood flood-opacity="0" result="BackgroundImageFix"/>
<feColorMatrix in="SourceAlpha" type="matrix" values="0 0 0 0 0 0 0 0 0 0 0 0 0 0 0 0 0 0 127 0" result="hardAlpha"/>
<feOffset/>
<feGaussianBlur stdDeviation="2"/>
<feComposite in2="hardAlpha" operator="out"/>
<feColorMatrix type="matrix" values="0 0 0 0 0.227451 0 0 0 0 0.721569 0 0 0 0 1 0 0 0 1 0"/>
<feBlend mode="normal" in2="BackgroundImageFix" result="effect1_dropShadow_1137_19475"/>
<feBlend mode="normal" in="SourceGraphic" in2="effect1_dropShadow_1137_19475" result="shape"/>
</filter>
<linearGradient id="paint0_linear_1137_19475" x1="13.6797" y1="4.78947" x2="69.4292" y2="7.93031" gradientUnits="userSpaceOnUse">
<stop stop-color="#00D1FF"/>
<stop offset="1" stop-color="#3AB8FF"/>
</linearGradient>
<linearGradient id="paint1_linear_1137_19475" x1="31.0235" y1="32.2383" x2="66.5461" y2="35.4007" gradientUnits="userSpaceOnUse">
<stop stop-color="#00D1FF"/>
<stop offset="1" stop-color="#3AB8FF"/>
</linearGradient>
<linearGradient id="paint2_linear_1137_19475" x1="31.7394" y1="19.1832" x2="47.5384" y2="21.1252" gradientUnits="userSpaceOnUse">
<stop stop-color="#00D1FF"/>
<stop offset="1" stop-color="#3AB8FF"/>
</linearGradient>
<linearGradient id="paint3_linear_1137_19475" x1="31.7394" y1="27.2435" x2="47.5389" y2="29.1834" gradientUnits="userSpaceOnUse">
<stop stop-color="#00D1FF"/>
<stop offset="1" stop-color="#3AB8FF"/>
</linearGradient>
</defs>
</svg>
