<svg width="96" height="84" viewBox="0 0 96 84" fill="none" xmlns="http://www.w3.org/2000/svg">
<circle opacity="0.3" cx="39" cy="26.5" r="25" stroke="#85FFA0" stroke-width="2"/>
<g filter="url(#filter0_f_42_38871)">
<path d="M63.8803 30.7969C63.2644 34.4257 61.8642 37.8765 59.7774 40.9084C57.6905 43.9404 54.9672 46.4805 51.7975 48.3515C48.6278 50.2226 45.088 51.3794 41.4251 51.7415C37.7623 52.1035 34.0645 51.662 30.5898 50.4477" stroke="#85FFA0" stroke-width="3"/>
</g>
<g filter="url(#filter1_f_42_38871)">
<path d="M63.8803 30.7969C63.2644 34.4257 61.8642 37.8765 59.7774 40.9084C57.6905 43.9404 54.9672 46.4805 51.7975 48.3515C48.6278 50.2226 45.088 51.3794 41.4251 51.7415C37.7623 52.1035 34.0645 51.662 30.5898 50.4477" stroke="#85FFA0" stroke-width="2"/>
</g>
<path d="M63.8803 30.7969C63.2644 34.4257 61.8642 37.8765 59.7774 40.9084C57.6905 43.9404 54.9672 46.4805 51.7975 48.3515C48.6278 50.2226 45.088 51.3794 41.4251 51.7415C37.7623 52.1035 34.0645 51.662 30.5898 50.4477" stroke="#85FFA0" stroke-width="3" stroke-linecap="round"/>
<path d="M29 23.5V21.5C29 18.5 31 16.5 34 16.5H44C47 16.5 49 18.5 49 21.5V23.5" stroke="#85FFA0" stroke-width="1.5" stroke-miterlimit="10" stroke-linecap="round" stroke-linejoin="round"/>
<path d="M29 29.5V31.5C29 34.5 31 36.5 34 36.5H44C47 36.5 49 34.5 49 31.5V29.5" stroke="#85FFA0" stroke-width="1.5" stroke-miterlimit="10" stroke-linecap="round" stroke-linejoin="round"/>
<g opacity="0.35" filter="url(#filter2_f_42_38871)">
<circle cx="39" cy="26.5" r="9" fill="#85FFA0"/>
</g>
<g clip-path="url(#clip0_42_38871)">
<path fill-rule="evenodd" clip-rule="evenodd" d="M40.1707 21.1294C40.073 21.0088 39.9473 20.894 39.7862 20.8047C39.3847 20.5822 38.7632 20.5181 38.3834 20.5004C38.2004 20.4919 37.9779 20.6201 37.8868 20.7751L37.7769 20.9618C38.1664 20.8413 38.5895 20.8037 39.0458 20.8742C39.4349 20.9343 39.8108 21.0204 40.1707 21.1294ZM34.6578 27.1464C34.317 25.8118 35.8843 20.6548 39.1894 21.1653C40.1611 21.3154 41.0511 21.6275 41.8133 22.0553C41.9223 21.9816 42.0582 21.9347 42.1751 21.9408C42.6471 21.9655 43.5171 22.0476 44.0723 22.3207C44.5446 22.553 44.7891 22.9234 44.9097 23.1852C44.9848 23.3481 44.9614 23.6253 44.8936 23.7912L44.3787 25.0514C44.5033 25.5098 44.5362 25.984 44.4636 26.4604L44.3157 31.2629C44.3102 31.4414 44.2181 31.7042 44.0847 31.8266C43.8376 32.0535 43.3845 32.3626 42.7333 32.387C41.98 32.4151 40.9616 32.0624 40.4596 31.8667C40.2895 31.8005 40.1293 31.5985 40.0989 31.4224L39.7784 29.5657C39.2032 29.6526 38.7115 29.6677 38.4066 29.6174C37.1542 29.4104 34.9986 28.481 34.6578 27.1464ZM35.5102 24.1517C35.7385 23.5716 36.1423 22.8915 36.6296 22.531C37.3777 21.9776 38.3147 21.9282 39.0534 22.2047C39.5241 22.3809 40.4038 22.8011 41.003 23.4123C41.9568 24.3852 42.5379 25.7459 42.1823 26.6492C41.8408 27.5169 40.6099 28.2626 39.3765 28.5403C38.4507 28.7486 37.2078 28.3511 36.7076 28.1638C35.4877 27.7073 35.3767 27.3426 35.2106 26.8539C35.0446 26.3652 34.9312 25.6224 35.5102 24.1517ZM35.9062 24.3119C36.1192 23.7708 36.4922 23.1351 36.9373 22.7953C37.5434 22.3327 38.2797 22.2368 38.9031 22.3949C38.3611 22.3534 37.7772 22.4937 37.2786 22.8749C36.8195 23.2258 36.4347 23.8821 36.2149 24.4406C35.6574 25.8568 35.7546 26.5675 35.904 27.0341C35.9842 27.2845 36.0499 27.5008 36.2689 27.7131C35.7937 27.4289 35.7131 27.1579 35.6061 26.8247C35.4609 26.3725 35.3662 25.6837 35.9062 24.3119ZM34.2626 27.3661C34.1991 27.1177 34.2018 26.737 34.2695 26.285L33.1136 28.6257C33.0341 28.7866 32.9707 29.0634 33.0141 29.2369C33.0707 29.4625 33.1991 29.7549 33.4908 29.9325C33.8296 30.1388 34.3887 30.1903 34.7443 30.2007C34.9273 30.2061 35.1592 30.0799 35.2621 29.9321L35.8658 29.0646C35.0972 28.6353 34.4384 28.0546 34.2626 27.3661Z" fill="url(#paint0_linear_42_38871)"/>
<path fill-rule="evenodd" clip-rule="evenodd" d="M40.1707 21.1294C40.073 21.0088 39.9473 20.894 39.7862 20.8047C39.3847 20.5822 38.7632 20.5181 38.3834 20.5004C38.2004 20.4919 37.9779 20.6201 37.8868 20.7751L37.7769 20.9618C38.1664 20.8413 38.5895 20.8037 39.0458 20.8742C39.4349 20.9343 39.8108 21.0204 40.1707 21.1294ZM34.6578 27.1464C34.317 25.8118 35.8843 20.6548 39.1894 21.1653C40.1611 21.3154 41.0511 21.6275 41.8133 22.0553C41.9223 21.9816 42.0582 21.9347 42.1751 21.9408C42.6471 21.9655 43.5171 22.0476 44.0723 22.3207C44.5446 22.553 44.7891 22.9234 44.9097 23.1852C44.9848 23.3481 44.9614 23.6253 44.8936 23.7912L44.3787 25.0514C44.5033 25.5098 44.5362 25.984 44.4636 26.4604L44.3157 31.2629C44.3102 31.4414 44.2181 31.7042 44.0847 31.8266C43.8376 32.0535 43.3845 32.3626 42.7333 32.387C41.98 32.4151 40.9616 32.0624 40.4596 31.8667C40.2895 31.8005 40.1293 31.5985 40.0989 31.4224L39.7784 29.5657C39.2032 29.6526 38.7115 29.6677 38.4066 29.6174C37.1542 29.4104 34.9986 28.481 34.6578 27.1464ZM35.5102 24.1517C35.7385 23.5716 36.1423 22.8915 36.6296 22.531C37.3777 21.9776 38.3147 21.9282 39.0534 22.2047C39.5241 22.3809 40.4038 22.8011 41.003 23.4123C41.9568 24.3852 42.5379 25.7459 42.1823 26.6492C41.8408 27.5169 40.6099 28.2626 39.3765 28.5403C38.4507 28.7486 37.2078 28.3511 36.7076 28.1638C35.4877 27.7073 35.3767 27.3426 35.2106 26.8539C35.0446 26.3652 34.9312 25.6224 35.5102 24.1517ZM35.9062 24.3119C36.1192 23.7708 36.4922 23.1351 36.9373 22.7953C37.5434 22.3327 38.2797 22.2368 38.9031 22.3949C38.3611 22.3534 37.7772 22.4937 37.2786 22.8749C36.8195 23.2258 36.4347 23.8821 36.2149 24.4406C35.6574 25.8568 35.7546 26.5675 35.904 27.0341C35.9842 27.2845 36.0499 27.5008 36.2689 27.7131C35.7937 27.4289 35.7131 27.1579 35.6061 26.8247C35.4609 26.3725 35.3662 25.6837 35.9062 24.3119ZM34.2626 27.3661C34.1991 27.1177 34.2018 26.737 34.2695 26.285L33.1136 28.6257C33.0341 28.7866 32.9707 29.0634 33.0141 29.2369C33.0707 29.4625 33.1991 29.7549 33.4908 29.9325C33.8296 30.1388 34.3887 30.1903 34.7443 30.2007C34.9273 30.2061 35.1592 30.0799 35.2621 29.9321L35.8658 29.0646C35.0972 28.6353 34.4384 28.0546 34.2626 27.3661Z" fill="#85FFA0"/>
</g>
<defs>
<filter id="filter0_f_42_38871" x="0.0947266" y="0.545898" width="95.2646" height="82.8184" filterUnits="userSpaceOnUse" color-interpolation-filters="sRGB">
<feFlood flood-opacity="0" result="BackgroundImageFix"/>
<feBlend mode="normal" in="SourceGraphic" in2="BackgroundImageFix" result="shape"/>
<feGaussianBlur stdDeviation="15" result="effect1_foregroundBlur_42_38871"/>
</filter>
<filter id="filter1_f_42_38871" x="0.259766" y="0.629883" width="94.6064" height="82.2344" filterUnits="userSpaceOnUse" color-interpolation-filters="sRGB">
<feFlood flood-opacity="0" result="BackgroundImageFix"/>
<feBlend mode="normal" in="SourceGraphic" in2="BackgroundImageFix" result="shape"/>
<feGaussianBlur stdDeviation="15" result="effect1_foregroundBlur_42_38871"/>
</filter>
<filter id="filter2_f_42_38871" x="20" y="7.5" width="38" height="38" filterUnits="userSpaceOnUse" color-interpolation-filters="sRGB">
<feFlood flood-opacity="0" result="BackgroundImageFix"/>
<feBlend mode="normal" in="SourceGraphic" in2="BackgroundImageFix" result="shape"/>
<feGaussianBlur stdDeviation="5" result="effect1_foregroundBlur_42_38871"/>
</filter>
<linearGradient id="paint0_linear_42_38871" x1="33" y1="20.5" x2="44.8883" y2="32.4561" gradientUnits="userSpaceOnUse">
<stop stop-color="#FF00EE"/>
<stop offset="0.438272" stop-color="#DD00FF"/>
<stop offset="0.839506" stop-color="#6500FC"/>
</linearGradient>
<clipPath id="clip0_42_38871">
<rect width="12" height="12" fill="white" transform="translate(33 20.5)"/>
</clipPath>
</defs>
</svg>
