<svg width="25" height="25" viewBox="0 0 25 25" fill="none" xmlns="http://www.w3.org/2000/svg">
<g clip-path="url(#clip0_29341_1483)">
<path fill-rule="evenodd" clip-rule="evenodd" d="M14.939 1.31135C14.7353 1.05996 14.4735 0.82084 14.1379 0.634862C13.3014 0.171168 12.0066 0.037764 11.2153 0.000839648C10.8342 -0.0169474 10.3707 0.250278 10.1808 0.573043L9.95183 0.962144C10.7634 0.710984 11.6449 0.632793 12.5954 0.779596C13.4059 0.904782 14.1892 1.08411 14.939 1.31135ZM3.45373 13.8466C2.74376 11.0662 6.009 0.322581 12.8946 1.38603C14.919 1.6987 16.7731 2.34903 18.3611 3.24022C18.5882 3.0867 18.8713 2.98902 19.1148 3.00175C20.0981 3.05318 21.9107 3.22424 23.0674 3.7932C24.0512 4.27712 24.5607 5.04882 24.8119 5.59415C24.9683 5.93356 24.9197 6.51106 24.7784 6.85676L23.7056 9.48202C23.9652 10.4371 24.0337 11.4251 23.8826 12.4175L23.5743 22.4226C23.5629 22.7945 23.3711 23.3421 23.0932 23.5971C22.5783 24.0699 21.6344 24.7138 20.2777 24.7645C18.7083 24.8231 16.5867 24.0882 15.5409 23.6807C15.1865 23.5426 14.8527 23.1219 14.7893 22.7549L14.1217 18.8869C12.9233 19.0679 11.8989 19.0995 11.2637 18.9945C8.65455 18.5634 4.1637 16.627 3.45373 13.8466ZM5.22948 7.60761C5.70528 6.39915 6.54656 4.98232 7.56167 4.23134C9.12028 3.07826 11.0722 2.97541 12.6113 3.5515C13.5919 3.91856 15.4245 4.79393 16.6729 6.06739C18.6601 8.09426 19.8707 10.929 19.1299 12.8107C18.4183 14.6185 15.8539 16.1722 13.2843 16.7505C11.3557 17.1846 8.76617 16.3564 7.72411 15.9663C5.18277 15.0151 4.95149 14.2553 4.60548 13.2373C4.25957 12.2192 4.02333 10.6717 5.22948 7.60761ZM6.05467 7.94144C6.49839 6.81415 7.27544 5.48979 8.20272 4.78193C9.46539 3.81816 10.9993 3.61831 12.2981 3.94766C11.1689 3.86121 9.95244 4.15361 8.91372 4.94769C7.95739 5.67867 7.15567 7.04596 6.69761 8.20963C5.53618 11.1599 5.73883 12.6407 6.05 13.6127C6.217 14.1344 6.354 14.5851 6.81017 15.0274C5.82017 14.4352 5.65222 13.8706 5.42935 13.1764C5.12694 12.2344 4.92956 10.7995 6.05467 7.94144ZM2.63034 14.3044C2.49822 13.787 2.50377 12.9937 2.64471 12.0521L0.236679 16.9286C0.0711222 17.2638 -0.0611345 17.8405 0.0294705 18.202C0.147241 18.6718 0.414776 19.281 1.02242 19.6511C1.72829 20.0809 2.89306 20.188 3.63388 20.2098C4.01531 20.221 4.49838 19.9581 4.71266 19.6502L5.97033 17.8428C4.36909 16.9485 2.9966 15.7388 2.63034 14.3044Z" fill="url(#paint0_linear_29341_1483)"/>
<path fill-rule="evenodd" clip-rule="evenodd" d="M14.939 1.31135C14.7353 1.05996 14.4735 0.82084 14.1379 0.634862C13.3014 0.171168 12.0066 0.037764 11.2153 0.000839648C10.8342 -0.0169474 10.3707 0.250278 10.1808 0.573043L9.95183 0.962144C10.7634 0.710984 11.6449 0.632793 12.5954 0.779596C13.4059 0.904782 14.1892 1.08411 14.939 1.31135ZM3.45373 13.8466C2.74376 11.0662 6.009 0.322581 12.8946 1.38603C14.919 1.6987 16.7731 2.34903 18.3611 3.24022C18.5882 3.0867 18.8713 2.98902 19.1148 3.00175C20.0981 3.05318 21.9107 3.22424 23.0674 3.7932C24.0512 4.27712 24.5607 5.04882 24.8119 5.59415C24.9683 5.93356 24.9197 6.51106 24.7784 6.85676L23.7056 9.48202C23.9652 10.4371 24.0337 11.4251 23.8826 12.4175L23.5743 22.4226C23.5629 22.7945 23.3711 23.3421 23.0932 23.5971C22.5783 24.0699 21.6344 24.7138 20.2777 24.7645C18.7083 24.8231 16.5867 24.0882 15.5409 23.6807C15.1865 23.5426 14.8527 23.1219 14.7893 22.7549L14.1217 18.8869C12.9233 19.0679 11.8989 19.0995 11.2637 18.9945C8.65455 18.5634 4.1637 16.627 3.45373 13.8466ZM5.22948 7.60761C5.70528 6.39915 6.54656 4.98232 7.56167 4.23134C9.12028 3.07826 11.0722 2.97541 12.6113 3.5515C13.5919 3.91856 15.4245 4.79393 16.6729 6.06739C18.6601 8.09426 19.8707 10.929 19.1299 12.8107C18.4183 14.6185 15.8539 16.1722 13.2843 16.7505C11.3557 17.1846 8.76617 16.3564 7.72411 15.9663C5.18277 15.0151 4.95149 14.2553 4.60548 13.2373C4.25957 12.2192 4.02333 10.6717 5.22948 7.60761ZM6.05467 7.94144C6.49839 6.81415 7.27544 5.48979 8.20272 4.78193C9.46539 3.81816 10.9993 3.61831 12.2981 3.94766C11.1689 3.86121 9.95244 4.15361 8.91372 4.94769C7.95739 5.67867 7.15567 7.04596 6.69761 8.20963C5.53618 11.1599 5.73883 12.6407 6.05 13.6127C6.217 14.1344 6.354 14.5851 6.81017 15.0274C5.82017 14.4352 5.65222 13.8706 5.42935 13.1764C5.12694 12.2344 4.92956 10.7995 6.05467 7.94144ZM2.63034 14.3044C2.49822 13.787 2.50377 12.9937 2.64471 12.0521L0.236679 16.9286C0.0711222 17.2638 -0.0611345 17.8405 0.0294705 18.202C0.147241 18.6718 0.414776 19.281 1.02242 19.6511C1.72829 20.0809 2.89306 20.188 3.63388 20.2098C4.01531 20.221 4.49838 19.9581 4.71266 19.6502L5.97033 17.8428C4.36909 16.9485 2.9966 15.7388 2.63034 14.3044Z" fill="white"/>
<path fill-rule="evenodd" clip-rule="evenodd" d="M14.939 1.31135C14.7353 1.05996 14.4735 0.82084 14.1379 0.634862C13.3014 0.171168 12.0066 0.037764 11.2153 0.000839648C10.8342 -0.0169474 10.3707 0.250278 10.1808 0.573043L9.95183 0.962144C10.7634 0.710984 11.6449 0.632793 12.5954 0.779596C13.4059 0.904782 14.1892 1.08411 14.939 1.31135ZM3.45373 13.8466C2.74376 11.0662 6.009 0.322581 12.8946 1.38603C14.919 1.6987 16.7731 2.34903 18.3611 3.24022C18.5882 3.0867 18.8713 2.98902 19.1148 3.00175C20.0981 3.05318 21.9107 3.22424 23.0674 3.7932C24.0512 4.27712 24.5607 5.04882 24.8119 5.59415C24.9683 5.93356 24.9197 6.51106 24.7784 6.85676L23.7056 9.48202C23.9652 10.4371 24.0337 11.4251 23.8826 12.4175L23.5743 22.4226C23.5629 22.7945 23.3711 23.3421 23.0932 23.5971C22.5783 24.0699 21.6344 24.7138 20.2777 24.7645C18.7083 24.8231 16.5867 24.0882 15.5409 23.6807C15.1865 23.5426 14.8527 23.1219 14.7893 22.7549L14.1217 18.8869C12.9233 19.0679 11.8989 19.0995 11.2637 18.9945C8.65455 18.5634 4.1637 16.627 3.45373 13.8466ZM5.22948 7.60761C5.70528 6.39915 6.54656 4.98232 7.56167 4.23134C9.12028 3.07826 11.0722 2.97541 12.6113 3.5515C13.5919 3.91856 15.4245 4.79393 16.6729 6.06739C18.6601 8.09426 19.8707 10.929 19.1299 12.8107C18.4183 14.6185 15.8539 16.1722 13.2843 16.7505C11.3557 17.1846 8.76617 16.3564 7.72411 15.9663C5.18277 15.0151 4.95149 14.2553 4.60548 13.2373C4.25957 12.2192 4.02333 10.6717 5.22948 7.60761ZM6.05467 7.94144C6.49839 6.81415 7.27544 5.48979 8.20272 4.78193C9.46539 3.81816 10.9993 3.61831 12.2981 3.94766C11.1689 3.86121 9.95244 4.15361 8.91372 4.94769C7.95739 5.67867 7.15567 7.04596 6.69761 8.20963C5.53618 11.1599 5.73883 12.6407 6.05 13.6127C6.217 14.1344 6.354 14.5851 6.81017 15.0274C5.82017 14.4352 5.65222 13.8706 5.42935 13.1764C5.12694 12.2344 4.92956 10.7995 6.05467 7.94144ZM2.63034 14.3044C2.49822 13.787 2.50377 12.9937 2.64471 12.0521L0.236679 16.9286C0.0711222 17.2638 -0.0611345 17.8405 0.0294705 18.202C0.147241 18.6718 0.414776 19.281 1.02242 19.6511C1.72829 20.0809 2.89306 20.188 3.63388 20.2098C4.01531 20.221 4.49838 19.9581 4.71266 19.6502L5.97033 17.8428C4.36909 16.9485 2.9966 15.7388 2.63034 14.3044Z" fill="black" fill-opacity="0.2"/>
</g>
<defs>
<linearGradient id="paint0_linear_29341_1483" x1="-7.75981e-09" y1="-7.15398e-09" x2="24.7674" y2="24.9085" gradientUnits="userSpaceOnUse">
<stop stop-color="#FF00EE"/>
<stop offset="0.438272" stop-color="#DD00FF"/>
<stop offset="0.839506" stop-color="#6500FC"/>
</linearGradient>
<clipPath id="clip0_29341_1483">
<rect width="25" height="25" fill="white"/>
</clipPath>
</defs>
</svg>
