<svg width="25" height="28" viewBox="0 0 25 28" fill="none" xmlns="http://www.w3.org/2000/svg">
<g filter="url(#filter0_d_29262_4885)">
<g filter="url(#filter1_d_29262_4885)">
<path d="M5.49554 10.8002L14.2344 10.8002" stroke="url(#paint0_linear_29262_4885)" stroke-width="1.33467" stroke-linecap="round"/>
<line x1="14.882" y1="10.8002" x2="12.1954" y2="8.11355" stroke="url(#paint1_linear_29262_4885)" stroke-width="1.144" stroke-linecap="round"/>
<line x1="0.572" y1="-0.572" x2="4.37146" y2="-0.572" transform="matrix(-0.707107 0.707107 0.707107 0.707107 15.6909 10.8002)" stroke="url(#paint2_linear_29262_4885)" stroke-width="1.144" stroke-linecap="round"/>
<path d="M12.9236 17.9978C12.555 17.9978 12.2563 18.2966 12.2563 18.6652C12.2563 19.0337 12.555 19.3325 12.9236 19.3325L12.9236 17.9978ZM12.9236 2.26783C12.555 2.26783 12.2563 2.5666 12.2563 2.93516C12.2563 3.30372 12.555 3.6025 12.9236 3.6025L12.9236 2.26783ZM19.1737 5.57647L18.5092 5.63851L19.1737 5.57647ZM12.9236 3.6025C12.9259 3.6025 12.9283 3.6025 12.9306 3.6025C12.933 3.6025 12.9354 3.6025 12.9377 3.6025C12.9401 3.6025 12.9424 3.6025 12.9448 3.6025C12.9471 3.6025 12.9495 3.6025 12.9518 3.6025C12.9542 3.6025 12.9565 3.6025 12.9589 3.6025C12.9612 3.6025 12.9636 3.6025 12.9659 3.6025C12.9683 3.6025 12.9706 3.6025 12.973 3.6025C12.9753 3.6025 12.9777 3.6025 12.98 3.6025C12.9824 3.6025 12.9847 3.6025 12.9871 3.6025C12.9894 3.6025 12.9918 3.6025 12.9941 3.6025C12.9965 3.6025 12.9988 3.6025 13.0012 3.6025C13.0035 3.6025 13.0059 3.6025 13.0082 3.6025C13.0106 3.6025 13.0129 3.6025 13.0153 3.6025C13.0176 3.6025 13.02 3.6025 13.0223 3.6025C13.0247 3.6025 13.027 3.6025 13.0294 3.6025C13.0317 3.6025 13.034 3.6025 13.0364 3.6025C13.0387 3.6025 13.0411 3.6025 13.0434 3.6025C13.0458 3.6025 13.0481 3.6025 13.0505 3.6025C13.0528 3.6025 13.0552 3.6025 13.0575 3.6025C13.0598 3.6025 13.0622 3.6025 13.0645 3.6025C13.0669 3.6025 13.0692 3.6025 13.0716 3.6025C13.0739 3.6025 13.0763 3.6025 13.0786 3.6025C13.0809 3.6025 13.0833 3.6025 13.0856 3.6025C13.088 3.6025 13.0903 3.6025 13.0927 3.6025C13.095 3.6025 13.0973 3.6025 13.0997 3.6025C13.102 3.6025 13.1044 3.6025 13.1067 3.6025C13.1091 3.6025 13.1114 3.6025 13.1137 3.6025C13.1161 3.6025 13.1184 3.6025 13.1208 3.6025C13.1231 3.6025 13.1254 3.6025 13.1278 3.6025C13.1301 3.6025 13.1325 3.6025 13.1348 3.6025C13.1371 3.6025 13.1395 3.6025 13.1418 3.6025C13.1442 3.6025 13.1465 3.6025 13.1488 3.6025C13.1512 3.6025 13.1535 3.6025 13.1559 3.6025C13.1582 3.6025 13.1605 3.6025 13.1629 3.6025C13.1652 3.6025 13.1675 3.6025 13.1699 3.6025C13.1722 3.6025 13.1746 3.6025 13.1769 3.6025C13.1792 3.6025 13.1816 3.6025 13.1839 3.6025C13.1862 3.6025 13.1886 3.6025 13.1909 3.6025C13.1932 3.6025 13.1956 3.6025 13.1979 3.6025C13.2003 3.6025 13.2026 3.6025 13.2049 3.6025C13.2073 3.6025 13.2096 3.6025 13.2119 3.6025C13.2143 3.6025 13.2166 3.6025 13.2189 3.6025C13.2213 3.6025 13.2236 3.6025 13.2259 3.6025C13.2283 3.6025 13.2306 3.6025 13.2329 3.6025C13.2353 3.6025 13.2376 3.6025 13.2399 3.6025C13.2423 3.6025 13.2446 3.6025 13.2469 3.6025C13.2493 3.6025 13.2516 3.6025 13.2539 3.6025C13.2562 3.6025 13.2586 3.6025 13.2609 3.6025C13.2632 3.6025 13.2656 3.6025 13.2679 3.6025C13.2702 3.6025 13.2726 3.6025 13.2749 3.6025C13.2772 3.6025 13.2795 3.6025 13.2819 3.6025C13.2842 3.6025 13.2865 3.6025 13.2889 3.6025C13.2912 3.6025 13.2935 3.6025 13.2958 3.6025C13.2982 3.6025 13.3005 3.6025 13.3028 3.6025C13.3052 3.6025 13.3075 3.6025 13.3098 3.6025C13.3121 3.6025 13.3145 3.6025 13.3168 3.6025C13.3191 3.6025 13.3214 3.6025 13.3238 3.6025C13.3261 3.6025 13.3284 3.6025 13.3307 3.6025C13.3331 3.6025 13.3354 3.6025 13.3377 3.6025C13.34 3.6025 13.3424 3.6025 13.3447 3.6025C13.347 3.6025 13.3493 3.6025 13.3517 3.6025C13.354 3.6025 13.3563 3.6025 13.3586 3.6025C13.361 3.6025 13.3633 3.6025 13.3656 3.6025C13.3679 3.6025 13.3702 3.6025 13.3726 3.6025C13.3749 3.6025 13.3772 3.6025 13.3795 3.6025C13.3819 3.6025 13.3842 3.6025 13.3865 3.6025C13.3888 3.6025 13.3911 3.6025 13.3935 3.6025C13.3958 3.6025 13.3981 3.6025 13.4004 3.6025C13.4027 3.6025 13.4051 3.6025 13.4074 3.6025C13.4097 3.6025 13.412 3.6025 13.4143 3.6025C13.4167 3.6025 13.419 3.6025 13.4213 3.6025C13.4236 3.6025 13.4259 3.6025 13.4282 3.6025C13.4306 3.6025 13.4329 3.6025 13.4352 3.6025C13.4375 3.6025 13.4398 3.6025 13.4421 3.6025C13.4445 3.6025 13.4468 3.6025 13.4491 3.6025C13.4514 3.6025 13.4537 3.6025 13.456 3.6025C13.4584 3.6025 13.4607 3.6025 13.463 3.6025C13.4653 3.6025 13.4676 3.6025 13.4699 3.6025C13.4722 3.6025 13.4746 3.6025 13.4769 3.6025C13.4792 3.6025 13.4815 3.6025 13.4838 3.6025C13.4861 3.6025 13.4884 3.6025 13.4907 3.6025C13.4931 3.6025 13.4954 3.6025 13.4977 3.6025C13.5 3.6025 13.5023 3.6025 13.5046 3.6025C13.5069 3.6025 13.5092 3.6025 13.5115 3.6025C13.5139 3.6025 13.5162 3.6025 13.5185 3.6025C13.5208 3.6025 13.5231 3.6025 13.5254 3.6025C13.5277 3.6025 13.53 3.6025 13.5323 3.6025C13.5346 3.6025 13.5369 3.6025 13.5393 3.6025C13.5416 3.6025 13.5439 3.6025 13.5462 3.6025C13.5485 3.6025 13.5508 3.6025 13.5531 3.6025C13.5554 3.6025 13.5577 3.6025 13.56 3.6025C13.5623 3.6025 13.5646 3.6025 13.5669 3.6025C13.5692 3.6025 13.5715 3.6025 13.5738 3.6025C13.5762 3.6025 13.5785 3.6025 13.5808 3.6025C13.5831 3.6025 13.5854 3.6025 13.5877 3.6025C13.59 3.6025 13.5923 3.6025 13.5946 3.6025C13.5969 3.6025 13.5992 3.6025 13.6015 3.6025C13.6038 3.6025 13.6061 3.6025 13.6084 3.6025C13.6107 3.6025 13.613 3.6025 13.6153 3.6025C13.6176 3.6025 13.6199 3.6025 13.6222 3.6025C13.6245 3.6025 13.6268 3.6025 13.6291 3.6025C13.6314 3.6025 13.6337 3.6025 13.636 3.6025C13.6383 3.6025 13.6406 3.6025 13.6429 3.6025C13.6452 3.6025 13.6475 3.6025 13.6498 3.6025C13.6521 3.6025 13.6544 3.6025 13.6567 3.6025C13.659 3.6025 13.6613 3.6025 13.6636 3.6025C13.6659 3.6025 13.6682 3.6025 13.6705 3.6025C13.6728 3.6025 13.6751 3.6025 13.6774 3.6025C13.6797 3.6025 13.6819 3.6025 13.6842 3.6025C13.6865 3.6025 13.6888 3.6025 13.6911 3.6025C13.6934 3.6025 13.6957 3.6025 13.698 3.6025C13.7003 3.6025 13.7026 3.6025 13.7049 3.6025C13.7072 3.6025 13.7095 3.6025 13.7118 3.6025C13.7141 3.6025 13.7163 3.6025 13.7186 3.6025C13.7209 3.6025 13.7232 3.6025 13.7255 3.6025C13.7278 3.6025 13.7301 3.6025 13.7324 3.6025C13.7347 3.6025 13.737 3.6025 13.7393 3.6025C13.7415 3.6025 13.7438 3.6025 13.7461 3.6025C13.7484 3.6025 13.7507 3.6025 13.753 3.6025C13.7553 3.6025 13.7576 3.6025 13.7599 3.6025C13.7621 3.6025 13.7644 3.6025 13.7667 3.6025C13.769 3.6025 13.7713 3.6025 13.7736 3.6025C13.7759 3.6025 13.7781 3.6025 13.7804 3.6025C13.7827 3.6025 13.785 3.6025 13.7873 3.6025C13.7896 3.6025 13.7919 3.6025 13.7941 3.6025C13.7964 3.6025 13.7987 3.6025 13.801 3.6025C13.8033 3.6025 13.8056 3.6025 13.8078 3.6025C13.8101 3.6025 13.8124 3.6025 13.8147 3.6025C13.817 3.6025 13.8193 3.6025 13.8215 3.6025C13.8238 3.6025 13.8261 3.6025 13.8284 3.6025C13.8307 3.6025 13.8329 3.6025 13.8352 3.6025C13.8375 3.6025 13.8398 3.6025 13.8421 3.6025C13.8443 3.6025 13.8466 3.6025 13.8489 3.6025C13.8512 3.6025 13.8535 3.6025 13.8557 3.6025C13.858 3.6025 13.8603 3.6025 13.8626 3.6025C13.8648 3.6025 13.8671 3.6025 13.8694 3.6025C13.8717 3.6025 13.8739 3.6025 13.8762 3.6025C13.8785 3.6025 13.8808 3.6025 13.8831 3.6025C13.8853 3.6025 13.8876 3.6025 13.8899 3.6025C13.8922 3.6025 13.8944 3.6025 13.8967 3.6025C13.899 3.6025 13.9012 3.6025 13.9035 3.6025C13.9058 3.6025 13.9081 3.6025 13.9103 3.6025C13.9126 3.6025 13.9149 3.6025 13.9172 3.6025C13.9194 3.6025 13.9217 3.6025 13.924 3.6025C13.9262 3.6025 13.9285 3.6025 13.9308 3.6025C13.9331 3.6025 13.9353 3.6025 13.9376 3.6025C13.9399 3.6025 13.9421 3.6025 13.9444 3.6025C13.9467 3.6025 13.9489 3.6025 13.9512 3.6025C13.9535 3.6025 13.9557 3.6025 13.958 3.6025C13.9603 3.6025 13.9625 3.6025 13.9648 3.6025C13.9671 3.6025 13.9693 3.6025 13.9716 3.6025C13.9739 3.6025 13.9761 3.6025 13.9784 3.6025C13.9807 3.6025 13.9829 3.6025 13.9852 3.6025C13.9875 3.6025 13.9897 3.6025 13.992 3.6025C13.9943 3.6025 13.9965 3.6025 13.9988 3.6025C14.001 3.6025 14.0033 3.6025 14.0056 3.6025C14.0078 3.6025 14.0101 3.6025 14.0124 3.6025C14.0146 3.6025 14.0169 3.6025 14.0191 3.6025C14.0214 3.6025 14.0237 3.6025 14.0259 3.6025C14.0282 3.6025 14.0304 3.6025 14.0327 3.6025C14.035 3.6025 14.0372 3.6025 14.0395 3.6025C14.0417 3.6025 14.044 3.6025 14.0463 3.6025C14.0485 3.6025 14.0508 3.6025 14.053 3.6025C14.0553 3.6025 14.0575 3.6025 14.0598 3.6025C14.0621 3.6025 14.0643 3.6025 14.0666 3.6025C14.0688 3.6025 14.0711 3.6025 14.0733 3.6025C14.0756 3.6025 14.0778 3.6025 14.0801 3.6025C14.0823 3.6025 14.0846 3.6025 14.0869 3.6025C14.0891 3.6025 14.0914 3.6025 14.0936 3.6025C14.0959 3.6025 14.0981 3.6025 14.1004 3.6025C14.1026 3.6025 14.1049 3.6025 14.1071 3.6025C14.1094 3.6025 14.1116 3.6025 14.1139 3.6025C14.1161 3.6025 14.1184 3.6025 14.1206 3.6025C14.1229 3.6025 14.1251 3.6025 14.1274 3.6025C14.1296 3.6025 14.1319 3.6025 14.1341 3.6025C14.1364 3.6025 14.1386 3.6025 14.1409 3.6025C14.1431 3.6025 14.1454 3.6025 14.1476 3.6025C14.1498 3.6025 14.1521 3.6025 14.1543 3.6025C14.1566 3.6025 14.1588 3.6025 14.1611 3.6025C14.1633 3.6025 14.1656 3.6025 14.1678 3.6025C14.1701 3.6025 14.1723 3.6025 14.1745 3.6025C14.1768 3.6025 14.179 3.6025 14.1813 3.6025C14.1835 3.6025 14.1858 3.6025 14.188 3.6025C14.1902 3.6025 14.1925 3.6025 14.1947 3.6025C14.197 3.6025 14.1992 3.6025 14.2014 3.6025C14.2037 3.6025 14.2059 3.6025 14.2082 3.6025C14.2104 3.6025 14.2126 3.6025 14.2149 3.6025C14.2171 3.6025 14.2194 3.6025 14.2216 3.6025C14.2238 3.6025 14.2261 3.6025 14.2283 3.6025C14.2305 3.6025 14.2328 3.6025 14.235 3.6025C14.2372 3.6025 14.2395 3.6025 14.2417 3.6025C14.244 3.6025 14.2462 3.6025 14.2484 3.6025C14.2507 3.6025 14.2529 3.6025 14.2551 3.6025C14.2574 3.6025 14.2596 3.6025 14.2618 3.6025C14.2641 3.6025 14.2663 3.6025 14.2685 3.6025C14.2708 3.6025 14.273 3.6025 14.2752 3.6025C14.2775 3.6025 14.2797 3.6025 14.2819 3.6025C14.2841 3.6025 14.2864 3.6025 14.2886 3.6025C14.2908 3.6025 14.2931 3.6025 14.2953 3.6025C14.2975 3.6025 14.2997 3.6025 14.302 3.6025C14.3042 3.6025 14.3064 3.6025 14.3087 3.6025C14.3109 3.6025 14.3131 3.6025 14.3153 3.6025C14.3176 3.6025 14.3198 3.6025 14.322 3.6025C14.3242 3.6025 14.3265 3.6025 14.3287 3.6025C14.3309 3.6025 14.3331 3.6025 14.3354 3.6025C14.3376 3.6025 14.3398 3.6025 14.342 3.6025C14.3443 3.6025 14.3465 3.6025 14.3487 3.6025C14.3509 3.6025 14.3532 3.6025 14.3554 3.6025C14.3576 3.6025 14.3598 3.6025 14.362 3.6025C14.3643 3.6025 14.3665 3.6025 14.3687 3.6025C14.3709 3.6025 14.3731 3.6025 14.3754 3.6025C14.3776 3.6025 14.3798 3.6025 14.382 3.6025C14.3842 3.6025 14.3864 3.6025 14.3887 3.6025C14.3909 3.6025 14.3931 3.6025 14.3953 3.6025C14.3975 3.6025 14.3997 3.6025 14.402 3.6025C14.4042 3.6025 14.4064 3.6025 14.4086 3.6025C14.4108 3.6025 14.413 3.6025 14.4152 3.6025C14.4175 3.6025 14.4197 3.6025 14.4219 3.6025C14.4241 3.6025 14.4263 3.6025 14.4285 3.6025C14.4307 3.6025 14.4329 3.6025 14.4352 3.6025C14.4374 3.6025 14.4396 3.6025 14.4418 3.6025C14.444 3.6025 14.4462 3.6025 14.4484 3.6025C14.4506 3.6025 14.4528 3.6025 14.4551 3.6025C14.4573 3.6025 14.4595 3.6025 14.4617 3.6025C14.4639 3.6025 14.4661 3.6025 14.4683 3.6025C14.4705 3.6025 14.4727 3.6025 14.4749 3.6025C14.4771 3.6025 14.4793 3.6025 14.4815 3.6025C14.4837 3.6025 14.4859 3.6025 14.4881 3.6025C14.4904 3.6025 14.4926 3.6025 14.4948 3.6025C14.497 3.6025 14.4992 3.6025 14.5014 3.6025C14.5036 3.6025 14.5058 3.6025 14.508 3.6025C14.5102 3.6025 14.5124 3.6025 14.5146 3.6025C14.5168 3.6025 14.519 3.6025 14.5212 3.6025C14.5234 3.6025 14.5256 3.6025 14.5278 3.6025C14.53 3.6025 14.5322 3.6025 14.5344 3.6025C14.5366 3.6025 14.5388 3.6025 14.541 3.6025C14.5432 3.6025 14.5454 3.6025 14.5476 3.6025C14.5498 3.6025 14.552 3.6025 14.5541 3.6025C14.5563 3.6025 14.5585 3.6025 14.5607 3.6025C14.5629 3.6025 14.5651 3.6025 14.5673 3.6025C14.5695 3.6025 14.5717 3.6025 14.5739 3.6025C14.5761 3.6025 14.5783 3.6025 14.5805 3.6025C14.5827 3.6025 14.5849 3.6025 14.587 3.6025C14.5892 3.6025 14.5914 3.6025 14.5936 3.6025C14.5958 3.6025 14.598 3.6025 14.6002 3.6025C14.6024 3.6025 14.6046 3.6025 14.6068 3.6025C14.6089 3.6025 14.6111 3.6025 14.6133 3.6025C14.6155 3.6025 14.6177 3.6025 14.6199 3.6025C14.6221 3.6025 14.6242 3.6025 14.6264 3.6025C14.6286 3.6025 14.6308 3.6025 14.633 3.6025C14.6352 3.6025 14.6374 3.6025 14.6395 3.6025C14.6417 3.6025 14.6439 3.6025 14.6461 3.6025C14.6483 3.6025 14.6505 3.6025 14.6526 3.6025C14.6548 3.6025 14.657 3.6025 14.6592 3.6025C14.6614 3.6025 14.6635 3.6025 14.6657 3.6025C14.6679 3.6025 14.6701 3.6025 14.6723 3.6025C14.6744 3.6025 14.6766 3.6025 14.6788 3.6025C14.681 3.6025 14.6832 3.6025 14.6853 3.6025C14.6875 3.6025 14.6897 3.6025 14.6919 3.6025C14.694 3.6025 14.6962 3.6025 14.6984 3.6025C14.7006 3.6025 14.7027 3.6025 14.7049 3.6025C14.7071 3.6025 14.7093 3.6025 14.7114 3.6025C14.7136 3.6025 14.7158 3.6025 14.718 3.6025C14.7201 3.6025 14.7223 3.6025 14.7245 3.6025C14.7266 3.6025 14.7288 3.6025 14.731 3.6025C14.7332 3.6025 14.7353 3.6025 14.7375 3.6025C14.7397 3.6025 14.7418 3.6025 14.744 3.6025C14.7462 3.6025 14.7483 3.6025 14.7505 3.6025C14.7527 3.6025 14.7548 3.6025 14.757 3.6025C14.7592 3.6025 14.7613 3.6025 14.7635 3.6025C14.7657 3.6025 14.7678 3.6025 14.77 3.6025C14.7722 3.6025 14.7743 3.6025 14.7765 3.6025C14.7787 3.6025 14.7808 3.6025 14.783 3.6025C14.7852 3.6025 14.7873 3.6025 14.7895 3.6025C14.7916 3.6025 14.7938 3.6025 14.796 3.6025C14.7981 3.6025 14.8003 3.6025 14.8024 3.6025C14.8046 3.6025 14.8068 3.6025 14.8089 3.6025C14.8111 3.6025 14.8132 3.6025 14.8154 3.6025C14.8176 3.6025 14.8197 3.6025 14.8219 3.6025C14.824 3.6025 14.8262 3.6025 14.8283 3.6025C14.8305 3.6025 14.8327 3.6025 14.8348 3.6025C14.837 3.6025 14.8391 3.6025 14.8413 3.6025C14.8434 3.6025 14.8456 3.6025 14.8477 3.6025C14.8499 3.6025 14.852 3.6025 14.8542 3.6025C14.8563 3.6025 14.8585 3.6025 14.8606 3.6025C14.8628 3.6025 14.8649 3.6025 14.8671 3.6025C14.8692 3.6025 14.8714 3.6025 14.8735 3.6025C14.8757 3.6025 14.8778 3.6025 14.88 3.6025C14.8821 3.6025 14.8843 3.6025 14.8864 3.6025C14.8886 3.6025 14.8907 3.6025 14.8929 3.6025C14.895 3.6025 14.8972 3.6025 14.8993 3.6025C14.9015 3.6025 14.9036 3.6025 14.9058 3.6025C14.9079 3.6025 14.91 3.6025 14.9122 3.6025C14.9143 3.6025 14.9165 3.6025 14.9186 3.6025C14.9208 3.6025 14.9229 3.6025 14.925 3.6025C14.9272 3.6025 14.9293 3.6025 14.9315 3.6025C14.9336 3.6025 14.9357 3.6025 14.9379 3.6025C14.94 3.6025 14.9422 3.6025 14.9443 3.6025C14.9464 3.6025 14.9486 3.6025 14.9507 3.6025C14.9528 3.6025 14.955 3.6025 14.9571 3.6025C14.9593 3.6025 14.9614 3.6025 14.9635 3.6025C14.9657 3.6025 14.9678 3.6025 14.9699 3.6025C14.9721 3.6025 14.9742 3.6025 14.9763 3.6025C14.9785 3.6025 14.9806 3.6025 14.9827 3.6025C14.9849 3.6025 14.987 3.6025 14.9891 3.6025C14.9913 3.6025 14.9934 3.6025 14.9955 3.6025C14.9976 3.6025 14.9998 3.6025 15.0019 3.6025C15.004 3.6025 15.0062 3.6025 15.0083 3.6025C15.0104 3.6025 15.0126 3.6025 15.0147 3.6025C15.0168 3.6025 15.0189 3.6025 15.0211 3.6025C15.0232 3.6025 15.0253 3.6025 15.0274 3.6025C15.0296 3.6025 15.0317 3.6025 15.0338 3.6025C15.0359 3.6025 15.0381 3.6025 15.0402 3.6025C15.0423 3.6025 15.0444 3.6025 15.0465 3.6025C15.0487 3.6025 15.0508 3.6025 15.0529 3.6025C15.055 3.6025 15.0572 3.6025 15.0593 3.6025C15.0614 3.6025 15.0635 3.6025 15.0656 3.6025C15.0677 3.6025 15.0699 3.6025 15.072 3.6025C15.0741 3.6025 15.0762 3.6025 15.0783 3.6025C15.0805 3.6025 15.0826 3.6025 15.0847 3.6025C15.0868 3.6025 15.0889 3.6025 15.091 3.6025C15.0931 3.6025 15.0953 3.6025 15.0974 3.6025C15.0995 3.6025 15.1016 3.6025 15.1037 3.6025C15.1058 3.6025 15.1079 3.6025 15.11 3.6025C15.1122 3.6025 15.1143 3.6025 15.1164 3.6025C15.1185 3.6025 15.1206 3.6025 15.1227 3.6025C15.1248 3.6025 15.1269 3.6025 15.129 3.6025C15.1311 3.6025 15.1333 3.6025 15.1354 3.6025C15.1375 3.6025 15.1396 3.6025 15.1417 3.6025C15.1438 3.6025 15.1459 3.6025 15.148 3.6025C15.1501 3.6025 15.1522 3.6025 15.1543 3.6025C15.1564 3.6025 15.1585 3.6025 15.1606 3.6025C15.1627 3.6025 15.1648 3.6025 15.1669 3.6025C15.169 3.6025 15.1711 3.6025 15.1732 3.6025C15.1753 3.6025 15.1774 3.6025 15.1795 3.6025C15.1816 3.6025 15.1837 3.6025 15.1858 3.6025C15.1879 3.6025 15.19 3.6025 15.1921 3.6025C15.1942 3.6025 15.1963 3.6025 15.1984 3.6025C15.2005 3.6025 15.2026 3.6025 15.2047 3.6025C15.2068 3.6025 15.2089 3.6025 15.211 3.6025C15.2131 3.6025 15.2152 3.6025 15.2173 3.6025C15.2194 3.6025 15.2215 3.6025 15.2235 3.6025C15.2256 3.6025 15.2277 3.6025 15.2298 3.6025C15.2319 3.6025 15.234 3.6025 15.2361 3.6025C15.2382 3.6025 15.2403 3.6025 15.2424 3.6025C15.2444 3.6025 15.2465 3.6025 15.2486 3.6025C15.2507 3.6025 15.2528 3.6025 15.2549 3.6025C15.257 3.6025 15.2591 3.6025 15.2611 3.6025C15.2632 3.6025 15.2653 3.6025 15.2674 3.6025C15.2695 3.6025 15.2716 3.6025 15.2736 3.6025C15.2757 3.6025 15.2778 3.6025 15.2799 3.6025C15.282 3.6025 15.2841 3.6025 15.2861 3.6025C15.2882 3.6025 15.2903 3.6025 15.2924 3.6025C15.2945 3.6025 15.2965 3.6025 15.2986 3.6025C15.3007 3.6025 15.3028 3.6025 15.3049 3.6025C15.3069 3.6025 15.309 3.6025 15.3111 3.6025C15.3132 3.6025 15.3152 3.6025 15.3173 3.6025C15.3194 3.6025 15.3215 3.6025 15.3235 3.6025C15.3256 3.6025 15.3277 3.6025 15.3298 3.6025C15.3318 3.6025 15.3339 3.6025 15.336 3.6025C15.3381 3.6025 15.3401 3.6025 15.3422 3.6025C15.3443 3.6025 15.3463 3.6025 15.3484 3.6025C15.3505 3.6025 15.3525 3.6025 15.3546 3.6025C15.3567 3.6025 15.3587 3.6025 15.3608 3.6025C15.3629 3.6025 15.365 3.6025 15.367 3.6025C15.3691 3.6025 15.3712 3.6025 15.3732 3.6025C15.3753 3.6025 15.3773 3.6025 15.3794 3.6025C15.3815 3.6025 15.3835 3.6025 15.3856 3.6025C15.3877 3.6025 15.3897 3.6025 15.3918 3.6025C15.3938 3.6025 15.3959 3.6025 15.398 3.6025C15.4 3.6025 15.4021 3.6025 15.4042 3.6025C15.4062 3.6025 15.4083 3.6025 15.4103 3.6025C15.4124 3.6025 15.4144 3.6025 15.4165 3.6025C15.4186 3.6025 15.4206 3.6025 15.4227 3.6025C15.4247 3.6025 15.4268 3.6025 15.4288 3.6025C15.4309 3.6025 15.4329 3.6025 15.435 3.6025C15.4371 3.6025 15.4391 3.6025 15.4412 3.6025C15.4432 3.6025 15.4453 3.6025 15.4473 3.6025C15.4494 3.6025 15.4514 3.6025 15.4535 3.6025C15.4555 3.6025 15.4576 3.6025 15.4596 3.6025C15.4617 3.6025 15.4637 3.6025 15.4658 3.6025C15.4678 3.6025 15.4699 3.6025 15.4719 3.6025C15.474 3.6025 15.476 3.6025 15.478 3.6025C15.4801 3.6025 15.4821 3.6025 15.4842 3.6025C15.4862 3.6025 15.4883 3.6025 15.4903 3.6025C15.4924 3.6025 15.4944 3.6025 15.4964 3.6025C15.4985 3.6025 15.5005 3.6025 15.5026 3.6025C15.5046 3.6025 15.5066 3.6025 15.5087 3.6025C15.5107 3.6025 15.5128 3.6025 15.5148 3.6025C15.5168 3.6025 15.5189 3.6025 15.5209 3.6025C15.523 3.6025 15.525 3.6025 15.527 3.6025C15.5291 3.6025 15.5311 3.6025 15.5331 3.6025C15.5352 3.6025 15.5372 3.6025 15.5392 3.6025C15.5413 3.6025 15.5433 3.6025 15.5453 3.6025C15.5474 3.6025 15.5494 3.6025 15.5514 3.6025C15.5535 3.6025 15.5555 3.6025 15.5575 3.6025C15.5596 3.6025 15.5616 3.6025 15.5636 3.6025C15.5656 3.6025 15.5677 3.6025 15.5697 3.6025C15.5717 3.6025 15.5738 3.6025 15.5758 3.6025C15.5778 3.6025 15.5798 3.6025 15.5819 3.6025C15.5839 3.6025 15.5859 3.6025 15.5879 3.6025C15.59 3.6025 15.592 3.6025 15.594 3.6025C15.596 3.6025 15.598 3.6025 15.6001 3.6025C15.6021 3.6025 15.6041 3.6025 15.6061 3.6025C15.6082 3.6025 15.6102 3.6025 15.6122 3.6025C15.6142 3.6025 15.6162 3.6025 15.6182 3.6025C15.6203 3.6025 15.6223 3.6025 15.6243 3.6025C15.6263 3.6025 15.6283 3.6025 15.6303 3.6025C15.6324 3.6025 15.6344 3.6025 15.6364 3.6025C15.6384 3.6025 15.6404 3.6025 15.6424 3.6025C15.6444 3.6025 15.6465 3.6025 15.6485 3.6025C15.6505 3.6025 15.6525 3.6025 15.6545 3.6025C15.6565 3.6025 15.6585 3.6025 15.6605 3.6025C15.6625 3.6025 15.6646 3.6025 15.6666 3.6025C15.6686 3.6025 15.6706 3.6025 15.6726 3.6025C15.6746 3.6025 15.6766 3.6025 15.6786 3.6025C15.6806 3.6025 15.6826 3.6025 15.6846 3.6025C15.6866 3.6025 15.6886 3.6025 15.6906 3.6025C15.6926 3.6025 15.6946 3.6025 15.6966 3.6025C15.6986 3.6025 15.7006 3.6025 15.7026 3.6025C15.7046 3.6025 15.7066 3.6025 15.7086 3.6025C15.7106 3.6025 15.7126 3.6025 15.7146 3.6025C15.7166 3.6025 15.7186 3.6025 15.7206 3.6025C15.7226 3.6025 15.7246 3.6025 15.7266 3.6025C15.7286 3.6025 15.7306 3.6025 15.7326 3.6025C15.7346 3.6025 15.7366 3.6025 15.7386 3.6025C15.7406 3.6025 15.7426 3.6025 15.7446 3.6025C15.7466 3.6025 15.7486 3.6025 15.7505 3.6025C15.7525 3.6025 15.7545 3.6025 15.7565 3.6025C15.7585 3.6025 15.7605 3.6025 15.7625 3.6025C15.7645 3.6025 15.7665 3.6025 15.7684 3.6025C15.7704 3.6025 15.7724 3.6025 15.7744 3.6025C15.7764 3.6025 15.7784 3.6025 15.7804 3.6025C15.7823 3.6025 15.7843 3.6025 15.7863 3.6025C15.7883 3.6025 15.7903 3.6025 15.7923 3.6025C15.7942 3.6025 15.7962 3.6025 15.7982 3.6025C15.8002 3.6025 15.8022 3.6025 15.8041 3.6025C15.8061 3.6025 15.8081 3.6025 15.8101 3.6025C15.8121 3.6025 15.814 3.6025 15.816 3.6025C15.818 3.6025 15.82 3.6025 15.8219 3.6025C15.8239 3.6025 15.8259 3.6025 15.8279 3.6025C15.8298 3.6025 15.8318 3.6025 15.8338 3.6025C15.8358 3.6025 15.8377 3.6025 15.8397 3.6025C15.8417 3.6025 15.8436 3.6025 15.8456 3.6025C15.8476 3.6025 15.8496 3.6025 15.8515 3.6025C15.8535 3.6025 15.8555 3.6025 15.8574 3.6025C15.8594 3.6025 15.8614 3.6025 15.8633 3.6025C15.8653 3.6025 15.8673 3.6025 15.8692 3.6025C15.8712 3.6025 15.8732 3.6025 15.8751 3.6025C15.8771 3.6025 15.879 3.6025 15.881 3.6025C15.883 3.6025 15.8849 3.6025 15.8869 3.6025C15.8889 3.6025 15.8908 3.6025 15.8928 3.6025C15.8947 3.6025 15.8967 3.6025 15.8987 3.6025C15.9006 3.6025 15.9026 3.6025 15.9045 3.6025C15.9065 3.6025 15.9084 3.6025 15.9104 3.6025C15.9124 3.6025 15.9143 3.6025 15.9163 3.6025C15.9182 3.6025 15.9202 3.6025 15.9221 3.6025C15.9241 3.6025 15.926 3.6025 15.928 3.6025C15.9299 3.6025 15.9319 3.6025 15.9338 3.6025C15.9358 3.6025 15.9377 3.6025 15.9397 3.6025C15.9416 3.6025 15.9436 3.6025 15.9455 3.6025C15.9475 3.6025 15.9494 3.6025 15.9514 3.6025C15.9533 3.6025 15.9553 3.6025 15.9572 3.6025C15.9592 3.6025 15.9611 3.6025 15.9631 3.6025C15.965 3.6025 15.9669 3.6025 15.9689 3.6025C15.9708 3.6025 15.9728 3.6025 15.9747 3.6025C15.9767 3.6025 15.9786 3.6025 15.9805 3.6025C15.9825 3.6025 15.9844 3.6025 15.9864 3.60249C15.9883 3.60249 15.9902 3.60249 15.9922 3.60249C15.9941 3.60249 15.996 3.60249 15.998 3.60249C15.9999 3.60249 16.0019 3.60249 16.0038 3.60249C16.0057 3.60249 16.0077 3.60249 16.0096 3.60249C16.0115 3.60249 16.0135 3.60249 16.0154 3.60249C16.0173 3.60249 16.0193 3.60249 16.0212 3.60249C16.0231 3.60249 16.025 3.60249 16.027 3.60249C16.0289 3.60249 16.0308 3.60249 16.0328 3.60249C16.0347 3.60249 16.0366 3.60249 16.0385 3.60249C16.0405 3.60249 16.0424 3.60249 16.0443 3.60249C16.0462 3.60249 16.0482 3.60249 16.0501 3.60249C16.052 3.60249 16.0539 3.60249 16.0559 3.60249C16.0578 3.60249 16.0597 3.60249 16.0616 3.60249C16.0636 3.60249 16.0655 3.60249 16.0674 3.60249C16.0693 3.60249 16.0712 3.60249 16.0731 3.60249C16.0751 3.60249 16.077 3.60249 16.0789 3.60249C16.0808 3.60249 16.0827 3.60249 16.0847 3.60249C16.0866 3.60249 16.0885 3.60249 16.0904 3.60249C16.0923 3.60249 16.0942 3.60249 16.0961 3.60249C16.0981 3.60249 16.1 3.60249 16.1019 3.60249C16.1038 3.60249 16.1057 3.60249 16.1076 3.60249C16.1095 3.60249 16.1114 3.60249 16.1133 3.60249C16.1152 3.60249 16.1172 3.60249 16.1191 3.60249C16.121 3.60249 16.1229 3.60249 16.1248 3.60249C16.1267 3.60249 16.1286 3.60249 16.1305 3.60249C16.1324 3.60249 16.1343 3.60249 16.1362 3.60249C16.1381 3.60249 16.14 3.60249 16.1419 3.60249C16.1438 3.60249 16.1457 3.60249 16.1476 3.60249C16.1495 3.60249 16.1514 3.60249 16.1533 3.60249C16.1552 3.60249 16.1571 3.60249 16.159 3.60249C16.1609 3.60249 16.1628 3.60249 16.1647 3.60249C16.1666 3.60249 16.1685 3.60249 16.1704 3.60249C16.1723 3.60249 16.1742 3.60249 16.1761 3.60249C16.178 3.60249 16.1799 3.60249 16.1818 3.60249C16.1837 3.60249 16.1855 3.60249 16.1874 3.60249C16.1893 3.60249 16.1912 3.60249 16.1931 3.60249C16.195 3.60249 16.1969 3.60249 16.1988 3.60249C16.2007 3.60249 16.2025 3.60249 16.2044 3.60249C16.2063 3.60249 16.2082 3.60249 16.2101 3.60249C16.212 3.60249 16.2139 3.60249 16.2157 3.60249C16.2176 3.60249 16.2195 3.60249 16.2214 3.60249C16.2233 3.60249 16.2252 3.60249 16.227 3.60249C16.2289 3.60249 16.2308 3.60249 16.2327 3.60249C16.2346 3.60249 16.2364 3.60249 16.2383 3.60249L16.2383 2.26783C16.2364 2.26783 16.2346 2.26783 16.2327 2.26783C16.2308 2.26783 16.2289 2.26783 16.227 2.26783C16.2252 2.26783 16.2233 2.26783 16.2214 2.26783C16.2195 2.26783 16.2176 2.26783 16.2157 2.26783C16.2139 2.26783 16.212 2.26783 16.2101 2.26783C16.2082 2.26783 16.2063 2.26783 16.2044 2.26783C16.2025 2.26783 16.2007 2.26783 16.1988 2.26783C16.1969 2.26783 16.195 2.26783 16.1931 2.26783C16.1912 2.26783 16.1893 2.26783 16.1874 2.26783C16.1855 2.26783 16.1837 2.26783 16.1818 2.26783C16.1799 2.26783 16.178 2.26783 16.1761 2.26783C16.1742 2.26783 16.1723 2.26783 16.1704 2.26783C16.1685 2.26783 16.1666 2.26783 16.1647 2.26783C16.1628 2.26783 16.1609 2.26783 16.159 2.26783C16.1571 2.26783 16.1552 2.26783 16.1533 2.26783C16.1514 2.26783 16.1495 2.26783 16.1476 2.26783C16.1457 2.26783 16.1438 2.26783 16.1419 2.26783C16.14 2.26783 16.1381 2.26783 16.1362 2.26783C16.1343 2.26783 16.1324 2.26783 16.1305 2.26783C16.1286 2.26783 16.1267 2.26783 16.1248 2.26783C16.1229 2.26783 16.121 2.26783 16.1191 2.26783C16.1172 2.26783 16.1152 2.26783 16.1133 2.26783C16.1114 2.26783 16.1095 2.26783 16.1076 2.26783C16.1057 2.26783 16.1038 2.26783 16.1019 2.26783C16.1 2.26783 16.0981 2.26783 16.0961 2.26783C16.0942 2.26783 16.0923 2.26783 16.0904 2.26783C16.0885 2.26783 16.0866 2.26783 16.0847 2.26783C16.0827 2.26783 16.0808 2.26783 16.0789 2.26783C16.077 2.26783 16.0751 2.26783 16.0731 2.26783C16.0712 2.26783 16.0693 2.26783 16.0674 2.26783C16.0655 2.26783 16.0636 2.26783 16.0616 2.26783C16.0597 2.26783 16.0578 2.26783 16.0559 2.26783C16.0539 2.26783 16.052 2.26783 16.0501 2.26783C16.0482 2.26783 16.0462 2.26783 16.0443 2.26783C16.0424 2.26783 16.0405 2.26783 16.0385 2.26783C16.0366 2.26783 16.0347 2.26783 16.0328 2.26783C16.0308 2.26783 16.0289 2.26783 16.027 2.26783C16.025 2.26783 16.0231 2.26783 16.0212 2.26783C16.0193 2.26783 16.0173 2.26783 16.0154 2.26783C16.0135 2.26783 16.0115 2.26783 16.0096 2.26783C16.0077 2.26783 16.0057 2.26783 16.0038 2.26783C16.0019 2.26783 15.9999 2.26783 15.998 2.26783C15.996 2.26783 15.9941 2.26783 15.9922 2.26783C15.9902 2.26783 15.9883 2.26783 15.9864 2.26783C15.9844 2.26783 15.9825 2.26783 15.9805 2.26783C15.9786 2.26783 15.9767 2.26783 15.9747 2.26783C15.9728 2.26783 15.9708 2.26783 15.9689 2.26783C15.9669 2.26783 15.965 2.26783 15.9631 2.26783C15.9611 2.26783 15.9592 2.26783 15.9572 2.26783C15.9553 2.26783 15.9533 2.26783 15.9514 2.26783C15.9494 2.26783 15.9475 2.26783 15.9455 2.26783C15.9436 2.26783 15.9416 2.26783 15.9397 2.26783C15.9377 2.26783 15.9358 2.26783 15.9338 2.26783C15.9319 2.26783 15.9299 2.26783 15.928 2.26783C15.926 2.26783 15.9241 2.26783 15.9221 2.26783C15.9202 2.26783 15.9182 2.26783 15.9163 2.26783C15.9143 2.26783 15.9124 2.26783 15.9104 2.26783C15.9084 2.26783 15.9065 2.26783 15.9045 2.26783C15.9026 2.26783 15.9006 2.26783 15.8987 2.26783C15.8967 2.26783 15.8947 2.26783 15.8928 2.26783C15.8908 2.26783 15.8889 2.26783 15.8869 2.26783C15.8849 2.26783 15.883 2.26783 15.881 2.26783C15.879 2.26783 15.8771 2.26783 15.8751 2.26783C15.8732 2.26783 15.8712 2.26783 15.8692 2.26783C15.8673 2.26783 15.8653 2.26783 15.8633 2.26783C15.8614 2.26783 15.8594 2.26783 15.8574 2.26783C15.8555 2.26783 15.8535 2.26783 15.8515 2.26783C15.8496 2.26783 15.8476 2.26783 15.8456 2.26783C15.8436 2.26783 15.8417 2.26783 15.8397 2.26783C15.8377 2.26783 15.8358 2.26783 15.8338 2.26783C15.8318 2.26783 15.8298 2.26783 15.8279 2.26783C15.8259 2.26783 15.8239 2.26783 15.8219 2.26783C15.82 2.26783 15.818 2.26783 15.816 2.26783C15.814 2.26783 15.8121 2.26783 15.8101 2.26783C15.8081 2.26783 15.8061 2.26783 15.8041 2.26783C15.8022 2.26783 15.8002 2.26783 15.7982 2.26783C15.7962 2.26783 15.7942 2.26783 15.7923 2.26783C15.7903 2.26783 15.7883 2.26783 15.7863 2.26783C15.7843 2.26783 15.7823 2.26783 15.7804 2.26783C15.7784 2.26783 15.7764 2.26783 15.7744 2.26783C15.7724 2.26783 15.7704 2.26783 15.7684 2.26783C15.7665 2.26783 15.7645 2.26783 15.7625 2.26783C15.7605 2.26783 15.7585 2.26783 15.7565 2.26783C15.7545 2.26783 15.7525 2.26783 15.7505 2.26783C15.7486 2.26783 15.7466 2.26783 15.7446 2.26783C15.7426 2.26783 15.7406 2.26783 15.7386 2.26783C15.7366 2.26783 15.7346 2.26783 15.7326 2.26783C15.7306 2.26783 15.7286 2.26783 15.7266 2.26783C15.7246 2.26783 15.7226 2.26783 15.7206 2.26783C15.7186 2.26783 15.7166 2.26783 15.7146 2.26783C15.7126 2.26783 15.7106 2.26783 15.7086 2.26783C15.7066 2.26783 15.7046 2.26783 15.7026 2.26783C15.7006 2.26783 15.6986 2.26783 15.6966 2.26783C15.6946 2.26783 15.6926 2.26783 15.6906 2.26783C15.6886 2.26783 15.6866 2.26783 15.6846 2.26783C15.6826 2.26783 15.6806 2.26783 15.6786 2.26783C15.6766 2.26783 15.6746 2.26783 15.6726 2.26783C15.6706 2.26783 15.6686 2.26783 15.6666 2.26783C15.6646 2.26783 15.6625 2.26783 15.6605 2.26783C15.6585 2.26783 15.6565 2.26783 15.6545 2.26783C15.6525 2.26783 15.6505 2.26783 15.6485 2.26783C15.6465 2.26783 15.6444 2.26783 15.6424 2.26783C15.6404 2.26783 15.6384 2.26783 15.6364 2.26783C15.6344 2.26783 15.6324 2.26783 15.6303 2.26783C15.6283 2.26783 15.6263 2.26783 15.6243 2.26783C15.6223 2.26783 15.6203 2.26783 15.6182 2.26783C15.6162 2.26783 15.6142 2.26783 15.6122 2.26783C15.6102 2.26783 15.6082 2.26783 15.6061 2.26783C15.6041 2.26783 15.6021 2.26783 15.6001 2.26783C15.598 2.26783 15.596 2.26783 15.594 2.26783C15.592 2.26783 15.59 2.26783 15.5879 2.26783C15.5859 2.26783 15.5839 2.26783 15.5819 2.26783C15.5798 2.26783 15.5778 2.26783 15.5758 2.26783C15.5738 2.26783 15.5717 2.26783 15.5697 2.26783C15.5677 2.26783 15.5656 2.26783 15.5636 2.26783C15.5616 2.26783 15.5596 2.26783 15.5575 2.26783C15.5555 2.26783 15.5535 2.26783 15.5514 2.26783C15.5494 2.26783 15.5474 2.26783 15.5453 2.26783C15.5433 2.26783 15.5413 2.26783 15.5392 2.26783C15.5372 2.26783 15.5352 2.26783 15.5331 2.26783C15.5311 2.26783 15.5291 2.26783 15.527 2.26783C15.525 2.26783 15.523 2.26783 15.5209 2.26783C15.5189 2.26783 15.5168 2.26783 15.5148 2.26783C15.5128 2.26783 15.5107 2.26783 15.5087 2.26783C15.5066 2.26783 15.5046 2.26783 15.5026 2.26783C15.5005 2.26783 15.4985 2.26783 15.4964 2.26783C15.4944 2.26783 15.4924 2.26783 15.4903 2.26783C15.4883 2.26783 15.4862 2.26783 15.4842 2.26783C15.4821 2.26783 15.4801 2.26783 15.478 2.26783C15.476 2.26783 15.474 2.26783 15.4719 2.26783C15.4699 2.26783 15.4678 2.26783 15.4658 2.26783C15.4637 2.26783 15.4617 2.26783 15.4596 2.26783C15.4576 2.26783 15.4555 2.26783 15.4535 2.26783C15.4514 2.26783 15.4494 2.26783 15.4473 2.26783C15.4453 2.26783 15.4432 2.26783 15.4412 2.26783C15.4391 2.26783 15.4371 2.26783 15.435 2.26783C15.4329 2.26783 15.4309 2.26783 15.4288 2.26783C15.4268 2.26783 15.4247 2.26783 15.4227 2.26783C15.4206 2.26783 15.4186 2.26783 15.4165 2.26783C15.4144 2.26783 15.4124 2.26783 15.4103 2.26783C15.4083 2.26783 15.4062 2.26783 15.4042 2.26783C15.4021 2.26783 15.4 2.26783 15.398 2.26783C15.3959 2.26783 15.3938 2.26783 15.3918 2.26783C15.3897 2.26783 15.3877 2.26783 15.3856 2.26783C15.3835 2.26783 15.3815 2.26783 15.3794 2.26783C15.3773 2.26783 15.3753 2.26783 15.3732 2.26783C15.3712 2.26783 15.3691 2.26783 15.367 2.26783C15.365 2.26783 15.3629 2.26783 15.3608 2.26783C15.3587 2.26783 15.3567 2.26783 15.3546 2.26783C15.3525 2.26783 15.3505 2.26783 15.3484 2.26783C15.3463 2.26783 15.3443 2.26783 15.3422 2.26783C15.3401 2.26783 15.3381 2.26783 15.336 2.26783C15.3339 2.26783 15.3318 2.26783 15.3298 2.26783C15.3277 2.26783 15.3256 2.26783 15.3235 2.26783C15.3215 2.26783 15.3194 2.26783 15.3173 2.26783C15.3152 2.26783 15.3132 2.26783 15.3111 2.26783C15.309 2.26783 15.3069 2.26783 15.3049 2.26783C15.3028 2.26783 15.3007 2.26783 15.2986 2.26783C15.2965 2.26783 15.2945 2.26783 15.2924 2.26783C15.2903 2.26783 15.2882 2.26783 15.2861 2.26783C15.2841 2.26783 15.282 2.26783 15.2799 2.26783C15.2778 2.26783 15.2757 2.26783 15.2736 2.26783C15.2716 2.26783 15.2695 2.26783 15.2674 2.26783C15.2653 2.26783 15.2632 2.26783 15.2611 2.26783C15.2591 2.26783 15.257 2.26783 15.2549 2.26783C15.2528 2.26783 15.2507 2.26783 15.2486 2.26783C15.2465 2.26783 15.2444 2.26783 15.2424 2.26783C15.2403 2.26783 15.2382 2.26783 15.2361 2.26783C15.234 2.26783 15.2319 2.26783 15.2298 2.26783C15.2277 2.26783 15.2256 2.26783 15.2235 2.26783C15.2215 2.26783 15.2194 2.26783 15.2173 2.26783C15.2152 2.26783 15.2131 2.26783 15.211 2.26783C15.2089 2.26783 15.2068 2.26783 15.2047 2.26783C15.2026 2.26783 15.2005 2.26783 15.1984 2.26783C15.1963 2.26783 15.1942 2.26783 15.1921 2.26783C15.19 2.26783 15.1879 2.26783 15.1858 2.26783C15.1837 2.26783 15.1816 2.26783 15.1795 2.26783C15.1774 2.26783 15.1753 2.26783 15.1732 2.26783C15.1711 2.26783 15.169 2.26783 15.1669 2.26783C15.1648 2.26783 15.1627 2.26783 15.1606 2.26783C15.1585 2.26783 15.1564 2.26783 15.1543 2.26783C15.1522 2.26783 15.1501 2.26783 15.148 2.26783C15.1459 2.26783 15.1438 2.26783 15.1417 2.26783C15.1396 2.26783 15.1375 2.26783 15.1354 2.26783C15.1333 2.26783 15.1311 2.26783 15.129 2.26783C15.1269 2.26783 15.1248 2.26783 15.1227 2.26783C15.1206 2.26783 15.1185 2.26783 15.1164 2.26783C15.1143 2.26783 15.1122 2.26783 15.11 2.26783C15.1079 2.26783 15.1058 2.26783 15.1037 2.26783C15.1016 2.26783 15.0995 2.26783 15.0974 2.26783C15.0953 2.26783 15.0931 2.26783 15.091 2.26783C15.0889 2.26783 15.0868 2.26783 15.0847 2.26783C15.0826 2.26783 15.0805 2.26783 15.0783 2.26783C15.0762 2.26783 15.0741 2.26783 15.072 2.26783C15.0699 2.26783 15.0677 2.26783 15.0656 2.26783C15.0635 2.26783 15.0614 2.26783 15.0593 2.26783C15.0572 2.26783 15.055 2.26783 15.0529 2.26783C15.0508 2.26783 15.0487 2.26783 15.0465 2.26783C15.0444 2.26783 15.0423 2.26783 15.0402 2.26783C15.0381 2.26783 15.0359 2.26783 15.0338 2.26783C15.0317 2.26783 15.0296 2.26783 15.0274 2.26783C15.0253 2.26783 15.0232 2.26783 15.0211 2.26783C15.0189 2.26783 15.0168 2.26783 15.0147 2.26783C15.0126 2.26783 15.0104 2.26783 15.0083 2.26783C15.0062 2.26783 15.004 2.26783 15.0019 2.26783C14.9998 2.26783 14.9976 2.26783 14.9955 2.26783C14.9934 2.26783 14.9913 2.26783 14.9891 2.26783C14.987 2.26783 14.9849 2.26783 14.9827 2.26783C14.9806 2.26783 14.9785 2.26783 14.9763 2.26783C14.9742 2.26783 14.9721 2.26783 14.9699 2.26783C14.9678 2.26783 14.9657 2.26783 14.9635 2.26783C14.9614 2.26783 14.9593 2.26783 14.9571 2.26783C14.955 2.26783 14.9528 2.26783 14.9507 2.26783C14.9486 2.26783 14.9464 2.26783 14.9443 2.26783C14.9422 2.26783 14.94 2.26783 14.9379 2.26783C14.9357 2.26783 14.9336 2.26783 14.9315 2.26783C14.9293 2.26783 14.9272 2.26783 14.925 2.26783C14.9229 2.26783 14.9208 2.26783 14.9186 2.26783C14.9165 2.26783 14.9143 2.26783 14.9122 2.26783C14.91 2.26783 14.9079 2.26783 14.9058 2.26783C14.9036 2.26783 14.9015 2.26783 14.8993 2.26783C14.8972 2.26783 14.895 2.26783 14.8929 2.26783C14.8907 2.26783 14.8886 2.26783 14.8864 2.26783C14.8843 2.26783 14.8821 2.26783 14.88 2.26783C14.8778 2.26783 14.8757 2.26783 14.8735 2.26783C14.8714 2.26783 14.8692 2.26783 14.8671 2.26783C14.8649 2.26783 14.8628 2.26783 14.8606 2.26783C14.8585 2.26783 14.8563 2.26783 14.8542 2.26783C14.852 2.26783 14.8499 2.26783 14.8477 2.26783C14.8456 2.26783 14.8434 2.26783 14.8413 2.26783C14.8391 2.26783 14.837 2.26783 14.8348 2.26783C14.8327 2.26783 14.8305 2.26783 14.8283 2.26783C14.8262 2.26783 14.824 2.26783 14.8219 2.26783C14.8197 2.26783 14.8176 2.26783 14.8154 2.26783C14.8132 2.26783 14.8111 2.26783 14.8089 2.26783C14.8068 2.26783 14.8046 2.26783 14.8024 2.26783C14.8003 2.26783 14.7981 2.26783 14.796 2.26783C14.7938 2.26783 14.7916 2.26783 14.7895 2.26783C14.7873 2.26783 14.7852 2.26783 14.783 2.26783C14.7808 2.26783 14.7787 2.26783 14.7765 2.26783C14.7743 2.26783 14.7722 2.26783 14.77 2.26783C14.7678 2.26783 14.7657 2.26783 14.7635 2.26783C14.7613 2.26783 14.7592 2.26783 14.757 2.26783C14.7548 2.26783 14.7527 2.26783 14.7505 2.26783C14.7483 2.26783 14.7462 2.26783 14.744 2.26783C14.7418 2.26783 14.7397 2.26783 14.7375 2.26783C14.7353 2.26783 14.7332 2.26783 14.731 2.26783C14.7288 2.26783 14.7266 2.26783 14.7245 2.26783C14.7223 2.26783 14.7201 2.26783 14.718 2.26783C14.7158 2.26783 14.7136 2.26783 14.7114 2.26783C14.7093 2.26783 14.7071 2.26783 14.7049 2.26783C14.7027 2.26783 14.7006 2.26783 14.6984 2.26783C14.6962 2.26783 14.694 2.26783 14.6919 2.26783C14.6897 2.26783 14.6875 2.26783 14.6853 2.26783C14.6832 2.26783 14.681 2.26783 14.6788 2.26783C14.6766 2.26783 14.6744 2.26783 14.6723 2.26783C14.6701 2.26783 14.6679 2.26783 14.6657 2.26783C14.6635 2.26783 14.6614 2.26783 14.6592 2.26783C14.657 2.26783 14.6548 2.26783 14.6526 2.26783C14.6505 2.26783 14.6483 2.26783 14.6461 2.26783C14.6439 2.26783 14.6417 2.26783 14.6395 2.26783C14.6374 2.26783 14.6352 2.26783 14.633 2.26783C14.6308 2.26783 14.6286 2.26783 14.6264 2.26783C14.6242 2.26783 14.6221 2.26783 14.6199 2.26783C14.6177 2.26783 14.6155 2.26783 14.6133 2.26783C14.6111 2.26783 14.6089 2.26783 14.6068 2.26783C14.6046 2.26783 14.6024 2.26783 14.6002 2.26783C14.598 2.26783 14.5958 2.26783 14.5936 2.26783C14.5914 2.26783 14.5892 2.26783 14.587 2.26783C14.5849 2.26783 14.5827 2.26783 14.5805 2.26783C14.5783 2.26783 14.5761 2.26783 14.5739 2.26783C14.5717 2.26783 14.5695 2.26783 14.5673 2.26783C14.5651 2.26783 14.5629 2.26783 14.5607 2.26783C14.5585 2.26783 14.5563 2.26783 14.5541 2.26783C14.552 2.26783 14.5498 2.26783 14.5476 2.26783C14.5454 2.26783 14.5432 2.26783 14.541 2.26783C14.5388 2.26783 14.5366 2.26783 14.5344 2.26783C14.5322 2.26783 14.53 2.26783 14.5278 2.26783C14.5256 2.26783 14.5234 2.26783 14.5212 2.26783C14.519 2.26783 14.5168 2.26783 14.5146 2.26783C14.5124 2.26783 14.5102 2.26783 14.508 2.26783C14.5058 2.26783 14.5036 2.26783 14.5014 2.26783C14.4992 2.26783 14.497 2.26783 14.4948 2.26783C14.4926 2.26783 14.4904 2.26783 14.4881 2.26783C14.4859 2.26783 14.4837 2.26783 14.4815 2.26783C14.4793 2.26783 14.4771 2.26783 14.4749 2.26783C14.4727 2.26783 14.4705 2.26783 14.4683 2.26783C14.4661 2.26783 14.4639 2.26783 14.4617 2.26783C14.4595 2.26783 14.4573 2.26783 14.4551 2.26783C14.4528 2.26783 14.4506 2.26783 14.4484 2.26783C14.4462 2.26783 14.444 2.26783 14.4418 2.26783C14.4396 2.26783 14.4374 2.26783 14.4352 2.26783C14.4329 2.26783 14.4307 2.26783 14.4285 2.26783C14.4263 2.26783 14.4241 2.26783 14.4219 2.26783C14.4197 2.26783 14.4175 2.26783 14.4152 2.26783C14.413 2.26783 14.4108 2.26783 14.4086 2.26783C14.4064 2.26783 14.4042 2.26783 14.402 2.26783C14.3997 2.26783 14.3975 2.26783 14.3953 2.26783C14.3931 2.26783 14.3909 2.26783 14.3887 2.26783C14.3864 2.26783 14.3842 2.26783 14.382 2.26783C14.3798 2.26783 14.3776 2.26783 14.3754 2.26783C14.3731 2.26783 14.3709 2.26783 14.3687 2.26783C14.3665 2.26783 14.3643 2.26783 14.362 2.26783C14.3598 2.26783 14.3576 2.26783 14.3554 2.26783C14.3532 2.26783 14.3509 2.26783 14.3487 2.26783C14.3465 2.26783 14.3443 2.26783 14.342 2.26783C14.3398 2.26783 14.3376 2.26783 14.3354 2.26783C14.3331 2.26783 14.3309 2.26783 14.3287 2.26783C14.3265 2.26783 14.3242 2.26783 14.322 2.26783C14.3198 2.26783 14.3176 2.26783 14.3153 2.26783C14.3131 2.26783 14.3109 2.26783 14.3087 2.26783C14.3064 2.26783 14.3042 2.26783 14.302 2.26783C14.2997 2.26783 14.2975 2.26783 14.2953 2.26783C14.2931 2.26783 14.2908 2.26783 14.2886 2.26783C14.2864 2.26783 14.2841 2.26783 14.2819 2.26783C14.2797 2.26783 14.2775 2.26783 14.2752 2.26783C14.273 2.26783 14.2708 2.26783 14.2685 2.26783C14.2663 2.26783 14.2641 2.26783 14.2618 2.26783C14.2596 2.26783 14.2574 2.26783 14.2551 2.26783C14.2529 2.26783 14.2507 2.26783 14.2484 2.26783C14.2462 2.26783 14.244 2.26783 14.2417 2.26783C14.2395 2.26783 14.2372 2.26783 14.235 2.26783C14.2328 2.26783 14.2305 2.26783 14.2283 2.26783C14.2261 2.26783 14.2238 2.26783 14.2216 2.26783C14.2194 2.26783 14.2171 2.26783 14.2149 2.26783C14.2126 2.26783 14.2104 2.26783 14.2082 2.26783C14.2059 2.26783 14.2037 2.26783 14.2014 2.26783C14.1992 2.26783 14.197 2.26783 14.1947 2.26783C14.1925 2.26783 14.1902 2.26783 14.188 2.26783C14.1858 2.26783 14.1835 2.26783 14.1813 2.26783C14.179 2.26783 14.1768 2.26783 14.1745 2.26783C14.1723 2.26783 14.1701 2.26783 14.1678 2.26783C14.1656 2.26783 14.1633 2.26783 14.1611 2.26783C14.1588 2.26783 14.1566 2.26783 14.1543 2.26783C14.1521 2.26783 14.1498 2.26783 14.1476 2.26783C14.1454 2.26783 14.1431 2.26783 14.1409 2.26783C14.1386 2.26783 14.1364 2.26783 14.1341 2.26783C14.1319 2.26783 14.1296 2.26783 14.1274 2.26783C14.1251 2.26783 14.1229 2.26783 14.1206 2.26783C14.1184 2.26783 14.1161 2.26783 14.1139 2.26783C14.1116 2.26783 14.1094 2.26783 14.1071 2.26783C14.1049 2.26783 14.1026 2.26783 14.1004 2.26783C14.0981 2.26783 14.0959 2.26783 14.0936 2.26783C14.0914 2.26783 14.0891 2.26783 14.0869 2.26783C14.0846 2.26783 14.0823 2.26783 14.0801 2.26783C14.0778 2.26783 14.0756 2.26783 14.0733 2.26783C14.0711 2.26783 14.0688 2.26783 14.0666 2.26783C14.0643 2.26783 14.0621 2.26783 14.0598 2.26783C14.0575 2.26783 14.0553 2.26783 14.053 2.26783C14.0508 2.26783 14.0485 2.26783 14.0463 2.26783C14.044 2.26783 14.0417 2.26783 14.0395 2.26783C14.0372 2.26783 14.035 2.26783 14.0327 2.26783C14.0304 2.26783 14.0282 2.26783 14.0259 2.26783C14.0237 2.26783 14.0214 2.26783 14.0191 2.26783C14.0169 2.26783 14.0146 2.26783 14.0124 2.26783C14.0101 2.26783 14.0078 2.26783 14.0056 2.26783C14.0033 2.26783 14.001 2.26783 13.9988 2.26783C13.9965 2.26783 13.9943 2.26783 13.992 2.26783C13.9897 2.26783 13.9875 2.26783 13.9852 2.26783C13.9829 2.26783 13.9807 2.26783 13.9784 2.26783C13.9761 2.26783 13.9739 2.26783 13.9716 2.26783C13.9693 2.26783 13.9671 2.26783 13.9648 2.26783C13.9625 2.26783 13.9603 2.26783 13.958 2.26783C13.9557 2.26783 13.9535 2.26783 13.9512 2.26783C13.9489 2.26783 13.9467 2.26783 13.9444 2.26783C13.9421 2.26783 13.9399 2.26783 13.9376 2.26783C13.9353 2.26783 13.9331 2.26783 13.9308 2.26783C13.9285 2.26783 13.9262 2.26783 13.924 2.26783C13.9217 2.26783 13.9194 2.26783 13.9172 2.26783C13.9149 2.26783 13.9126 2.26783 13.9103 2.26783C13.9081 2.26783 13.9058 2.26783 13.9035 2.26783C13.9012 2.26783 13.899 2.26783 13.8967 2.26783C13.8944 2.26783 13.8922 2.26783 13.8899 2.26783C13.8876 2.26783 13.8853 2.26783 13.8831 2.26783C13.8808 2.26783 13.8785 2.26783 13.8762 2.26783C13.8739 2.26783 13.8717 2.26783 13.8694 2.26783C13.8671 2.26783 13.8648 2.26783 13.8626 2.26783C13.8603 2.26783 13.858 2.26783 13.8557 2.26783C13.8535 2.26783 13.8512 2.26783 13.8489 2.26783C13.8466 2.26783 13.8443 2.26783 13.8421 2.26783C13.8398 2.26783 13.8375 2.26783 13.8352 2.26783C13.8329 2.26783 13.8307 2.26783 13.8284 2.26783C13.8261 2.26783 13.8238 2.26783 13.8215 2.26783C13.8193 2.26783 13.817 2.26783 13.8147 2.26783C13.8124 2.26783 13.8101 2.26783 13.8078 2.26783C13.8056 2.26783 13.8033 2.26783 13.801 2.26783C13.7987 2.26783 13.7964 2.26783 13.7941 2.26783C13.7919 2.26783 13.7896 2.26783 13.7873 2.26783C13.785 2.26783 13.7827 2.26783 13.7804 2.26783C13.7781 2.26783 13.7759 2.26783 13.7736 2.26783C13.7713 2.26783 13.769 2.26783 13.7667 2.26783C13.7644 2.26783 13.7621 2.26783 13.7599 2.26783C13.7576 2.26783 13.7553 2.26783 13.753 2.26783C13.7507 2.26783 13.7484 2.26783 13.7461 2.26783C13.7438 2.26783 13.7415 2.26783 13.7393 2.26783C13.737 2.26783 13.7347 2.26783 13.7324 2.26783C13.7301 2.26783 13.7278 2.26783 13.7255 2.26783C13.7232 2.26783 13.7209 2.26783 13.7186 2.26783C13.7163 2.26783 13.7141 2.26783 13.7118 2.26783C13.7095 2.26783 13.7072 2.26783 13.7049 2.26783C13.7026 2.26783 13.7003 2.26783 13.698 2.26783C13.6957 2.26783 13.6934 2.26783 13.6911 2.26783C13.6888 2.26783 13.6865 2.26783 13.6842 2.26783C13.6819 2.26783 13.6797 2.26783 13.6774 2.26783C13.6751 2.26783 13.6728 2.26783 13.6705 2.26783C13.6682 2.26783 13.6659 2.26783 13.6636 2.26783C13.6613 2.26783 13.659 2.26783 13.6567 2.26783C13.6544 2.26783 13.6521 2.26783 13.6498 2.26783C13.6475 2.26783 13.6452 2.26783 13.6429 2.26783C13.6406 2.26783 13.6383 2.26783 13.636 2.26783C13.6337 2.26783 13.6314 2.26783 13.6291 2.26783C13.6268 2.26783 13.6245 2.26783 13.6222 2.26783C13.6199 2.26783 13.6176 2.26783 13.6153 2.26783C13.613 2.26783 13.6107 2.26783 13.6084 2.26783C13.6061 2.26783 13.6038 2.26783 13.6015 2.26783C13.5992 2.26783 13.5969 2.26783 13.5946 2.26783C13.5923 2.26783 13.59 2.26783 13.5877 2.26783C13.5854 2.26783 13.5831 2.26783 13.5808 2.26783C13.5785 2.26783 13.5762 2.26783 13.5738 2.26783C13.5715 2.26783 13.5692 2.26783 13.5669 2.26783C13.5646 2.26783 13.5623 2.26783 13.56 2.26783C13.5577 2.26783 13.5554 2.26783 13.5531 2.26783C13.5508 2.26783 13.5485 2.26783 13.5462 2.26783C13.5439 2.26783 13.5416 2.26783 13.5393 2.26783C13.5369 2.26783 13.5346 2.26783 13.5323 2.26783C13.53 2.26783 13.5277 2.26783 13.5254 2.26783C13.5231 2.26783 13.5208 2.26783 13.5185 2.26783C13.5162 2.26783 13.5139 2.26783 13.5115 2.26783C13.5092 2.26783 13.5069 2.26783 13.5046 2.26783C13.5023 2.26783 13.5 2.26783 13.4977 2.26783C13.4954 2.26783 13.4931 2.26783 13.4907 2.26783C13.4884 2.26783 13.4861 2.26783 13.4838 2.26783C13.4815 2.26783 13.4792 2.26783 13.4769 2.26783C13.4746 2.26783 13.4722 2.26783 13.4699 2.26783C13.4676 2.26783 13.4653 2.26783 13.463 2.26783C13.4607 2.26783 13.4584 2.26783 13.456 2.26783C13.4537 2.26783 13.4514 2.26783 13.4491 2.26783C13.4468 2.26783 13.4445 2.26783 13.4421 2.26783C13.4398 2.26783 13.4375 2.26783 13.4352 2.26783C13.4329 2.26783 13.4306 2.26783 13.4282 2.26783C13.4259 2.26783 13.4236 2.26783 13.4213 2.26783C13.419 2.26783 13.4167 2.26783 13.4143 2.26783C13.412 2.26783 13.4097 2.26783 13.4074 2.26783C13.4051 2.26783 13.4027 2.26783 13.4004 2.26783C13.3981 2.26783 13.3958 2.26783 13.3935 2.26783C13.3911 2.26783 13.3888 2.26783 13.3865 2.26783C13.3842 2.26783 13.3819 2.26783 13.3795 2.26783C13.3772 2.26783 13.3749 2.26783 13.3726 2.26783C13.3702 2.26783 13.3679 2.26783 13.3656 2.26783C13.3633 2.26783 13.361 2.26783 13.3586 2.26783C13.3563 2.26783 13.354 2.26783 13.3517 2.26783C13.3493 2.26783 13.347 2.26783 13.3447 2.26783C13.3424 2.26783 13.34 2.26783 13.3377 2.26783C13.3354 2.26783 13.3331 2.26783 13.3307 2.26783C13.3284 2.26783 13.3261 2.26783 13.3238 2.26783C13.3214 2.26783 13.3191 2.26783 13.3168 2.26783C13.3145 2.26783 13.3121 2.26783 13.3098 2.26783C13.3075 2.26783 13.3052 2.26783 13.3028 2.26783C13.3005 2.26783 13.2982 2.26783 13.2958 2.26783C13.2935 2.26783 13.2912 2.26783 13.2889 2.26783C13.2865 2.26783 13.2842 2.26783 13.2819 2.26783C13.2795 2.26783 13.2772 2.26783 13.2749 2.26783C13.2726 2.26783 13.2702 2.26783 13.2679 2.26783C13.2656 2.26783 13.2632 2.26783 13.2609 2.26783C13.2586 2.26783 13.2562 2.26783 13.2539 2.26783C13.2516 2.26783 13.2493 2.26783 13.2469 2.26783C13.2446 2.26783 13.2423 2.26783 13.2399 2.26783C13.2376 2.26783 13.2353 2.26783 13.2329 2.26783C13.2306 2.26783 13.2283 2.26783 13.2259 2.26783C13.2236 2.26783 13.2213 2.26783 13.2189 2.26783C13.2166 2.26783 13.2143 2.26783 13.2119 2.26783C13.2096 2.26783 13.2073 2.26783 13.2049 2.26783C13.2026 2.26783 13.2003 2.26783 13.1979 2.26783C13.1956 2.26783 13.1932 2.26783 13.1909 2.26783C13.1886 2.26783 13.1862 2.26783 13.1839 2.26783C13.1816 2.26783 13.1792 2.26783 13.1769 2.26783C13.1746 2.26783 13.1722 2.26783 13.1699 2.26783C13.1675 2.26783 13.1652 2.26783 13.1629 2.26783C13.1605 2.26783 13.1582 2.26783 13.1559 2.26783C13.1535 2.26783 13.1512 2.26783 13.1488 2.26783C13.1465 2.26783 13.1442 2.26783 13.1418 2.26783C13.1395 2.26783 13.1371 2.26783 13.1348 2.26783C13.1325 2.26783 13.1301 2.26783 13.1278 2.26783C13.1254 2.26783 13.1231 2.26783 13.1208 2.26783C13.1184 2.26783 13.1161 2.26783 13.1137 2.26783C13.1114 2.26783 13.1091 2.26783 13.1067 2.26783C13.1044 2.26783 13.102 2.26783 13.0997 2.26783C13.0973 2.26783 13.095 2.26783 13.0927 2.26783C13.0903 2.26783 13.088 2.26783 13.0856 2.26783C13.0833 2.26783 13.0809 2.26783 13.0786 2.26783C13.0763 2.26783 13.0739 2.26783 13.0716 2.26783C13.0692 2.26783 13.0669 2.26783 13.0645 2.26783C13.0622 2.26783 13.0598 2.26783 13.0575 2.26783C13.0552 2.26783 13.0528 2.26783 13.0505 2.26783C13.0481 2.26783 13.0458 2.26783 13.0434 2.26783C13.0411 2.26783 13.0387 2.26783 13.0364 2.26783C13.034 2.26783 13.0317 2.26783 13.0294 2.26783C13.027 2.26783 13.0247 2.26783 13.0223 2.26783C13.02 2.26783 13.0176 2.26783 13.0153 2.26783C13.0129 2.26783 13.0106 2.26783 13.0082 2.26783C13.0059 2.26783 13.0035 2.26783 13.0012 2.26783C12.9988 2.26783 12.9965 2.26783 12.9941 2.26783C12.9918 2.26783 12.9894 2.26783 12.9871 2.26783C12.9847 2.26783 12.9824 2.26783 12.98 2.26783C12.9777 2.26783 12.9753 2.26783 12.973 2.26783C12.9706 2.26783 12.9683 2.26783 12.9659 2.26783C12.9636 2.26783 12.9612 2.26783 12.9589 2.26783C12.9565 2.26783 12.9542 2.26783 12.9518 2.26783C12.9495 2.26783 12.9471 2.26783 12.9448 2.26783C12.9424 2.26783 12.9401 2.26783 12.9377 2.26783C12.9354 2.26783 12.933 2.26783 12.9306 2.26783C12.9283 2.26783 12.9259 2.26783 12.9236 2.26783L12.9236 3.6025ZM16.2383 17.9978C15.2767 17.9978 14.1287 17.9978 12.9236 17.9978L12.9236 19.3325C14.1287 19.3325 15.2767 19.3325 16.2383 19.3325L16.2383 17.9978ZM18.5092 5.63851C18.6587 7.23938 18.8104 9.25029 18.8104 10.8002L20.1451 10.8002C20.1451 9.18467 19.9882 7.12209 19.8381 5.51443L18.5092 5.63851ZM18.8104 10.8002C18.8104 12.35 18.6587 14.3609 18.5092 15.9618L19.8381 16.0859C19.9882 14.4782 20.1451 12.4157 20.1451 10.8002L18.8104 10.8002ZM16.2383 19.3325C18.0893 19.3325 19.6641 17.9493 19.8381 16.0859L18.5092 15.9618C18.4012 17.1188 17.4209 17.9978 16.2383 17.9978L16.2383 19.3325ZM16.2383 3.60249C17.4209 3.60249 18.4012 4.48155 18.5092 5.63851L19.8381 5.51443C19.6641 3.651 18.0893 2.26783 16.2383 2.26783L16.2383 3.60249Z" fill="url(#paint3_linear_29262_4885)"/>
</g>
</g>
<defs>
<filter id="filter0_d_29262_4885" x="-2" y="0.313477" width="28.9733" height="28.9734" filterUnits="userSpaceOnUse" color-interpolation-filters="sRGB">
<feFlood flood-opacity="0" result="BackgroundImageFix"/>
<feColorMatrix in="SourceAlpha" type="matrix" values="0 0 0 0 0 0 0 0 0 0 0 0 0 0 0 0 0 0 127 0" result="hardAlpha"/>
<feOffset dy="4"/>
<feGaussianBlur stdDeviation="2"/>
<feComposite in2="hardAlpha" operator="out"/>
<feColorMatrix type="matrix" values="0 0 0 0 0 0 0 0 0 0 0 0 0 0 0 0 0 0 0.25 0"/>
<feBlend mode="normal" in2="BackgroundImageFix" result="effect1_dropShadow_29262_4885"/>
<feBlend mode="normal" in="SourceGraphic" in2="effect1_dropShadow_29262_4885" result="shape"/>
</filter>
<filter id="filter1_d_29262_4885" x="2.82819" y="0.267822" width="19.3169" height="21.0647" filterUnits="userSpaceOnUse" color-interpolation-filters="sRGB">
<feFlood flood-opacity="0" result="BackgroundImageFix"/>
<feColorMatrix in="SourceAlpha" type="matrix" values="0 0 0 0 0 0 0 0 0 0 0 0 0 0 0 0 0 0 127 0" result="hardAlpha"/>
<feOffset/>
<feGaussianBlur stdDeviation="1"/>
<feComposite in2="hardAlpha" operator="out"/>
<feColorMatrix type="matrix" values="0 0 0 0 0.247059 0 0 0 0 0.760784 0 0 0 0 0.917647 0 0 0 1 0"/>
<feBlend mode="normal" in2="BackgroundImageFix" result="effect1_dropShadow_29262_4885"/>
<feBlend mode="normal" in="SourceGraphic" in2="effect1_dropShadow_29262_4885" result="shape"/>
</filter>
<linearGradient id="paint0_linear_29262_4885" x1="5.60978" y1="10.8923" x2="13.1748" y2="14.6168" gradientUnits="userSpaceOnUse">
<stop stop-color="#00D1FF"/>
<stop offset="1" stop-color="#3AB8FF"/>
</linearGradient>
<linearGradient id="paint1_linear_29262_4885" x1="15.7104" y1="10.6893" x2="13.1932" y2="6.22879" gradientUnits="userSpaceOnUse">
<stop stop-color="#00D1FF"/>
<stop offset="1" stop-color="#3AB8FF"/>
</linearGradient>
<linearGradient id="paint2_linear_29262_4885" x1="0.0646204" y1="0.0921051" x2="4.99864" y2="1.46627" gradientUnits="userSpaceOnUse">
<stop stop-color="#00D1FF"/>
<stop offset="1" stop-color="#3AB8FF"/>
</linearGradient>
<linearGradient id="paint3_linear_29262_4885" x1="13.5273" y1="18.4595" x2="15.7737" y2="1.84555" gradientUnits="userSpaceOnUse">
<stop stop-color="#00D1FF"/>
<stop offset="1" stop-color="#3AB8FF"/>
</linearGradient>
</defs>
</svg>
