<svg width="24" height="25" viewBox="0 0 24 25" fill="none" xmlns="http://www.w3.org/2000/svg">
<path d="M5 18.1115C5 15.6984 6.69732 13.643 9.00404 13.2627L9.21182 13.2284C11.0589 12.9239 12.9411 12.9239 14.7882 13.2284L14.996 13.2627C17.3027 13.643 19 15.6984 19 18.1115C19 19.1545 18.1815 20 17.1719 20H6.82813C5.81848 20 5 19.1545 5 18.1115Z" stroke="#BBBABA"/>
<path d="M16.0834 5.9375C16.0834 8.11212 14.2552 9.875 12 9.875C9.74486 9.875 7.91669 8.11212 7.91669 5.9375C7.91669 3.76288 9.74486 2 12 2C14.2552 2 16.0834 3.76288 16.0834 5.9375Z" stroke="#BBBABA"/>
</svg>
