<svg width="14" height="10" viewBox="0 0 14 10" fill="none" xmlns="http://www.w3.org/2000/svg">
<path fill-rule="evenodd" clip-rule="evenodd" d="M13.2942 2.90708C10.4707 -0.969028 3.52926 -0.969028 0.705755 2.90708C-0.235251 4.1989 -0.235252 5.8011 0.705754 7.09292C3.52926 10.969 10.4707 10.969 13.2942 7.09292C14.2353 5.8011 14.2353 4.1989 13.2942 2.90708ZM8.51732 5.00043C8.51732 5.79818 7.83828 6.44488 7.00065 6.44488C6.16302 6.44488 5.48398 5.79818 5.48398 5.00043C5.48398 4.20269 6.16302 3.55599 7.00065 3.55599C7.83828 3.55599 8.51732 4.20269 8.51732 5.00043ZM9.91732 5.00043C9.91732 6.53456 8.61148 7.77821 7.00065 7.77821C5.38982 7.77821 4.08398 6.53456 4.08398 5.00043C4.08398 3.46631 5.38982 2.22266 7.00065 2.22266C8.61148 2.22266 9.91732 3.46631 9.91732 5.00043Z" fill="white"/>
</svg>
