<svg width="54" height="54" viewBox="0 0 54 54" fill="none" xmlns="http://www.w3.org/2000/svg">
<rect x="1.98413" y="1.98407" width="50.0317" height="50.0317" rx="6.09524" fill="#600868" stroke="#FF7FE3" stroke-width="2.03175"/>
<path d="M3 16.4604L4.33791 17.6311C4.77883 18.0169 5.03175 18.5742 5.03175 19.1601V34.84C5.03175 35.4259 4.77883 35.9833 4.33791 36.3691L3 37.5398V16.4604Z" fill="#FF7FE3"/>
<path d="M51 37.5397L49.6621 36.3691C49.2212 35.9833 48.9683 35.4259 48.9683 34.84L48.9683 19.1601C48.9683 18.5742 49.2212 18.0168 49.6621 17.631L51 16.4604L51 37.5397Z" fill="#FF7FE3"/>
<path fill-rule="evenodd" clip-rule="evenodd" d="M28.1104 30.9913C29.505 30.6041 30.6036 29.5054 30.9908 28.1107H37.9429C37.4228 33.2983 33.298 37.4233 28.1104 37.9435V30.9913ZM25.8893 40.0824V42.8938H28.1104V40.0824C34.4751 39.5492 39.5488 34.4755 40.0818 28.1107H42.8934V25.8896H40.0818C39.5487 19.5249 34.4751 14.4513 28.1104 13.9181V11.1063L25.8893 11.1063V13.9181C19.5244 14.4511 14.4506 19.5248 13.9175 25.8896H11.1058L11.1058 28.1107H13.9175C14.4506 34.4756 19.5244 39.5494 25.8893 40.0824ZM25.8893 37.9435C20.7016 37.4235 16.5766 33.2984 16.0565 28.1107H23.0086C23.3958 29.5055 24.4946 30.6042 25.8893 30.9914V37.9435ZM16.0566 25.8896L23.0087 25.8896C23.396 24.495 24.4947 23.3965 25.8893 23.0093V16.0572C20.7017 16.5772 16.5768 20.7021 16.0566 25.8896ZM28.1104 16.0572V23.0094C29.5049 23.3966 30.6034 24.4951 30.9907 25.8896L37.9429 25.8896C37.4227 20.7022 33.2979 16.5774 28.1104 16.0572Z" fill="#FF7FE3"/>
</svg>
