<svg width="20" height="20" viewBox="0 0 20 20" fill="none" xmlns="http://www.w3.org/2000/svg">
<path d="M18.3333 7.08341C18.3333 9.80008 16.3333 12.0417 13.7333 12.4334V12.3834C13.475 9.15008 10.85 6.52508 7.59165 6.26675H7.56665C7.95832 3.66675 10.2 1.66675 12.9167 1.66675C15.9083 1.66675 18.3333 4.09175 18.3333 7.08341Z" fill="url(#paint0_linear_6_5158)"/>
<path d="M12.4833 12.4833C12.275 9.84167 10.1583 7.725 7.51663 7.51667C7.37496 7.50833 7.22496 7.5 7.08329 7.5C4.09163 7.5 1.66663 9.925 1.66663 12.9167C1.66663 15.9083 4.09163 18.3333 7.08329 18.3333C10.075 18.3333 12.5 15.9083 12.5 12.9167C12.5 12.775 12.4916 12.625 12.4833 12.4833ZM7.81663 13.65L7.08329 15L6.34996 13.65L4.99996 12.9167L6.34996 12.1833L7.08329 10.8333L7.81663 12.1833L9.16663 12.9167L7.81663 13.65Z" fill="url(#paint1_linear_6_5158)"/>
<defs>
<linearGradient id="paint0_linear_6_5158" x1="7.70739" y1="2.65841" x2="19.2504" y2="3.30873" gradientUnits="userSpaceOnUse">
<stop stop-color="#00D1FF"/>
<stop offset="1" stop-color="#3AB8FF"/>
</linearGradient>
<linearGradient id="paint1_linear_6_5158" x1="1.80824" y1="8.49781" x2="13.4227" y2="9.15215" gradientUnits="userSpaceOnUse">
<stop stop-color="#00D1FF"/>
<stop offset="1" stop-color="#3AB8FF"/>
</linearGradient>
</defs>
</svg>
