<svg width="20" height="20" viewBox="0 0 20 20" fill="none" xmlns="http://www.w3.org/2000/svg">
<path d="M6.45829 1.66675V6.50008H1.66663C1.66663 3.49175 3.45829 1.68341 6.45829 1.66675Z" fill="#6568FF"/>
<path d="M18.3333 6.50008H13.5416V1.66675C16.5416 1.68341 18.3333 3.49175 18.3333 6.50008Z" fill="#6568FF"/>
<path d="M18.3333 13.5833C18.3 16.5416 16.5166 18.3166 13.5416 18.3333V13.5833H18.3333Z" fill="#6568FF"/>
<path d="M6.45829 13.5833V18.3333C3.48329 18.3166 1.69996 16.5416 1.66663 13.5833H6.45829Z" fill="#6568FF"/>
<path d="M6.45829 7.75H1.66663V12.3333H6.45829V7.75Z" fill="#6568FF"/>
<path d="M18.3333 7.75H13.5416V12.3333H18.3333V7.75Z" fill="#6568FF"/>
<path d="M12.2917 7.75H7.70837V12.3333H12.2917V7.75Z" fill="#6568FF"/>
<path d="M12.2917 1.66675H7.70837V6.50008H12.2917V1.66675Z" fill="#6568FF"/>
<path d="M12.2917 13.5833H7.70837V18.3333H12.2917V13.5833Z" fill="#6568FF"/>
</svg>
