<svg width="20" height="20" viewBox="0 0 20 20" fill="none" xmlns="http://www.w3.org/2000/svg">
<path d="M9.99996 1.66602C5.40829 1.66602 1.66663 5.40768 1.66663 9.99935C1.66663 14.591 5.40829 18.3327 9.99996 18.3327C14.5916 18.3327 18.3333 14.591 18.3333 9.99935C18.3333 5.40768 14.5916 1.66602 9.99996 1.66602ZM13.625 12.9743C13.5083 13.1743 13.3 13.2827 13.0833 13.2827C12.975 13.2827 12.8666 13.2577 12.7666 13.191L10.1833 11.6493C9.54163 11.266 9.06663 10.4243 9.06663 9.68268V6.26602C9.06663 5.92435 9.34996 5.64102 9.69163 5.64102C10.0333 5.64102 10.3166 5.92435 10.3166 6.26602V9.68268C10.3166 9.98268 10.5666 10.4243 10.825 10.5743L13.4083 12.116C13.7083 12.291 13.8083 12.6743 13.625 12.9743Z" fill="#00D1FF"/>
</svg>
