<svg width="20" height="20" viewBox="0 0 20 20" fill="none" xmlns="http://www.w3.org/2000/svg">
<path d="M13.4916 1.66675H6.50829C3.47496 1.66675 1.66663 3.47508 1.66663 6.50841V13.4834C1.66663 16.5251 3.47496 18.3334 6.50829 18.3334H13.4833C16.5166 18.3334 18.325 16.5251 18.325 13.4917V6.50841C18.3333 3.47508 16.525 1.66675 13.4916 1.66675ZM14.0166 11.8667L10.4416 15.4417C10.325 15.5584 10.1666 15.6251 9.99996 15.6251C9.83329 15.6251 9.67496 15.5584 9.55829 15.4417L5.98329 11.8667C5.74163 11.6251 5.74163 11.2251 5.98329 10.9834C6.22496 10.7417 6.62496 10.7417 6.86663 10.9834L9.37496 13.4917V5.00008C9.37496 4.65841 9.65829 4.37508 9.99996 4.37508C10.3416 4.37508 10.625 4.65841 10.625 5.00008V13.4917L13.1333 10.9834C13.375 10.7417 13.775 10.7417 14.0166 10.9834C14.1416 11.1084 14.2 11.2667 14.2 11.4251C14.2 11.5834 14.1333 11.7501 14.0166 11.8667Z" fill="url(#paint0_linear_29266_1551)"/>
<defs>
<linearGradient id="paint0_linear_29266_1551" x1="1.88438" y1="3.20183" x2="19.744" y2="4.20751" gradientUnits="userSpaceOnUse">
<stop stop-color="#00D1FF"/>
<stop offset="1" stop-color="#3AB8FF"/>
</linearGradient>
</defs>
</svg>
