<svg width="24" height="27" viewBox="0 0 24 27" fill="none" xmlns="http://www.w3.org/2000/svg">
<g filter="url(#filter0_d_1386_18655)">
<path fill-rule="evenodd" clip-rule="evenodd" d="M9.48924 4.01411L9.44612 4.96794L10.4922 5.61262L10.9796 4.08149C10.6761 4.0227 10.0398 3.97531 9.48924 4.01411ZM8.99431 8.27972L5.78796 6.1374C5.78796 6.1374 6.12891 5.84031 6.67351 5.59436C7.21811 5.34841 7.75624 5.2485 7.75624 5.2485L8.99431 8.27972ZM6.63216 8.92617L12.807 11.9726L10.7752 8.73449L13.6324 9.06646L12.6609 6.47995C16.7701 6.88265 20 11.0068 20 16.035C20 16.22 19.9957 16.4037 19.987 16.5861C17.3787 17.792 15.6733 19.2305 15.985 20.0851C16.0125 20.1605 16.0432 20.2394 16.0746 20.3202L16.0746 20.3203L16.0747 20.3203C16.2902 20.8744 16.541 21.5193 16.0411 21.7488C14.7862 22.3247 13.4239 22.6403 12 22.6403C10.576 22.6403 9.21352 22.3247 7.95857 21.7486C7.45868 21.5192 7.70949 20.8743 7.92498 20.3203C7.95643 20.2394 7.98713 20.1604 8.01463 20.085C8.32619 19.2306 6.62109 17.7921 4.013 16.5862C4.00828 16.4861 4.00481 16.3856 4.0026 16.2847C4.00087 16.2017 4 16.1185 4 16.035C4 13.2156 5.01554 10.6804 6.63216 8.92617ZM10.9388 15.3828C10.9388 16.6608 9.90285 17.6968 8.62485 17.6968C7.34684 17.6968 6.31088 16.6608 6.31088 15.3828C6.31088 14.1048 7.34684 13.0688 8.62485 13.0688C9.90285 13.0688 10.9388 14.1048 10.9388 15.3828ZM15.3751 17.6968C16.6531 17.6968 17.689 16.6608 17.689 15.3828C17.689 14.1048 16.6531 13.0688 15.3751 13.0688C14.097 13.0688 13.0611 14.1048 13.0611 15.3828C13.0611 16.6608 14.097 17.6968 15.3751 17.6968ZM12.0939 17.5933L13.2646 21.2662C13.2646 21.2662 12.4938 21.4634 11.9999 21.4634C11.5061 21.4634 10.7353 21.2662 10.7353 21.2662L11.906 17.5933C11.9352 17.5017 12.0647 17.5017 12.0939 17.5933Z" fill="#6568FF"/>
</g>
<defs>
<filter id="filter0_d_1386_18655" x="0" y="0" width="24" height="26.6406" filterUnits="userSpaceOnUse" color-interpolation-filters="sRGB">
<feFlood flood-opacity="0" result="BackgroundImageFix"/>
<feColorMatrix in="SourceAlpha" type="matrix" values="0 0 0 0 0 0 0 0 0 0 0 0 0 0 0 0 0 0 127 0" result="hardAlpha"/>
<feOffset/>
<feGaussianBlur stdDeviation="2"/>
<feComposite in2="hardAlpha" operator="out"/>
<feColorMatrix type="matrix" values="0 0 0 0 0.396078 0 0 0 0 0.407843 0 0 0 0 1 0 0 0 0.25 0"/>
<feBlend mode="normal" in2="BackgroundImageFix" result="effect1_dropShadow_1386_18655"/>
<feBlend mode="normal" in="SourceGraphic" in2="effect1_dropShadow_1386_18655" result="shape"/>
</filter>
</defs>
</svg>
