<svg width="20" height="20" viewBox="0 0 20 20" fill="none" xmlns="http://www.w3.org/2000/svg">
<path d="M13.4916 1.66675H6.50829C3.47496 1.66675 1.66663 3.47508 1.66663 6.50841V13.4834C1.66663 16.5251 3.47496 18.3334 6.50829 18.3334H13.4833C16.5166 18.3334 18.325 16.5251 18.325 13.4917V6.50841C18.3333 3.47508 16.525 1.66675 13.4916 1.66675ZM14.3833 8.30008L12.4583 10.7834C12.2166 11.0917 11.875 11.2917 11.4833 11.3334C11.0916 11.3834 10.7083 11.2751 10.4 11.0334L8.87496 9.83342C8.81663 9.78341 8.74996 9.78341 8.71663 9.79175C8.68329 9.79175 8.62496 9.80841 8.57496 9.87508L6.59163 12.4501C6.46663 12.6084 6.28329 12.6917 6.09996 12.6917C5.96663 12.6917 5.83329 12.6501 5.71663 12.5584C5.44163 12.3501 5.39163 11.9584 5.59996 11.6834L7.58329 9.10841C7.82496 8.80008 8.16663 8.60008 8.55829 8.55008C8.94163 8.50008 9.33329 8.60841 9.64163 8.85008L11.1666 10.0501C11.225 10.1001 11.2833 10.1001 11.325 10.0917C11.3583 10.0917 11.4166 10.0751 11.4666 10.0084L13.3916 7.52508C13.6 7.25008 14 7.20008 14.2666 7.41675C14.5416 7.64175 14.5916 8.03341 14.3833 8.30008Z" fill="#85FFA0"/>
</svg>
