<svg width="20" height="20" viewBox="0 0 20 20" fill="none" xmlns="http://www.w3.org/2000/svg">
<path d="M13.875 4.7666H6.12496C3.66663 4.7666 1.66663 6.7666 1.66663 9.22494V13.8749C1.66663 16.3333 3.66663 18.3333 6.12496 18.3333H13.875C16.3333 18.3333 18.3333 16.3333 18.3333 13.8749V9.22494C18.3333 6.7666 16.3333 4.7666 13.875 4.7666ZM12.0833 10.0166C12.0833 9.55827 12.4583 9.18327 12.9166 9.18327C13.375 9.18327 13.75 9.55827 13.75 10.0166C13.75 10.4749 13.375 10.8583 12.9166 10.8583C12.4583 10.8583 12.0833 10.4916 12.0833 10.0333V10.0166ZM8.44163 13.3916C8.31663 13.5166 8.15829 13.5749 7.99996 13.5749C7.84163 13.5749 7.68329 13.5166 7.55829 13.3916L6.69996 12.5333L5.87496 13.3583C5.74996 13.4833 5.59163 13.5416 5.43329 13.5416C5.27496 13.5416 5.11663 13.4833 4.99163 13.3583C4.74996 13.1166 4.74996 12.7166 4.99163 12.4749L5.81663 11.6499L5.01663 10.8499C4.77496 10.6083 4.77496 10.2083 5.01663 9.9666C5.25829 9.72494 5.65829 9.72494 5.89996 9.9666L6.69996 10.7666L7.52496 9.9416C7.76663 9.69994 8.16663 9.69994 8.40829 9.9416C8.64996 10.1833 8.64996 10.5833 8.40829 10.8249L7.58329 11.6499L8.44163 12.5083C8.68329 12.7499 8.68329 13.1499 8.44163 13.3916ZM11.2833 12.4999C10.825 12.4999 10.4416 12.1249 10.4416 11.6666C10.4416 11.2083 10.8083 10.8333 11.2666 10.8333H11.2833C11.7416 10.8333 12.1166 11.2083 12.1166 11.6666C12.1166 12.1249 11.75 12.4999 11.2833 12.4999ZM12.9166 14.1416C12.4583 14.1416 12.0833 13.7749 12.0833 13.3166V13.2999C12.0833 12.8416 12.4583 12.4666 12.9166 12.4666C13.375 12.4666 13.75 12.8416 13.75 13.2999C13.75 13.7583 13.3833 14.1416 12.9166 14.1416ZM14.5666 12.4999C14.1083 12.4999 13.725 12.1249 13.725 11.6666C13.725 11.2083 14.0916 10.8333 14.55 10.8333H14.5666C15.025 10.8333 15.4 11.2083 15.4 11.6666C15.4 12.1249 15.0333 12.4999 14.5666 12.4999Z" fill="#85FFA0"/>
<path d="M11.3666 2.25841L11.3583 3.04175C11.35 3.77508 10.7416 4.38341 9.99997 4.38341C9.87497 4.38341 9.79997 4.46675 9.79997 4.57508C9.79997 4.68341 9.8833 4.76675 9.99163 4.76675H8.64997C8.64163 4.70841 8.6333 4.64175 8.6333 4.57508C8.6333 3.82508 9.24163 3.21675 9.9833 3.21675C10.1083 3.21675 10.1916 3.13341 10.1916 3.02508L10.2 2.24175C10.2083 1.92508 10.4666 1.66675 10.7833 1.66675H10.7916C11.1166 1.66675 11.3666 1.93341 11.3666 2.25841Z" fill="#85FFA0"/>
</svg>
