<svg width="14" height="12" viewBox="0 0 14 12" fill="none" xmlns="http://www.w3.org/2000/svg">
<path d="M13.3736 0.264979C13.2158 0.154524 13.0377 0.0762509 12.8496 0.0346315C12.6615 -0.00698778 12.467 -0.0111382 12.2773 0.0224177C12.0875 0.0559735 11.9063 0.126578 11.7439 0.230198C11.5814 0.333818 11.441 0.468424 11.3306 0.626325L5.75326 8.59155L2.09633 6.09355C1.80303 5.89293 1.44204 5.81703 1.09279 5.88256C0.743528 5.94809 0.434606 6.14968 0.233979 6.44297C0.033352 6.73627 -0.0425451 7.09726 0.0229839 7.44652C0.0885129 7.79577 0.2901 8.1047 0.583399 8.30532L5.48531 11.6535C5.63629 11.7566 5.8069 11.8274 5.98649 11.8615C6.16607 11.8956 6.35076 11.8922 6.529 11.8517C6.71912 11.8185 6.9008 11.748 7.06365 11.6444C7.22649 11.5409 7.36728 11.4061 7.47796 11.248L13.7352 2.30912C13.9582 1.98992 14.0454 1.59525 13.9775 1.21183C13.9097 0.828408 13.6924 0.487604 13.3734 0.26431" fill="#85FFA0"/>
</svg>
