<svg width="36" height="36" viewBox="0 0 36 36" fill="none" xmlns="http://www.w3.org/2000/svg">
<g clip-path="url(#clip0_274_4982)">
<rect y="0.000488281" width="36" height="36" rx="18" fill="#222224"/>
<g style="mix-blend-mode:hard-light" filter="url(#filter0_f_274_4982)">
<path d="M14.0505 -14.1499C12.0841 -13.4755 8.206 -10.5382 8.42411 -4.18403C8.69675 3.75869 14.6453 8.72913 16.1325 16.2223C17.2301 21.7528 17.0743 35.6045 10.3822 41.4242" stroke="#FF5C00" stroke-width="0.947971"/>
</g>
<g style="mix-blend-mode:hard-light" filter="url(#filter1_f_274_4982)">
<path d="M14.0505 -14.1499C12.0841 -13.4755 8.206 -10.5382 8.42411 -4.18403C8.69675 3.75869 14.6453 8.72913 16.1325 16.2223C17.2301 21.7528 17.0743 35.6045 10.3822 41.4242" stroke="#FF0000" stroke-width="1.23965"/>
</g>
<g style="mix-blend-mode:hard-light" filter="url(#filter2_ddi_274_4982)">
<path d="M14.0505 -14.1499C12.0841 -13.4755 8.206 -10.5382 8.42411 -4.18403C8.69675 3.75869 14.6453 8.72913 16.1325 16.2223C17.2301 21.7528 17.0743 35.6045 10.3822 41.4242" stroke="#FF0000" stroke-opacity="0.2" stroke-width="0.947971"/>
</g>
<g filter="url(#filter3_f_274_4982)">
<path d="M14.0505 -14.1499C12.0841 -13.4755 8.206 -10.5382 8.42411 -4.18403C8.69675 3.75869 14.6453 8.72913 16.1325 16.2223C17.2301 21.7528 17.0743 35.6045 10.3822 41.4242" stroke="#FF9983" stroke-width="0.583367"/>
</g>
<g filter="url(#filter4_f_274_4982)">
<path d="M14.0505 -14.1499C12.0841 -13.4755 8.206 -10.5382 8.42411 -4.18403C8.69675 3.75869 14.6453 8.72913 16.1325 16.2223C17.2301 21.7528 17.0743 35.6045 10.3822 41.4242" stroke="white" stroke-width="0.291683"/>
</g>
<g style="mix-blend-mode:hard-light" filter="url(#filter5_f_274_4982)">
<path d="M14.8238 -4.49075C13.2847 -3.09343 10.8852 1.13856 13.5995 6.88797C16.9924 14.0747 24.4221 16.2861 28.7525 22.5794C31.9486 27.2244 37.2859 40.0075 33.4424 48" stroke="#FF5C00" stroke-width="0.947971"/>
</g>
<g style="mix-blend-mode:hard-light" filter="url(#filter6_f_274_4982)">
<path d="M14.8238 -4.49075C13.2847 -3.09343 10.8852 1.13856 13.5995 6.88797C16.9924 14.0747 24.4221 16.2861 28.7525 22.5794C31.9486 27.2244 37.2859 40.0075 33.4424 48" stroke="#FF0000" stroke-width="1.23965"/>
</g>
<g style="mix-blend-mode:hard-light" filter="url(#filter7_ddi_274_4982)">
<path d="M14.8238 -4.49075C13.2847 -3.09343 10.8852 1.13856 13.5995 6.88797C16.9924 14.0747 24.4221 16.2861 28.7525 22.5794C31.9486 27.2244 37.2859 40.0075 33.4424 48" stroke="#FF0000" stroke-opacity="0.2" stroke-width="0.947971"/>
</g>
<g filter="url(#filter8_f_274_4982)">
<path d="M14.8238 -4.49075C13.2847 -3.09343 10.8852 1.13856 13.5995 6.88797C16.9924 14.0747 24.4221 16.2861 28.7525 22.5794C31.9486 27.2244 37.2859 40.0075 33.4424 48" stroke="#FF9983" stroke-width="0.583367"/>
</g>
<g filter="url(#filter9_f_274_4982)">
<path d="M14.8238 -4.49075C13.2847 -3.09343 10.8852 1.13856 13.5995 6.88797C16.9924 14.0747 24.4221 16.2861 28.7525 22.5794C31.9486 27.2244 37.2859 40.0075 33.4424 48" stroke="white" stroke-width="0.291683"/>
</g>
<g style="mix-blend-mode:hard-light" filter="url(#filter10_f_274_4982)">
<path d="M-1.55706 -15.328C-3.28167 -14.1674 -6.26683 -10.326 -4.41062 -4.24505C-2.09036 3.3561 4.94247 6.61649 8.31938 13.4689C10.8118 18.5264 14.2485 31.946 9.29178 39.3002" stroke="#FF5C00" stroke-width="0.947971"/>
</g>
<g style="mix-blend-mode:hard-light" filter="url(#filter11_f_274_4982)">
<path d="M-1.55706 -15.328C-3.28167 -14.1674 -6.26683 -10.326 -4.41062 -4.24505C-2.09036 3.3561 4.94247 6.61649 8.31938 13.4689C10.8118 18.5264 14.2485 31.946 9.29178 39.3002" stroke="#FF0000" stroke-width="1.23965"/>
</g>
<g style="mix-blend-mode:hard-light" filter="url(#filter12_ddi_274_4982)">
<path d="M-1.55706 -15.328C-3.28167 -14.1674 -6.26683 -10.326 -4.41062 -4.24505C-2.09036 3.3561 4.94247 6.61649 8.31938 13.4689C10.8118 18.5264 14.2485 31.946 9.29178 39.3002" stroke="#FF0000" stroke-opacity="0.2" stroke-width="0.947971"/>
</g>
<g filter="url(#filter13_f_274_4982)">
<path d="M-1.55706 -15.328C-3.28167 -14.1674 -6.26683 -10.326 -4.41062 -4.24505C-2.09036 3.3561 4.94247 6.61649 8.31938 13.4689C10.8118 18.5264 14.2485 31.946 9.29178 39.3002" stroke="#FF9983" stroke-width="0.583367"/>
</g>
<g filter="url(#filter14_f_274_4982)">
<path d="M-1.55706 -15.328C-3.28167 -14.1674 -6.26683 -10.326 -4.41062 -4.24505C-2.09036 3.3561 4.94247 6.61649 8.31937 13.4689C10.8118 18.5264 14.2485 31.946 9.29178 39.3002" stroke="white" stroke-width="0.291683"/>
</g>
<g style="mix-blend-mode:hard-light" filter="url(#filter15_f_274_4982)">
<path d="M17.2949 -3.99606C16.0982 -2.29631 14.6809 2.35763 18.5855 7.37533C23.4662 13.6475 31.1996 14.1826 36.8 19.3781C40.9336 23.2128 48.9342 34.5214 46.9292 43.1605" stroke="#FF5C00" stroke-width="0.947971"/>
</g>
<g style="mix-blend-mode:hard-light" filter="url(#filter16_f_274_4982)">
<path d="M17.2949 -3.99606C16.0982 -2.29631 14.6809 2.35763 18.5855 7.37533C23.4662 13.6475 31.1996 14.1826 36.8 19.3781C40.9336 23.2128 48.9342 34.5214 46.9292 43.1605" stroke="#FF0000" stroke-width="1.23965"/>
</g>
<g style="mix-blend-mode:hard-light" filter="url(#filter17_ddi_274_4982)">
<path d="M17.2949 -3.99606C16.0982 -2.29631 14.6809 2.35763 18.5855 7.37533C23.4662 13.6475 31.1996 14.1826 36.8 19.3781C40.9336 23.2128 48.9342 34.5214 46.9292 43.1605" stroke="#FF0000" stroke-opacity="0.2" stroke-width="0.947971"/>
</g>
<g filter="url(#filter18_f_274_4982)">
<path d="M17.2949 -3.99606C16.0982 -2.29631 14.6809 2.35763 18.5855 7.37533C23.4662 13.6475 31.1996 14.1826 36.8 19.3781C40.9336 23.2128 48.9342 34.5214 46.9292 43.1605" stroke="#FF9983" stroke-width="0.583367"/>
</g>
<g filter="url(#filter19_f_274_4982)">
<path d="M17.2949 -3.99606C16.0982 -2.29631 14.6809 2.35763 18.5855 7.37533C23.4662 13.6475 31.1996 14.1826 36.8 19.3781C40.9336 23.2128 48.9342 34.5214 46.9292 43.1605" stroke="white" stroke-width="0.291683"/>
</g>
<g style="mix-blend-mode:hard-light" clip-path="url(#clip1_274_4982)">
<path fill-rule="evenodd" clip-rule="evenodd" d="M19.3536 8.99712C19.1989 8.80606 18.9999 8.62433 18.7448 8.48298C18.1091 8.13058 17.125 8.02919 16.5237 8.00113C16.234 7.98761 15.8817 8.1907 15.7374 8.436L15.5634 8.73172C16.1802 8.54084 16.8501 8.48141 17.5725 8.59298C18.1885 8.68812 18.7838 8.82441 19.3536 8.99712ZM10.6248 18.5239C10.0853 16.4108 12.5668 8.24565 17.7999 9.05387C19.3384 9.2915 20.7476 9.78575 21.9544 10.4631C22.127 10.3464 22.3422 10.2721 22.5272 10.2818C23.2746 10.3209 24.6521 10.4509 25.5312 10.8833C26.2789 11.2511 26.6661 11.8376 26.857 12.252C26.9759 12.51 26.9389 12.9489 26.8316 13.2116L26.0162 15.2068C26.2136 15.9327 26.2656 16.6835 26.1507 17.4378L25.9165 25.0417C25.9078 25.3243 25.762 25.7405 25.5508 25.9343C25.1595 26.2936 24.4421 26.783 23.411 26.8215C22.2183 26.8661 20.6059 26.3076 19.8111 25.9978C19.5417 25.8929 19.288 25.5731 19.2399 25.2942L18.7325 22.3545C17.8217 22.4921 17.0432 22.5161 16.5604 22.4363C14.5775 22.1086 11.1644 20.637 10.6248 18.5239ZM11.9744 13.7823C12.336 12.8638 12.9754 11.7871 13.7469 11.2163C14.9314 10.34 16.4149 10.2618 17.5846 10.6996C18.3299 10.9786 19.7226 11.6439 20.6714 12.6117C22.1816 14.1521 23.1017 16.3065 22.5387 17.7367C21.9979 19.1105 20.049 20.2913 18.0961 20.7309C16.6303 21.0608 14.6623 20.4313 13.8703 20.1349C11.9389 19.412 11.7631 18.8345 11.5002 18.0608C11.2373 17.2871 11.0577 16.111 11.9744 13.7823ZM12.6015 14.036C12.9388 13.1792 13.5293 12.1727 14.2341 11.6348C15.1937 10.9023 16.3595 10.7504 17.3466 11.0007C16.4884 10.935 15.5639 11.1572 14.7744 11.7607C14.0476 12.3163 13.4383 13.3554 13.0902 14.2398C12.2075 16.482 12.3615 17.6074 12.598 18.3461C12.7249 18.7426 12.829 19.0851 13.1757 19.4213C12.4233 18.9712 12.2957 18.5421 12.1263 18.0145C11.8965 17.2986 11.7465 16.2081 12.6015 14.036ZM9.99906 18.8718C9.89864 18.4786 9.90286 17.8757 10.01 17.1601L8.17988 20.8662C8.05405 21.121 7.95354 21.5593 8.0224 21.834C8.1119 22.1911 8.31523 22.6541 8.77704 22.9353C9.3135 23.2619 10.1987 23.3434 10.7618 23.3599C11.0516 23.3685 11.4188 23.1686 11.5816 22.9346L12.5375 21.561C11.3205 20.8813 10.2774 19.962 9.99906 18.8718Z" fill="url(#paint0_linear_274_4982)"/>
<path fill-rule="evenodd" clip-rule="evenodd" d="M19.3536 8.99712C19.1989 8.80606 18.9999 8.62433 18.7448 8.48298C18.1091 8.13058 17.125 8.02919 16.5237 8.00113C16.234 7.98761 15.8817 8.1907 15.7374 8.436L15.5634 8.73172C16.1802 8.54084 16.8501 8.48141 17.5725 8.59298C18.1885 8.68812 18.7838 8.82441 19.3536 8.99712ZM10.6248 18.5239C10.0853 16.4108 12.5668 8.24565 17.7999 9.05387C19.3384 9.2915 20.7476 9.78575 21.9544 10.4631C22.127 10.3464 22.3422 10.2721 22.5272 10.2818C23.2746 10.3209 24.6521 10.4509 25.5312 10.8833C26.2789 11.2511 26.6661 11.8376 26.857 12.252C26.9759 12.51 26.9389 12.9489 26.8316 13.2116L26.0162 15.2068C26.2136 15.9327 26.2656 16.6835 26.1507 17.4378L25.9165 25.0417C25.9078 25.3243 25.762 25.7405 25.5508 25.9343C25.1595 26.2936 24.4421 26.783 23.411 26.8215C22.2183 26.8661 20.6059 26.3076 19.8111 25.9978C19.5417 25.8929 19.288 25.5731 19.2399 25.2942L18.7325 22.3545C17.8217 22.4921 17.0432 22.5161 16.5604 22.4363C14.5775 22.1086 11.1644 20.637 10.6248 18.5239ZM11.9744 13.7823C12.336 12.8638 12.9754 11.7871 13.7469 11.2163C14.9314 10.34 16.4149 10.2618 17.5846 10.6996C18.3299 10.9786 19.7226 11.6439 20.6714 12.6117C22.1816 14.1521 23.1017 16.3065 22.5387 17.7367C21.9979 19.1105 20.049 20.2913 18.0961 20.7309C16.6303 21.0608 14.6623 20.4313 13.8703 20.1349C11.9389 19.412 11.7631 18.8345 11.5002 18.0608C11.2373 17.2871 11.0577 16.111 11.9744 13.7823ZM12.6015 14.036C12.9388 13.1792 13.5293 12.1727 14.2341 11.6348C15.1937 10.9023 16.3595 10.7504 17.3466 11.0007C16.4884 10.935 15.5639 11.1572 14.7744 11.7607C14.0476 12.3163 13.4383 13.3554 13.0902 14.2398C12.2075 16.482 12.3615 17.6074 12.598 18.3461C12.7249 18.7426 12.829 19.0851 13.1757 19.4213C12.4233 18.9712 12.2957 18.5421 12.1263 18.0145C11.8965 17.2986 11.7465 16.2081 12.6015 14.036ZM9.99906 18.8718C9.89864 18.4786 9.90286 17.8757 10.01 17.1601L8.17988 20.8662C8.05405 21.121 7.95354 21.5593 8.0224 21.834C8.1119 22.1911 8.31523 22.6541 8.77704 22.9353C9.3135 23.2619 10.1987 23.3434 10.7618 23.3599C11.0516 23.3685 11.4188 23.1686 11.5816 22.9346L12.5375 21.561C11.3205 20.8813 10.2774 19.962 9.99906 18.8718Z" fill="white"/>
</g>
</g>
<rect x="0.5" y="0.500488" width="35" height="35" rx="17.5" stroke="white" stroke-opacity="0.05"/>
<defs>
<filter id="filter0_f_274_4982" x="3.56603" y="-18.9734" width="17.927" height="65.1304" filterUnits="userSpaceOnUse" color-interpolation-filters="sRGB">
<feFlood flood-opacity="0" result="BackgroundImageFix"/>
<feBlend mode="normal" in="SourceGraphic" in2="BackgroundImageFix" result="shape"/>
<feGaussianBlur stdDeviation="2.18762" result="effect1_foregroundBlur_274_4982"/>
</filter>
<filter id="filter1_f_274_4982" x="6.33699" y="-16.1945" width="12.3851" height="59.5448" filterUnits="userSpaceOnUse" color-interpolation-filters="sRGB">
<feFlood flood-opacity="0" result="BackgroundImageFix"/>
<feBlend mode="normal" in="SourceGraphic" in2="BackgroundImageFix" result="shape"/>
<feGaussianBlur stdDeviation="0.729208" result="effect1_foregroundBlur_274_4982"/>
</filter>
<filter id="filter2_ddi_274_4982" x="6.04534" y="-15.0357" width="12.9684" height="60.1718" filterUnits="userSpaceOnUse" color-interpolation-filters="sRGB">
<feFlood flood-opacity="0" result="BackgroundImageFix"/>
<feColorMatrix in="SourceAlpha" type="matrix" values="0 0 0 0 0 0 0 0 0 0 0 0 0 0 0 0 0 0 127 0" result="hardAlpha"/>
<feOffset dy="0.947971"/>
<feGaussianBlur stdDeviation="0.364604"/>
<feColorMatrix type="matrix" values="0 0 0 0 0.15 0 0 0 0 0 0 0 0 0 0 0 0 0 0.7 0"/>
<feBlend mode="multiply" in2="BackgroundImageFix" result="effect1_dropShadow_274_4982"/>
<feColorMatrix in="SourceAlpha" type="matrix" values="0 0 0 0 0 0 0 0 0 0 0 0 0 0 0 0 0 0 127 0" result="hardAlpha"/>
<feOffset dy="1.45842"/>
<feGaussianBlur stdDeviation="0.947971"/>
<feColorMatrix type="matrix" values="0 0 0 0 0.8 0 0 0 0 0.19 0 0 0 0 0.19 0 0 0 1 0"/>
<feBlend mode="color-dodge" in2="effect1_dropShadow_274_4982" result="effect2_dropShadow_274_4982"/>
<feBlend mode="normal" in="SourceGraphic" in2="effect2_dropShadow_274_4982" result="shape"/>
<feColorMatrix in="SourceAlpha" type="matrix" values="0 0 0 0 0 0 0 0 0 0 0 0 0 0 0 0 0 0 127 0" result="hardAlpha"/>
<feOffset dx="-0.0947971" dy="0.189594"/>
<feGaussianBlur stdDeviation="0.0473985"/>
<feComposite in2="hardAlpha" operator="arithmetic" k2="-1" k3="1"/>
<feColorMatrix type="matrix" values="0 0 0 0 1 0 0 0 0 1 0 0 0 0 1 0 0 0 0.5 0"/>
<feBlend mode="normal" in2="shape" result="effect3_innerShadow_274_4982"/>
</filter>
<filter id="filter3_f_274_4982" x="7.97769" y="-14.5716" width="9.10357" height="56.3618" filterUnits="userSpaceOnUse" color-interpolation-filters="sRGB">
<feFlood flood-opacity="0" result="BackgroundImageFix"/>
<feBlend mode="normal" in="SourceGraphic" in2="BackgroundImageFix" result="shape"/>
<feGaussianBlur stdDeviation="0.0729208" result="effect1_foregroundBlur_274_4982"/>
</filter>
<filter id="filter4_f_274_4982" x="8.17218" y="-14.3851" width="8.71472" height="56.0165" filterUnits="userSpaceOnUse" color-interpolation-filters="sRGB">
<feFlood flood-opacity="0" result="BackgroundImageFix"/>
<feBlend mode="normal" in="SourceGraphic" in2="BackgroundImageFix" result="shape"/>
<feGaussianBlur stdDeviation="0.0486139" result="effect1_foregroundBlur_274_4982"/>
</filter>
<filter id="filter5_f_274_4982" x="7.51855" y="-9.21705" width="32.1115" height="61.7979" filterUnits="userSpaceOnUse" color-interpolation-filters="sRGB">
<feFlood flood-opacity="0" result="BackgroundImageFix"/>
<feBlend mode="normal" in="SourceGraphic" in2="BackgroundImageFix" result="shape"/>
<feGaussianBlur stdDeviation="2.18762" result="effect1_foregroundBlur_274_4982"/>
</filter>
<filter id="filter6_f_274_4982" x="10.2894" y="-6.40812" width="26.5695" height="56.1351" filterUnits="userSpaceOnUse" color-interpolation-filters="sRGB">
<feFlood flood-opacity="0" result="BackgroundImageFix"/>
<feBlend mode="normal" in="SourceGraphic" in2="BackgroundImageFix" result="shape"/>
<feGaussianBlur stdDeviation="0.729208" result="effect1_foregroundBlur_274_4982"/>
</filter>
<filter id="filter7_ddi_274_4982" x="9.99786" y="-5.27932" width="27.1528" height="56.8392" filterUnits="userSpaceOnUse" color-interpolation-filters="sRGB">
<feFlood flood-opacity="0" result="BackgroundImageFix"/>
<feColorMatrix in="SourceAlpha" type="matrix" values="0 0 0 0 0 0 0 0 0 0 0 0 0 0 0 0 0 0 127 0" result="hardAlpha"/>
<feOffset dy="0.947971"/>
<feGaussianBlur stdDeviation="0.364604"/>
<feColorMatrix type="matrix" values="0 0 0 0 0.15 0 0 0 0 0 0 0 0 0 0 0 0 0 0.7 0"/>
<feBlend mode="multiply" in2="BackgroundImageFix" result="effect1_dropShadow_274_4982"/>
<feColorMatrix in="SourceAlpha" type="matrix" values="0 0 0 0 0 0 0 0 0 0 0 0 0 0 0 0 0 0 127 0" result="hardAlpha"/>
<feOffset dy="1.45842"/>
<feGaussianBlur stdDeviation="0.947971"/>
<feColorMatrix type="matrix" values="0 0 0 0 0.8 0 0 0 0 0.19 0 0 0 0 0.19 0 0 0 1 0"/>
<feBlend mode="color-dodge" in2="effect1_dropShadow_274_4982" result="effect2_dropShadow_274_4982"/>
<feBlend mode="normal" in="SourceGraphic" in2="effect2_dropShadow_274_4982" result="shape"/>
<feColorMatrix in="SourceAlpha" type="matrix" values="0 0 0 0 0 0 0 0 0 0 0 0 0 0 0 0 0 0 127 0" result="hardAlpha"/>
<feOffset dx="-0.0947971" dy="0.189594"/>
<feGaussianBlur stdDeviation="0.0473985"/>
<feComposite in2="hardAlpha" operator="arithmetic" k2="-1" k3="1"/>
<feColorMatrix type="matrix" values="0 0 0 0 1 0 0 0 0 1 0 0 0 0 1 0 0 0 0.5 0"/>
<feBlend mode="normal" in2="shape" result="effect3_innerShadow_274_4982"/>
</filter>
<filter id="filter8_f_274_4982" x="11.9305" y="-4.85263" width="23.2878" height="53.1249" filterUnits="userSpaceOnUse" color-interpolation-filters="sRGB">
<feFlood flood-opacity="0" result="BackgroundImageFix"/>
<feBlend mode="normal" in="SourceGraphic" in2="BackgroundImageFix" result="shape"/>
<feGaussianBlur stdDeviation="0.0729208" result="effect1_foregroundBlur_274_4982"/>
</filter>
<filter id="filter9_f_274_4982" x="12.1251" y="-4.69586" width="22.8987" height="52.8563" filterUnits="userSpaceOnUse" color-interpolation-filters="sRGB">
<feFlood flood-opacity="0" result="BackgroundImageFix"/>
<feBlend mode="normal" in="SourceGraphic" in2="BackgroundImageFix" result="shape"/>
<feGaussianBlur stdDeviation="0.0486139" result="effect1_foregroundBlur_274_4982"/>
</filter>
<filter id="filter10_f_274_4982" x="-9.84754" y="-20.0964" width="26.5164" height="64.0369" filterUnits="userSpaceOnUse" color-interpolation-filters="sRGB">
<feFlood flood-opacity="0" result="BackgroundImageFix"/>
<feBlend mode="normal" in="SourceGraphic" in2="BackgroundImageFix" result="shape"/>
<feGaussianBlur stdDeviation="2.18762" result="effect1_foregroundBlur_274_4982"/>
</filter>
<filter id="filter11_f_274_4982" x="-7.0767" y="-17.3007" width="20.9746" height="58.4056" filterUnits="userSpaceOnUse" color-interpolation-filters="sRGB">
<feFlood flood-opacity="0" result="BackgroundImageFix"/>
<feBlend mode="normal" in="SourceGraphic" in2="BackgroundImageFix" result="shape"/>
<feGaussianBlur stdDeviation="0.729208" result="effect1_foregroundBlur_274_4982"/>
</filter>
<filter id="filter12_ddi_274_4982" x="-7.36823" y="-16.1587" width="21.5578" height="59.0783" filterUnits="userSpaceOnUse" color-interpolation-filters="sRGB">
<feFlood flood-opacity="0" result="BackgroundImageFix"/>
<feColorMatrix in="SourceAlpha" type="matrix" values="0 0 0 0 0 0 0 0 0 0 0 0 0 0 0 0 0 0 127 0" result="hardAlpha"/>
<feOffset dy="0.947971"/>
<feGaussianBlur stdDeviation="0.364604"/>
<feColorMatrix type="matrix" values="0 0 0 0 0.15 0 0 0 0 0 0 0 0 0 0 0 0 0 0.7 0"/>
<feBlend mode="multiply" in2="BackgroundImageFix" result="effect1_dropShadow_274_4982"/>
<feColorMatrix in="SourceAlpha" type="matrix" values="0 0 0 0 0 0 0 0 0 0 0 0 0 0 0 0 0 0 127 0" result="hardAlpha"/>
<feOffset dy="1.45842"/>
<feGaussianBlur stdDeviation="0.947971"/>
<feColorMatrix type="matrix" values="0 0 0 0 0.8 0 0 0 0 0.19 0 0 0 0 0.19 0 0 0 1 0"/>
<feBlend mode="color-dodge" in2="effect1_dropShadow_274_4982" result="effect2_dropShadow_274_4982"/>
<feBlend mode="normal" in="SourceGraphic" in2="effect2_dropShadow_274_4982" result="shape"/>
<feColorMatrix in="SourceAlpha" type="matrix" values="0 0 0 0 0 0 0 0 0 0 0 0 0 0 0 0 0 0 127 0" result="hardAlpha"/>
<feOffset dx="-0.0947971" dy="0.189594"/>
<feGaussianBlur stdDeviation="0.0473985"/>
<feComposite in2="hardAlpha" operator="arithmetic" k2="-1" k3="1"/>
<feColorMatrix type="matrix" values="0 0 0 0 1 0 0 0 0 1 0 0 0 0 1 0 0 0 0.5 0"/>
<feBlend mode="normal" in2="shape" result="effect3_innerShadow_274_4982"/>
</filter>
<filter id="filter13_f_274_4982" x="-5.43564" y="-15.7159" width="17.6928" height="55.3249" filterUnits="userSpaceOnUse" color-interpolation-filters="sRGB">
<feFlood flood-opacity="0" result="BackgroundImageFix"/>
<feBlend mode="normal" in="SourceGraphic" in2="BackgroundImageFix" result="shape"/>
<feGaussianBlur stdDeviation="0.0729208" result="effect1_foregroundBlur_274_4982"/>
</filter>
<filter id="filter14_f_274_4982" x="-5.24103" y="-15.5462" width="17.3037" height="55.025" filterUnits="userSpaceOnUse" color-interpolation-filters="sRGB">
<feFlood flood-opacity="0" result="BackgroundImageFix"/>
<feBlend mode="normal" in="SourceGraphic" in2="BackgroundImageFix" result="shape"/>
<feGaussianBlur stdDeviation="0.0486139" result="effect1_foregroundBlur_274_4982"/>
</filter>
<filter id="filter15_f_274_4982" x="11.1776" y="-8.64429" width="40.9179" height="56.2871" filterUnits="userSpaceOnUse" color-interpolation-filters="sRGB">
<feFlood flood-opacity="0" result="BackgroundImageFix"/>
<feBlend mode="normal" in="SourceGraphic" in2="BackgroundImageFix" result="shape"/>
<feGaussianBlur stdDeviation="2.18762" result="effect1_foregroundBlur_274_4982"/>
</filter>
<filter id="filter16_f_274_4982" x="13.9487" y="-5.8112" width="35.3758" height="50.5702" filterUnits="userSpaceOnUse" color-interpolation-filters="sRGB">
<feFlood flood-opacity="0" result="BackgroundImageFix"/>
<feBlend mode="normal" in="SourceGraphic" in2="BackgroundImageFix" result="shape"/>
<feGaussianBlur stdDeviation="0.729208" result="effect1_foregroundBlur_274_4982"/>
</filter>
<filter id="filter17_ddi_274_4982" x="13.6569" y="-4.70657" width="35.9592" height="51.3285" filterUnits="userSpaceOnUse" color-interpolation-filters="sRGB">
<feFlood flood-opacity="0" result="BackgroundImageFix"/>
<feColorMatrix in="SourceAlpha" type="matrix" values="0 0 0 0 0 0 0 0 0 0 0 0 0 0 0 0 0 0 127 0" result="hardAlpha"/>
<feOffset dy="0.947971"/>
<feGaussianBlur stdDeviation="0.364604"/>
<feColorMatrix type="matrix" values="0 0 0 0 0.15 0 0 0 0 0 0 0 0 0 0 0 0 0 0.7 0"/>
<feBlend mode="multiply" in2="BackgroundImageFix" result="effect1_dropShadow_274_4982"/>
<feColorMatrix in="SourceAlpha" type="matrix" values="0 0 0 0 0 0 0 0 0 0 0 0 0 0 0 0 0 0 127 0" result="hardAlpha"/>
<feOffset dy="1.45842"/>
<feGaussianBlur stdDeviation="0.947971"/>
<feColorMatrix type="matrix" values="0 0 0 0 0.8 0 0 0 0 0.19 0 0 0 0 0.19 0 0 0 1 0"/>
<feBlend mode="color-dodge" in2="effect1_dropShadow_274_4982" result="effect2_dropShadow_274_4982"/>
<feBlend mode="normal" in="SourceGraphic" in2="effect2_dropShadow_274_4982" result="shape"/>
<feColorMatrix in="SourceAlpha" type="matrix" values="0 0 0 0 0 0 0 0 0 0 0 0 0 0 0 0 0 0 127 0" result="hardAlpha"/>
<feOffset dx="-0.0947971" dy="0.189594"/>
<feGaussianBlur stdDeviation="0.0473985"/>
<feComposite in2="hardAlpha" operator="arithmetic" k2="-1" k3="1"/>
<feColorMatrix type="matrix" values="0 0 0 0 1 0 0 0 0 1 0 0 0 0 1 0 0 0 0.5 0"/>
<feBlend mode="normal" in2="shape" result="effect3_innerShadow_274_4982"/>
</filter>
<filter id="filter18_f_274_4982" x="15.5894" y="-4.3099" width="32.0943" height="47.6821" filterUnits="userSpaceOnUse" color-interpolation-filters="sRGB">
<feFlood flood-opacity="0" result="BackgroundImageFix"/>
<feBlend mode="normal" in="SourceGraphic" in2="BackgroundImageFix" result="shape"/>
<feGaussianBlur stdDeviation="0.0729208" result="effect1_foregroundBlur_274_4982"/>
</filter>
<filter id="filter19_f_274_4982" x="15.7839" y="-4.17731" width="31.7054" height="47.4679" filterUnits="userSpaceOnUse" color-interpolation-filters="sRGB">
<feFlood flood-opacity="0" result="BackgroundImageFix"/>
<feBlend mode="normal" in="SourceGraphic" in2="BackgroundImageFix" result="shape"/>
<feGaussianBlur stdDeviation="0.0486139" result="effect1_foregroundBlur_274_4982"/>
</filter>
<linearGradient id="paint0_linear_274_4982" x1="8" y1="8.00049" x2="26.8232" y2="26.9309" gradientUnits="userSpaceOnUse">
<stop stop-color="#FF00EE"/>
<stop offset="0.438272" stop-color="#DD00FF"/>
<stop offset="0.839506" stop-color="#6500FC"/>
</linearGradient>
<clipPath id="clip0_274_4982">
<rect y="0.000488281" width="36" height="36" rx="18" fill="white"/>
</clipPath>
<clipPath id="clip1_274_4982">
<rect width="19" height="19" fill="white" transform="translate(8 8.00049)"/>
</clipPath>
</defs>
</svg>
