<svg width="24" height="24" viewBox="0 0 24 24" fill="none" xmlns="http://www.w3.org/2000/svg">
<g clip-path="url(#clip0_267_2499)">
<g filter="url(#filter0_d_267_2499)">
<path d="M14.5 9.40193C16.5 10.5566 17.5 11.134 17.5 12C17.5 12.866 16.5 13.4434 14.5 14.5981L13 15.4641C11 16.6188 10 17.1962 9.25 16.7631C8.5 16.3301 8.5 15.1754 8.5 12.866L8.5 11.134C8.5 8.82457 8.5 7.66987 9.25 7.23686C10 6.80385 11 7.3812 13 8.5359L14.5 9.40193Z" fill="url(#paint0_linear_267_2499)"/>
</g>
</g>
<rect x="0.75" y="0.75" width="22.5" height="22.5" rx="11.25" stroke="#FF7FE3" stroke-width="1.5"/>
<defs>
<filter id="filter0_d_267_2499" x="-6.5" y="-10.9069" width="45" height="45.8137" filterUnits="userSpaceOnUse" color-interpolation-filters="sRGB">
<feFlood flood-opacity="0" result="BackgroundImageFix"/>
<feColorMatrix in="SourceAlpha" type="matrix" values="0 0 0 0 0 0 0 0 0 0 0 0 0 0 0 0 0 0 127 0" result="hardAlpha"/>
<feOffset dx="3"/>
<feGaussianBlur stdDeviation="9"/>
<feComposite in2="hardAlpha" operator="out"/>
<feColorMatrix type="matrix" values="0 0 0 0 1 0 0 0 0 0.570833 0 0 0 0 0.678125 0 0 0 1 0"/>
<feBlend mode="normal" in2="BackgroundImageFix" result="effect1_dropShadow_267_2499"/>
<feBlend mode="normal" in="SourceGraphic" in2="effect1_dropShadow_267_2499" result="shape"/>
</filter>
<linearGradient id="paint0_linear_267_2499" x1="9.47222" y1="10.32" x2="17.2681" y2="0.489699" gradientUnits="userSpaceOnUse">
<stop stop-color="#FF7FE3"/>
<stop offset="1" stop-color="#FDEFFA"/>
</linearGradient>
<clipPath id="clip0_267_2499">
<rect width="24" height="24" rx="12" fill="white"/>
</clipPath>
</defs>
</svg>
