<svg width="36" height="36" viewBox="0 0 36 36" fill="none" xmlns="http://www.w3.org/2000/svg">
<rect x="0.5" y="0.5" width="35" height="35" rx="17.5" fill="#303030"/>
<g filter="url(#filter0_dd_267_2822)">
<path d="M23.4698 13.083C25.2375 15.7004 26.1105 18.6528 25.7841 22.0517C25.7828 22.0661 25.7753 22.0793 25.7636 22.088C24.4249 23.0779 23.128 23.6787 21.8492 24.0771C21.8392 24.0801 21.8286 24.08 21.8187 24.0766C21.8088 24.0732 21.8003 24.0669 21.7942 24.0584C21.4988 23.6444 21.2303 23.2079 20.9952 22.7496C20.9817 22.7226 20.994 22.6901 21.0218 22.6795C21.4481 22.5177 21.8535 22.3238 22.2434 22.0943C22.2741 22.0762 22.2761 22.0318 22.2477 22.0106C22.165 21.9487 22.083 21.8837 22.0045 21.8186C21.9899 21.8066 21.9701 21.8043 21.9535 21.8123C19.4219 22.9896 16.6488 22.9896 14.0873 21.8123C14.0706 21.8048 14.0509 21.8074 14.0366 21.8192C13.9583 21.8843 13.8762 21.9487 13.7942 22.0106C13.7658 22.0318 13.7682 22.0762 13.7991 22.0943C14.189 22.3195 14.5944 22.5177 15.0201 22.6803C15.0477 22.6909 15.0608 22.7226 15.0471 22.7496C14.8171 23.2085 14.5486 23.645 14.2477 24.0589C14.2346 24.0757 14.2131 24.0834 14.1927 24.0771C12.92 23.6787 11.623 23.0779 10.2844 22.088C10.2732 22.0793 10.2652 22.0655 10.264 22.0511C9.9913 19.1111 10.5472 16.1343 12.5763 13.0824C12.5811 13.0743 12.5886 13.068 12.5972 13.0643C13.5956 12.6028 14.6652 12.2633 15.7832 12.0694C15.8035 12.0663 15.8239 12.0757 15.8344 12.0939C15.9726 12.3402 16.1305 12.656 16.2373 12.9141C17.4157 12.7329 18.6125 12.7329 19.8156 12.9141C19.9224 12.6615 20.0748 12.3402 20.2124 12.0939C20.2173 12.0849 20.2248 12.0777 20.2341 12.0733C20.2433 12.0689 20.2536 12.0675 20.2636 12.0694C21.3822 12.2639 22.4518 12.6034 23.4494 13.0643C23.4582 13.068 23.4655 13.0743 23.4698 13.083V13.083ZM16.8364 18.6729C16.8487 17.8038 16.2195 17.0846 15.4296 17.0846C14.6463 17.0846 14.0231 17.7975 14.0231 18.6729C14.0231 19.5482 14.6586 20.2611 15.4296 20.2611C16.2132 20.2611 16.8364 19.5482 16.8364 18.6729V18.6729ZM22.0372 18.6729C22.0495 17.8038 21.4203 17.0846 20.6307 17.0846C19.8471 17.0846 19.2239 17.7975 19.2239 18.6729C19.2239 19.5482 19.8594 20.2611 20.6307 20.2611C21.4203 20.2611 22.0372 19.5482 22.0372 18.6729V18.6729Z" fill="#6568FF"/>
</g>
<rect x="0.5" y="0.5" width="35" height="35" rx="17.5" stroke="#272727"/>
<defs>
<filter id="filter0_dd_267_2822" x="0.199341" y="2.0686" width="35.6522" height="32.0107" filterUnits="userSpaceOnUse" color-interpolation-filters="sRGB">
<feFlood flood-opacity="0" result="BackgroundImageFix"/>
<feColorMatrix in="SourceAlpha" type="matrix" values="0 0 0 0 0 0 0 0 0 0 0 0 0 0 0 0 0 0 127 0" result="hardAlpha"/>
<feOffset/>
<feGaussianBlur stdDeviation="5"/>
<feComposite in2="hardAlpha" operator="out"/>
<feColorMatrix type="matrix" values="0 0 0 0 0.396078 0 0 0 0 0.407843 0 0 0 0 1 0 0 0 1 0"/>
<feBlend mode="normal" in2="BackgroundImageFix" result="effect1_dropShadow_267_2822"/>
<feColorMatrix in="SourceAlpha" type="matrix" values="0 0 0 0 0 0 0 0 0 0 0 0 0 0 0 0 0 0 127 0" result="hardAlpha"/>
<feOffset/>
<feGaussianBlur stdDeviation="0.5"/>
<feComposite in2="hardAlpha" operator="out"/>
<feColorMatrix type="matrix" values="0 0 0 0 0.396078 0 0 0 0 0.407843 0 0 0 0 1 0 0 0 1 0"/>
<feBlend mode="normal" in2="effect1_dropShadow_267_2822" result="effect2_dropShadow_267_2822"/>
<feBlend mode="normal" in="SourceGraphic" in2="effect2_dropShadow_267_2822" result="shape"/>
</filter>
</defs>
</svg>
