<svg width="36" height="36" viewBox="0 0 36 36" fill="none" xmlns="http://www.w3.org/2000/svg">
<g clip-path="url(#clip0_267_2838)">
<rect width="36" height="36" rx="18" fill="#303030"/>
<g filter="url(#filter0_dd_267_2838)">
<path d="M26.344 13.8736C26.1481 13.1373 25.5687 12.5564 24.8315 12.3573C23.4985 12 18.1503 12 18.1503 12C18.1503 12 12.8049 12 11.4692 12.3573C10.7347 12.5536 10.1553 13.1345 9.95671 13.8736C9.60034 15.21 9.60034 18 9.60034 18C9.60034 18 9.60034 20.79 9.95671 22.1264C10.1526 22.8627 10.732 23.4436 11.4692 23.6427C12.8049 24 18.1503 24 18.1503 24C18.1503 24 23.4985 24 24.8315 23.6427C25.566 23.4464 26.1454 22.8655 26.344 22.1264C26.7003 20.79 26.7003 18 26.7003 18C26.7003 18 26.7003 15.21 26.344 13.8736Z" fill="#FF7FE3"/>
<path d="M16.442 20.5718L20.8843 18L16.442 15.4282V20.5718Z" fill="#303030"/>
</g>
</g>
<rect x="0.5" y="0.5" width="35" height="35" rx="17.5" stroke="#272727"/>
<defs>
<filter id="filter0_dd_267_2838" x="-0.399658" y="2" width="37.1" height="32" filterUnits="userSpaceOnUse" color-interpolation-filters="sRGB">
<feFlood flood-opacity="0" result="BackgroundImageFix"/>
<feColorMatrix in="SourceAlpha" type="matrix" values="0 0 0 0 0 0 0 0 0 0 0 0 0 0 0 0 0 0 127 0" result="hardAlpha"/>
<feOffset/>
<feGaussianBlur stdDeviation="5"/>
<feComposite in2="hardAlpha" operator="out"/>
<feColorMatrix type="matrix" values="0 0 0 0 1 0 0 0 0 0.498039 0 0 0 0 0.890196 0 0 0 1 0"/>
<feBlend mode="normal" in2="BackgroundImageFix" result="effect1_dropShadow_267_2838"/>
<feColorMatrix in="SourceAlpha" type="matrix" values="0 0 0 0 0 0 0 0 0 0 0 0 0 0 0 0 0 0 127 0" result="hardAlpha"/>
<feOffset/>
<feGaussianBlur stdDeviation="0.5"/>
<feComposite in2="hardAlpha" operator="out"/>
<feColorMatrix type="matrix" values="0 0 0 0 1 0 0 0 0 0.498039 0 0 0 0 0.890196 0 0 0 1 0"/>
<feBlend mode="normal" in2="effect1_dropShadow_267_2838" result="effect2_dropShadow_267_2838"/>
<feBlend mode="normal" in="SourceGraphic" in2="effect2_dropShadow_267_2838" result="shape"/>
</filter>
<clipPath id="clip0_267_2838">
<rect width="36" height="36" rx="18" fill="white"/>
</clipPath>
</defs>
</svg>
