<svg width="36" height="36" viewBox="0 0 36 36" fill="none" xmlns="http://www.w3.org/2000/svg">
<g clip-path="url(#clip0_267_2826)">
<rect width="36" height="36" rx="18" fill="#303030"/>
<g filter="url(#filter0_dd_267_2826)">
<g filter="url(#filter1_d_267_2826)">
<path d="M15.5034 18.0384C15.5034 16.6565 16.623 15.536 18.0045 15.536C19.386 15.536 20.5062 16.6565 20.5062 18.0384C20.5062 19.4203 19.386 20.5408 18.0045 20.5408C16.623 20.5408 15.5034 19.4203 15.5034 18.0384ZM14.151 18.0384C14.151 20.1673 15.8762 21.893 18.0045 21.893C20.1328 21.893 21.858 20.1673 21.858 18.0384C21.858 15.9095 20.1328 14.1838 18.0045 14.1838C15.8762 14.1838 14.151 15.9095 14.151 18.0384ZM21.11 14.031C21.1099 14.2091 21.1627 14.3833 21.2615 14.5315C21.3604 14.6797 21.501 14.7952 21.6656 14.8634C21.8301 14.9317 22.0112 14.9496 22.1859 14.9149C22.3606 14.8802 22.5211 14.7945 22.647 14.6686C22.773 14.5426 22.8589 14.3822 22.8937 14.2074C22.9285 14.0327 22.9107 13.8516 22.8426 13.687C22.7746 13.5223 22.6592 13.3816 22.5111 13.2826C22.3631 13.1835 22.189 13.1306 22.0109 13.1305H22.0105C21.7718 13.1307 21.5428 13.2255 21.374 13.3944C21.2051 13.5632 21.1102 13.7922 21.11 14.031V14.031ZM14.9727 24.1487C14.241 24.1153 13.8433 23.9934 13.5791 23.8904C13.2287 23.754 12.9787 23.5915 12.7159 23.3289C12.453 23.0664 12.2903 22.8165 12.1545 22.4661C12.0515 22.2018 11.9296 21.8039 11.8964 21.0721C11.86 20.2808 11.8527 20.0431 11.8527 18.0385C11.8527 16.0338 11.8606 15.7968 11.8964 15.0049C11.9297 14.273 12.0525 13.8759 12.1545 13.6109C12.2909 13.2604 12.4534 13.0103 12.7159 12.7474C12.9783 12.4845 13.2281 12.3217 13.5791 12.1859C13.8432 12.0829 14.241 11.9609 14.9727 11.9277C15.7637 11.8913 16.0013 11.884 18.0045 11.884C20.0077 11.884 20.2455 11.8919 21.0372 11.9277C21.7689 11.961 22.1659 12.0838 22.4308 12.1859C22.7812 12.3217 23.0312 12.4849 23.294 12.7474C23.5569 13.01 23.719 13.2604 23.8554 13.6109C23.9584 13.8751 24.0803 14.273 24.1135 15.0049C24.1499 15.7968 24.1572 16.0338 24.1572 18.0385C24.1572 20.0431 24.1499 20.2801 24.1135 21.0721C24.0802 21.8039 23.9577 22.2017 23.8554 22.4661C23.719 22.8165 23.5565 23.0666 23.294 23.3289C23.0316 23.5912 22.7812 23.754 22.4308 23.8904C22.1667 23.9935 21.7689 24.1154 21.0372 24.1487C20.2462 24.185 20.0086 24.1923 18.0045 24.1923C16.0004 24.1923 15.7635 24.185 14.9727 24.1487V24.1487ZM14.9105 10.5772C14.1116 10.6136 13.5657 10.7403 13.089 10.9259C12.5953 11.1175 12.1773 11.3746 11.7596 11.7917C11.3419 12.2088 11.0856 12.6276 10.894 13.1215C10.7085 13.5987 10.5818 14.1444 10.5454 14.9436C10.5085 15.7439 10.5 15.9998 10.5 18.0384C10.5 20.077 10.5085 20.3329 10.5454 21.1333C10.5818 21.9324 10.7085 22.4781 10.894 22.9553C11.0856 23.4489 11.342 23.8681 11.7596 24.2851C12.1772 24.702 12.5953 24.9588 13.089 25.1509C13.5666 25.3365 14.1116 25.4632 14.9105 25.4996C15.7111 25.536 15.9665 25.5451 18.0045 25.5451C20.0425 25.5451 20.2983 25.5366 21.0985 25.4996C21.8974 25.4632 22.443 25.3365 22.92 25.1509C23.4134 24.9588 23.8317 24.7022 24.2494 24.2851C24.6671 23.868 24.9229 23.4489 25.115 22.9553C25.3005 22.4781 25.4278 21.9324 25.4636 21.1333C25.4999 20.3323 25.5084 20.077 25.5084 18.0384C25.5084 15.9998 25.4999 15.7439 25.4636 14.9436C25.4272 14.1444 25.3005 13.5984 25.115 13.1215C24.9229 12.6279 24.6664 12.2095 24.2494 11.7917C23.8324 11.3739 23.4134 11.1175 22.9206 10.9259C22.443 10.7403 21.8974 10.613 21.0991 10.5772C20.2989 10.5408 20.0431 10.5317 18.0051 10.5317C15.9671 10.5317 15.7111 10.5402 14.9105 10.5772Z" fill="#FF7FE3"/>
</g>
</g>
</g>
<rect x="0.5" y="0.5" width="35" height="35" rx="17.5" stroke="#272727"/>
<defs>
<filter id="filter0_dd_267_2826" x="0.5" y="0.531738" width="35.0084" height="35.0134" filterUnits="userSpaceOnUse" color-interpolation-filters="sRGB">
<feFlood flood-opacity="0" result="BackgroundImageFix"/>
<feColorMatrix in="SourceAlpha" type="matrix" values="0 0 0 0 0 0 0 0 0 0 0 0 0 0 0 0 0 0 127 0" result="hardAlpha"/>
<feOffset/>
<feGaussianBlur stdDeviation="5"/>
<feComposite in2="hardAlpha" operator="out"/>
<feColorMatrix type="matrix" values="0 0 0 0 1 0 0 0 0 0.498039 0 0 0 0 0.890196 0 0 0 1 0"/>
<feBlend mode="normal" in2="BackgroundImageFix" result="effect1_dropShadow_267_2826"/>
<feColorMatrix in="SourceAlpha" type="matrix" values="0 0 0 0 0 0 0 0 0 0 0 0 0 0 0 0 0 0 127 0" result="hardAlpha"/>
<feOffset/>
<feGaussianBlur stdDeviation="0.5"/>
<feComposite in2="hardAlpha" operator="out"/>
<feColorMatrix type="matrix" values="0 0 0 0 1 0 0 0 0 0.498039 0 0 0 0 0.890196 0 0 0 1 0"/>
<feBlend mode="normal" in2="effect1_dropShadow_267_2826" result="effect2_dropShadow_267_2826"/>
<feBlend mode="normal" in="SourceGraphic" in2="effect2_dropShadow_267_2826" result="shape"/>
</filter>
<filter id="filter1_d_267_2826" x="-57.5" y="-38.4683" width="151.008" height="151.013" filterUnits="userSpaceOnUse" color-interpolation-filters="sRGB">
<feFlood flood-opacity="0" result="BackgroundImageFix"/>
<feColorMatrix in="SourceAlpha" type="matrix" values="0 0 0 0 0 0 0 0 0 0 0 0 0 0 0 0 0 0 127 0" result="hardAlpha"/>
<feOffset dy="19"/>
<feGaussianBlur stdDeviation="34"/>
<feComposite in2="hardAlpha" operator="out"/>
<feColorMatrix type="matrix" values="0 0 0 0 0.081125 0 0 0 0 0.081125 0 0 0 0 0.0916667 0 0 0 1 0"/>
<feBlend mode="normal" in2="BackgroundImageFix" result="effect1_dropShadow_267_2826"/>
<feBlend mode="normal" in="SourceGraphic" in2="effect1_dropShadow_267_2826" result="shape"/>
</filter>
<clipPath id="clip0_267_2826">
<rect width="36" height="36" rx="18" fill="white"/>
</clipPath>
</defs>
</svg>
