<svg width="36" height="36" viewBox="0 0 36 36" fill="none" xmlns="http://www.w3.org/2000/svg">
<rect x="0.5" y="0.5" width="35" height="35" rx="17.5" fill="#303030"/>
<g filter="url(#filter0_dd_267_2832)">
<path d="M25.4456 13.2504C24.9503 13.4638 24.4295 13.6123 23.8962 13.6925C24.1456 13.6497 24.5124 13.2005 24.6585 13.0187C24.8803 12.7444 25.0494 12.4313 25.1571 12.0953C25.1571 12.0704 25.1821 12.0347 25.1571 12.0169C25.1446 12.01 25.1305 12.0064 25.1162 12.0064C25.1019 12.0064 25.0878 12.01 25.0752 12.0169C24.4961 12.3308 23.8798 12.5703 23.2409 12.7299C23.2186 12.7367 23.1949 12.7373 23.1723 12.7317C23.1497 12.726 23.1291 12.7143 23.1126 12.6978C23.0629 12.6385 23.0094 12.5826 22.9524 12.5303C22.6917 12.2966 22.3961 12.1053 22.0761 11.9634C21.6443 11.7861 21.1778 11.7093 20.712 11.7388C20.2599 11.7674 19.8186 11.8888 19.4155 12.0953C19.0184 12.3131 18.6695 12.609 18.3896 12.9652C18.0953 13.3318 17.8827 13.7573 17.7663 14.2129C17.6703 14.6464 17.6595 15.0944 17.7343 15.532C17.7343 15.6069 17.7343 15.6176 17.6702 15.6069C15.1306 15.2325 13.0469 14.3306 11.3443 12.3948C11.2695 12.3092 11.2304 12.3092 11.1698 12.3948C10.4289 13.5213 10.7887 15.3038 11.7148 16.1844C11.8394 16.302 11.9677 16.4161 12.103 16.5231C11.6784 16.4929 11.2642 16.3777 10.8849 16.1844C10.8136 16.1381 10.7744 16.163 10.7709 16.2486C10.7608 16.3672 10.7608 16.4864 10.7709 16.6051C10.8452 17.1735 11.069 17.7121 11.4195 18.1656C11.7699 18.619 12.2344 18.9712 12.7655 19.1861C12.895 19.2416 13.0299 19.2834 13.168 19.3109C12.7749 19.3884 12.3718 19.4004 11.9748 19.3466C11.8893 19.3287 11.8572 19.3751 11.8893 19.4571C12.4129 20.8831 13.5491 21.318 14.3826 21.5604C14.4966 21.5782 14.6105 21.5782 14.7388 21.6068C14.7388 21.6068 14.7388 21.6068 14.7174 21.6282C14.4716 22.0773 13.4779 22.3804 13.022 22.5372C12.1898 22.8364 11.3026 22.9508 10.4218 22.8723C10.2829 22.851 10.2508 22.8545 10.2152 22.8723C10.1796 22.8902 10.2152 22.9294 10.2544 22.965C10.4325 23.0827 10.6106 23.1861 10.7958 23.2859C11.3472 23.5869 11.9301 23.826 12.534 23.9989C15.6613 24.8616 19.1804 24.227 21.5276 21.892C23.3727 20.0596 24.0209 17.532 24.0209 15.0008C24.0209 14.9046 24.1385 14.8475 24.2061 14.7976C24.6729 14.4336 25.0844 14.0037 25.4278 13.5213C25.4873 13.4494 25.5178 13.3579 25.5133 13.2647V13.2647C25.5133 13.2112 25.5133 13.2219 25.4456 13.2504Z" fill="url(#paint0_linear_267_2832)"/>
</g>
<rect x="0.5" y="0.5" width="35" height="35" rx="17.5" stroke="#272727"/>
<defs>
<filter id="filter0_dd_267_2832" x="0.200562" y="1.73267" width="35.3132" height="32.6343" filterUnits="userSpaceOnUse" color-interpolation-filters="sRGB">
<feFlood flood-opacity="0" result="BackgroundImageFix"/>
<feColorMatrix in="SourceAlpha" type="matrix" values="0 0 0 0 0 0 0 0 0 0 0 0 0 0 0 0 0 0 127 0" result="hardAlpha"/>
<feOffset/>
<feGaussianBlur stdDeviation="5"/>
<feComposite in2="hardAlpha" operator="out"/>
<feColorMatrix type="matrix" values="0 0 0 0 0.247059 0 0 0 0 0.760784 0 0 0 0 0.917647 0 0 0 1 0"/>
<feBlend mode="normal" in2="BackgroundImageFix" result="effect1_dropShadow_267_2832"/>
<feColorMatrix in="SourceAlpha" type="matrix" values="0 0 0 0 0 0 0 0 0 0 0 0 0 0 0 0 0 0 127 0" result="hardAlpha"/>
<feOffset/>
<feGaussianBlur stdDeviation="0.5"/>
<feComposite in2="hardAlpha" operator="out"/>
<feColorMatrix type="matrix" values="0 0 0 0 0.247059 0 0 0 0 0.760784 0 0 0 0 0.917647 0 0 0 1 0"/>
<feBlend mode="normal" in2="effect1_dropShadow_267_2832" result="effect2_dropShadow_267_2832"/>
<feBlend mode="normal" in="SourceGraphic" in2="effect2_dropShadow_267_2832" result="shape"/>
</filter>
<linearGradient id="paint0_linear_267_2832" x1="10.4007" y1="12.8964" x2="26.7938" y2="14.0157" gradientUnits="userSpaceOnUse">
<stop stop-color="#00D1FF"/>
<stop offset="1" stop-color="#3AB8FF"/>
</linearGradient>
</defs>
</svg>
