<svg width="16" height="16" viewBox="0 0 16 16" fill="none" xmlns="http://www.w3.org/2000/svg">
<path d="M12.0002 4.77338C11.9602 4.76671 11.9135 4.76671 11.8735 4.77338C10.9535 4.74004 10.2202 3.98671 10.2202 3.05338C10.2202 2.10004 10.9869 1.33337 11.9402 1.33337C12.8935 1.33337 13.6602 2.10671 13.6602 3.05338C13.6535 3.98671 12.9202 4.74004 12.0002 4.77338Z" stroke="#6568FF" stroke-linecap="round" stroke-linejoin="round"/>
<path d="M11.3135 9.62669C12.2268 9.78003 13.2335 9.62003 13.9401 9.14669C14.8801 8.52003 14.8801 7.49336 13.9401 6.86669C13.2268 6.39336 12.2068 6.23336 11.2935 6.39336" stroke="#6568FF" stroke-linecap="round" stroke-linejoin="round"/>
<path d="M3.97983 4.77338C4.01983 4.76671 4.06649 4.76671 4.10649 4.77338C5.02649 4.74004 5.75982 3.98671 5.75982 3.05338C5.75982 2.10004 4.99316 1.33337 4.03983 1.33337C3.08649 1.33337 2.31982 2.10671 2.31982 3.05338C2.32649 3.98671 3.05983 4.74004 3.97983 4.77338Z" stroke="#6568FF" stroke-linecap="round" stroke-linejoin="round"/>
<path d="M4.66663 9.62669C3.75329 9.78003 2.74663 9.62003 2.03996 9.14669C1.09996 8.52003 1.09996 7.49336 2.03996 6.86669C2.75329 6.39336 3.77329 6.23336 4.68663 6.39336" stroke="#6568FF" stroke-linecap="round" stroke-linejoin="round"/>
<path d="M8.00021 9.75336C7.96021 9.74669 7.91355 9.74669 7.87355 9.75336C6.95355 9.72002 6.22021 8.96669 6.22021 8.03336C6.22021 7.08002 6.98688 6.31335 7.94021 6.31335C8.89355 6.31335 9.66021 7.08669 9.66021 8.03336C9.65355 8.96669 8.92021 9.72669 8.00021 9.75336Z" stroke="#6568FF" stroke-linecap="round" stroke-linejoin="round"/>
<path d="M6.05998 11.8534C5.11998 12.48 5.11998 13.5067 6.05998 14.1334C7.12665 14.8467 8.87331 14.8467 9.93998 14.1334C10.88 13.5067 10.88 12.48 9.93998 11.8534C8.87998 11.1467 7.12665 11.1467 6.05998 11.8534Z" stroke="#6568FF" stroke-linecap="round" stroke-linejoin="round"/>
</svg>
