<svg width="20" height="17" viewBox="0 0 20 17" fill="none" xmlns="http://www.w3.org/2000/svg">
<g clip-path="url(#clip0_249_4646)">
<path d="M19.0066 0.471346C18.7749 0.180339 18.3852 0.0698293 18.0286 0.117717C17.8852 0.132451 17.7455 0.169288 17.6057 0.217175C12.4179 1.91902 7.22272 3.60981 2.03121 5.31533C1.22601 5.58792 0.656119 6.38727 0.66715 7.24188C0.70024 9.92357 0.74436 12.6089 0.784804 15.2943C0.792158 15.8505 1.01644 16.4952 1.57897 16.7051C2.14151 16.9335 2.71508 16.6352 3.24452 16.462C8.15292 14.786 13.0687 13.1136 17.9771 11.4375C18.3999 11.3012 18.8117 11.0471 19.0323 10.6456C19.275 10.2183 19.3007 9.7136 19.3007 9.23473C19.3117 6.6967 19.3301 4.16235 19.3411 1.62433C19.3375 1.22649 19.2713 0.791823 19.0066 0.471346Z" fill="black"/>
<path d="M18.0941 0.0515666C18.4544 -4.41074e-06 18.8478 0.117872 19.0794 0.405196C19.3441 0.729356 19.414 1.16771 19.4177 1.57291C19.4066 4.12936 19.3883 6.6858 19.3772 9.24225C19.3772 9.72481 19.3478 10.2331 19.1051 10.6641C18.8845 11.0657 18.4691 11.3272 18.0426 11.4598C13.0937 13.1469 8.14121 14.834 3.19236 16.5248C2.65556 16.6979 2.07832 17 1.51211 16.7716C0.945893 16.558 0.717937 15.9096 0.710583 15.3497C0.67014 12.6423 0.626019 9.93846 0.592929 7.23098C0.581899 6.37269 1.15914 5.56229 1.96802 5.29339C7.19997 3.57681 12.4356 1.8676 17.6712 0.151025C17.8073 0.103137 17.9507 0.0663011 18.0941 0.0515666ZM18.1713 0.224698C17.8367 0.254167 17.5278 0.397829 17.208 0.493603L2.21803 5.40021C1.58196 5.56966 1.0084 6.05958 0.850298 6.71527C0.717937 7.17204 0.791471 7.65092 0.784118 8.11506C0.820885 10.4468 0.853975 12.7785 0.887065 15.1103C0.883389 15.5376 0.927509 16.0054 1.21429 16.3443C1.50475 16.6906 2.00846 16.7385 2.4129 16.6022C7.61176 14.8303 12.8106 13.0548 18.0095 11.283C18.3661 11.1651 18.7117 10.9551 18.914 10.6273C19.1529 10.2368 19.186 9.76533 19.1934 9.31961C19.1971 6.68212 19.2375 4.04832 19.2302 1.41083C19.2485 0.825131 18.8404 0.125239 18.1713 0.224698Z" fill="white"/>
<path d="M17.2742 9.02496C17.5169 8.9476 17.7522 8.85551 17.9948 8.78552C18.0206 8.84446 18.0389 8.89971 18.0536 8.96234C17.8735 9.02127 17.6933 9.0839 17.5132 9.14283C17.5646 9.29018 17.6124 9.44121 17.6639 9.59224C17.811 9.54435 17.9581 9.49278 18.1051 9.44489C18.1345 9.50383 18.1603 9.56277 18.1639 9.62908C18.0169 9.68065 17.8698 9.72853 17.7264 9.78011C17.7779 9.92745 17.8257 10.0785 17.8772 10.2258C18.0573 10.1669 18.2375 10.1043 18.4176 10.0453C18.4434 10.1043 18.4654 10.1632 18.4728 10.2258C18.2338 10.3105 17.9948 10.3953 17.7558 10.4689C17.5941 9.98639 17.4286 9.50752 17.2742 9.02496ZM16.0793 9.42279C16.2888 9.3749 16.5131 9.19809 16.7264 9.3307C16.9874 9.45226 17.0389 9.84641 16.833 10.0416C16.9837 10.2369 17.1455 10.4247 17.2889 10.6237C16.969 10.8152 16.8514 10.3069 16.6418 10.1448C16.605 10.1558 16.5719 10.1706 16.5352 10.1816C16.6014 10.3916 16.6822 10.5979 16.7447 10.8115C16.6859 10.8299 16.6308 10.8557 16.5719 10.8705C16.3955 10.3879 16.241 9.90535 16.0793 9.42279ZM16.3219 9.54435C16.3697 9.6917 16.4212 9.84273 16.4727 9.99376C16.6418 9.97534 16.8256 9.82799 16.7447 9.64013C16.6822 9.45963 16.4616 9.46331 16.3219 9.54435ZM14.9027 9.82799C15.1454 9.74695 15.3807 9.65854 15.627 9.58856C15.6491 9.64749 15.6711 9.70275 15.6822 9.76537C15.5057 9.82799 15.3219 9.88693 15.1454 9.94955C15.1932 10.0969 15.2446 10.2479 15.2961 10.399C15.4469 10.3511 15.5939 10.2921 15.7447 10.2516C15.7704 10.3105 15.7888 10.3658 15.8035 10.4284C15.6564 10.4837 15.5057 10.5316 15.3623 10.5795C15.4101 10.7305 15.4616 10.8778 15.513 11.0252C15.6932 10.9662 15.8697 10.9036 16.0535 10.8484C16.0829 10.9073 16.0976 10.9662 16.1123 11.0252C15.877 11.1136 15.6344 11.1873 15.3954 11.2683C15.2189 10.7894 15.0608 10.3069 14.9027 9.82799ZM13.9321 10.1927C14.1159 9.99376 14.4909 10.0785 14.5645 10.34C14.5056 10.3658 14.4505 10.3842 14.3916 10.399C14.3181 10.2037 13.9909 10.2553 14.0166 10.4763C14.0975 10.7489 14.1931 11.0178 14.2887 11.2867C14.4064 11.4672 14.6931 11.3162 14.6343 11.1136C14.6931 11.0952 14.7483 11.0767 14.8071 11.0583C14.9873 11.504 14.2556 11.773 14.0975 11.3309C14.0313 10.9626 13.66 10.5426 13.9321 10.1927ZM13.068 10.4395C13.1269 10.4211 13.182 10.399 13.2445 10.3805C13.4173 10.8594 13.5717 11.342 13.7335 11.8208C13.6784 11.8503 13.6195 11.8687 13.557 11.8798C13.3328 11.6182 13.1122 11.3493 12.8879 11.0878C12.9871 11.3935 13.0975 11.6993 13.193 12.0087C13.1342 12.0271 13.0791 12.0492 13.0166 12.0676C12.8474 11.5888 12.6893 11.1062 12.5276 10.6273C12.5827 10.5979 12.6415 10.5795 12.7004 10.561C12.9283 10.8226 13.1489 11.0952 13.3732 11.3567C13.2739 11.0546 13.1636 10.7489 13.068 10.4395ZM11.34 11.0252C11.579 10.9441 11.818 10.8594 12.0569 10.7857C12.0827 10.8447 12.1011 10.8999 12.1158 10.9626C12.0275 10.9994 11.9393 11.0252 11.851 11.0546C11.9724 11.4156 12.0937 11.773 12.2114 12.1303C12.2996 12.1008 12.3878 12.0676 12.4761 12.0419C12.5055 12.0971 12.5239 12.1561 12.5386 12.2187C12.2996 12.3034 12.0606 12.3881 11.8216 12.4618C11.7996 12.4029 11.7775 12.3439 11.7628 12.285C11.851 12.2518 11.9393 12.226 12.0275 12.1929C11.9062 11.8319 11.7849 11.4746 11.6635 11.1136C11.5753 11.1431 11.4871 11.1799 11.3988 11.202C11.3731 11.1504 11.3584 11.0878 11.34 11.0252ZM10.7186 11.2351C10.7774 11.2057 10.84 11.1909 10.9025 11.1762C10.976 11.6882 11.0458 12.2003 11.1084 12.7123C11.0569 12.7381 10.9981 12.7565 10.9392 12.7675C10.6782 12.3218 10.4282 11.8687 10.1745 11.423C10.237 11.4046 10.2995 11.3493 10.3693 11.3751C10.5311 11.6367 10.6598 11.9203 10.8363 12.1708C10.8105 11.8577 10.7554 11.5483 10.7186 11.2351ZM8.88394 11.5483C9.74062 11.4341 10.4392 12.4397 10.0348 13.2022C9.70385 13.9868 8.50524 14.0936 8.04198 13.379C7.50886 12.6975 8.02359 11.5814 8.88394 11.5483ZM8.80673 11.6182C8.25155 11.6993 7.82505 12.2555 7.89859 12.8154C7.94271 13.3422 8.417 13.7879 8.94645 13.799C9.68179 13.8542 10.2884 13.0401 10.0237 12.3513C9.86195 11.8577 9.3178 11.5225 8.80673 11.6182Z" fill="white"/>
<path d="M8.97908 12.0529C8.77686 11.9976 8.93863 11.4893 9.09306 11.7766C8.93863 11.6808 8.93128 11.8503 8.95334 11.9903C8.96437 11.994 8.99011 12.005 9.00114 12.0087C9.01217 11.9976 9.03055 11.9792 9.04526 11.9682L8.99378 11.9608C8.99378 11.9497 8.99746 11.924 8.99746 11.9129H9.09673C9.09306 11.9792 9.05996 12.0639 8.97908 12.0529ZM8.56361 11.7766C8.62244 11.7545 8.67759 11.7324 8.73641 11.714C8.74009 11.725 8.74744 11.7508 8.75112 11.7582C8.73641 11.7619 8.70332 11.7766 8.68862 11.784C8.71803 11.8687 8.74744 11.9534 8.78054 12.0345C8.79892 12.0271 8.82466 12.0197 8.84304 12.0124C8.84671 12.0234 8.85407 12.0492 8.86142 12.0566C8.80259 12.0787 8.74009 12.1008 8.67759 12.1192C8.67023 12.0787 8.68862 12.0529 8.72906 12.0455C8.69965 11.9608 8.67023 11.8798 8.64082 11.795C8.62244 11.7987 8.58935 11.8098 8.57464 11.8135L8.56361 11.7766ZM9.11512 12.0713C9.18865 11.9682 9.22542 11.7766 9.34675 11.7435C9.30998 11.865 9.34675 12.0345 9.26218 12.1192C9.25851 12.1008 9.25115 12.0639 9.2438 12.0455C9.19968 12.0345 9.15924 12.0639 9.11512 12.0713ZM8.2805 11.9719C8.3283 11.9276 8.37977 11.8871 8.43125 11.8503C8.46066 11.8871 8.4386 11.9129 8.40551 11.9387C8.44963 12.0308 8.62244 12.1155 8.57096 12.2187C8.49743 12.1376 8.43125 12.0492 8.36507 11.9682C8.34668 11.9829 8.3283 11.9976 8.31359 12.0124C8.30256 11.9976 8.28786 11.9829 8.2805 11.9719ZM9.32469 12.1413C9.4019 12.0418 9.47911 11.9387 9.56 11.8429C9.59676 11.8724 9.59676 11.9092 9.58941 11.9534C9.62618 11.935 9.66662 11.9276 9.70339 11.9571C9.62618 12.0566 9.54897 12.156 9.46808 12.2518C9.4019 12.1671 9.57103 12.086 9.60412 12.005C9.57838 12.0161 9.55264 12.0234 9.53058 12.0345C9.53426 12.0161 9.53794 11.9755 9.54161 11.9534C9.46072 12.005 9.42028 12.1855 9.32469 12.1413ZM9.76589 12.1192L9.81001 12.0934C9.8284 12.1523 9.94973 12.2334 9.86884 12.2813C9.85781 12.2665 9.83943 12.2371 9.83207 12.2223C9.75854 12.2665 9.68133 12.3144 9.60779 12.3623C9.61882 12.377 9.63353 12.4065 9.64456 12.4213C9.63353 12.4249 9.61147 12.4397 9.60044 12.4434C9.58573 12.3844 9.4644 12.3034 9.54161 12.2555C9.55264 12.2702 9.57103 12.2997 9.57838 12.3144C9.65191 12.2702 9.72913 12.2223 9.80266 12.1745C9.79163 12.156 9.7806 12.1413 9.76589 12.1192ZM8.11137 12.1892C8.11873 12.1781 8.13343 12.1597 8.14079 12.145C8.22535 12.2039 8.31359 12.2665 8.39816 12.3292L8.47537 12.2187C8.4864 12.226 8.50478 12.2371 8.51581 12.2444C8.47904 12.296 8.44595 12.3476 8.40919 12.3992C8.30992 12.3328 8.21065 12.2592 8.11137 12.1892ZM8.0121 12.3807C8.10034 12.3107 8.49008 12.4249 8.31727 12.587C8.218 12.5833 8.0121 12.576 7.99004 12.4728C8.09667 12.4728 8.23271 12.587 8.31727 12.517C8.27683 12.4102 8.1077 12.4397 8.0121 12.3807ZM9.61147 12.4839C9.7328 12.4581 9.85413 12.4323 9.97914 12.4102C9.97914 12.5097 9.83943 12.5244 9.7806 12.587C9.85413 12.5723 9.92767 12.5575 9.99753 12.5428C10.0012 12.5539 10.0086 12.5797 10.0086 12.5907C9.88355 12.6018 9.75119 12.6791 9.62618 12.6423C9.685 12.576 9.76589 12.5391 9.83575 12.4876C9.76222 12.4986 9.69236 12.517 9.61882 12.5318C9.61882 12.5207 9.61515 12.4949 9.61147 12.4839ZM8.62244 12.4912C8.69229 12.4728 8.91657 12.5097 8.73641 12.5428V12.8559H8.68862V12.5391H8.62244V12.4912ZM8.87245 12.4912H8.92025V12.646H9.00849V12.4912H9.05629C9.03423 12.6128 9.10041 12.7823 9.01584 12.867C9.00849 12.8117 9.00849 12.7528 9.00849 12.6975H8.92025C8.92025 12.7565 8.92025 12.8117 8.91657 12.867C8.82466 12.7823 8.89084 12.6128 8.87245 12.4912ZM9.12615 12.4912H9.31366V12.5391H9.17394V12.6496H9.28792V12.7012H9.17394V12.8117H9.31366V12.8596H9.12982C9.12247 12.7344 9.1335 12.6128 9.12615 12.4912ZM6.6076 12.8928C6.58554 12.4765 7.23632 12.366 7.35397 12.7675C7.29882 12.797 7.24 12.8154 7.17749 12.8338C7.08925 12.587 6.69217 12.7454 6.82453 12.9849C7.00836 13.1617 7.29882 13.1838 7.50104 13.3385C7.65914 13.4895 7.65546 13.7768 7.47898 13.9131C7.28779 14.0899 6.94218 13.9905 6.87232 13.7437C6.93115 13.7216 6.98998 13.6995 7.04881 13.6847C7.14072 13.9352 7.53413 13.7584 7.39809 13.5263C7.15543 13.298 6.62599 13.3237 6.6076 12.8928ZM7.96431 12.6975C8.08564 12.6828 8.21432 12.6791 8.33565 12.6681V12.7196C8.24374 12.7233 8.1555 12.7307 8.06358 12.738C8.08931 12.7491 8.11505 12.7675 8.14079 12.7786C8.12241 12.7896 8.08931 12.8154 8.07093 12.8265C8.16285 12.8228 8.25477 12.8154 8.34668 12.808V12.8559C8.22535 12.8633 8.10402 12.8743 7.98637 12.8854C7.98269 12.8743 7.98269 12.8486 7.98269 12.8338C8.00107 12.8191 8.02313 12.8044 8.04152 12.7896C8.00107 12.7675 7.97166 12.7417 7.96431 12.6975ZM9.75854 12.9185C9.56367 12.9259 9.63721 12.6423 9.80634 12.7344C9.96811 12.6828 10.0858 12.9259 9.88355 12.9406C9.89458 12.8928 9.94237 12.867 9.9534 12.8191C9.87619 12.8007 9.63721 12.7123 9.69603 12.867C9.71442 12.8559 9.75119 12.8301 9.76957 12.8154C9.76957 12.8486 9.76589 12.8817 9.75854 12.9185ZM5.87226 12.8707C5.93109 12.8486 5.98991 12.8265 6.04874 12.808C6.1811 13.1948 6.32082 13.5816 6.4348 13.9758C6.49362 14.3588 5.93109 14.5614 5.73255 14.2336C5.5818 13.8505 5.46415 13.449 5.32811 13.0548C5.38694 13.0327 5.44576 13.0106 5.50827 12.9959C5.64063 13.3679 5.75828 13.7437 5.89064 14.1194C5.98256 14.2889 6.28037 14.1857 6.23625 13.9905C6.12595 13.6148 5.98992 13.2464 5.87226 12.8707ZM8.54155 12.9812C8.5967 13.0364 8.64817 13.0954 8.70332 13.158C8.69229 13.169 8.66656 13.1875 8.65553 13.1985C8.63714 13.1801 8.61508 13.1543 8.5967 13.1359C8.49743 13.228 8.39816 13.3201 8.29521 13.4085C8.28418 13.3974 8.2658 13.3716 8.25477 13.3606C8.35404 13.2685 8.45331 13.1801 8.55258 13.088L8.49743 13.0217C8.50846 13.0143 8.53052 12.9922 8.54155 12.9812ZM9.37616 13.0585C9.38719 13.0475 9.41293 13.0217 9.42764 13.0143C9.53426 13.1285 9.64088 13.239 9.74751 13.3495L9.70339 13.3937C9.61882 13.3127 9.54161 13.2243 9.46073 13.1432C9.4644 13.169 9.47911 13.2206 9.48646 13.2464C9.4497 13.2353 9.4166 13.228 9.37984 13.2169C9.46073 13.3016 9.54161 13.3864 9.6225 13.4748L9.57838 13.519C9.47176 13.4085 9.36145 13.2943 9.25851 13.1838C9.26954 13.1727 9.29527 13.1469 9.30263 13.1359C9.33572 13.1432 9.36881 13.1543 9.4019 13.1653C9.39087 13.1248 9.38351 13.0917 9.37616 13.0585ZM9.72177 13.1248C9.5747 13.0585 9.79163 12.9296 9.77692 13.088C9.76222 13.099 9.73648 13.1175 9.72177 13.1248ZM4.17362 13.4416C4.41261 13.3569 4.64792 13.2795 4.8869 13.1985C4.91632 13.2574 4.9347 13.3164 4.94941 13.379C4.86117 13.4085 4.77293 13.4379 4.68468 13.4711C4.8244 13.8947 4.97514 14.311 5.10751 14.7346C5.04868 14.753 4.99353 14.7751 4.93102 14.7935C4.7766 14.3773 4.64424 13.95 4.50085 13.53C4.41261 13.5595 4.32437 13.5963 4.23245 13.6184C4.20671 13.5632 4.18465 13.5042 4.17362 13.4416ZM8.73274 13.1801C8.80627 13.2022 8.88348 13.2243 8.95702 13.2501L8.94231 13.309C8.88716 13.2906 8.82833 13.2759 8.77318 13.2574L8.72906 13.3901C8.77318 13.4048 8.82098 13.4195 8.86878 13.4343C8.8651 13.449 8.85407 13.4785 8.85039 13.4932C8.80627 13.4821 8.75847 13.4637 8.71068 13.449C8.69965 13.4932 8.68126 13.5411 8.67023 13.5816C8.72538 13.6 8.78054 13.6184 8.83569 13.6332C8.83201 13.6479 8.82466 13.6774 8.8173 13.6921C8.74377 13.67 8.66656 13.6479 8.59302 13.6221C8.64082 13.4748 8.68494 13.3274 8.73274 13.1801ZM9.07835 13.2243C9.09306 13.2243 9.12247 13.2206 9.1335 13.2206C9.196 13.3643 9.26586 13.5079 9.32469 13.6516C9.28057 13.67 9.25115 13.6553 9.23277 13.6111C9.20703 13.6148 9.1813 13.6221 9.15556 13.6258C9.16659 13.6737 9.14085 13.6995 9.09673 13.7032C9.08938 13.5448 9.08203 13.3864 9.07835 13.2243ZM9.14821 13.4011C9.14821 13.4564 9.15188 13.5079 9.15188 13.5632C9.16659 13.5595 9.19968 13.5521 9.21806 13.5484C9.19233 13.5042 9.17394 13.4527 9.14821 13.4011ZM3.46769 13.6958C3.52284 13.6663 3.578 13.6516 3.63682 13.6369C3.89052 14.0826 4.14789 14.5283 4.3979 14.974C4.33907 14.9998 4.27657 15.0219 4.21039 15.0366C4.18098 14.9814 4.15156 14.9298 4.11847 14.8746C4.0192 14.9003 3.92361 14.9335 3.82801 14.9703C3.83537 15.033 3.8464 15.0956 3.85007 15.1582C3.79124 15.1803 3.73242 15.2024 3.67359 15.2171C3.59638 14.7162 3.53755 14.2041 3.46769 13.6958ZM3.74712 14.2299C3.74345 14.4104 3.78389 14.5909 3.80595 14.7714C3.87581 14.753 3.94567 14.7272 4.01185 14.7014C3.93464 14.5393 3.8464 14.381 3.74712 14.2299ZM2.55955 13.9868C2.61838 13.9684 2.67353 13.9463 2.73235 13.9279C2.90148 14.4067 3.05958 14.8893 3.22136 15.3755C3.16253 15.3976 3.10738 15.4197 3.04487 15.4345C2.81692 15.1729 2.59632 14.904 2.37204 14.6388C2.47131 14.9445 2.58161 15.254 2.6772 15.5634C2.61838 15.5818 2.56322 15.6039 2.50072 15.6223C2.32792 15.1435 2.17349 14.6609 2.01172 14.182C2.06687 14.1526 2.1257 14.1378 2.1882 14.1231C2.41616 14.3883 2.63676 14.6572 2.86104 14.9188C2.76544 14.6057 2.65147 14.2999 2.55955 13.9868Z" fill="white"/>
<path d="M18.171 0.224888C18.8402 0.12543 19.252 0.821638 19.2299 1.4147C19.2336 4.05219 19.2005 6.68599 19.1932 9.32348C19.1895 9.77288 19.1564 10.2407 18.9137 10.6312C18.7115 10.959 18.3622 11.1653 18.0093 11.2869C12.8104 13.0587 7.61155 14.8342 2.41268 16.606C2.00457 16.7423 1.49718 16.6944 1.21408 16.3482C0.927295 16.0093 0.886851 15.5415 0.886851 15.1142C0.850084 12.7787 0.816994 10.447 0.783904 8.11525C0.791257 7.64742 0.7214 7.16855 0.850084 6.71546C1.01186 6.05977 1.58175 5.56985 2.2215 5.4004C7.21446 3.76118 12.2111 2.12933 17.2041 0.497478C17.5239 0.401703 17.8365 0.254357 18.171 0.224888ZM15.2517 2.1367C15.2628 4.42424 15.2959 6.71546 15.3142 9.00669C16.1636 8.74515 17.0019 8.43941 17.8512 8.15577C17.8549 5.85349 17.8806 3.55122 17.8696 1.24894C16.9982 1.54363 16.1268 1.84201 15.2517 2.1367ZM12.3729 3.09444C12.3729 3.86064 12.3766 4.62684 12.3802 5.39304C13.2406 6.49444 14.0862 7.61059 14.9539 8.70094C14.965 6.5497 14.9355 4.39109 14.9098 2.23616C14.0642 2.52348 13.2185 2.8108 12.3729 3.09444ZM9.49402 4.08903C9.50505 4.81839 9.50505 5.54406 9.52343 6.27343C9.92787 6.84071 10.358 7.38957 10.7772 7.94948C10.3654 8.09683 9.95361 8.23312 9.5455 8.38047C9.54917 8.83356 9.55653 9.28296 9.5602 9.73236C10.2441 9.51871 10.9206 9.27559 11.6008 9.04721C11.8508 9.37137 12.0935 9.70289 12.3398 10.0271C13.1854 9.73605 14.0384 9.45609 14.8804 9.15772C13.4759 7.338 12.0677 5.52196 10.6559 3.70961C10.2661 3.81644 9.88008 3.9601 9.49402 4.08903ZM6.67399 5.05414C6.69237 5.87928 6.71075 6.7081 6.73649 7.53323C7.54904 8.5978 8.38733 9.64764 9.21091 10.7048C9.25504 10.6754 9.23665 10.6201 9.24033 10.5796C9.21092 8.45782 9.19989 6.33605 9.16679 4.21427C8.33586 4.48318 7.50492 4.77418 6.67399 5.05414ZM1.98619 6.66021C2.00089 8.95512 2.01192 11.2463 2.03766 13.5412C2.88698 13.2576 3.7363 12.9666 4.58194 12.6793C4.58929 10.377 4.60768 8.07841 4.604 5.77245C3.72895 6.06346 2.86124 6.36552 1.98619 6.66021ZM4.94226 5.81665C4.93491 7.15013 4.92755 8.48361 4.92755 9.81709C5.4717 10.5428 6.02689 11.2611 6.58207 11.9794C7.42404 11.6884 8.26968 11.4121 9.11164 11.1174C7.76597 9.36768 6.39456 7.64006 5.04153 5.89769C5.01212 5.86454 4.98638 5.82771 4.94226 5.81665ZM17.2739 9.02511C17.4284 9.50398 17.5938 9.98285 17.7556 10.4654C17.9982 10.3917 18.2336 10.307 18.4725 10.2223C18.4615 10.1597 18.4394 10.1007 18.4174 10.0418C18.2372 10.097 18.0571 10.1634 17.8769 10.2223C17.8254 10.0749 17.7776 9.92391 17.7262 9.77657C17.8732 9.725 18.0203 9.67711 18.1637 9.62554C18.16 9.55923 18.1343 9.50029 18.1049 9.44136C17.9578 9.48924 17.8107 9.54082 17.6637 9.5887C17.6122 9.44136 17.5644 9.29033 17.5129 9.1393C17.6931 9.08036 17.8732 9.01774 18.0534 8.9588C18.0387 8.89986 18.0203 8.83724 17.9946 8.78199C17.7519 8.85934 17.5129 8.94775 17.2739 9.02511ZM16.079 9.42294C16.2408 9.9055 16.3952 10.3917 16.5717 10.8706C16.6305 10.8522 16.6857 10.8301 16.7445 10.8117C16.682 10.598 16.6048 10.3917 16.5349 10.1818C16.5717 10.1707 16.6048 10.156 16.6415 10.1449C16.8511 10.307 16.9688 10.819 17.2886 10.6238C17.1416 10.4249 16.9835 10.237 16.8327 10.0418C17.0423 9.84656 16.9871 9.45241 16.7261 9.33085C16.5129 9.19455 16.2886 9.37505 16.079 9.42294ZM14.9025 9.82814C15.0642 10.307 15.2187 10.7896 15.3878 11.2684C15.6268 11.1874 15.8658 11.1137 16.1047 11.0253C16.09 10.9664 16.0716 10.9038 16.0459 10.8485C15.8658 10.9038 15.6856 10.9701 15.5054 11.0253C15.454 10.878 15.4025 10.7269 15.3547 10.5796C15.5018 10.528 15.6525 10.4838 15.7959 10.4286C15.7849 10.3696 15.7628 10.307 15.7371 10.2518C15.5826 10.2923 15.4393 10.3512 15.2885 10.3991C15.2407 10.2518 15.1892 10.1007 15.1378 9.9497C15.3142 9.89076 15.4981 9.83182 15.6746 9.76552C15.6635 9.70658 15.6415 9.64764 15.6194 9.5887C15.3804 9.65869 15.1414 9.7471 14.9025 9.82814ZM13.9318 10.1928C13.6597 10.5464 14.0311 10.9664 14.0936 11.3347C14.2517 11.7768 14.9833 11.5079 14.8032 11.0622C14.7444 11.0769 14.6892 11.099 14.6304 11.1174C14.6892 11.32 14.4024 11.471 14.2848 11.2905C14.1892 11.0216 14.0936 10.7527 14.0127 10.4801C13.9833 10.2591 14.3105 10.2076 14.3877 10.4028C14.4465 10.3844 14.5054 10.3659 14.5605 10.3438C14.4907 10.0749 14.1156 9.99022 13.9318 10.1928ZM13.0678 10.4396C13.1634 10.749 13.2774 11.0548 13.3729 11.3642C13.1487 11.099 12.9281 10.8301 12.7001 10.5686C12.6413 10.587 12.5825 10.6054 12.5273 10.6349C12.6891 11.1137 12.8435 11.5963 13.0163 12.0752C13.0751 12.0567 13.134 12.0383 13.1928 12.0162C13.1009 11.7068 12.9869 11.4011 12.8876 11.0953C13.1119 11.3568 13.3288 11.6258 13.5568 11.8873C13.6156 11.8762 13.6781 11.8578 13.7333 11.8284C13.5715 11.3495 13.4171 10.8632 13.2443 10.3881C13.1854 10.3991 13.1266 10.4212 13.0678 10.4396ZM11.3397 11.0253C11.3544 11.0843 11.3765 11.1469 11.3986 11.2021C11.4905 11.18 11.575 11.1469 11.6633 11.1137C11.7846 11.4747 11.9059 11.832 12.0273 12.193C11.939 12.2225 11.8508 12.252 11.7625 12.2851C11.7809 12.3441 11.7993 12.4067 11.8214 12.4619C12.064 12.3883 12.2993 12.3072 12.5383 12.2188C12.5236 12.1599 12.5016 12.0973 12.4758 12.042C12.3839 12.0678 12.2993 12.1009 12.2111 12.1304C12.0898 11.7694 11.9684 11.4121 11.8508 11.0548C11.939 11.0253 12.0273 10.9959 12.1155 10.9627C12.1008 10.9038 12.0787 10.8411 12.0567 10.7859C11.8177 10.8596 11.5787 10.9443 11.3397 11.0253ZM10.7184 11.2353C10.7551 11.5484 10.8103 11.8578 10.8323 12.1672C10.6559 11.9168 10.5272 11.6331 10.3654 11.3716C10.2992 11.3458 10.233 11.4047 10.1705 11.4195C10.4279 11.8689 10.6742 12.3183 10.9353 12.764C10.9941 12.7529 11.0493 12.7345 11.1044 12.7087C11.0419 12.1967 10.9721 11.6847 10.8985 11.1727C10.8397 11.1911 10.7809 11.2058 10.7184 11.2353ZM8.88369 11.5484C8.02334 11.5852 7.5086 12.6977 8.04172 13.3792C8.50499 14.0975 9.70359 13.9907 10.0345 13.2024C10.4389 12.4362 9.73668 11.4305 8.88369 11.5484ZM6.60781 12.8929C6.62619 13.3202 7.15564 13.2944 7.39462 13.5191C7.53066 13.7512 7.13725 13.928 7.04534 13.6775C6.98651 13.696 6.924 13.7144 6.86885 13.7365C6.93871 13.987 7.28432 14.0827 7.47551 13.9059C7.65199 13.7696 7.65567 13.4823 7.49757 13.3313C7.29535 13.1766 7.00121 13.1545 6.82106 12.9777C6.68869 12.7382 7.08578 12.5835 7.17402 12.8266C7.23285 12.8082 7.29535 12.7898 7.3505 12.7603C7.23652 12.3699 6.58575 12.4767 6.60781 12.8929ZM5.87247 12.8708C5.99012 13.2466 6.12248 13.6149 6.24381 13.9907C6.28426 14.1859 5.99012 14.289 5.8982 14.1196C5.76216 13.7475 5.64451 13.3718 5.51582 12.9961C5.45332 13.0071 5.39449 13.0329 5.33567 13.055C5.46803 13.4492 5.58936 13.847 5.7401 14.2338C5.93865 14.5616 6.50486 14.359 6.44236 13.9759C6.32838 13.5818 6.18866 13.195 6.0563 12.8082C5.99012 12.8266 5.93129 12.8487 5.87247 12.8708ZM4.17383 13.4418C4.18486 13.5044 4.20692 13.5633 4.22898 13.6186C4.3209 13.5965 4.40546 13.5633 4.49738 13.5302C4.64445 13.9501 4.77313 14.3774 4.92755 14.7937C4.98638 14.7753 5.04521 14.7569 5.10403 14.7347C4.97167 14.3111 4.8246 13.8912 4.68121 13.4713C4.76945 13.4418 4.85769 13.4123 4.94594 13.3792C4.93123 13.3165 4.91284 13.2576 4.88343 13.1987C4.64812 13.2797 4.41281 13.3608 4.17383 13.4418ZM3.4679 13.696C3.53408 14.208 3.59658 14.7163 3.67747 15.2247C3.7363 15.2063 3.79513 15.1878 3.85395 15.1657C3.85028 15.1031 3.84292 15.0405 3.83189 14.9779C3.92749 14.941 4.02308 14.9079 4.12235 14.8821C4.15177 14.9337 4.18486 14.9889 4.21427 15.0442C4.27677 15.0258 4.33928 15.0073 4.40178 14.9816C4.15177 14.5321 3.89807 14.0901 3.6407 13.6444C3.58188 13.6481 3.52305 13.6665 3.4679 13.696ZM2.55975 13.987C2.65167 14.3001 2.76565 14.6021 2.86492 14.9116C2.64064 14.6463 2.42004 14.3774 2.19208 14.1159C2.13325 14.1306 2.07075 14.1454 2.0156 14.1748C2.17738 14.6537 2.3318 15.1399 2.5046 15.6151C2.56343 15.5967 2.62226 15.5746 2.68108 15.5562C2.58549 15.2468 2.47519 14.941 2.37592 14.6316C2.6002 14.8968 2.8208 15.1657 3.04875 15.4273C3.10758 15.4125 3.16641 15.3904 3.22524 15.3683C3.06346 14.8858 2.90536 14.4032 2.73623 13.9207C2.67741 13.9501 2.6149 13.9685 2.55975 13.987Z" fill="black"/>
<path d="M16.3222 9.54427C16.4619 9.46323 16.6825 9.45955 16.745 9.64005C16.8222 9.82791 16.6384 9.96789 16.473 9.99368C16.4215 9.84265 16.3737 9.69162 16.3222 9.54427ZM8.80703 11.6182C9.31809 11.5224 9.86224 11.8502 10.0203 12.3475C10.2851 13.0364 9.67841 13.8505 8.94306 13.7952C8.41362 13.7878 7.93932 13.3384 7.8952 12.8117C7.82535 12.2591 8.25184 11.7029 8.80703 11.6182ZM8.97983 12.0528C9.06072 12.0639 9.09381 11.9792 9.08646 11.9129H8.98718C8.98718 11.9239 8.98351 11.9497 8.98351 11.9607L9.03498 11.9681C9.02395 11.9792 9.00557 11.9976 8.99086 12.0086C8.97983 12.0049 8.95409 11.9939 8.94306 11.9902C8.921 11.8502 8.92836 11.6845 9.08278 11.7766C8.93939 11.4929 8.77761 11.9976 8.97983 12.0528ZM8.56436 11.7766L8.57539 11.8208C8.59378 11.8171 8.62687 11.806 8.64157 11.8023C8.67099 11.8871 8.7004 11.9681 8.72981 12.0528C8.68569 12.0602 8.66731 12.0823 8.67834 12.1265C8.74084 12.1081 8.79967 12.086 8.86218 12.0639C8.8585 12.0528 8.85115 12.027 8.84379 12.0197C8.82541 12.027 8.79967 12.0344 8.78129 12.0418C8.75187 11.9571 8.72246 11.876 8.68937 11.7913C8.70408 11.7876 8.73717 11.7729 8.75187 11.7655C8.7482 11.7545 8.74084 11.7287 8.73717 11.7213C8.67834 11.736 8.61951 11.7545 8.56436 11.7766ZM9.11587 12.0713C9.15999 12.0676 9.20043 12.0344 9.24823 12.0491C9.25191 12.0676 9.25926 12.1044 9.26661 12.1228C9.35118 12.0381 9.31809 11.865 9.35118 11.7471C9.22249 11.7766 9.1894 11.9681 9.11587 12.0713ZM8.28126 11.9718C8.28861 11.9828 8.30699 12.0013 8.31435 12.0086C8.33273 11.9939 8.35111 11.9792 8.36582 11.9644C8.432 12.0491 8.49818 12.1339 8.57172 12.2149C8.62319 12.1155 8.45038 12.027 8.40626 11.935C8.43935 11.9092 8.45774 11.8834 8.432 11.8465C8.38053 11.8871 8.32905 11.9313 8.28126 11.9718ZM9.32544 12.1412C9.42471 12.1854 9.46516 12.0013 9.53869 11.9534C9.53501 11.9718 9.53134 12.0123 9.52766 12.0344C9.5534 12.0234 9.57913 12.016 9.60119 12.0049C9.5681 12.086 9.39898 12.167 9.46516 12.2517C9.54972 12.156 9.62325 12.0565 9.70046 11.9571C9.6637 11.9276 9.62693 11.935 9.58649 11.9534C9.59384 11.9092 9.59752 11.8687 9.55707 11.8429C9.47619 11.9423 9.40265 12.0455 9.32544 12.1412ZM9.76665 12.1191C9.77768 12.1376 9.78871 12.1597 9.80341 12.1781C9.72988 12.2223 9.65267 12.2702 9.57913 12.3181C9.5681 12.3033 9.54972 12.2739 9.54237 12.2591C9.46148 12.307 9.58649 12.388 9.60119 12.447C9.61222 12.4433 9.63428 12.4286 9.64531 12.4249C9.63428 12.4101 9.61958 12.3807 9.60855 12.3659C9.68208 12.3217 9.75929 12.2739 9.83283 12.226C9.84386 12.2407 9.86224 12.2702 9.86959 12.2849C9.95048 12.237 9.82915 12.156 9.81077 12.097L9.76665 12.1191ZM8.11213 12.1891C8.2114 12.2591 8.31435 12.3291 8.40994 12.3991C8.44671 12.3475 8.4798 12.296 8.51657 12.2444C8.50554 12.237 8.48715 12.226 8.47612 12.2186L8.39891 12.3291C8.31435 12.2665 8.22611 12.2075 8.14154 12.1449C8.13051 12.1597 8.11948 12.1818 8.11213 12.1891ZM8.01286 12.3807C8.10477 12.4396 8.27758 12.4101 8.31802 12.5133C8.23346 12.587 8.09742 12.4728 7.9908 12.4691C8.01653 12.5685 8.21875 12.5833 8.31802 12.5833C8.49451 12.4286 8.1011 12.3107 8.01286 12.3807ZM9.61222 12.4838C9.6159 12.4949 9.61958 12.5207 9.62325 12.5317C9.69679 12.517 9.76665 12.5022 9.84018 12.4875C9.77032 12.5391 9.68576 12.5759 9.63061 12.6422C9.75194 12.6791 9.88798 12.6017 10.013 12.5906C10.0093 12.5796 10.002 12.5538 10.002 12.5428C9.92842 12.5575 9.85489 12.5722 9.78503 12.587C9.84386 12.5243 9.98357 12.5096 9.98357 12.4101C9.85489 12.4322 9.73356 12.458 9.61222 12.4838ZM8.62319 12.4912V12.5391H8.68937V12.8559H8.73717V12.5428C8.91733 12.5133 8.69305 12.4728 8.62319 12.4912ZM8.87321 12.4912C8.89527 12.6127 8.82541 12.7822 8.91365 12.8669C8.921 12.8117 8.921 12.7527 8.91733 12.6975H9.00557C9.00557 12.7527 9.00557 12.8117 9.01292 12.8669C9.10116 12.7785 9.0313 12.6091 9.05336 12.4912H9.00557V12.6459H8.91733V12.4912H8.87321ZM9.1269 12.4912C9.13425 12.6127 9.12322 12.7343 9.13058 12.8559H9.31441V12.808H9.1747V12.6975H9.28867V12.6459H9.1747V12.5354H9.31441V12.4875C9.25191 12.4912 9.1894 12.4912 9.1269 12.4912ZM7.96506 12.6975C7.96874 12.7417 8.00183 12.7675 8.04227 12.7822C8.02389 12.7969 8.00183 12.8117 7.98344 12.8264C7.98712 12.8374 7.98712 12.8632 7.98712 12.878C8.10845 12.8706 8.22978 12.8596 8.34744 12.8485V12.8006C8.25552 12.8043 8.1636 12.8117 8.07168 12.819C8.09007 12.808 8.12316 12.7822 8.14154 12.7711C8.1158 12.7601 8.09007 12.7417 8.06433 12.7306C8.15625 12.7269 8.24449 12.7196 8.33641 12.7122V12.6606C8.2114 12.6754 8.09007 12.6827 7.96506 12.6975ZM9.75929 12.9185C9.76297 12.8817 9.77032 12.8522 9.774 12.8153C9.75562 12.8264 9.71885 12.8522 9.70046 12.8669C9.64164 12.7122 9.87695 12.8006 9.95783 12.819C9.9468 12.8706 9.89901 12.8927 9.88798 12.9406C10.0939 12.9295 9.97254 12.6827 9.81077 12.7343C9.63796 12.6422 9.56443 12.9259 9.75929 12.9185ZM8.5423 12.9811C8.53127 12.9922 8.50921 13.0106 8.49818 13.0253C8.51657 13.0437 8.53495 13.0695 8.55333 13.0916C8.45406 13.1837 8.35479 13.2721 8.25552 13.3642C8.26655 13.3753 8.28493 13.401 8.29596 13.4121C8.39523 13.32 8.49818 13.2279 8.59745 13.1395C8.61584 13.1579 8.6379 13.1837 8.65628 13.2021C8.66731 13.1911 8.69305 13.1727 8.70408 13.1616C8.64893 13.099 8.59745 13.0364 8.5423 12.9811ZM9.37691 13.0585C9.38427 13.0916 9.39162 13.1211 9.39898 13.1542C9.36588 13.1432 9.33279 13.1358 9.2997 13.1248C9.28867 13.1358 9.26294 13.1616 9.25558 13.1727C9.36221 13.2869 9.46883 13.3974 9.57546 13.5079L9.61958 13.4637C9.53501 13.3789 9.4578 13.2942 9.37691 13.2058C9.41368 13.2169 9.44677 13.2242 9.48354 13.2353C9.47986 13.2095 9.46516 13.1579 9.4578 13.1321C9.54237 13.2132 9.61958 13.3016 9.70046 13.3826L9.74459 13.3384C9.63796 13.2242 9.52766 13.1137 9.42471 13.0032C9.41368 13.0216 9.38794 13.0474 9.37691 13.0585ZM9.72253 13.1248C9.73356 13.1174 9.76665 13.099 9.77768 13.0879C9.79238 12.9332 9.57913 13.0548 9.72253 13.1248ZM8.73349 13.18C8.68569 13.3274 8.64157 13.4747 8.59378 13.6221C8.66731 13.6478 8.74452 13.67 8.81806 13.6921C8.82173 13.6773 8.82909 13.6478 8.83644 13.6331C8.78129 13.6147 8.72614 13.5963 8.67099 13.5815C8.68202 13.5373 8.7004 13.4895 8.71143 13.4489C8.75555 13.4637 8.80335 13.4784 8.85115 13.4931C8.85482 13.4784 8.86585 13.4489 8.86953 13.4342C8.82541 13.4195 8.77761 13.4047 8.72981 13.39L8.77394 13.2574C8.82909 13.2758 8.88424 13.2942 8.94306 13.309L8.95777 13.25C8.88056 13.2279 8.8107 13.2021 8.73349 13.18ZM9.0791 13.2242C9.08278 13.3863 9.08646 13.5447 9.09749 13.7068C9.14528 13.7031 9.16734 13.6773 9.15631 13.6294C9.18205 13.6257 9.20779 13.6184 9.23352 13.6147C9.24823 13.6589 9.28132 13.6736 9.32544 13.6552C9.26661 13.5079 9.19676 13.3642 9.13425 13.2242C9.12322 13.2205 9.09749 13.2242 9.0791 13.2242Z" fill="black"/>
<path d="M9.14839 13.4009C9.17045 13.4524 9.19251 13.5003 9.21457 13.5482C9.19618 13.5519 9.16309 13.5593 9.14839 13.563C9.15206 13.5114 9.14839 13.4561 9.14839 13.4009ZM3.7473 14.2297C3.84658 14.3807 3.93482 14.5354 4.0157 14.7012C3.94952 14.7307 3.87967 14.7528 3.80981 14.7712C3.78407 14.5907 3.74363 14.4102 3.7473 14.2297Z" fill="black"/>
<path d="M15.2519 2.13656C16.1233 1.83818 16.9946 1.53981 17.866 1.24512C17.8771 3.54739 17.8476 5.84967 17.8476 8.15194C17.0057 8.4319 16.1637 8.73764 15.3107 9.00286C15.2997 6.71532 15.2666 4.42778 15.2519 2.13656ZM12.373 3.0943C13.2187 2.8033 14.0643 2.51966 14.91 2.23233C14.9394 4.38358 14.9651 6.54587 14.9541 8.69712C14.0827 7.60676 13.2407 6.49062 12.3804 5.38921C12.373 4.6267 12.373 3.86419 12.373 3.0943ZM9.49416 4.08889C9.88022 3.96364 10.2663 3.8163 10.6523 3.70579C12.0642 5.51814 13.4724 7.33417 14.8769 9.15389C14.0349 9.45227 13.1856 9.73591 12.3363 10.0232C12.0862 9.69539 11.8473 9.36754 11.5972 9.04338C10.917 9.27177 10.2405 9.51489 9.55667 9.72854C9.55299 9.27914 9.54564 8.82605 9.54196 8.37664C9.95007 8.2293 10.3655 8.08932 10.7737 7.94566C10.3582 7.38575 9.92801 6.83688 9.5199 6.2696C9.50519 5.54392 9.50887 4.81456 9.49416 4.08889ZM6.67413 5.054C7.50506 4.77404 8.33232 4.48672 9.16326 4.21045C9.19267 6.33222 9.20738 8.454 9.23679 10.5758C9.23312 10.62 9.2515 10.6752 9.20738 10.701C8.38012 9.64382 7.54918 8.59398 6.73296 7.52941C6.7109 6.70796 6.69251 5.87914 6.67413 5.054ZM1.98633 6.66007C2.86138 6.36538 3.73276 6.06332 4.60782 5.77599C4.6115 8.07827 4.59311 10.3769 4.58576 12.6828C3.73644 12.9738 2.8908 13.2612 2.04148 13.5448C2.01207 11.2499 2.00103 8.95498 1.98633 6.66007ZM4.9424 5.81651C4.98652 5.82757 5.01226 5.8644 5.03799 5.89755C6.39102 7.63992 7.76243 9.36754 9.10811 11.1173C8.26614 11.4083 7.4205 11.6919 6.57853 11.9792C6.02335 11.2609 5.46817 10.5426 4.92402 9.81695C4.92769 8.48715 4.93505 7.15368 4.9424 5.81651Z" fill="#FFF200"/>
</g>
<defs>
<clipPath id="clip0_249_4646">
<rect width="20" height="17" fill="white"/>
</clipPath>
</defs>
</svg>
