<svg width="24" height="25" viewBox="0 0 24 25" fill="none" xmlns="http://www.w3.org/2000/svg">
<path d="M22 9.9502C21.59 9.9502 21.25 9.6102 21.25 9.2002V7.2002C21.25 4.6202 19.58 2.9502 17 2.9502H7C4.42 2.9502 2.75 4.6202 2.75 7.2002V9.2002C2.75 9.6102 2.41 9.9502 2 9.9502C1.59 9.9502 1.25 9.6102 1.25 9.2002V7.2002C1.25 3.7602 3.56 1.4502 7 1.4502H17C20.44 1.4502 22.75 3.7602 22.75 7.2002V9.2002C22.75 9.6102 22.41 9.9502 22 9.9502Z" fill="url(#paint0_linear_1_6456)"/>
<path d="M17 22.9502H7C3.56 22.9502 1.25 20.6402 1.25 17.2002V15.2002C1.25 14.7902 1.59 14.4502 2 14.4502C2.41 14.4502 2.75 14.7902 2.75 15.2002V17.2002C2.75 19.7802 4.42 21.4502 7 21.4502H17C19.58 21.4502 21.25 19.7802 21.25 17.2002V15.2002C21.25 14.7902 21.59 14.4502 22 14.4502C22.41 14.4502 22.75 14.7902 22.75 15.2002V17.2002C22.75 20.6402 20.44 22.9502 17 22.9502Z" fill="url(#paint1_linear_1_6456)"/>
<path d="M16.4 8.41016L12.64 6.38016C12.24 6.17016 11.77 6.17016 11.37 6.38016L7.60003 8.41016C7.33003 8.56016 7.16003 8.85016 7.16003 9.17016C7.16003 9.50016 7.33003 9.79016 7.60003 9.94016L11.36 11.9702C11.56 12.0802 11.78 12.1302 12 12.1302C12.22 12.1302 12.44 12.0802 12.64 11.9702L16.4 9.94016C16.67 9.79016 16.84 9.50016 16.84 9.17016C16.84 8.85016 16.67 8.56016 16.4 8.41016Z" fill="url(#paint2_linear_1_6456)"/>
<path d="M10.74 12.6706L7.24 10.9206C6.97 10.7906 6.66 10.8006 6.4 10.9606C6.15 11.1206 6 11.3906 6 11.6906V15.0006C6 15.5706 6.32 16.0906 6.83 16.3406L10.33 18.0906C10.45 18.1506 10.58 18.1806 10.72 18.1806C10.88 18.1806 11.03 18.1406 11.17 18.0506C11.43 17.8906 11.58 17.6206 11.58 17.3206V14.0106C11.57 13.4406 11.26 12.9306 10.74 12.6706Z" fill="url(#paint3_linear_1_6456)"/>
<path d="M17.59 10.9606C17.33 10.8006 17.02 10.7906 16.75 10.9206L13.25 12.6706C12.74 12.9306 12.42 13.4406 12.42 14.0106V17.3206C12.42 17.6206 12.57 17.8906 12.83 18.0506C12.97 18.1406 13.12 18.1806 13.28 18.1806C13.41 18.1806 13.54 18.1506 13.67 18.0906L17.17 16.3406C17.68 16.0806 18 15.5706 18 15.0006V11.6906C18 11.3906 17.85 11.1206 17.59 10.9606Z" fill="url(#paint4_linear_1_6456)"/>
<defs>
<linearGradient id="paint0_linear_1_6456" x1="1.53105" y1="2.23309" x2="24.1942" y2="5.46267" gradientUnits="userSpaceOnUse">
<stop stop-color="#00D1FF"/>
<stop offset="1" stop-color="#3AB8FF"/>
</linearGradient>
<linearGradient id="paint1_linear_1_6456" x1="1.53105" y1="15.2331" x2="24.1942" y2="18.4627" gradientUnits="userSpaceOnUse">
<stop stop-color="#00D1FF"/>
<stop offset="1" stop-color="#3AB8FF"/>
</linearGradient>
<linearGradient id="paint2_linear_1_6456" x1="7.28657" y1="6.76677" x2="17.6095" y2="7.71974" gradientUnits="userSpaceOnUse">
<stop stop-color="#00D1FF"/>
<stop offset="1" stop-color="#3AB8FF"/>
</linearGradient>
<linearGradient id="paint3_linear_1_6456" x1="6.07294" y1="11.508" x2="12.0633" y2="11.7642" gradientUnits="userSpaceOnUse">
<stop stop-color="#00D1FF"/>
<stop offset="1" stop-color="#3AB8FF"/>
</linearGradient>
<linearGradient id="paint4_linear_1_6456" x1="12.493" y1="11.508" x2="18.4834" y2="11.7642" gradientUnits="userSpaceOnUse">
<stop stop-color="#00D1FF"/>
<stop offset="1" stop-color="#3AB8FF"/>
</linearGradient>
</defs>
</svg>
