<svg width="24" height="25" viewBox="0 0 24 25" fill="none" xmlns="http://www.w3.org/2000/svg">
<path d="M2 9.2002V7.2002C2 4.2002 4 2.2002 7 2.2002H17C20 2.2002 22 4.2002 22 7.2002V9.2002" stroke="#BBBABA" stroke-miterlimit="10" stroke-linecap="round" stroke-linejoin="round"/>
<path d="M2 15.2002V17.2002C2 20.2002 4 22.2002 7 22.2002H17C20 22.2002 22 20.2002 22 17.2002V15.2002" stroke="#BBBABA" stroke-miterlimit="10" stroke-linecap="round" stroke-linejoin="round"/>
<path d="M6.70001 9.46027L12 12.5303L17.26 9.48029" stroke="#BBBABA" stroke-linecap="round" stroke-linejoin="round"/>
<path d="M12 17.9703V12.5203" stroke="#BBBABA" stroke-linecap="round" stroke-linejoin="round"/>
<path d="M10.76 6.49019L7.55998 8.27022C6.83998 8.67022 6.23999 9.68021 6.23999 10.5102V13.9002C6.23999 14.7302 6.82998 15.7402 7.55998 16.1402L10.76 17.9202C11.44 18.3002 12.56 18.3002 13.25 17.9202L16.45 16.1402C17.17 15.7402 17.77 14.7302 17.77 13.9002V10.5102C17.77 9.68021 17.18 8.67022 16.45 8.27022L13.25 6.49019C12.56 6.10019 11.44 6.10019 10.76 6.49019Z" stroke="#BBBABA" stroke-linecap="round" stroke-linejoin="round"/>
</svg>
