<svg width="24" height="24" viewBox="0 0 24 24" fill="none" xmlns="http://www.w3.org/2000/svg">
<path d="M21.4117 8.61197C21.4117 11.9908 18.6729 14.7296 15.2941 14.7296C15.1341 14.7296 14.9647 14.7202 14.8047 14.7108C14.5694 11.7273 12.1788 9.33667 9.19527 9.10137C9.18585 8.94137 9.17645 8.77197 9.17645 8.61197C9.17645 5.23315 11.9153 2.49432 15.2941 2.49432C18.6729 2.49432 21.4117 5.23315 21.4117 8.61197Z" stroke="#BBBABA" stroke-linecap="round" stroke-linejoin="round"/>
<path d="M14.8236 15.2002C14.8236 18.579 12.0847 21.3178 8.7059 21.3178C5.32708 21.3178 2.58826 18.579 2.58826 15.2002C2.58826 11.8213 5.32708 9.08252 8.7059 9.08252C8.8659 9.08252 9.0353 9.09192 9.1953 9.10133C12.1788 9.33663 14.5694 11.7272 14.8047 14.7108C14.8141 14.8708 14.8236 15.0402 14.8236 15.2002Z" stroke="#BBBABA" stroke-linecap="round" stroke-linejoin="round"/>
<path d="M5.96708 2.49432H3.52943C3.01179 2.49432 2.58826 2.91785 2.58826 3.4355V5.87314C2.58826 6.71079 3.60472 7.13431 4.19766 6.54137L6.6353 4.10373C7.21883 3.51079 6.80472 2.49432 5.96708 2.49432Z" stroke="#BBBABA" stroke-linecap="round" stroke-linejoin="round"/>
<path d="M18.0329 21.3178H20.4706C20.9882 21.3178 21.4117 20.8943 21.4117 20.3766V17.939C21.4117 17.1013 20.3953 16.6778 19.8023 17.2707L17.3647 19.7084C16.7812 20.3013 17.1953 21.3178 18.0329 21.3178Z" stroke="#BBBABA" stroke-linecap="round" stroke-linejoin="round"/>
</svg>
