<svg width="24" height="25" viewBox="0 0 24 25" fill="none" xmlns="http://www.w3.org/2000/svg">
<path d="M16.65 5.92017H7.35C4.4 5.92017 2 8.32017 2 11.2702V16.8502C2 19.8002 4.4 22.2002 7.35 22.2002H16.65C19.6 22.2002 22 19.8002 22 16.8502V11.2702C22 8.32017 19.6 5.92017 16.65 5.92017ZM14.5 12.2202C14.5 11.6702 14.95 11.2202 15.5 11.2202C16.05 11.2202 16.5 11.6702 16.5 12.2202C16.5 12.7702 16.05 13.2302 15.5 13.2302C14.95 13.2302 14.5 12.7902 14.5 12.2402V12.2202ZM10.13 16.2702C9.98 16.4202 9.79 16.4902 9.6 16.4902C9.41 16.4902 9.22 16.4202 9.07 16.2702L8.04 15.2402L7.05 16.2302C6.9 16.3802 6.71 16.4502 6.52 16.4502C6.33 16.4502 6.14 16.3802 5.99 16.2302C5.7 15.9402 5.7 15.4602 5.99 15.1702L6.98 14.1802L6.02 13.2202C5.73 12.9302 5.73 12.4502 6.02 12.1602C6.31 11.8702 6.79 11.8702 7.08 12.1602L8.04 13.1202L9.03 12.1302C9.32 11.8402 9.8 11.8402 10.09 12.1302C10.38 12.4202 10.38 12.9002 10.09 13.1902L9.1 14.1802L10.13 15.2102C10.42 15.5002 10.42 15.9802 10.13 16.2702ZM13.54 15.2002C12.99 15.2002 12.53 14.7502 12.53 14.2002C12.53 13.6502 12.97 13.2002 13.52 13.2002H13.54C14.09 13.2002 14.54 13.6502 14.54 14.2002C14.54 14.7502 14.1 15.2002 13.54 15.2002ZM15.5 17.1702C14.95 17.1702 14.5 16.7302 14.5 16.1802V16.1602C14.5 15.6102 14.95 15.1602 15.5 15.1602C16.05 15.1602 16.5 15.6102 16.5 16.1602C16.5 16.7102 16.06 17.1702 15.5 17.1702ZM17.48 15.2002C16.93 15.2002 16.47 14.7502 16.47 14.2002C16.47 13.6502 16.91 13.2002 17.46 13.2002H17.48C18.03 13.2002 18.48 13.6502 18.48 14.2002C18.48 14.7502 18.04 15.2002 17.48 15.2002Z" fill="url(#paint0_linear_29255_3822)"/>
<path d="M13.64 2.9102L13.63 3.8502C13.62 4.7302 12.89 5.4602 12 5.4602C11.85 5.4602 11.76 5.5602 11.76 5.6902C11.76 5.8202 11.86 5.9202 11.99 5.9202H10.38C10.37 5.8502 10.36 5.7702 10.36 5.6902C10.36 4.7902 11.09 4.0602 11.98 4.0602C12.13 4.0602 12.23 3.9602 12.23 3.8302L12.24 2.8902C12.25 2.5102 12.56 2.2002 12.94 2.2002H12.95C13.34 2.2002 13.64 2.5202 13.64 2.9102Z" fill="url(#paint1_linear_29255_3822)"/>
<defs>
<linearGradient id="paint0_linear_29255_3822" x1="2.26144" y1="7.41964" x2="23.669" y2="8.9013" gradientUnits="userSpaceOnUse">
<stop stop-color="#00D1FF"/>
<stop offset="1" stop-color="#3AB8FF"/>
</linearGradient>
<linearGradient id="paint1_linear_29255_3822" x1="10.4029" y1="2.54283" x2="13.9218" y2="2.71763" gradientUnits="userSpaceOnUse">
<stop stop-color="#00D1FF"/>
<stop offset="1" stop-color="#3AB8FF"/>
</linearGradient>
</defs>
</svg>
