<svg width="24" height="25" viewBox="0 0 24 25" fill="none" xmlns="http://www.w3.org/2000/svg">
<path d="M9.56953 12.6602L6.51953 15.7102" stroke="#BBBABA" stroke-width="1.5" stroke-miterlimit="10" stroke-linecap="round" stroke-linejoin="round"/>
<path d="M6.55005 12.6895L9.60005 15.7395" stroke="#BBBABA" stroke-width="1.5" stroke-miterlimit="10" stroke-linecap="round" stroke-linejoin="round"/>
<path d="M13.5303 14.1992H13.5403" stroke="#BBBABA" stroke-width="2" stroke-miterlimit="10" stroke-linecap="round" stroke-linejoin="round"/>
<path d="M17.4697 14.1992H17.4797" stroke="#BBBABA" stroke-width="2" stroke-miterlimit="10" stroke-linecap="round" stroke-linejoin="round"/>
<path d="M15.5 16.1802V16.1602" stroke="#BBBABA" stroke-width="2" stroke-miterlimit="10" stroke-linecap="round" stroke-linejoin="round"/>
<path d="M15.5 12.2387V12.2188" stroke="#BBBABA" stroke-width="2" stroke-miterlimit="10" stroke-linecap="round" stroke-linejoin="round"/>
<path d="M9 22.1992H15C20 22.1992 22 20.1992 22 15.1992V13.1992C22 8.19922 20 6.19922 15 6.19922H9C4 6.19922 2 8.19922 2 13.1992V15.1992C2 20.1992 4 22.1992 9 22.1992Z" stroke="#BBBABA" stroke-width="1.5" stroke-linecap="round" stroke-linejoin="round"/>
<path d="M13.0105 2.19922L13.0005 3.20922C12.9905 3.75922 12.5505 4.19922 12.0005 4.19922H11.9705C11.4205 4.19922 10.9805 4.64922 10.9805 5.19922C10.9805 5.74922 11.4305 6.19922 11.9805 6.19922H12.9805" stroke="#BBBABA" stroke-width="1.5" stroke-linecap="round" stroke-linejoin="round"/>
</svg>
