<svg width="60" height="60" viewBox="0 0 60 60" fill="none" xmlns="http://www.w3.org/2000/svg">
<g clip-path="url(#clip0_882_9219)">
<rect width="60" height="60" rx="30" fill="#222224"/>
<g style="mix-blend-mode:hard-light" filter="url(#filter0_f_882_9219)">
<path d="M23.139 -22C19.95 -20.9063 13.6606 -16.1427 14.0143 -5.83766C14.4565 7.0436 24.1037 15.1045 26.5155 27.2566C28.2956 36.2258 28.043 58.6902 17.1899 68.1283" stroke="#8082F8" stroke-width="0.947971"/>
</g>
<g style="mix-blend-mode:hard-light" filter="url(#filter1_f_882_9219)">
<path d="M23.139 -22C19.95 -20.9063 13.6606 -16.1427 14.0143 -5.83766C14.4565 7.0436 24.1037 15.1045 26.5155 27.2566C28.2956 36.2258 28.043 58.6902 17.1899 68.1283" stroke="#6568FF" stroke-width="1.23965"/>
</g>
<g style="mix-blend-mode:hard-light" filter="url(#filter2_ddi_882_9219)">
<path d="M23.139 -22C19.95 -20.9063 13.6606 -16.1427 14.0143 -5.83766C14.4565 7.0436 24.1037 15.1045 26.5155 27.2566C28.2956 36.2258 28.043 58.6902 17.1899 68.1283" stroke="#6568FF" stroke-opacity="0.2" stroke-width="0.947971"/>
</g>
<g filter="url(#filter3_f_882_9219)">
<path d="M23.139 -22C19.95 -20.9063 13.6606 -16.1427 14.0143 -5.83766C14.4565 7.0436 24.1037 15.1045 26.5155 27.2566C28.2956 36.2258 28.043 58.6902 17.1899 68.1283" stroke="#6568FF" stroke-width="0.583367"/>
</g>
<g filter="url(#filter4_f_882_9219)">
<path d="M23.139 -22C19.95 -20.9063 13.6606 -16.1427 14.0143 -5.83766C14.4565 7.0436 24.1037 15.1045 26.5155 27.2566C28.2956 36.2258 28.043 58.6902 17.1899 68.1283" stroke="white" stroke-width="0.291683"/>
</g>
<g style="mix-blend-mode:hard-light" filter="url(#filter5_f_882_9219)">
<path d="M24.3933 -6.33599C21.8972 -4.06985 18.0057 2.79347 22.4077 12.1177C27.9101 23.7729 39.9594 27.3593 46.9824 37.5656C52.1658 45.0987 60.8217 65.83 54.5883 78.792" stroke="#8082F8" stroke-width="0.947971"/>
</g>
<g style="mix-blend-mode:hard-light" filter="url(#filter6_f_882_9219)">
<path d="M24.3933 -6.33599C21.8972 -4.06985 18.0057 2.79347 22.4077 12.1177C27.9101 23.7729 39.9594 27.3593 46.9824 37.5656C52.1658 45.0987 60.8217 65.83 54.5883 78.792" stroke="#6568FF" stroke-width="1.23965"/>
</g>
<g style="mix-blend-mode:hard-light" filter="url(#filter7_ddi_882_9219)">
<path d="M24.3933 -6.33599C21.8972 -4.06985 18.0057 2.79347 22.4077 12.1177C27.9101 23.7729 39.9594 27.3593 46.9824 37.5656C52.1658 45.0987 60.8217 65.83 54.5883 78.792" stroke="#6568FF" stroke-opacity="0.2" stroke-width="0.947971"/>
</g>
<g filter="url(#filter8_f_882_9219)">
<path d="M24.3933 -6.33599C21.8972 -4.06985 18.0057 2.79347 22.4077 12.1177C27.9101 23.7729 39.9594 27.3593 46.9824 37.5656C52.1658 45.0987 60.8217 65.83 54.5883 78.792" stroke="#6568FF" stroke-width="0.583367"/>
</g>
<g filter="url(#filter9_f_882_9219)">
<path d="M24.3933 -6.33599C21.8972 -4.06985 18.0057 2.79347 22.4077 12.1177C27.9101 23.7729 39.9594 27.3593 46.9824 37.5656C52.1658 45.0987 60.8217 65.83 54.5883 78.792" stroke="white" stroke-width="0.291683"/>
</g>
<g style="mix-blend-mode:hard-light" filter="url(#filter10_f_882_9219)">
<path d="M-2.17281 -23.9108C-4.96972 -22.0286 -9.81097 -15.7987 -6.80062 -5.93687C-3.03769 6.39045 8.36794 11.678 13.8445 22.791C17.8866 30.9932 23.4602 52.7566 15.4215 64.6834" stroke="#8082F8" stroke-width="0.947971"/>
</g>
<g style="mix-blend-mode:hard-light" filter="url(#filter11_f_882_9219)">
<path d="M-2.17281 -23.9108C-4.96972 -22.0286 -9.81097 -15.7987 -6.80062 -5.93687C-3.03769 6.39045 8.36794 11.678 13.8445 22.791C17.8866 30.9932 23.4602 52.7566 15.4215 64.6834" stroke="#6568FF" stroke-width="1.23965"/>
</g>
<g style="mix-blend-mode:hard-light" filter="url(#filter12_ddi_882_9219)">
<path d="M-2.17281 -23.9108C-4.96972 -22.0286 -9.81097 -15.7987 -6.80062 -5.93687C-3.03769 6.39045 8.36794 11.678 13.8445 22.791C17.8866 30.9932 23.4602 52.7566 15.4215 64.6834" stroke="#6568FF" stroke-opacity="0.2" stroke-width="0.947971"/>
</g>
<g filter="url(#filter13_f_882_9219)">
<path d="M-2.17281 -23.9108C-4.96972 -22.0286 -9.81097 -15.7987 -6.80062 -5.93687C-3.03769 6.39045 8.36794 11.678 13.8445 22.791C17.8866 30.9932 23.4602 52.7566 15.4215 64.6834" stroke="#6568FF" stroke-width="0.583367"/>
</g>
<g filter="url(#filter14_f_882_9219)">
<path d="M-2.17281 -23.9108C-4.96972 -22.0286 -9.81097 -15.7987 -6.80062 -5.93687C-3.03769 6.39045 8.36794 11.678 13.8445 22.791C17.8866 30.9932 23.4602 52.7566 15.4215 64.6834" stroke="white" stroke-width="0.291683"/>
</g>
<g style="mix-blend-mode:hard-light" filter="url(#filter15_f_882_9219)">
<path d="M28.4008 -5.53248C26.46 -2.77587 24.1616 4.77174 30.4939 12.9093C38.4094 23.0812 50.951 23.9491 60.0337 32.375C66.7374 38.594 79.7125 56.934 76.4609 70.9446" stroke="#8082F8" stroke-width="0.947971"/>
</g>
<g style="mix-blend-mode:hard-light" filter="url(#filter16_f_882_9219)">
<path d="M28.4008 -5.53248C26.46 -2.77587 24.1616 4.77174 30.4939 12.9093C38.4094 23.0812 50.951 23.9491 60.0337 32.375C66.7374 38.594 79.7125 56.934 76.4609 70.9446" stroke="#6568FF" stroke-width="1.23965"/>
</g>
<g style="mix-blend-mode:hard-light" filter="url(#filter17_ddi_882_9219)">
<path d="M28.4008 -5.53248C26.46 -2.77587 24.1616 4.77174 30.4939 12.9093C38.4094 23.0812 50.951 23.9491 60.0337 32.375C66.7374 38.594 79.7125 56.934 76.4609 70.9446" stroke="#6568FF" stroke-opacity="0.2" stroke-width="0.947971"/>
</g>
<g filter="url(#filter18_f_882_9219)">
<path d="M28.4008 -5.53248C26.46 -2.77587 24.1616 4.77174 30.4939 12.9093C38.4094 23.0812 50.951 23.9491 60.0337 32.375C66.7374 38.594 79.7125 56.934 76.4609 70.9446" stroke="#6568FF" stroke-width="0.583367"/>
</g>
<g filter="url(#filter19_f_882_9219)">
<path d="M28.4008 -5.53248C26.46 -2.77587 24.1616 4.77174 30.4939 12.9093C38.4094 23.0812 50.951 23.9491 60.0337 32.375C66.7374 38.594 79.7125 56.934 76.4609 70.9446" stroke="white" stroke-width="0.291683"/>
</g>
<g style="mix-blend-mode:hard-light" clip-path="url(#clip1_882_9219)">
<path fill-rule="evenodd" clip-rule="evenodd" d="M33.1219 17.6785C32.8612 17.3567 32.5261 17.0507 32.0966 16.8126C31.0258 16.2191 29.3685 16.0483 28.3556 16.0011C27.8677 15.9783 27.2745 16.3204 27.0314 16.7335L26.7383 17.2315C27.7771 16.9101 28.9055 16.81 30.1221 16.9979C31.1596 17.1581 32.1622 17.3877 33.1219 17.6785ZM18.4208 33.7237C17.512 30.1648 21.6915 16.4129 30.5051 17.7741C33.0963 18.1743 35.4696 19.0068 37.5022 20.1475C37.7929 19.951 38.1552 19.8259 38.4669 19.8422C39.7256 19.9081 42.0457 20.127 43.5263 20.8553C44.7855 21.4747 45.4377 22.4625 45.7592 23.1605C45.9595 23.595 45.8972 24.3342 45.7163 24.7766L44.3431 28.137C44.6755 29.3595 44.7631 30.6241 44.5697 31.8944L44.1751 44.7009C44.1605 45.177 43.915 45.8779 43.5593 46.2043C42.9002 46.8095 41.692 47.6337 39.9554 47.6986C37.9467 47.7736 35.2309 46.833 33.8923 46.3113C33.4387 46.1345 33.0114 45.5961 32.9303 45.1263L32.0758 40.1752C30.5418 40.4069 29.2306 40.4473 28.4175 40.313C25.0778 39.7611 19.3295 37.2826 18.4208 33.7237ZM20.6937 25.7377C21.3028 24.1909 22.3796 22.3774 23.6789 21.4161C25.674 19.9402 28.1724 19.8085 30.1424 20.5459C31.3977 21.0158 33.7434 22.1362 35.3414 23.7663C37.8849 26.3606 39.4345 29.9891 38.4863 32.3978C37.5754 34.7116 34.293 36.7004 31.0039 37.4407C28.5353 37.9963 25.2207 36.9362 23.8869 36.4369C20.6339 35.2193 20.3379 34.2468 19.895 32.9437C19.4523 31.6406 19.1499 29.6598 20.6937 25.7377ZM21.75 26.165C22.3179 24.7221 23.3126 23.0269 24.4995 22.1209C26.1157 20.8872 28.0791 20.6314 29.7416 21.053C28.2962 20.9424 26.7391 21.3166 25.4096 22.333C24.1855 23.2687 23.1593 25.0188 22.5729 26.5083C21.0863 30.2847 21.3457 32.1801 21.744 33.4243C21.9578 34.092 22.1331 34.6689 22.717 35.2351C21.4498 34.477 21.2348 33.7543 20.9496 32.8658C20.5625 31.66 20.3098 29.8233 21.75 26.165ZM17.3668 34.3097C17.1977 33.6473 17.2048 32.6319 17.3852 31.4267L14.3029 37.6686C14.091 38.0977 13.9217 38.8358 14.0377 39.2985C14.1885 39.8999 14.5309 40.6797 15.3087 41.1534C16.2122 41.7035 17.7031 41.8407 18.6514 41.8685C19.1396 41.8829 19.7579 41.5463 20.0322 41.1522L21.642 38.8388C19.5924 37.694 17.8356 36.1456 17.3668 34.3097Z" fill="url(#paint0_linear_882_9219)"/>
<path fill-rule="evenodd" clip-rule="evenodd" d="M33.1219 17.6785C32.8612 17.3567 32.5261 17.0507 32.0966 16.8126C31.0258 16.2191 29.3685 16.0483 28.3556 16.0011C27.8677 15.9783 27.2745 16.3204 27.0314 16.7335L26.7383 17.2315C27.7771 16.9101 28.9055 16.81 30.1221 16.9979C31.1596 17.1581 32.1622 17.3877 33.1219 17.6785ZM18.4208 33.7237C17.512 30.1648 21.6915 16.4129 30.5051 17.7741C33.0963 18.1743 35.4696 19.0068 37.5022 20.1475C37.7929 19.951 38.1552 19.8259 38.4669 19.8422C39.7256 19.9081 42.0457 20.127 43.5263 20.8553C44.7855 21.4747 45.4377 22.4625 45.7592 23.1605C45.9595 23.595 45.8972 24.3342 45.7163 24.7766L44.3431 28.137C44.6755 29.3595 44.7631 30.6241 44.5697 31.8944L44.1751 44.7009C44.1605 45.177 43.915 45.8779 43.5593 46.2043C42.9002 46.8095 41.692 47.6337 39.9554 47.6986C37.9467 47.7736 35.2309 46.833 33.8923 46.3113C33.4387 46.1345 33.0114 45.5961 32.9303 45.1263L32.0758 40.1752C30.5418 40.4069 29.2306 40.4473 28.4175 40.313C25.0778 39.7611 19.3295 37.2826 18.4208 33.7237ZM20.6937 25.7377C21.3028 24.1909 22.3796 22.3774 23.6789 21.4161C25.674 19.9402 28.1724 19.8085 30.1424 20.5459C31.3977 21.0158 33.7434 22.1362 35.3414 23.7663C37.8849 26.3606 39.4345 29.9891 38.4863 32.3978C37.5754 34.7116 34.293 36.7004 31.0039 37.4407C28.5353 37.9963 25.2207 36.9362 23.8869 36.4369C20.6339 35.2193 20.3379 34.2468 19.895 32.9437C19.4523 31.6406 19.1499 29.6598 20.6937 25.7377ZM21.75 26.165C22.3179 24.7221 23.3126 23.0269 24.4995 22.1209C26.1157 20.8872 28.0791 20.6314 29.7416 21.053C28.2962 20.9424 26.7391 21.3166 25.4096 22.333C24.1855 23.2687 23.1593 25.0188 22.5729 26.5083C21.0863 30.2847 21.3457 32.1801 21.744 33.4243C21.9578 34.092 22.1331 34.6689 22.717 35.2351C21.4498 34.477 21.2348 33.7543 20.9496 32.8658C20.5625 31.66 20.3098 29.8233 21.75 26.165ZM17.3668 34.3097C17.1977 33.6473 17.2048 32.6319 17.3852 31.4267L14.3029 37.6686C14.091 38.0977 13.9217 38.8358 14.0377 39.2985C14.1885 39.8999 14.5309 40.6797 15.3087 41.1534C16.2122 41.7035 17.7031 41.8407 18.6514 41.8685C19.1396 41.8829 19.7579 41.5463 20.0322 41.1522L21.642 38.8388C19.5924 37.694 17.8356 36.1456 17.3668 34.3097Z" fill="white"/>
</g>
</g>
<rect x="1" y="1" width="58" height="58" rx="29" stroke="white" stroke-opacity="0.05" stroke-width="2"/>
<defs>
<filter id="filter0_f_882_9219" x="9.15063" y="-26.8236" width="23.0432" height="99.6848" filterUnits="userSpaceOnUse" color-interpolation-filters="sRGB">
<feFlood flood-opacity="0" result="BackgroundImageFix"/>
<feBlend mode="normal" in="SourceGraphic" in2="BackgroundImageFix" result="shape"/>
<feGaussianBlur stdDeviation="2.18762" result="effect1_foregroundBlur_882_9219"/>
</filter>
<filter id="filter1_f_882_9219" x="11.9217" y="-24.0447" width="17.5013" height="94.0991" filterUnits="userSpaceOnUse" color-interpolation-filters="sRGB">
<feFlood flood-opacity="0" result="BackgroundImageFix"/>
<feBlend mode="normal" in="SourceGraphic" in2="BackgroundImageFix" result="shape"/>
<feGaussianBlur stdDeviation="0.729208" result="effect1_foregroundBlur_882_9219"/>
</filter>
<filter id="filter2_ddi_882_9219" x="11.6299" y="-22.8859" width="18.0846" height="94.7262" filterUnits="userSpaceOnUse" color-interpolation-filters="sRGB">
<feFlood flood-opacity="0" result="BackgroundImageFix"/>
<feColorMatrix in="SourceAlpha" type="matrix" values="0 0 0 0 0 0 0 0 0 0 0 0 0 0 0 0 0 0 127 0" result="hardAlpha"/>
<feOffset dy="0.947971"/>
<feGaussianBlur stdDeviation="0.364604"/>
<feColorMatrix type="matrix" values="0 0 0 0 0.15 0 0 0 0 0 0 0 0 0 0 0 0 0 0.7 0"/>
<feBlend mode="multiply" in2="BackgroundImageFix" result="effect1_dropShadow_882_9219"/>
<feColorMatrix in="SourceAlpha" type="matrix" values="0 0 0 0 0 0 0 0 0 0 0 0 0 0 0 0 0 0 127 0" result="hardAlpha"/>
<feOffset dy="1.45842"/>
<feGaussianBlur stdDeviation="0.947971"/>
<feColorMatrix type="matrix" values="0 0 0 0 0.396078 0 0 0 0 0.407843 0 0 0 0 1 0 0 0 1 0"/>
<feBlend mode="color-dodge" in2="effect1_dropShadow_882_9219" result="effect2_dropShadow_882_9219"/>
<feBlend mode="normal" in="SourceGraphic" in2="effect2_dropShadow_882_9219" result="shape"/>
<feColorMatrix in="SourceAlpha" type="matrix" values="0 0 0 0 0 0 0 0 0 0 0 0 0 0 0 0 0 0 127 0" result="hardAlpha"/>
<feOffset dx="-0.0947971" dy="0.189594"/>
<feGaussianBlur stdDeviation="0.0473985"/>
<feComposite in2="hardAlpha" operator="arithmetic" k2="-1" k3="1"/>
<feColorMatrix type="matrix" values="0 0 0 0 1 0 0 0 0 1 0 0 0 0 1 0 0 0 0.5 0"/>
<feBlend mode="normal" in2="shape" result="effect3_innerShadow_882_9219"/>
</filter>
<filter id="filter3_f_882_9219" x="13.5624" y="-22.4217" width="14.2199" height="90.916" filterUnits="userSpaceOnUse" color-interpolation-filters="sRGB">
<feFlood flood-opacity="0" result="BackgroundImageFix"/>
<feBlend mode="normal" in="SourceGraphic" in2="BackgroundImageFix" result="shape"/>
<feGaussianBlur stdDeviation="0.0729208" result="effect1_foregroundBlur_882_9219"/>
</filter>
<filter id="filter4_f_882_9219" x="13.757" y="-22.2352" width="13.8307" height="90.5708" filterUnits="userSpaceOnUse" color-interpolation-filters="sRGB">
<feFlood flood-opacity="0" result="BackgroundImageFix"/>
<feBlend mode="normal" in="SourceGraphic" in2="BackgroundImageFix" result="shape"/>
<feGaussianBlur stdDeviation="0.0486139" result="effect1_foregroundBlur_882_9219"/>
</filter>
<filter id="filter5_f_882_9219" x="15.5613" y="-11.0621" width="46.0466" height="94.4348" filterUnits="userSpaceOnUse" color-interpolation-filters="sRGB">
<feFlood flood-opacity="0" result="BackgroundImageFix"/>
<feBlend mode="normal" in="SourceGraphic" in2="BackgroundImageFix" result="shape"/>
<feGaussianBlur stdDeviation="2.18762" result="effect1_foregroundBlur_882_9219"/>
</filter>
<filter id="filter6_f_882_9219" x="18.3321" y="-8.25334" width="40.505" height="88.7724" filterUnits="userSpaceOnUse" color-interpolation-filters="sRGB">
<feFlood flood-opacity="0" result="BackgroundImageFix"/>
<feBlend mode="normal" in="SourceGraphic" in2="BackgroundImageFix" result="shape"/>
<feGaussianBlur stdDeviation="0.729208" result="effect1_foregroundBlur_882_9219"/>
</filter>
<filter id="filter7_ddi_882_9219" x="18.0406" y="-7.12441" width="41.088" height="89.4761" filterUnits="userSpaceOnUse" color-interpolation-filters="sRGB">
<feFlood flood-opacity="0" result="BackgroundImageFix"/>
<feColorMatrix in="SourceAlpha" type="matrix" values="0 0 0 0 0 0 0 0 0 0 0 0 0 0 0 0 0 0 127 0" result="hardAlpha"/>
<feOffset dy="0.947971"/>
<feGaussianBlur stdDeviation="0.364604"/>
<feColorMatrix type="matrix" values="0 0 0 0 0.15 0 0 0 0 0 0 0 0 0 0 0 0 0 0.7 0"/>
<feBlend mode="multiply" in2="BackgroundImageFix" result="effect1_dropShadow_882_9219"/>
<feColorMatrix in="SourceAlpha" type="matrix" values="0 0 0 0 0 0 0 0 0 0 0 0 0 0 0 0 0 0 127 0" result="hardAlpha"/>
<feOffset dy="1.45842"/>
<feGaussianBlur stdDeviation="0.947971"/>
<feColorMatrix type="matrix" values="0 0 0 0 0.396078 0 0 0 0 0.407843 0 0 0 0 1 0 0 0 1 0"/>
<feBlend mode="color-dodge" in2="effect1_dropShadow_882_9219" result="effect2_dropShadow_882_9219"/>
<feBlend mode="normal" in="SourceGraphic" in2="effect2_dropShadow_882_9219" result="shape"/>
<feColorMatrix in="SourceAlpha" type="matrix" values="0 0 0 0 0 0 0 0 0 0 0 0 0 0 0 0 0 0 127 0" result="hardAlpha"/>
<feOffset dx="-0.0947971" dy="0.189594"/>
<feGaussianBlur stdDeviation="0.0473985"/>
<feComposite in2="hardAlpha" operator="arithmetic" k2="-1" k3="1"/>
<feColorMatrix type="matrix" values="0 0 0 0 1 0 0 0 0 1 0 0 0 0 1 0 0 0 0.5 0"/>
<feBlend mode="normal" in2="shape" result="effect3_innerShadow_882_9219"/>
</filter>
<filter id="filter8_f_882_9219" x="19.9731" y="-6.69778" width="37.2233" height="85.762" filterUnits="userSpaceOnUse" color-interpolation-filters="sRGB">
<feFlood flood-opacity="0" result="BackgroundImageFix"/>
<feBlend mode="normal" in="SourceGraphic" in2="BackgroundImageFix" result="shape"/>
<feGaussianBlur stdDeviation="0.0729208" result="effect1_foregroundBlur_882_9219"/>
</filter>
<filter id="filter9_f_882_9219" x="20.1677" y="-6.5412" width="36.8341" height="85.4936" filterUnits="userSpaceOnUse" color-interpolation-filters="sRGB">
<feFlood flood-opacity="0" result="BackgroundImageFix"/>
<feBlend mode="normal" in="SourceGraphic" in2="BackgroundImageFix" result="shape"/>
<feGaussianBlur stdDeviation="0.0486139" result="effect1_foregroundBlur_882_9219"/>
</filter>
<filter id="filter10_f_882_9219" x="-12.6025" y="-28.6793" width="36.9729" height="98.0029" filterUnits="userSpaceOnUse" color-interpolation-filters="sRGB">
<feFlood flood-opacity="0" result="BackgroundImageFix"/>
<feBlend mode="normal" in="SourceGraphic" in2="BackgroundImageFix" result="shape"/>
<feGaussianBlur stdDeviation="2.18762" result="effect1_foregroundBlur_882_9219"/>
</filter>
<filter id="filter11_f_882_9219" x="-9.83171" y="-25.8835" width="31.431" height="92.3717" filterUnits="userSpaceOnUse" color-interpolation-filters="sRGB">
<feFlood flood-opacity="0" result="BackgroundImageFix"/>
<feBlend mode="normal" in="SourceGraphic" in2="BackgroundImageFix" result="shape"/>
<feGaussianBlur stdDeviation="0.729208" result="effect1_foregroundBlur_882_9219"/>
</filter>
<filter id="filter12_ddi_882_9219" x="-10.1232" y="-24.7416" width="32.0143" height="93.0443" filterUnits="userSpaceOnUse" color-interpolation-filters="sRGB">
<feFlood flood-opacity="0" result="BackgroundImageFix"/>
<feColorMatrix in="SourceAlpha" type="matrix" values="0 0 0 0 0 0 0 0 0 0 0 0 0 0 0 0 0 0 127 0" result="hardAlpha"/>
<feOffset dy="0.947971"/>
<feGaussianBlur stdDeviation="0.364604"/>
<feColorMatrix type="matrix" values="0 0 0 0 0.15 0 0 0 0 0 0 0 0 0 0 0 0 0 0.7 0"/>
<feBlend mode="multiply" in2="BackgroundImageFix" result="effect1_dropShadow_882_9219"/>
<feColorMatrix in="SourceAlpha" type="matrix" values="0 0 0 0 0 0 0 0 0 0 0 0 0 0 0 0 0 0 127 0" result="hardAlpha"/>
<feOffset dy="1.45842"/>
<feGaussianBlur stdDeviation="0.947971"/>
<feColorMatrix type="matrix" values="0 0 0 0 0.396078 0 0 0 0 0.407843 0 0 0 0 1 0 0 0 1 0"/>
<feBlend mode="color-dodge" in2="effect1_dropShadow_882_9219" result="effect2_dropShadow_882_9219"/>
<feBlend mode="normal" in="SourceGraphic" in2="effect2_dropShadow_882_9219" result="shape"/>
<feColorMatrix in="SourceAlpha" type="matrix" values="0 0 0 0 0 0 0 0 0 0 0 0 0 0 0 0 0 0 127 0" result="hardAlpha"/>
<feOffset dx="-0.0947971" dy="0.189594"/>
<feGaussianBlur stdDeviation="0.0473985"/>
<feComposite in2="hardAlpha" operator="arithmetic" k2="-1" k3="1"/>
<feColorMatrix type="matrix" values="0 0 0 0 1 0 0 0 0 1 0 0 0 0 1 0 0 0 0.5 0"/>
<feBlend mode="normal" in2="shape" result="effect3_innerShadow_882_9219"/>
</filter>
<filter id="filter13_f_882_9219" x="-8.19076" y="-24.2987" width="28.1493" height="89.291" filterUnits="userSpaceOnUse" color-interpolation-filters="sRGB">
<feFlood flood-opacity="0" result="BackgroundImageFix"/>
<feBlend mode="normal" in="SourceGraphic" in2="BackgroundImageFix" result="shape"/>
<feGaussianBlur stdDeviation="0.0729208" result="effect1_foregroundBlur_882_9219"/>
</filter>
<filter id="filter14_f_882_9219" x="-7.99615" y="-24.1291" width="27.7604" height="88.9913" filterUnits="userSpaceOnUse" color-interpolation-filters="sRGB">
<feFlood flood-opacity="0" result="BackgroundImageFix"/>
<feBlend mode="normal" in="SourceGraphic" in2="BackgroundImageFix" result="shape"/>
<feGaussianBlur stdDeviation="0.0486139" result="effect1_foregroundBlur_882_9219"/>
</filter>
<filter id="filter15_f_882_9219" x="21.4951" y="-10.1806" width="60.3291" height="85.6076" filterUnits="userSpaceOnUse" color-interpolation-filters="sRGB">
<feFlood flood-opacity="0" result="BackgroundImageFix"/>
<feBlend mode="normal" in="SourceGraphic" in2="BackgroundImageFix" result="shape"/>
<feGaussianBlur stdDeviation="2.18762" result="effect1_foregroundBlur_882_9219"/>
</filter>
<filter id="filter16_f_882_9219" x="24.2662" y="-7.3477" width="54.787" height="79.8908" filterUnits="userSpaceOnUse" color-interpolation-filters="sRGB">
<feFlood flood-opacity="0" result="BackgroundImageFix"/>
<feBlend mode="normal" in="SourceGraphic" in2="BackgroundImageFix" result="shape"/>
<feGaussianBlur stdDeviation="0.729208" result="effect1_foregroundBlur_882_9219"/>
</filter>
<filter id="filter17_ddi_882_9219" x="23.9744" y="-6.24288" width="55.3705" height="80.6489" filterUnits="userSpaceOnUse" color-interpolation-filters="sRGB">
<feFlood flood-opacity="0" result="BackgroundImageFix"/>
<feColorMatrix in="SourceAlpha" type="matrix" values="0 0 0 0 0 0 0 0 0 0 0 0 0 0 0 0 0 0 127 0" result="hardAlpha"/>
<feOffset dy="0.947971"/>
<feGaussianBlur stdDeviation="0.364604"/>
<feColorMatrix type="matrix" values="0 0 0 0 0.15 0 0 0 0 0 0 0 0 0 0 0 0 0 0.7 0"/>
<feBlend mode="multiply" in2="BackgroundImageFix" result="effect1_dropShadow_882_9219"/>
<feColorMatrix in="SourceAlpha" type="matrix" values="0 0 0 0 0 0 0 0 0 0 0 0 0 0 0 0 0 0 127 0" result="hardAlpha"/>
<feOffset dy="1.45842"/>
<feGaussianBlur stdDeviation="0.947971"/>
<feColorMatrix type="matrix" values="0 0 0 0 0.396078 0 0 0 0 0.407843 0 0 0 0 1 0 0 0 1 0"/>
<feBlend mode="color-dodge" in2="effect1_dropShadow_882_9219" result="effect2_dropShadow_882_9219"/>
<feBlend mode="normal" in="SourceGraphic" in2="effect2_dropShadow_882_9219" result="shape"/>
<feColorMatrix in="SourceAlpha" type="matrix" values="0 0 0 0 0 0 0 0 0 0 0 0 0 0 0 0 0 0 127 0" result="hardAlpha"/>
<feOffset dx="-0.0947971" dy="0.189594"/>
<feGaussianBlur stdDeviation="0.0473985"/>
<feComposite in2="hardAlpha" operator="arithmetic" k2="-1" k3="1"/>
<feColorMatrix type="matrix" values="0 0 0 0 1 0 0 0 0 1 0 0 0 0 1 0 0 0 0.5 0"/>
<feBlend mode="normal" in2="shape" result="effect3_innerShadow_882_9219"/>
</filter>
<filter id="filter18_f_882_9219" x="25.9069" y="-5.84622" width="51.5056" height="77.0026" filterUnits="userSpaceOnUse" color-interpolation-filters="sRGB">
<feFlood flood-opacity="0" result="BackgroundImageFix"/>
<feBlend mode="normal" in="SourceGraphic" in2="BackgroundImageFix" result="shape"/>
<feGaussianBlur stdDeviation="0.0729208" result="effect1_foregroundBlur_882_9219"/>
</filter>
<filter id="filter19_f_882_9219" x="26.1015" y="-5.71368" width="51.1166" height="76.7884" filterUnits="userSpaceOnUse" color-interpolation-filters="sRGB">
<feFlood flood-opacity="0" result="BackgroundImageFix"/>
<feBlend mode="normal" in="SourceGraphic" in2="BackgroundImageFix" result="shape"/>
<feGaussianBlur stdDeviation="0.0486139" result="effect1_foregroundBlur_882_9219"/>
</filter>
<linearGradient id="paint0_linear_882_9219" x1="14" y1="16" x2="45.7023" y2="47.8829" gradientUnits="userSpaceOnUse">
<stop stop-color="#FF00EE"/>
<stop offset="0.438272" stop-color="#DD00FF"/>
<stop offset="0.839506" stop-color="#6500FC"/>
</linearGradient>
<clipPath id="clip0_882_9219">
<rect width="60" height="60" rx="30" fill="white"/>
</clipPath>
<clipPath id="clip1_882_9219">
<rect width="32" height="32" fill="white" transform="translate(14 16)"/>
</clipPath>
</defs>
</svg>
