<svg width="41" height="41" viewBox="0 0 41 41" fill="none" xmlns="http://www.w3.org/2000/svg">
<rect width="41" height="41" rx="20.5" fill="#303030"/>
<path d="M11 17V15C11 12 13 10 16 10H26C29 10 31 12 31 15V17" stroke="#85FFA0" stroke-width="1.5" stroke-miterlimit="10" stroke-linecap="round" stroke-linejoin="round"/>
<path d="M11 23V25C11 28 13 30 16 30H26C29 30 31 28 31 25V23" stroke="#85FFA0" stroke-width="1.5" stroke-miterlimit="10" stroke-linecap="round" stroke-linejoin="round"/>
<g opacity="0.35" filter="url(#filter0_f_1_4536)">
<circle cx="21" cy="20" r="9" fill="#85FFA0"/>
</g>
<g clip-path="url(#clip0_1_4536)">
<path fill-rule="evenodd" clip-rule="evenodd" d="M22.1707 14.6294C22.073 14.5088 21.9473 14.394 21.7862 14.3047C21.3847 14.0822 20.7632 14.0181 20.3834 14.0004C20.2004 13.9919 19.9779 14.1201 19.8868 14.2751L19.7769 14.4618C20.1664 14.3413 20.5895 14.3037 21.0458 14.3742C21.4349 14.4343 21.8108 14.5204 22.1707 14.6294ZM16.6578 20.6464C16.317 19.3118 17.8843 14.1548 21.1894 14.6653C22.1611 14.8154 23.0511 15.1275 23.8133 15.5553C23.9223 15.4816 24.0582 15.4347 24.1751 15.4408C24.6471 15.4655 25.5171 15.5476 26.0723 15.8207C26.5446 16.053 26.7891 16.4234 26.9097 16.6852C26.9848 16.8481 26.9614 17.1253 26.8936 17.2912L26.3787 18.5514C26.5033 19.0098 26.5362 19.484 26.4636 19.9604L26.3157 24.7629C26.3102 24.9414 26.2181 25.2042 26.0847 25.3266C25.8376 25.5535 25.3845 25.8626 24.7333 25.887C23.98 25.9151 22.9616 25.5624 22.4596 25.3667C22.2895 25.3005 22.1293 25.0985 22.0989 24.9224L21.7784 23.0657C21.2032 23.1526 20.7115 23.1677 20.4066 23.1174C19.1542 22.9104 16.9986 21.981 16.6578 20.6464ZM17.5102 17.6517C17.7385 17.0716 18.1423 16.3915 18.6296 16.031C19.3777 15.4776 20.3147 15.4282 21.0534 15.7047C21.5241 15.8809 22.4038 16.3011 23.003 16.9123C23.9568 17.8852 24.5379 19.2459 24.1823 20.1492C23.8408 21.0169 22.6099 21.7626 21.3765 22.0403C20.4507 22.2486 19.2078 21.8511 18.7076 21.6638C17.4877 21.2073 17.3767 20.8426 17.2106 20.3539C17.0446 19.8652 16.9312 19.1224 17.5102 17.6517ZM17.9062 17.8119C18.1192 17.2708 18.4922 16.6351 18.9373 16.2953C19.5434 15.8327 20.2797 15.7368 20.9031 15.8949C20.3611 15.8534 19.7772 15.9937 19.2786 16.3749C18.8195 16.7258 18.4347 17.3821 18.2149 17.9406C17.6574 19.3568 17.7546 20.0675 17.904 20.5341C17.9842 20.7845 18.0499 21.0008 18.2689 21.2131C17.7937 20.9289 17.7131 20.6579 17.6061 20.3247C17.4609 19.8725 17.3662 19.1837 17.9062 17.8119ZM16.2626 20.8661C16.1991 20.6177 16.2018 20.237 16.2695 19.785L15.1136 22.1257C15.0341 22.2866 14.9707 22.5634 15.0141 22.7369C15.0707 22.9625 15.1991 23.2549 15.4908 23.4325C15.8296 23.6388 16.3887 23.6903 16.7443 23.7007C16.9273 23.7061 17.1592 23.5799 17.2621 23.4321L17.8658 22.5646C17.0972 22.1353 16.4384 21.5546 16.2626 20.8661Z" fill="url(#paint0_linear_1_4536)"/>
<path fill-rule="evenodd" clip-rule="evenodd" d="M22.1707 14.6294C22.073 14.5088 21.9473 14.394 21.7862 14.3047C21.3847 14.0822 20.7632 14.0181 20.3834 14.0004C20.2004 13.9919 19.9779 14.1201 19.8868 14.2751L19.7769 14.4618C20.1664 14.3413 20.5895 14.3037 21.0458 14.3742C21.4349 14.4343 21.8108 14.5204 22.1707 14.6294ZM16.6578 20.6464C16.317 19.3118 17.8843 14.1548 21.1894 14.6653C22.1611 14.8154 23.0511 15.1275 23.8133 15.5553C23.9223 15.4816 24.0582 15.4347 24.1751 15.4408C24.6471 15.4655 25.5171 15.5476 26.0723 15.8207C26.5446 16.053 26.7891 16.4234 26.9097 16.6852C26.9848 16.8481 26.9614 17.1253 26.8936 17.2912L26.3787 18.5514C26.5033 19.0098 26.5362 19.484 26.4636 19.9604L26.3157 24.7629C26.3102 24.9414 26.2181 25.2042 26.0847 25.3266C25.8376 25.5535 25.3845 25.8626 24.7333 25.887C23.98 25.9151 22.9616 25.5624 22.4596 25.3667C22.2895 25.3005 22.1293 25.0985 22.0989 24.9224L21.7784 23.0657C21.2032 23.1526 20.7115 23.1677 20.4066 23.1174C19.1542 22.9104 16.9986 21.981 16.6578 20.6464ZM17.5102 17.6517C17.7385 17.0716 18.1423 16.3915 18.6296 16.031C19.3777 15.4776 20.3147 15.4282 21.0534 15.7047C21.5241 15.8809 22.4038 16.3011 23.003 16.9123C23.9568 17.8852 24.5379 19.2459 24.1823 20.1492C23.8408 21.0169 22.6099 21.7626 21.3765 22.0403C20.4507 22.2486 19.2078 21.8511 18.7076 21.6638C17.4877 21.2073 17.3767 20.8426 17.2106 20.3539C17.0446 19.8652 16.9312 19.1224 17.5102 17.6517ZM17.9062 17.8119C18.1192 17.2708 18.4922 16.6351 18.9373 16.2953C19.5434 15.8327 20.2797 15.7368 20.9031 15.8949C20.3611 15.8534 19.7772 15.9937 19.2786 16.3749C18.8195 16.7258 18.4347 17.3821 18.2149 17.9406C17.6574 19.3568 17.7546 20.0675 17.904 20.5341C17.9842 20.7845 18.0499 21.0008 18.2689 21.2131C17.7937 20.9289 17.7131 20.6579 17.6061 20.3247C17.4609 19.8725 17.3662 19.1837 17.9062 17.8119ZM16.2626 20.8661C16.1991 20.6177 16.2018 20.237 16.2695 19.785L15.1136 22.1257C15.0341 22.2866 14.9707 22.5634 15.0141 22.7369C15.0707 22.9625 15.1991 23.2549 15.4908 23.4325C15.8296 23.6388 16.3887 23.6903 16.7443 23.7007C16.9273 23.7061 17.1592 23.5799 17.2621 23.4321L17.8658 22.5646C17.0972 22.1353 16.4384 21.5546 16.2626 20.8661Z" fill="#85FFA0"/>
</g>
<defs>
<filter id="filter0_f_1_4536" x="2" y="1" width="38" height="38" filterUnits="userSpaceOnUse" color-interpolation-filters="sRGB">
<feFlood flood-opacity="0" result="BackgroundImageFix"/>
<feBlend mode="normal" in="SourceGraphic" in2="BackgroundImageFix" result="shape"/>
<feGaussianBlur stdDeviation="5" result="effect1_foregroundBlur_1_4536"/>
</filter>
<linearGradient id="paint0_linear_1_4536" x1="15" y1="14" x2="26.8883" y2="25.9561" gradientUnits="userSpaceOnUse">
<stop stop-color="#FF00EE"/>
<stop offset="0.438272" stop-color="#DD00FF"/>
<stop offset="0.839506" stop-color="#6500FC"/>
</linearGradient>
<clipPath id="clip0_1_4536">
<rect width="12" height="12" fill="white" transform="translate(15 14)"/>
</clipPath>
</defs>
</svg>
