<svg width="329" height="60" viewBox="0 0 329 60" fill="none" xmlns="http://www.w3.org/2000/svg">
<g clip-path="url(#clip0_29224_3318)">
<path fill-rule="evenodd" clip-rule="evenodd" d="M35.731 3.13648C35.2438 2.5352 34.6176 1.96328 33.815 1.51846C31.8141 0.409397 28.7173 0.0903237 26.8247 0.00200826C25.9131 -0.0405346 24.8045 0.598612 24.3503 1.3706L23.8027 2.30125C25.7438 1.70052 27.8521 1.51351 30.1255 1.86463C32.0642 2.16405 33.9376 2.59296 35.731 3.13648ZM8.26059 33.1183C6.5625 26.4681 14.3723 0.771547 30.8412 3.3151C35.6831 4.06293 40.1178 5.61839 43.9158 7.74994C44.459 7.38274 45.1361 7.14911 45.7185 7.17956C48.0705 7.30257 52.4057 7.7117 55.1724 9.07253C57.5253 10.23 58.744 12.0757 59.3448 13.38C59.719 14.1918 59.6026 15.5731 59.2647 16.3999L56.6987 22.679C57.3198 24.9633 57.4835 27.3263 57.1221 29.7001L56.3849 53.6302C56.3575 54.5197 55.8988 55.8295 55.2341 56.4394C54.0025 57.5701 51.7449 59.1103 48.4999 59.2315C44.7464 59.3717 39.6718 57.614 37.1705 56.6393C36.3229 56.309 35.5245 55.3028 35.373 54.4251L33.7762 45.1734C30.9098 45.6064 28.4596 45.6819 26.9403 45.4309C20.6999 44.3996 9.9587 39.7683 8.26059 33.1183ZM12.5078 18.1958C13.6458 15.3054 15.658 11.9167 18.0859 10.1205C21.8138 7.36255 26.4824 7.11656 30.1635 8.49444C32.5091 9.37237 36.8922 11.4661 39.8782 14.5119C44.6309 19.3598 47.5265 26.1399 45.7547 30.6406C44.0527 34.9643 37.9193 38.6805 31.7732 40.0638C27.1605 41.102 20.9668 39.121 18.4745 38.1881C12.3961 35.913 11.8429 34.0957 11.0154 31.6608C10.188 29.2258 9.62296 25.5245 12.5078 18.1958ZM14.4815 18.9943C15.5428 16.298 17.4013 13.1304 19.6192 11.4374C22.6392 9.13224 26.3081 8.65424 29.4145 9.44199C26.7136 9.23521 23.8042 9.93457 21.3198 11.8338C19.0324 13.5822 17.1149 16.8525 16.0193 19.6357C13.2414 26.6923 13.7261 30.2339 14.4703 32.5588C14.8698 33.8064 15.1974 34.8844 16.2885 35.9424C13.9206 34.5259 13.5189 33.1755 12.9859 31.5151C12.2626 29.262 11.7905 25.8301 14.4815 18.9943ZM6.29123 34.2132C5.97521 32.9755 5.98848 31.0781 6.32559 28.826L0.566086 40.4896C0.170109 41.2915 -0.146221 42.6707 0.0704872 43.5353C0.35217 44.6591 0.992058 46.1161 2.44541 47.0012C4.1337 48.0292 6.9196 48.2855 8.69149 48.3376C9.60378 48.3644 10.7592 47.7356 11.2717 46.9991L14.2798 42.6763C10.45 40.5372 7.16724 37.6439 6.29123 34.2132Z" fill="url(#paint0_linear_29224_3318)"/>
<path fill-rule="evenodd" clip-rule="evenodd" d="M35.731 3.13648C35.2438 2.5352 34.6176 1.96328 33.815 1.51846C31.8141 0.409397 28.7173 0.0903237 26.8247 0.00200826C25.9131 -0.0405346 24.8045 0.598612 24.3503 1.3706L23.8027 2.30125C25.7438 1.70052 27.8521 1.51351 30.1255 1.86463C32.0642 2.16405 33.9376 2.59296 35.731 3.13648ZM8.26059 33.1183C6.5625 26.4681 14.3723 0.771547 30.8412 3.3151C35.6831 4.06293 40.1178 5.61839 43.9158 7.74994C44.459 7.38274 45.1361 7.14911 45.7185 7.17956C48.0705 7.30257 52.4057 7.7117 55.1724 9.07253C57.5253 10.23 58.744 12.0757 59.3448 13.38C59.719 14.1918 59.6026 15.5731 59.2647 16.3999L56.6987 22.679C57.3198 24.9633 57.4835 27.3263 57.1221 29.7001L56.3849 53.6302C56.3575 54.5197 55.8988 55.8295 55.2341 56.4394C54.0025 57.5701 51.7449 59.1103 48.4999 59.2315C44.7464 59.3717 39.6718 57.614 37.1705 56.6393C36.3229 56.309 35.5245 55.3028 35.373 54.4251L33.7762 45.1734C30.9098 45.6064 28.4596 45.6819 26.9403 45.4309C20.6999 44.3996 9.9587 39.7683 8.26059 33.1183ZM12.5078 18.1958C13.6458 15.3054 15.658 11.9167 18.0859 10.1205C21.8138 7.36255 26.4824 7.11656 30.1635 8.49444C32.5091 9.37237 36.8922 11.4661 39.8782 14.5119C44.6309 19.3598 47.5265 26.1399 45.7547 30.6406C44.0527 34.9643 37.9193 38.6805 31.7732 40.0638C27.1605 41.102 20.9668 39.121 18.4745 38.1881C12.3961 35.913 11.8429 34.0957 11.0154 31.6608C10.188 29.2258 9.62296 25.5245 12.5078 18.1958ZM14.4815 18.9943C15.5428 16.298 17.4013 13.1304 19.6192 11.4374C22.6392 9.13224 26.3081 8.65424 29.4145 9.44199C26.7136 9.23521 23.8042 9.93457 21.3198 11.8338C19.0324 13.5822 17.1149 16.8525 16.0193 19.6357C13.2414 26.6923 13.7261 30.2339 14.4703 32.5588C14.8698 33.8064 15.1974 34.8844 16.2885 35.9424C13.9206 34.5259 13.5189 33.1755 12.9859 31.5151C12.2626 29.262 11.7905 25.8301 14.4815 18.9943ZM6.29123 34.2132C5.97521 32.9755 5.98848 31.0781 6.32559 28.826L0.566086 40.4896C0.170109 41.2915 -0.146221 42.6707 0.0704872 43.5353C0.35217 44.6591 0.992058 46.1161 2.44541 47.0012C4.1337 48.0292 6.9196 48.2855 8.69149 48.3376C9.60378 48.3644 10.7592 47.7356 11.2717 46.9991L14.2798 42.6763C10.45 40.5372 7.16724 37.6439 6.29123 34.2132Z" fill="white"/>
<path fill-rule="evenodd" clip-rule="evenodd" d="M35.731 3.13648C35.2438 2.5352 34.6176 1.96328 33.815 1.51846C31.8141 0.409397 28.7173 0.0903237 26.8247 0.00200826C25.9131 -0.0405346 24.8045 0.598612 24.3503 1.3706L23.8027 2.30125C25.7438 1.70052 27.8521 1.51351 30.1255 1.86463C32.0642 2.16405 33.9376 2.59296 35.731 3.13648ZM8.26059 33.1183C6.5625 26.4681 14.3723 0.771547 30.8412 3.3151C35.6831 4.06293 40.1178 5.61839 43.9158 7.74994C44.459 7.38274 45.1361 7.14911 45.7185 7.17956C48.0705 7.30257 52.4057 7.7117 55.1724 9.07253C57.5253 10.23 58.744 12.0757 59.3448 13.38C59.719 14.1918 59.6026 15.5731 59.2647 16.3999L56.6987 22.679C57.3198 24.9633 57.4835 27.3263 57.1221 29.7001L56.3849 53.6302C56.3575 54.5197 55.8988 55.8295 55.2341 56.4394C54.0025 57.5701 51.7449 59.1103 48.4999 59.2315C44.7464 59.3717 39.6718 57.614 37.1705 56.6393C36.3229 56.309 35.5245 55.3028 35.373 54.4251L33.7762 45.1734C30.9098 45.6064 28.4596 45.6819 26.9403 45.4309C20.6999 44.3996 9.9587 39.7683 8.26059 33.1183ZM12.5078 18.1958C13.6458 15.3054 15.658 11.9167 18.0859 10.1205C21.8138 7.36255 26.4824 7.11656 30.1635 8.49444C32.5091 9.37237 36.8922 11.4661 39.8782 14.5119C44.6309 19.3598 47.5265 26.1399 45.7547 30.6406C44.0527 34.9643 37.9193 38.6805 31.7732 40.0638C27.1605 41.102 20.9668 39.121 18.4745 38.1881C12.3961 35.913 11.8429 34.0957 11.0154 31.6608C10.188 29.2258 9.62296 25.5245 12.5078 18.1958ZM14.4815 18.9943C15.5428 16.298 17.4013 13.1304 19.6192 11.4374C22.6392 9.13224 26.3081 8.65424 29.4145 9.44199C26.7136 9.23521 23.8042 9.93457 21.3198 11.8338C19.0324 13.5822 17.1149 16.8525 16.0193 19.6357C13.2414 26.6923 13.7261 30.2339 14.4703 32.5588C14.8698 33.8064 15.1974 34.8844 16.2885 35.9424C13.9206 34.5259 13.5189 33.1755 12.9859 31.5151C12.2626 29.262 11.7905 25.8301 14.4815 18.9943ZM6.29123 34.2132C5.97521 32.9755 5.98848 31.0781 6.32559 28.826L0.566086 40.4896C0.170109 41.2915 -0.146221 42.6707 0.0704872 43.5353C0.35217 44.6591 0.992058 46.1161 2.44541 47.0012C4.1337 48.0292 6.9196 48.2855 8.69149 48.3376C9.60378 48.3644 10.7592 47.7356 11.2717 46.9991L14.2798 42.6763C10.45 40.5372 7.16724 37.6439 6.29123 34.2132Z" fill="white" fill-opacity="0.2"/>
</g>
<path d="M100.371 50.8388C109.894 50.8388 115.751 45.7461 117.279 39.533V28.8382H100.473V35.7134H109.64V39.0237C108.672 41.3154 105.667 43.709 100.371 43.709C93.1394 43.709 88.6069 38.6672 88.6069 31.2318C88.6069 23.8474 93.1394 18.8056 99.8618 18.8056C104.445 18.8056 107.806 21.5047 109.131 25.1715L116.108 21.8103C114.121 16.2083 108.061 11.6758 99.8618 11.6758C88.8615 11.6758 80.7131 19.926 80.7131 31.2318C80.7131 42.4867 88.9633 50.8388 100.371 50.8388Z" fill="white"/>
<path d="M133.178 21.8103C127.271 21.8103 122.484 24.7641 120.854 29.3475L127.424 32.505C128.239 30.0096 130.479 28.4308 133.178 28.4308C135.725 28.4308 137.456 29.8059 137.456 31.8939V32.8106L128.748 34.6439C123.095 35.8153 119.836 38.5144 119.836 42.6395C119.836 47.2739 123.808 50.8388 130.123 50.8388C133.331 50.8388 135.878 49.8712 137.966 47.6813V50.2277H145.095V31.8939C145.095 25.9354 140.257 21.8103 133.178 21.8103ZM131.294 45.2368C129.104 45.2368 127.729 44.2183 127.729 42.5377C127.729 41.2645 128.544 40.2969 130.123 39.9404L137.456 38.3107V39.6348C137.456 42.7414 134.757 45.2368 131.294 45.2368Z" fill="white"/>
<path d="M180.332 21.8103C176.563 21.8103 173.457 23.5418 171.878 26.0882C170.096 23.2872 167.142 21.8103 163.577 21.8103C160.216 21.8103 157.618 23.1344 156.294 25.7826V22.4214H149.164V50.2277H156.804V33.9819C156.804 30.5698 158.637 28.6855 161.336 28.6855C164.035 28.6855 165.869 30.5698 165.869 33.9819V50.2277H173.508V33.9819C173.508 30.5698 175.341 28.6855 178.04 28.6855C180.739 28.6855 182.573 30.5698 182.573 33.9819V50.2277H190.212V32.3522C190.212 25.9354 186.138 21.8103 180.332 21.8103Z" fill="white"/>
<path d="M221.149 35.5097C221.149 27.8197 215.14 21.8103 207.348 21.8103C199.403 21.8103 193.292 27.9725 193.292 36.2736C193.292 44.3201 199.047 50.8388 207.857 50.8388C213.561 50.8388 218.145 48.1397 219.825 44.0655L213.714 41.1626C212.644 43.0469 210.658 44.2183 207.959 44.2183C204.19 44.2183 201.695 41.9775 201.237 38.4635H220.793C221.047 37.6996 221.149 36.6301 221.149 35.5097ZM201.389 32.8615C202.153 29.6531 204.343 27.9216 207.348 27.9216C210.505 27.9216 212.746 29.9077 213.052 32.8615H201.389Z" fill="white"/>
<path d="M239.134 21.8103C235.62 21.8103 232.768 23.0835 231.342 25.7826V22.4214H224.212V50.2277H231.852V33.9819C231.852 30.7735 233.94 28.6855 236.944 28.6855C239.949 28.6855 242.037 30.7735 242.037 33.9819V50.2277H249.676V32.3522C249.676 26.0372 245.398 21.8103 239.134 21.8103Z" fill="white"/>
<path d="M266.067 21.8103C260.159 21.8103 255.372 24.7641 253.742 29.3475L260.312 32.505C261.127 30.0096 263.367 28.4308 266.067 28.4308C268.613 28.4308 270.345 29.8059 270.345 31.8939V32.8106L261.636 34.6439C255.983 35.8153 252.724 38.5144 252.724 42.6395C252.724 47.2739 256.696 50.8388 263.011 50.8388C266.219 50.8388 268.766 49.8712 270.854 47.6813V50.2277H277.984V31.8939C277.984 25.9354 273.146 21.8103 266.067 21.8103ZM264.182 45.2368C261.992 45.2368 260.617 44.2183 260.617 42.5377C260.617 41.2645 261.432 40.2969 263.011 39.9404L270.345 38.3107V39.6348C270.345 42.7414 267.645 45.2368 264.182 45.2368Z" fill="white"/>
<path d="M299.368 22.4214V38.6672C299.368 41.8756 297.28 43.9636 294.275 43.9636C291.27 43.9636 289.182 41.8756 289.182 38.6672V22.4214H281.543V39.3292C281.543 46.1535 285.872 50.8388 292.238 50.8388C295.701 50.8388 298.451 49.4638 299.877 46.8665V50.2277H307.007V22.4214H299.368Z" fill="white"/>
<path d="M325.435 50.5332C326.606 50.5332 327.981 50.4314 329 50.2786V44.2692C328.287 44.371 327.675 44.422 327.217 44.422C324.009 44.422 322.481 43.0469 322.481 40.195V29.042H329V22.4214H322.481V14.0694H314.842V18.1435C314.842 20.9955 313.263 22.4214 310.411 22.4214H310.055V29.042H314.842V40.195C314.842 46.7137 318.712 50.5332 325.435 50.5332Z" fill="white"/>
<defs>
<linearGradient id="paint0_linear_29224_3318" x1="-1.85598e-08" y1="-1.71108e-08" x2="59.2384" y2="59.5759" gradientUnits="userSpaceOnUse">
<stop stop-color="#FF00EE"/>
<stop offset="0.438272" stop-color="#DD00FF"/>
<stop offset="0.839506" stop-color="#6500FC"/>
</linearGradient>
<clipPath id="clip0_29224_3318">
<rect width="59.7948" height="59.7948" fill="white"/>
</clipPath>
</defs>
</svg>
