<svg xmlns="http://www.w3.org/2000/svg" width="8.86" height="8.095" viewBox="0 0 8.86 8.095">
  <g id="graph-blank" transform="translate(-5 -5)">
    <path id="Path_1" data-name="Path 1" d="M5,7.964a2.781,2.781,0,0,1,.35-.456,4.89,4.89,0,0,1,.25.8s.1-.342.15-.342S5.9,10.7,5.9,10.7s.25-2.736.3-2.736.2,1.482.35,1.482.25-3.192.4-3.192.35,3.99.551,3.99.7,2.85.851,2.85S8.4,10.7,8.5,10.7s.15.456.2.456.25-1.482.4-1.482.3,2.736.4,2.736.551-.684.6-.684.2.684.3.684.25-1.71.4-1.71.751-1.254.9-1.254.2-3.192.3-3.192.25,1.71.35,1.71.451-1.71.6-1.71S13.16,5,13.26,5s.05.912.15.912.3-.8.451-.912" fill="rgba(0,0,0,0)"/>
  </g>
</svg>
