<svg width="54" height="54" viewBox="0 0 54 54" fill="none" xmlns="http://www.w3.org/2000/svg">
<rect x="1.98425" y="1.98407" width="50.0317" height="50.0317" rx="6.09524" fill="#082368" stroke="#6568FF" stroke-width="2.03175"/>
<path d="M3.00024 16.4604L4.33816 17.6311C4.77908 18.0169 5.03199 18.5742 5.03199 19.1601V34.84C5.03199 35.4259 4.77908 35.9833 4.33816 36.3691L3.00024 37.5398V16.4604Z" fill="#6568FF"/>
<path d="M51.0002 37.5397L49.6623 36.369C49.2214 35.9832 48.9685 35.4258 48.9685 34.84L48.9685 19.16C48.9685 18.5741 49.2214 18.0168 49.6623 17.631L51.0002 16.4603L51.0002 37.5397Z" fill="#6568FF"/>
<path fill-rule="evenodd" clip-rule="evenodd" d="M22.3573 8.56448L22.2775 10.328L24.2117 11.52L25.1128 8.68905C24.5516 8.58036 23.3751 8.49274 22.3573 8.56448ZM21.4403 16.4519L15.512 12.4909C15.512 12.4909 16.1424 11.9417 17.1493 11.4869C18.1563 11.0322 19.1512 10.8474 19.1512 10.8474L21.4403 16.4519ZM17.0757 17.6501L28.4913 23.2821L24.7347 17.2951L30.0174 17.9089L28.2221 13.1291C35.8189 13.8744 41.7901 21.4993 41.7901 30.7954C41.7901 31.1374 41.7821 31.4771 41.7661 31.8143C36.9436 34.044 33.7904 36.7037 34.3667 38.2837C34.4307 38.4594 34.5387 38.6157 34.6872 38.7527C35.4113 39.4213 35.8707 40.6745 34.9878 41.1126C32.5266 42.3341 29.8284 43.0081 26.9988 43.0081C24.169 43.0081 21.4705 42.334 19.0091 41.1124C18.1263 40.6743 18.5857 39.4212 19.3098 38.7525C19.4581 38.6155 19.5661 38.4593 19.6301 38.2836C20.2062 36.7038 17.0536 34.0442 12.2314 31.8146C12.2227 31.6295 12.2163 31.4437 12.2122 31.257C12.209 31.1037 12.2074 30.9498 12.2074 30.7954C12.2074 25.5816 14.0857 20.8936 17.0757 17.6501ZM25.0367 29.5896C25.0367 31.9524 23.1213 33.8679 20.7584 33.8679C18.3954 33.8679 16.48 31.9524 16.48 29.5896C16.48 27.2268 18.3954 25.3113 20.7584 25.3113C23.1213 25.3113 25.0367 27.2268 25.0367 29.5896ZM33.239 33.8679C35.6019 33.8679 37.5173 31.9524 37.5173 29.5896C37.5173 27.2268 35.6019 25.3113 33.239 25.3113C30.876 25.3113 28.9606 27.2268 28.9606 29.5896C28.9606 31.9524 30.876 33.8679 33.239 33.8679ZM27.1723 33.6766L29.3369 40.4675C29.3369 40.4675 27.9118 40.8321 26.9986 40.8321C26.0856 40.8321 24.6604 40.4675 24.6604 40.4675L26.825 33.6766C26.879 33.5073 27.1184 33.5073 27.1723 33.6766Z" fill="#6568FF"/>
</svg>
