<svg width="54" height="54" viewBox="0 0 54 54" fill="none" xmlns="http://www.w3.org/2000/svg">
<rect x="1.98413" y="1.98407" width="50.0317" height="50.0317" rx="6.09524" fill="#380868" stroke="#923DFF" stroke-width="2.03175"/>
<path d="M3 16.4603L4.33791 17.631C4.77883 18.0168 5.03175 18.5742 5.03175 19.16V34.84C5.03175 35.4259 4.77883 35.9832 4.33791 36.369L3 37.5397V16.4603Z" fill="#923DFF"/>
<path d="M51 37.5397L49.6621 36.3691C49.2212 35.9833 48.9683 35.4259 48.9683 34.84L48.9683 19.1601C48.9683 18.5742 49.2212 18.0168 49.6621 17.631L51 16.4604L51 37.5397Z" fill="#923DFF"/>
<path d="M13.5393 26.7107L33.4376 9.83167L25.7905 20.8279H40.4607L15.8023 44.1683L26.0246 26.7107H13.5393Z" fill="#923DFF"/>
</svg>
