<svg width="54" height="54" viewBox="0 0 54 54" fill="none" xmlns="http://www.w3.org/2000/svg">
<rect x="1.98413" y="1.98413" width="50.0317" height="50.0317" rx="6.09524" fill="#08684B" stroke="#85FFA0" stroke-width="2.03175"/>
<path d="M3.00012 16.4604L4.33804 17.6311C4.77896 18.0169 5.03187 18.5742 5.03187 19.1601V34.84C5.03187 35.4259 4.77896 35.9833 4.33804 36.3691L3.00012 37.5398V16.4604Z" fill="#85FFA0"/>
<path d="M50.9999 37.5398L49.662 36.3691C49.221 35.9833 48.9681 35.426 48.9681 34.8401L48.9681 19.1602C48.9681 18.5743 49.221 18.0169 49.662 17.6311L50.9999 16.4604L50.9999 37.5398Z" fill="#85FFA0"/>
<path fill-rule="evenodd" clip-rule="evenodd" d="M37.5236 36.0138C35.9609 36.9639 31.8491 37.6435 27.0226 37.6435C22.0455 37.6435 17.8285 36.9208 16.3828 35.9241C16.036 36.4429 15.8486 37.1778 15.8486 38.2028C15.8486 39.1503 20.8513 41.2391 27.0225 41.2391C33.1936 41.2391 38.1964 39.0934 38.1964 38.2029C38.1964 37.1989 37.9589 36.4973 37.5236 36.0138Z" fill="#85FFA0"/>
<path fill-rule="evenodd" clip-rule="evenodd" d="M13.6411 24.3328C14.3172 24.3081 14.9404 24.0765 15.4494 23.6994C16.2884 26.1566 18.7538 27.781 21.4362 27.4624C24.5216 27.096 26.7258 24.2978 26.3594 21.2123L26.1589 19.5233C26.441 19.5165 26.7289 19.5131 27.0226 19.5131C27.316 19.5131 27.6037 19.5165 27.8856 19.5233L27.685 21.2123C27.3186 24.2978 29.5228 27.096 32.6083 27.4624C35.2906 27.781 37.7559 26.1567 38.595 23.6996C39.1042 24.0767 39.7277 24.3083 40.4041 24.3328L38.0835 33.7539C37.9376 34.346 37.5797 34.8621 37.0194 35.1027C35.69 35.6737 32.6523 36.6096 27.0228 36.6096C20.4686 36.6096 17.7298 35.5985 16.7143 35.037C16.3448 34.8327 16.1353 34.4571 16.0343 34.0472L13.6411 24.3328ZM27.0221 33.6654C28.0351 33.6654 28.8563 32.4577 28.8563 30.968C28.8563 29.4783 28.0351 28.2707 27.0221 28.2707C26.0091 28.2707 25.1879 29.4783 25.1879 30.968C25.1879 32.4577 26.0091 33.6654 27.0221 33.6654Z" fill="#85FFA0"/>
<circle cx="40.6537" cy="20.7187" r="2.6325" fill="#85FFA0"/>
<circle cx="13.3486" cy="20.7401" r="2.6325" fill="#85FFA0"/>
<circle cx="27.0225" cy="15.5591" r="3.00091" fill="#85FFA0"/>
</svg>
