<svg width="17" height="17" viewBox="0 0 17 17" fill="none" xmlns="http://www.w3.org/2000/svg">
<path fill-rule="evenodd" clip-rule="evenodd" d="M0.830471 3.24158C0.220022 4.78497 0.538957 6.61073 1.78728 7.85905C3.05274 9.12451 4.91161 9.43489 6.46816 8.79019L11.8264 14.1485C11.7977 14.8057 12.0342 15.4724 12.5361 15.9743C13.4854 16.9236 15.0245 16.9236 15.9739 15.9743C16.9232 15.025 16.9232 13.4859 15.9739 12.5365C15.472 12.0347 14.8053 11.7981 14.1481 11.8269L8.78998 6.4688C9.43509 4.9121 9.12482 3.05284 7.85915 1.78718C6.61071 0.538731 4.78471 0.219857 3.24123 0.830552L5.80514 3.39447L3.39425 5.80536L0.830471 3.24158ZM14.9929 14.9932C15.4003 14.5857 15.4003 13.9251 14.9929 13.5176C14.5854 13.1102 13.9248 13.1102 13.5173 13.5176C13.1098 13.9251 13.1098 14.5857 13.5173 14.9932C13.9248 15.4007 14.5854 15.4007 14.9929 14.9932Z" fill="#9E3DFF"/>
</svg>
