<svg width="1053" height="261" viewBox="0 0 1053 261" fill="none" xmlns="http://www.w3.org/2000/svg">
<g opacity="0.1">
<path d="M196.697 16C236.533 30.9287 192.049 47.9015 206.656 65.1221C221.926 82.8383 254.238 82.5905 276.147 106.501C290.09 121.616 192.27 165.163 187.844 180.711C182.754 199.418 229.672 208.958 210.861 227.231C199.574 238.133 188.287 248.974 177 259.876" stroke="url(#paint0_linear_267_2759)" stroke-miterlimit="10"/>
<path d="M219.491 16C246.049 25.9111 235.205 36.8135 229.45 48.0255C226.573 53.6005 225.024 59.2374 229.893 64.9363C244.721 82.5905 277.032 82.6525 296.95 106.253C300.934 110.961 294.073 118.209 283.229 126.447C259.991 143.916 219.934 165.72 211.967 177.737C211.303 178.729 210.86 179.658 210.639 180.525C207.098 195.825 237.418 205.117 238.303 218.002C238.524 220.851 237.196 223.886 233.877 227.169C222.811 238.072 211.303 248.974 200.016 259.876" stroke="url(#paint1_linear_267_2759)" stroke-miterlimit="10"/>
<path d="M242.287 16C268.623 25.8492 258 36.6895 252.467 47.9015C249.59 53.4146 248.041 59.0516 252.688 64.7505C267.073 82.2809 299.606 82.7144 317.311 106.006C320.852 110.713 313.77 117.961 302.705 126.138C278.803 143.668 241.18 165.349 234.098 177.552C233.434 178.543 232.992 179.472 232.992 180.339C230.336 195.578 259.992 204.993 260.877 217.878C261.098 220.727 259.992 223.762 256.672 227.045C245.828 238.01 234.319 248.912 222.811 259.814" stroke="url(#paint2_linear_267_2759)" stroke-miterlimit="10"/>
<path d="M265.082 16C291.418 25.8492 281.016 36.6276 275.483 47.7776C272.606 53.2907 271.278 58.8658 275.705 64.5647C289.869 81.9711 322.18 82.7764 338.114 105.758C341.434 110.528 333.688 117.713 322.401 125.828C297.836 143.482 262.647 164.977 256.451 177.366C256.008 178.357 255.565 179.286 255.344 180.153C253.352 195.268 282.344 204.807 283.451 217.816C283.672 220.665 282.565 223.7 279.246 226.983C268.623 237.948 256.893 248.85 245.606 259.876" stroke="url(#paint3_linear_267_2759)" stroke-miterlimit="10"/>
<path d="M288.098 16C314.213 25.7873 304.254 36.5657 298.5 47.6538C295.844 53.1049 294.295 58.7419 298.721 64.3788C312.442 81.6614 344.754 82.8383 358.696 105.51C361.573 110.342 353.606 117.465 342.098 125.518C316.868 143.234 284.114 164.605 278.803 177.18C278.36 178.171 277.918 179.1 277.918 179.968C276.811 195.02 305.139 204.683 306.245 217.692C306.467 220.603 305.36 223.638 302.262 226.921C291.86 237.948 280.131 248.85 268.623 259.876" stroke="url(#paint4_linear_267_2759)" stroke-miterlimit="10"/>
<path d="M310.893 16C336.787 25.7253 327.049 36.5038 321.516 47.5299C318.861 52.981 317.533 58.556 321.738 64.193C335.016 81.3516 367.106 82.9003 379.278 105.262C381.934 110.156 373.303 117.218 361.574 125.208C335.68 142.987 305.361 164.234 300.934 176.994C300.492 177.985 300.27 178.914 300.27 179.782C299.828 194.772 327.492 204.56 328.82 217.568C329.041 220.479 327.934 223.515 324.836 226.798C314.656 237.886 302.705 248.788 291.197 259.814" stroke="url(#paint5_linear_267_2759)" stroke-miterlimit="10"/>
<path d="M333.688 16C359.582 25.6634 350.065 36.3799 344.532 47.4061C341.877 52.8572 340.549 58.3701 344.754 64.0071C357.811 81.0419 389.68 83.0242 399.86 105.015C402.073 109.908 393 116.97 381.27 124.899C354.713 142.739 326.828 163.862 323.287 176.808C323.065 177.799 322.844 178.729 322.844 179.596C323.065 194.524 350.287 204.436 351.614 217.444C351.836 220.355 350.729 223.453 347.852 226.736C337.893 237.824 325.721 248.726 314.213 259.876" stroke="url(#paint6_linear_267_2759)" stroke-miterlimit="10"/>
<path d="M356.483 16C382.155 25.6634 373.082 36.3178 367.549 47.282C364.893 52.6712 363.565 58.2464 367.77 63.8214C380.164 80.7323 412.033 83.0861 420.442 104.767C422.434 109.722 412.918 116.722 400.746 124.589C373.524 142.491 347.852 163.428 345.197 176.684C344.975 177.676 344.754 178.605 344.754 179.472C345.861 194.339 372.418 204.374 373.746 217.444C373.967 220.417 373.082 223.453 369.983 226.736C360.024 237.886 348.074 248.788 336.565 259.938" stroke="url(#paint7_linear_267_2759)" stroke-miterlimit="10"/>
<path d="M379.278 16C404.95 25.6014 395.877 36.2559 390.565 47.1582C387.909 52.5474 386.803 58.0605 390.786 63.6355C402.958 80.4225 434.385 83.21 441.024 104.519C442.573 109.536 432.614 116.474 420.442 124.279C392.557 142.243 369.319 163.057 367.549 176.499C367.327 177.49 367.327 178.419 367.327 179.286C369.098 194.029 394.991 204.25 396.54 217.32C396.983 220.293 395.876 223.329 392.999 226.612C383.262 237.762 371.09 248.726 359.582 259.876" stroke="url(#paint8_linear_267_2759)" stroke-miterlimit="10"/>
<path d="M402.295 16C427.745 25.5395 419.114 36.1321 413.803 47.0343C411.147 52.3616 410.04 57.8746 414.024 63.4496C425.753 80.1128 456.958 83.3339 461.827 104.209C462.934 109.289 452.532 116.165 440.36 123.908C411.59 141.996 391.008 162.623 390.122 176.251C390.122 177.242 389.901 178.171 390.122 179.038C392.557 193.719 418.008 204.064 419.557 217.134C419.999 220.108 418.893 223.205 416.237 226.488C406.721 237.7 394.549 248.664 382.819 259.814" stroke="url(#paint9_linear_267_2759)" stroke-miterlimit="10"/>
<path d="M425.09 16C450.319 25.4775 441.909 36.0702 436.819 46.9105C434.385 52.2377 433.278 57.6888 437.04 63.2638C448.327 79.803 479.09 83.3958 482.409 103.961C483.294 109.103 472.229 115.917 459.835 123.598C430.401 141.748 412.032 162.189 412.254 176.065C412.254 177.056 412.253 177.985 412.475 178.853C415.573 193.471 440.36 203.878 442.131 217.01C442.573 219.984 441.467 223.081 438.811 226.364C429.516 237.576 417.122 248.54 405.393 259.814" stroke="url(#paint10_linear_267_2759)" stroke-miterlimit="10"/>
<path d="M447.885 16C473.114 25.4156 464.926 36.0082 459.836 46.7866C457.401 52.1138 456.295 57.5648 460.057 63.0779C470.901 79.4932 501.221 83.5197 502.991 103.714C503.434 108.917 492.147 115.669 479.532 123.288C449.434 141.5 433.278 161.818 434.606 175.879C434.606 176.87 434.606 177.799 434.828 178.667C438.59 193.224 462.934 203.754 464.705 216.948C465.147 219.984 464.262 223.081 461.606 226.302C452.532 237.576 440.139 248.54 428.41 259.814" stroke="url(#paint11_linear_267_2759)" stroke-miterlimit="10"/>
<path d="M470.68 16C495.688 25.4156 487.942 35.9462 482.852 46.6626C480.417 51.9279 479.311 57.3791 482.852 62.8922C493.475 79.2456 523.13 83.7056 523.352 103.466C523.352 108.731 511.622 115.421 498.786 122.979C468.024 141.252 454.303 161.446 456.516 175.693C456.737 176.684 456.737 177.614 456.958 178.481C461.385 192.914 485.286 203.63 487.057 216.825C487.499 219.86 486.614 222.957 483.958 226.24C475.106 237.576 462.491 248.54 450.762 259.814" stroke="url(#paint12_linear_267_2759)" stroke-miterlimit="10"/>
<path d="M493.475 16C518.483 25.3536 510.737 35.8223 505.868 46.5387C503.434 51.804 502.549 57.1933 505.868 62.7063C516.049 78.9358 545.04 83.8294 543.934 103.218C543.713 108.545 531.319 115.235 518.483 122.669C486.836 141.004 475.549 161.012 478.868 175.507C479.09 176.499 479.311 177.428 479.532 178.295C484.844 192.666 507.86 203.506 509.852 216.701C510.295 219.736 509.409 222.833 506.975 226.116C498.344 237.452 485.508 248.416 473.778 259.814" stroke="url(#paint13_linear_267_2759)" stroke-miterlimit="10"/>
<path d="M516.491 16C541.278 25.2917 533.974 35.7604 529.106 46.4149C526.671 51.6182 525.786 57.0694 529.106 62.5205C538.843 78.6261 567.392 83.9534 564.737 102.97C564.073 108.36 551.237 114.988 538.179 122.359C505.868 140.757 496.794 160.641 501.22 175.322C501.442 176.313 501.663 177.242 502.106 178.109C508.081 192.418 530.655 203.383 532.647 216.577C533.089 219.612 532.204 222.771 529.77 226.054C521.36 237.452 508.524 248.416 496.573 259.814" stroke="url(#paint14_linear_267_2759)" stroke-miterlimit="10"/>
<path d="M539.286 16C563.852 25.2298 556.991 35.6985 552.122 46.291C549.688 51.4944 549.024 56.8835 552.122 62.3346C561.639 78.3163 589.303 84.0772 585.319 102.722C584.212 108.174 571.155 114.74 557.876 122.049C524.901 140.571 518.04 160.207 523.573 175.136C524.016 176.127 524.237 177.056 524.458 177.923C531.098 192.171 553.008 203.259 555.221 216.515C555.663 219.612 554.778 222.709 552.565 225.992C544.376 237.39 531.319 248.416 519.59 259.814" stroke="url(#paint15_linear_267_2759)" stroke-miterlimit="10"/>
<path d="M562.081 16C586.647 25.1678 579.786 35.5746 575.139 46.1672C572.926 51.3705 572.041 56.6976 575.139 62.1488C584.213 78.0066 611.212 84.2011 605.901 102.475C604.352 107.988 590.852 114.492 577.573 121.801C543.713 140.385 539.508 159.897 545.926 175.074C546.368 176.065 546.59 176.994 547.032 177.861C554.336 192.047 575.803 203.197 578.016 216.515C578.458 219.612 577.795 222.771 575.36 225.992C567.393 237.452 554.336 248.478 542.385 259.938" stroke="url(#paint16_linear_267_2759)" stroke-miterlimit="10"/>
<path d="M584.876 16C609.22 25.1678 602.802 35.5126 598.155 46.0431C595.942 51.1846 595.056 56.5119 598.155 61.963C606.786 77.697 632.901 84.3251 626.704 102.227C624.712 107.802 610.77 114.244 597.27 121.492C562.745 140.137 560.753 159.526 568.278 174.888C568.72 175.879 569.163 176.808 569.606 177.737C577.573 191.799 598.598 203.135 600.811 216.453C601.253 219.55 600.589 222.709 598.376 225.992C590.63 237.452 577.352 248.478 565.401 260" stroke="url(#paint17_linear_267_2759)" stroke-miterlimit="10"/>
<path d="M607.671 16C632.015 25.1059 625.819 35.4506 621.171 45.9193C618.958 51.0607 618.294 56.388 621.171 61.7772C629.581 77.3872 654.811 84.4489 647.286 101.979C644.852 107.616 630.466 113.996 616.966 121.182C581.778 139.889 581.778 159.092 590.63 174.702C591.073 175.693 591.516 176.622 592.179 177.552C600.811 191.551 621.171 203.011 623.606 216.329C624.269 219.426 623.384 222.585 621.171 225.868C613.647 237.39 600.368 248.416 588.196 259.938" stroke="url(#paint18_linear_267_2759)" stroke-miterlimit="10"/>
<path d="M630.688 16C654.81 25.0439 648.835 35.3887 644.409 45.7954C642.196 50.8749 641.532 56.2021 644.409 61.5913C652.376 77.0775 676.72 84.6347 668.089 101.669C665.212 107.43 650.384 113.687 636.663 120.81C600.589 139.58 603.024 158.659 612.983 174.454C613.647 175.446 614.089 176.375 614.532 177.304C623.827 191.241 643.745 202.825 646.179 216.205C646.843 219.364 645.958 222.524 643.966 225.807C636.442 237.39 623.163 248.416 611.212 260" stroke="url(#paint19_linear_267_2759)" stroke-miterlimit="10"/>
<path d="M653.483 16C677.384 24.982 671.852 35.2649 667.425 45.6716C665.212 50.751 664.77 56.0163 667.425 61.4054C674.95 76.7677 698.409 84.7586 688.671 101.422C685.352 107.245 670.081 113.439 656.36 120.501C619.622 139.332 624.27 158.287 635.335 174.269C635.999 175.26 636.442 176.189 637.106 177.118C646.844 190.994 666.54 202.701 668.975 216.081C669.638 219.24 668.975 222.4 666.761 225.683C659.458 237.266 645.958 248.292 634.008 259.938" stroke="url(#paint20_linear_267_2759)" stroke-miterlimit="10"/>
<path d="M676.277 16C700.179 24.92 694.868 35.203 690.441 45.5477C688.228 50.5652 687.786 55.8923 690.441 61.2196C697.745 76.458 720.097 84.8824 709.253 101.174C705.269 107.059 689.778 113.191 676.056 120.191C638.433 139.084 645.515 157.853 657.687 174.083C658.351 175.074 659.015 176.003 659.679 176.932C670.081 190.684 689.114 202.577 691.769 215.957C692.433 219.116 691.769 222.338 689.777 225.559C682.695 237.204 669.196 248.231 657.024 259.876" stroke="url(#paint21_linear_267_2759)" stroke-miterlimit="10"/>
<path d="M699.073 16C722.753 24.92 717.663 35.1409 713.458 45.4237C711.466 50.4412 711.024 55.7066 713.237 61.0339C720.097 76.1484 741.565 85.0064 729.614 100.926C725.188 106.873 709.474 112.943 695.311 119.881C657.024 138.836 666.098 157.482 679.598 173.897C680.483 174.888 680.925 175.817 681.811 176.746C692.876 190.436 711.466 202.392 714.122 215.895C714.786 219.117 714.122 222.276 712.352 225.559C705.491 237.204 691.77 248.292 679.598 260" stroke="url(#paint22_linear_267_2759)" stroke-miterlimit="10"/>
<path d="M722.089 16C745.769 24.8581 740.9 35.017 736.696 45.2998C734.704 50.3174 734.261 55.5208 736.474 60.848C742.892 75.8386 763.253 85.1303 750.417 100.678C745.548 106.687 729.392 112.696 715.228 119.572C676.056 138.589 687.564 157.11 702.171 173.711C703.056 174.64 703.72 175.631 704.605 176.561C716.335 190.188 734.261 202.268 737.138 215.771C737.802 218.993 737.138 222.214 735.367 225.435C728.728 237.142 715.007 248.23 702.835 259.938" stroke="url(#paint23_linear_267_2759)" stroke-miterlimit="10"/>
<path d="M744.884 16C768.343 24.7961 763.696 34.9551 759.712 45.176C757.72 50.1316 757.278 55.3349 759.491 60.6621C765.687 75.5289 784.72 85.2541 770.999 100.431C765.466 106.501 749.089 112.448 734.704 119.262C694.647 138.341 708.368 156.738 724.302 173.525C725.187 174.454 725.852 175.446 726.737 176.375C739.13 189.941 756.614 202.144 759.491 215.648C760.155 218.869 759.712 222.09 757.942 225.373C751.524 237.142 737.581 248.169 725.409 259.938" stroke="url(#paint24_linear_267_2759)" stroke-miterlimit="10"/>
<path d="M767.679 16C790.917 24.7342 786.712 34.8932 782.728 45.0521C780.736 50.0077 780.515 55.211 782.507 60.4763C788.261 75.281 806.408 85.3781 791.58 100.183C785.605 106.315 768.786 112.2 754.4 118.952C713.679 138.093 729.613 156.305 746.433 173.401C747.318 174.331 748.204 175.322 749.089 176.251C762.146 189.755 779.187 202.082 782.064 215.586C782.728 218.807 782.285 222.028 780.515 225.311C774.318 237.08 760.376 248.169 747.982 260" stroke="url(#paint25_linear_267_2759)" stroke-miterlimit="10"/>
<path d="M790.474 16C813.712 24.6722 809.728 34.8313 805.745 44.9283C803.753 49.8219 803.531 55.0251 805.523 60.2904C810.835 74.9713 827.876 85.4399 812.163 99.935C805.523 106.067 788.482 111.952 773.876 118.642C732.269 137.845 750.417 155.933 768.564 173.216C769.671 174.145 770.556 175.136 771.441 176.065C784.941 189.507 801.54 201.958 804.638 215.524C805.302 218.807 804.859 222.028 803.31 225.249C797.335 237.08 783.171 248.169 770.777 260" stroke="url(#paint26_linear_267_2759)" stroke-miterlimit="10"/>
<path d="M813.269 16C836.285 24.6722 832.523 34.7073 828.761 44.8043C826.769 49.6979 826.769 54.8394 828.54 60.1047C833.63 74.6617 849.343 85.5639 832.744 99.6873C825.441 105.882 808.179 111.705 793.572 118.333C751.302 137.597 771.441 155.561 790.917 173.03C792.023 173.959 792.908 174.95 794.015 175.879C808.179 189.197 824.335 201.834 827.433 215.4C828.097 218.683 827.654 221.904 826.105 225.187C820.351 237.019 805.966 248.107 793.794 260" stroke="url(#paint27_linear_267_2759)" stroke-miterlimit="10"/>
<path d="M836.285 16C859.302 24.6103 855.761 34.6454 851.998 44.6804C850.228 49.574 850.007 54.6535 851.777 59.9188C856.425 74.3519 870.81 85.6878 853.548 99.4395C845.58 105.696 828.097 111.395 813.49 118.023C770.335 137.35 792.908 155.19 813.49 172.844C814.597 173.773 815.703 174.764 816.589 175.693C831.417 188.949 846.908 201.648 850.228 215.276C851.113 218.559 850.671 221.842 849.121 225.063C843.589 236.957 829.203 248.045 816.81 260" stroke="url(#paint28_linear_267_2759)" stroke-miterlimit="10"/>
<path d="M859.08 16C881.875 24.5484 878.777 34.5835 875.015 44.5565C873.244 49.3882 873.244 54.5296 874.793 59.733C879.219 74.0422 892.277 85.7498 874.129 99.1298C865.72 105.448 847.793 111.085 832.966 117.651C788.925 136.978 813.711 154.756 835.621 172.596C836.728 173.525 837.834 174.516 838.941 175.446C854.433 188.64 869.482 201.462 872.802 215.09C873.687 218.373 873.244 221.656 871.695 224.877C866.605 236.833 851.777 247.921 839.383 259.876" stroke="url(#paint29_linear_267_2759)" stroke-miterlimit="10"/>
<path d="M881.876 16C904.449 24.4864 901.572 34.4596 898.031 44.4327C896.261 49.2644 896.261 54.3438 897.81 59.5471C901.794 73.7324 913.744 85.8116 894.712 98.882C885.638 105.2 867.49 110.837 852.662 117.341C807.736 136.73 834.736 154.384 857.974 172.41C859.302 173.339 860.408 174.331 861.515 175.26C877.449 188.392 892.277 201.338 895.597 215.028C896.482 218.373 896.039 221.594 894.712 224.877C889.843 236.833 875.015 247.983 862.4 259.938" stroke="url(#paint30_linear_267_2759)" stroke-miterlimit="10"/>
<path d="M904.67 16C927.244 24.4864 924.588 34.3977 921.048 44.3088C919.277 49.0786 919.277 54.1579 920.605 59.3612C924.146 73.4227 934.99 85.8736 915.293 98.6342C905.334 105.015 887.187 110.59 872.138 117.032C826.548 136.482 855.539 154.013 880.105 172.224C881.433 173.154 882.54 174.145 883.867 175.074C900.466 188.144 914.63 201.215 918.171 214.904C919.056 218.249 918.613 221.532 917.285 224.753C912.416 236.771 897.589 247.859 885.195 259.876" stroke="url(#paint31_linear_267_2759)" stroke-miterlimit="10"/>
<path d="M927.465 16C949.818 24.4245 947.605 34.3356 944.064 44.1848C942.293 48.9545 942.515 54.0341 943.621 59.1755C946.941 73.1131 956.236 85.9355 935.875 98.3864C925.252 104.829 906.884 110.342 891.834 116.722C845.359 136.235 876.564 153.641 902.457 172.039C903.785 172.968 905.113 173.959 906.22 174.888C923.482 187.896 937.203 201.091 940.744 214.78C941.629 218.125 941.408 221.408 940.08 224.692C935.433 236.709 920.605 247.859 907.99 259.938" stroke="url(#paint32_linear_267_2759)" stroke-miterlimit="10"/>
<path d="M950.482 16C972.834 24.3625 970.621 34.2737 967.301 44.0609C965.531 48.8307 965.752 53.8483 966.859 58.9897C969.957 72.8033 977.924 85.9975 956.678 98.1386C945.392 104.581 926.802 110.094 911.531 116.412C864.171 135.987 897.589 153.331 924.81 171.853C926.138 172.782 927.465 173.711 928.793 174.702C946.498 187.649 959.777 200.967 963.539 214.657C964.425 218.064 964.203 221.347 963.096 224.568C958.67 236.647 943.621 247.797 931.006 259.876" stroke="url(#paint33_linear_267_2759)" stroke-miterlimit="10"/>
<path d="M973.277 16C995.408 24.3006 993.638 34.1498 990.318 43.9371C988.769 48.6449 988.99 53.6624 989.876 58.8038C992.531 72.4936 999.171 86.0595 977.261 97.8909C965.31 104.333 946.499 109.846 931.228 116.103C882.982 135.677 918.614 152.96 947.163 171.667C948.491 172.596 950.04 173.525 951.368 174.516C969.737 187.401 982.572 200.781 986.335 214.595C987.22 218.002 986.999 221.285 985.892 224.506C981.687 236.647 966.417 247.735 953.802 259.876" stroke="url(#paint34_linear_267_2759)" stroke-miterlimit="10"/>
<path d="M996.072 16C1017.98 24.2386 1016.43 34.0879 1013.33 43.8132C1011.79 48.521 1012.01 53.4765 1012.89 58.6179C1015.1 72.1838 1020.64 86.0594 997.843 97.6431C985.007 104.147 966.195 109.598 950.925 115.793C901.793 135.429 939.638 152.588 969.515 171.543C971.064 172.472 972.392 173.401 973.941 174.393C992.752 187.215 1005.37 200.719 1009.13 214.533C1010.01 217.94 1009.79 221.223 1008.91 224.506C1004.92 236.647 989.654 247.797 977.039 260" stroke="url(#paint35_linear_267_2759)" stroke-miterlimit="10"/>
<path d="M1018.87 16C1040.78 24.2386 1039.45 34.026 1036.35 43.6894C1030.6 60.7241 1050.96 81.8472 1018.42 97.3333C1004.92 103.838 985.892 109.289 970.4 115.421C920.384 135.12 960.441 152.154 991.646 171.295C1013.78 184.861 1027.28 199.48 1031.48 214.347C1036.13 230.7 1015.55 244.452 999.392 259.876" stroke="url(#paint36_linear_267_2759)" stroke-miterlimit="10"/>
</g>
<rect opacity="0.2" x="640" y="54.8545" width="8.2478" height="8.2478" rx="0.896572" transform="rotate(-12.9955 640 54.8545)" fill="white"/>
<rect x="957.47" y="61.9253" width="8.2478" height="8.2478" rx="0.896572" transform="rotate(-12.9955 957.47 61.9253)" fill="#FF7FE3"/>
<circle opacity="0.2" cx="399.802" cy="85.1745" r="7.17258" fill="white"/>
<circle opacity="0.2" cx="567.461" cy="22.4143" r="7.17258" fill="white"/>
<circle opacity="0.2" cx="500.218" cy="195.453" r="7.17258" fill="white"/>
<circle opacity="0.2" cx="230.798" cy="151.073" r="3.138" fill="white"/>
<circle opacity="0.2" cx="343.766" cy="25.5521" r="3.138" fill="white"/>
<circle opacity="0.2" cx="13.8279" cy="32.7249" r="3.138" fill="white"/>
<circle opacity="0.2" cx="705.085" cy="3.138" r="3.138" fill="white"/>
<path d="M330.651 175.238L327.553 189.662L316.611 179.767L330.651 175.238Z" fill="#FF7FE3"/>
<path opacity="0.2" d="M50.7856 216.95L48.9196 225.637L42.3298 219.677L50.7856 216.95Z" fill="white"/>
<path opacity="0.2" d="M886.453 16.4717L883.355 30.8953L872.413 21.0003L886.453 16.4717Z" fill="white"/>
<path opacity="0.2" d="M926.799 182.338L923.7 196.762L912.758 186.866L926.799 182.338Z" fill="white"/>
<path opacity="0.2" d="M585.205 104.336L582.106 118.76L571.164 108.865L585.205 104.336Z" fill="white"/>
<rect opacity="0.2" x="198" y="20.8545" width="8.2478" height="8.2478" rx="0.896572" transform="rotate(-12.9955 198 20.8545)" fill="white"/>
<rect opacity="0.2" x="247.385" y="202.687" width="8.2478" height="8.2478" rx="0.896572" transform="rotate(-12.9955 247.385 202.687)" fill="white"/>
<rect x="479.597" y="76.27" width="8.2478" height="8.2478" rx="0.896572" transform="rotate(-12.9955 479.597 76.27)" fill="#85FFA0"/>
<rect opacity="0.2" x="965.54" y="215.239" width="8.2478" height="8.2478" rx="0.896572" transform="rotate(-12.9955 965.54 215.239)" fill="white"/>
<defs>
<linearGradient id="paint0_linear_267_2759" x1="177" y1="137.938" x2="294.749" y2="140.18" gradientUnits="userSpaceOnUse">
<stop stop-color="#9A9A9C"/>
<stop offset="0.255208" stop-color="#8869C0"/>
<stop offset="0.484375" stop-color="#3FC2EA"/>
<stop offset="0.666667" stop-color="#C2FFFF"/>
<stop offset="0.927083" stop-color="white"/>
</linearGradient>
<linearGradient id="paint1_linear_267_2759" x1="200.016" y1="137.938" x2="314.922" y2="140.073" gradientUnits="userSpaceOnUse">
<stop stop-color="#9A9A9C"/>
<stop offset="0.255208" stop-color="#8869C0"/>
<stop offset="0.484375" stop-color="#3FC2EA"/>
<stop offset="0.666667" stop-color="#C2FFFF"/>
<stop offset="0.927083" stop-color="white"/>
</linearGradient>
<linearGradient id="paint2_linear_267_2759" x1="222.811" y1="137.907" x2="334.603" y2="139.929" gradientUnits="userSpaceOnUse">
<stop stop-color="#9A9A9C"/>
<stop offset="0.255208" stop-color="#8869C0"/>
<stop offset="0.484375" stop-color="#3FC2EA"/>
<stop offset="0.666667" stop-color="#C2FFFF"/>
<stop offset="0.927083" stop-color="white"/>
</linearGradient>
<linearGradient id="paint3_linear_267_2759" x1="245.606" y1="137.938" x2="354.898" y2="139.87" gradientUnits="userSpaceOnUse">
<stop stop-color="#9A9A9C"/>
<stop offset="0.255208" stop-color="#8869C0"/>
<stop offset="0.484375" stop-color="#3FC2EA"/>
<stop offset="0.666667" stop-color="#C2FFFF"/>
<stop offset="0.927083" stop-color="white"/>
</linearGradient>
<linearGradient id="paint4_linear_267_2759" x1="268.623" y1="137.938" x2="374.848" y2="139.763" gradientUnits="userSpaceOnUse">
<stop stop-color="#9A9A9C"/>
<stop offset="0.255208" stop-color="#8869C0"/>
<stop offset="0.484375" stop-color="#3FC2EA"/>
<stop offset="0.666667" stop-color="#C2FFFF"/>
<stop offset="0.927083" stop-color="white"/>
</linearGradient>
<linearGradient id="paint5_linear_267_2759" x1="291.197" y1="137.907" x2="394.963" y2="139.649" gradientUnits="userSpaceOnUse">
<stop stop-color="#9A9A9C"/>
<stop offset="0.255208" stop-color="#8869C0"/>
<stop offset="0.484375" stop-color="#3FC2EA"/>
<stop offset="0.666667" stop-color="#C2FFFF"/>
<stop offset="0.927083" stop-color="white"/>
</linearGradient>
<linearGradient id="paint6_linear_267_2759" x1="314.213" y1="137.938" x2="414.955" y2="139.579" gradientUnits="userSpaceOnUse">
<stop stop-color="#9A9A9C"/>
<stop offset="0.255208" stop-color="#8869C0"/>
<stop offset="0.484375" stop-color="#3FC2EA"/>
<stop offset="0.666667" stop-color="#C2FFFF"/>
<stop offset="0.927083" stop-color="white"/>
</linearGradient>
<linearGradient id="paint7_linear_267_2759" x1="336.565" y1="137.969" x2="435.153" y2="139.54" gradientUnits="userSpaceOnUse">
<stop stop-color="#9A9A9C"/>
<stop offset="0.255208" stop-color="#8869C0"/>
<stop offset="0.484375" stop-color="#3FC2EA"/>
<stop offset="0.666667" stop-color="#C2FFFF"/>
<stop offset="0.927083" stop-color="white"/>
</linearGradient>
<linearGradient id="paint8_linear_267_2759" x1="359.582" y1="137.938" x2="455.194" y2="139.416" gradientUnits="userSpaceOnUse">
<stop stop-color="#9A9A9C"/>
<stop offset="0.255208" stop-color="#8869C0"/>
<stop offset="0.484375" stop-color="#3FC2EA"/>
<stop offset="0.666667" stop-color="#C2FFFF"/>
<stop offset="0.927083" stop-color="white"/>
</linearGradient>
<linearGradient id="paint9_linear_267_2759" x1="382.819" y1="137.907" x2="475.489" y2="139.296" gradientUnits="userSpaceOnUse">
<stop stop-color="#9A9A9C"/>
<stop offset="0.255208" stop-color="#8869C0"/>
<stop offset="0.484375" stop-color="#3FC2EA"/>
<stop offset="0.666667" stop-color="#C2FFFF"/>
<stop offset="0.927083" stop-color="white"/>
</linearGradient>
<linearGradient id="paint10_linear_267_2759" x1="405.393" y1="137.907" x2="495.693" y2="139.226" gradientUnits="userSpaceOnUse">
<stop stop-color="#9A9A9C"/>
<stop offset="0.255208" stop-color="#8869C0"/>
<stop offset="0.484375" stop-color="#3FC2EA"/>
<stop offset="0.666667" stop-color="#C2FFFF"/>
<stop offset="0.927083" stop-color="white"/>
</linearGradient>
<linearGradient id="paint11_linear_267_2759" x1="428.41" y1="137.907" x2="515.815" y2="139.143" gradientUnits="userSpaceOnUse">
<stop stop-color="#9A9A9C"/>
<stop offset="0.255208" stop-color="#8869C0"/>
<stop offset="0.484375" stop-color="#3FC2EA"/>
<stop offset="0.666667" stop-color="#C2FFFF"/>
<stop offset="0.927083" stop-color="white"/>
</linearGradient>
<linearGradient id="paint12_linear_267_2759" x1="450.762" y1="137.907" x2="535.82" y2="139.077" gradientUnits="userSpaceOnUse">
<stop stop-color="#9A9A9C"/>
<stop offset="0.255208" stop-color="#8869C0"/>
<stop offset="0.484375" stop-color="#3FC2EA"/>
<stop offset="0.666667" stop-color="#C2FFFF"/>
<stop offset="0.927083" stop-color="white"/>
</linearGradient>
<linearGradient id="paint13_linear_267_2759" x1="473.778" y1="137.907" x2="556.021" y2="139.001" gradientUnits="userSpaceOnUse">
<stop stop-color="#9A9A9C"/>
<stop offset="0.255208" stop-color="#8869C0"/>
<stop offset="0.484375" stop-color="#3FC2EA"/>
<stop offset="0.666667" stop-color="#C2FFFF"/>
<stop offset="0.927083" stop-color="white"/>
</linearGradient>
<linearGradient id="paint14_linear_267_2759" x1="496.573" y1="137.907" x2="576.649" y2="138.944" gradientUnits="userSpaceOnUse">
<stop stop-color="#9A9A9C"/>
<stop offset="0.255208" stop-color="#8869C0"/>
<stop offset="0.484375" stop-color="#3FC2EA"/>
<stop offset="0.666667" stop-color="#C2FFFF"/>
<stop offset="0.927083" stop-color="white"/>
</linearGradient>
<linearGradient id="paint15_linear_267_2759" x1="519.59" y1="137.907" x2="597.067" y2="138.878" gradientUnits="userSpaceOnUse">
<stop stop-color="#9A9A9C"/>
<stop offset="0.255208" stop-color="#8869C0"/>
<stop offset="0.484375" stop-color="#3FC2EA"/>
<stop offset="0.666667" stop-color="#C2FFFF"/>
<stop offset="0.927083" stop-color="white"/>
</linearGradient>
<linearGradient id="paint16_linear_267_2759" x1="542.385" y1="137.969" x2="617.617" y2="138.884" gradientUnits="userSpaceOnUse">
<stop stop-color="#9A9A9C"/>
<stop offset="0.255208" stop-color="#8869C0"/>
<stop offset="0.484375" stop-color="#3FC2EA"/>
<stop offset="0.666667" stop-color="#C2FFFF"/>
<stop offset="0.927083" stop-color="white"/>
</linearGradient>
<linearGradient id="paint17_linear_267_2759" x1="564.694" y1="138" x2="638.461" y2="138.879" gradientUnits="userSpaceOnUse">
<stop stop-color="#9A9A9C"/>
<stop offset="0.255208" stop-color="#8869C0"/>
<stop offset="0.484375" stop-color="#3FC2EA"/>
<stop offset="0.666667" stop-color="#C2FFFF"/>
<stop offset="0.927083" stop-color="white"/>
</linearGradient>
<linearGradient id="paint18_linear_267_2759" x1="585.704" y1="137.969" x2="659.488" y2="138.849" gradientUnits="userSpaceOnUse">
<stop stop-color="#9A9A9C"/>
<stop offset="0.255208" stop-color="#8869C0"/>
<stop offset="0.484375" stop-color="#3FC2EA"/>
<stop offset="0.666667" stop-color="#C2FFFF"/>
<stop offset="0.927083" stop-color="white"/>
</linearGradient>
<linearGradient id="paint19_linear_267_2759" x1="606.587" y1="138" x2="680.795" y2="138.89" gradientUnits="userSpaceOnUse">
<stop stop-color="#9A9A9C"/>
<stop offset="0.255208" stop-color="#8869C0"/>
<stop offset="0.484375" stop-color="#3FC2EA"/>
<stop offset="0.666667" stop-color="#C2FFFF"/>
<stop offset="0.927083" stop-color="white"/>
</linearGradient>
<linearGradient id="paint20_linear_267_2759" x1="627.371" y1="137.969" x2="701.933" y2="138.868" gradientUnits="userSpaceOnUse">
<stop stop-color="#9A9A9C"/>
<stop offset="0.255208" stop-color="#8869C0"/>
<stop offset="0.484375" stop-color="#3FC2EA"/>
<stop offset="0.666667" stop-color="#C2FFFF"/>
<stop offset="0.927083" stop-color="white"/>
</linearGradient>
<linearGradient id="paint21_linear_267_2759" x1="647.951" y1="137.938" x2="723.203" y2="138.854" gradientUnits="userSpaceOnUse">
<stop stop-color="#9A9A9C"/>
<stop offset="0.255208" stop-color="#8869C0"/>
<stop offset="0.484375" stop-color="#3FC2EA"/>
<stop offset="0.666667" stop-color="#C2FFFF"/>
<stop offset="0.927083" stop-color="white"/>
</linearGradient>
<linearGradient id="paint22_linear_267_2759" x1="667.953" y1="138" x2="744.37" y2="138.944" gradientUnits="userSpaceOnUse">
<stop stop-color="#9A9A9C"/>
<stop offset="0.255208" stop-color="#8869C0"/>
<stop offset="0.484375" stop-color="#3FC2EA"/>
<stop offset="0.666667" stop-color="#C2FFFF"/>
<stop offset="0.927083" stop-color="white"/>
</linearGradient>
<linearGradient id="paint23_linear_267_2759" x1="688.528" y1="137.969" x2="765.926" y2="138.937" gradientUnits="userSpaceOnUse">
<stop stop-color="#9A9A9C"/>
<stop offset="0.255208" stop-color="#8869C0"/>
<stop offset="0.484375" stop-color="#3FC2EA"/>
<stop offset="0.666667" stop-color="#C2FFFF"/>
<stop offset="0.927083" stop-color="white"/>
</linearGradient>
<linearGradient id="paint24_linear_267_2759" x1="708.488" y1="137.969" x2="787.436" y2="138.977" gradientUnits="userSpaceOnUse">
<stop stop-color="#9A9A9C"/>
<stop offset="0.255208" stop-color="#8869C0"/>
<stop offset="0.484375" stop-color="#3FC2EA"/>
<stop offset="0.666667" stop-color="#C2FFFF"/>
<stop offset="0.927083" stop-color="white"/>
</linearGradient>
<linearGradient id="paint25_linear_267_2759" x1="728.738" y1="138" x2="809.05" y2="139.042" gradientUnits="userSpaceOnUse">
<stop stop-color="#9A9A9C"/>
<stop offset="0.255208" stop-color="#8869C0"/>
<stop offset="0.484375" stop-color="#3FC2EA"/>
<stop offset="0.666667" stop-color="#C2FFFF"/>
<stop offset="0.927083" stop-color="white"/>
</linearGradient>
<linearGradient id="paint26_linear_267_2759" x1="748.562" y1="138" x2="830.703" y2="139.09" gradientUnits="userSpaceOnUse">
<stop stop-color="#9A9A9C"/>
<stop offset="0.255208" stop-color="#8869C0"/>
<stop offset="0.484375" stop-color="#3FC2EA"/>
<stop offset="0.666667" stop-color="#C2FFFF"/>
<stop offset="0.927083" stop-color="white"/>
</linearGradient>
<linearGradient id="paint27_linear_267_2759" x1="768.646" y1="138" x2="852.448" y2="139.135" gradientUnits="userSpaceOnUse">
<stop stop-color="#9A9A9C"/>
<stop offset="0.255208" stop-color="#8869C0"/>
<stop offset="0.484375" stop-color="#3FC2EA"/>
<stop offset="0.666667" stop-color="#C2FFFF"/>
<stop offset="0.927083" stop-color="white"/>
</linearGradient>
<linearGradient id="paint28_linear_267_2759" x1="788.881" y1="138" x2="874.346" y2="139.18" gradientUnits="userSpaceOnUse">
<stop stop-color="#9A9A9C"/>
<stop offset="0.255208" stop-color="#8869C0"/>
<stop offset="0.484375" stop-color="#3FC2EA"/>
<stop offset="0.666667" stop-color="#C2FFFF"/>
<stop offset="0.927083" stop-color="white"/>
</linearGradient>
<linearGradient id="paint29_linear_267_2759" x1="808.561" y1="137.938" x2="896.355" y2="139.184" gradientUnits="userSpaceOnUse">
<stop stop-color="#9A9A9C"/>
<stop offset="0.255208" stop-color="#8869C0"/>
<stop offset="0.484375" stop-color="#3FC2EA"/>
<stop offset="0.666667" stop-color="#C2FFFF"/>
<stop offset="0.927083" stop-color="white"/>
</linearGradient>
<linearGradient id="paint30_linear_267_2759" x1="828.427" y1="137.969" x2="918.364" y2="139.277" gradientUnits="userSpaceOnUse">
<stop stop-color="#9A9A9C"/>
<stop offset="0.255208" stop-color="#8869C0"/>
<stop offset="0.484375" stop-color="#3FC2EA"/>
<stop offset="0.666667" stop-color="#C2FFFF"/>
<stop offset="0.927083" stop-color="white"/>
</linearGradient>
<linearGradient id="paint31_linear_267_2759" x1="848.137" y1="137.938" x2="940.284" y2="139.311" gradientUnits="userSpaceOnUse">
<stop stop-color="#9A9A9C"/>
<stop offset="0.255208" stop-color="#8869C0"/>
<stop offset="0.484375" stop-color="#3FC2EA"/>
<stop offset="0.666667" stop-color="#C2FFFF"/>
<stop offset="0.927083" stop-color="white"/>
</linearGradient>
<linearGradient id="paint32_linear_267_2759" x1="867.944" y1="137.969" x2="962.493" y2="139.414" gradientUnits="userSpaceOnUse">
<stop stop-color="#9A9A9C"/>
<stop offset="0.255208" stop-color="#8869C0"/>
<stop offset="0.484375" stop-color="#3FC2EA"/>
<stop offset="0.666667" stop-color="#C2FFFF"/>
<stop offset="0.927083" stop-color="white"/>
</linearGradient>
<linearGradient id="paint33_linear_267_2759" x1="887.727" y1="137.938" x2="985.2" y2="139.474" gradientUnits="userSpaceOnUse">
<stop stop-color="#9A9A9C"/>
<stop offset="0.255208" stop-color="#8869C0"/>
<stop offset="0.484375" stop-color="#3FC2EA"/>
<stop offset="0.666667" stop-color="#C2FFFF"/>
<stop offset="0.927083" stop-color="white"/>
</linearGradient>
<linearGradient id="paint34_linear_267_2759" x1="907.489" y1="137.938" x2="1007.59" y2="139.559" gradientUnits="userSpaceOnUse">
<stop stop-color="#9A9A9C"/>
<stop offset="0.255208" stop-color="#8869C0"/>
<stop offset="0.484375" stop-color="#3FC2EA"/>
<stop offset="0.666667" stop-color="#C2FFFF"/>
<stop offset="0.927083" stop-color="white"/>
</linearGradient>
<linearGradient id="paint35_linear_267_2759" x1="927.229" y1="138" x2="1030.21" y2="139.714" gradientUnits="userSpaceOnUse">
<stop stop-color="#9A9A9C"/>
<stop offset="0.255208" stop-color="#8869C0"/>
<stop offset="0.484375" stop-color="#3FC2EA"/>
<stop offset="0.666667" stop-color="#C2FFFF"/>
<stop offset="0.927083" stop-color="white"/>
</linearGradient>
<linearGradient id="paint36_linear_267_2759" x1="946.732" y1="137.938" x2="1053.76" y2="139.791" gradientUnits="userSpaceOnUse">
<stop stop-color="#9A9A9C"/>
<stop offset="0.255208" stop-color="#8869C0"/>
<stop offset="0.484375" stop-color="#3FC2EA"/>
<stop offset="0.666667" stop-color="#C2FFFF"/>
<stop offset="0.927083" stop-color="white"/>
</linearGradient>
</defs>
</svg>
