<svg width="20" height="20" viewBox="0 0 20 20" fill="none" xmlns="http://www.w3.org/2000/svg">
<path d="M13.4916 1.66675H6.50829C3.47496 1.66675 1.66663 3.47508 1.66663 6.50841V13.4834C1.66663 16.5251 3.47496 18.3334 6.50829 18.3334H13.4833C16.5166 18.3334 18.325 16.5251 18.325 13.4917V6.50841C18.3333 3.47508 16.525 1.66675 13.4916 1.66675ZM11.1083 14.1667H8.88329C8.54163 14.1667 8.25829 13.8834 8.25829 13.5417C8.25829 13.2001 8.54163 12.9167 8.88329 12.9167H11.1083C11.45 12.9167 11.7333 13.2001 11.7333 13.5417C11.7333 13.8834 11.4583 14.1667 11.1083 14.1667ZM13.3333 10.6251H6.66663C6.32496 10.6251 6.04163 10.3417 6.04163 10.0001C6.04163 9.65841 6.32496 9.37508 6.66663 9.37508H13.3333C13.675 9.37508 13.9583 9.65841 13.9583 10.0001C13.9583 10.3417 13.675 10.6251 13.3333 10.6251ZM15 7.08341H4.99996C4.65829 7.08341 4.37496 6.80008 4.37496 6.45841C4.37496 6.11675 4.65829 5.83341 4.99996 5.83341H15C15.3416 5.83341 15.625 6.11675 15.625 6.45841C15.625 6.80008 15.3416 7.08341 15 7.08341Z" fill="#6568FF"/>
</svg>
