<svg width="20" height="20" viewBox="0 0 20 20" fill="none" xmlns="http://www.w3.org/2000/svg">
<path d="M9.99996 13.0833V13.175C9.99996 13.4083 9.81663 13.5917 9.58329 13.5917H2.08329C1.84996 13.5917 1.66663 13.4083 1.66663 13.175V13.0833C1.66663 11.6167 2.03329 11.25 3.51663 11.25H8.14996C9.63329 11.25 9.99996 11.6167 9.99996 13.0833Z" fill="#FF7FE3"/>
<path d="M2.08329 14.425C1.84996 14.425 1.66663 14.6084 1.66663 14.8417V15.675V16.5C1.66663 17.9667 2.03329 18.3334 3.51663 18.3334H8.14996C9.63329 18.3334 9.99996 17.9667 9.99996 16.5V15.675V14.8417C9.99996 14.6084 9.81663 14.425 9.58329 14.425H2.08329Z" fill="#FF7FE3"/>
<path d="M18.3333 12.5C18.3333 15.725 15.725 18.3333 12.5 18.3333L13.375 16.875" stroke="#FF7FE3" stroke-width="1.5" stroke-linecap="round" stroke-linejoin="round"/>
<path d="M1.66663 7.50008C1.66663 4.27508 4.27496 1.66675 7.49996 1.66675L6.62496 3.12508" stroke="#FF7FE3" stroke-width="1.5" stroke-linecap="round" stroke-linejoin="round"/>
<path d="M15.4166 9.16675C17.4877 9.16675 19.1666 7.48782 19.1666 5.41675C19.1666 3.34568 17.4877 1.66675 15.4166 1.66675C13.3456 1.66675 11.6666 3.34568 11.6666 5.41675C11.6666 7.48782 13.3456 9.16675 15.4166 9.16675Z" fill="#FF7FE3"/>
</svg>
