<svg width="550" height="122" viewBox="0 0 550 122" fill="none" xmlns="http://www.w3.org/2000/svg">
	<path d="M532.5 17.1177L532.51 17.1267L545.611 28.6399C547.447 30.2537 548.5 32.5801 548.5 35.0248V61V91.5V112C548.5 116.694 544.694 120.5 540 120.5H515.625H481.25H412.5H275H137.5H68.75H38.0892C36.0524 120.5 34.0834 119.769 32.5405 118.439L17.3835 105.378L4.26086 93.3666C2.50178 91.7565 1.5 89.4814 1.5 87.0967V61V30.5V10C1.5 5.30558 5.30558 1.5 10 1.5H34.375H68.75H137.5H275H412.5H481.25H511.803C513.895 1.5 515.914 2.27141 517.472 3.6666L532.5 17.1177Z" fill="#131227"/>
</svg>