<svg width="491" height="59" viewBox="0 0 491 59" fill="none" xmlns="http://www.w3.org/2000/svg">
<path d="M12.1914 9.7759L12.1581 9.79652L12.1237 9.81537L5.91449 13.2187C3.19229 14.7108 1.5 17.5682 1.5 20.6725V29.5V44.25V49C1.5 53.6944 5.3056 57.5 10 57.5H25.153H50.306H390.388H440.694H463.259C464.702 57.5 466.121 57.1328 467.382 56.4329L479.504 49.7083L485.525 45.9212C487.999 44.3655 489.5 41.6482 489.5 38.7261V29.5V14.75V10C489.5 5.30558 485.694 1.5 481 1.5H465.847H440.694H390.388H50.306H27.9943C26.4155 1.5 24.8678 1.93974 23.5249 2.7699L12.1914 9.7759Z" fill="#6B43CB" stroke="#131227" stroke-width="3"/>
</svg>
