<svg width="290" height="167" viewBox="0 0 290 167" fill="none" xmlns="http://www.w3.org/2000/svg">
<mask id="path-1-inside-1_176_452" fill="white">
<path d="M1.35627 3.62101C-0.216133 2.48467 0.587701 0 2.52773 0H112.838H171.559H227.032C229.143 0 231.2 0.668243 232.909 1.909L263.405 24.0593L284.687 38.7682C287.389 40.6354 289.001 43.7103 289.001 46.9946V83.5V125.25V157C289.001 162.523 284.524 167 279.001 167H230.28H171.559H112.838H64.1172C58.5943 167 54.1172 162.523 54.1172 157V125.25V83.5V46.8612C54.1172 43.6512 52.5762 40.6364 49.9745 38.7562L1.35627 3.62101Z"/>
</mask>
<path d="M1.35627 3.62101C-0.216133 2.48467 0.587701 0 2.52773 0H112.838H171.559H227.032C229.143 0 231.2 0.668243 232.909 1.909L263.405 24.0593L284.687 38.7682C287.389 40.6354 289.001 43.7103 289.001 46.9946V83.5V125.25V157C289.001 162.523 284.524 167 279.001 167H230.28H171.559H112.838H64.1172C58.5943 167 54.1172 162.523 54.1172 157V125.25V83.5V46.8612C54.1172 43.6512 52.5762 40.6364 49.9745 38.7562L1.35627 3.62101Z" fill="#6B43CB"/>
<path d="M263.405 24.0593L261.642 26.4866L261.671 26.5073L261.699 26.5272L263.405 24.0593ZM232.909 1.909L234.672 -0.518306L232.909 1.909ZM284.687 38.7682L282.981 41.2361L284.687 38.7682ZM2.52773 3H112.838V-3H2.52773V3ZM112.838 3H171.559V-3H112.838V3ZM57.1172 83.5V46.8612H51.1172V83.5H57.1172ZM51.7317 36.3247L3.11347 1.1895L-0.400923 6.05253L48.2173 41.1877L51.7317 36.3247ZM57.1172 157V125.25H51.1172V157H57.1172ZM57.1172 125.25V83.5H51.1172V125.25H57.1172ZM171.559 164H112.838V170H171.559V164ZM112.838 164H64.1172V170H112.838V164ZM279.001 164H230.28V170H279.001V164ZM230.28 164H171.559V170H230.28V164ZM286.001 83.5V125.25H292.001V83.5H286.001ZM286.001 125.25V157H292.001V125.25H286.001ZM261.699 26.5272L282.981 41.2361L286.393 36.3002L265.111 21.5914L261.699 26.5272ZM286.001 46.9946V83.5H292.001V46.9946H286.001ZM171.559 3H227.032V-3H171.559V3ZM231.146 4.3363L261.642 26.4866L265.168 21.632L234.672 -0.518306L231.146 4.3363ZM227.032 3C228.51 3 229.95 3.46777 231.146 4.3363L234.672 -0.518306C232.451 -2.13128 229.777 -3 227.032 -3V3ZM51.1172 157C51.1172 164.18 56.9375 170 64.1172 170V164C60.2512 164 57.1172 160.866 57.1172 157H51.1172ZM282.981 41.2361C284.873 42.5432 286.001 44.6956 286.001 46.9946H292.001C292.001 42.7251 289.905 38.7277 286.393 36.3002L282.981 41.2361ZM57.1172 46.8612C57.1172 42.6882 55.1139 38.7689 51.7317 36.3247L48.2173 41.1877C50.0385 42.5038 51.1172 44.6142 51.1172 46.8612H57.1172ZM279.001 170C286.181 170 292.001 164.18 292.001 157H286.001C286.001 160.866 282.867 164 279.001 164V170ZM2.52773 -3C-2.32236 -3 -4.33192 3.21169 -0.400923 6.05253L3.11347 1.1895C3.89966 1.75766 3.49776 3 2.52773 3V-3Z" fill="#131227" mask="url(#path-1-inside-1_176_452)"/>
</svg>
