<svg width="57" height="38" viewBox="0 0 57 38" fill="none" xmlns="http://www.w3.org/2000/svg">
<mask id="path-1-inside-1_176_326" fill="white">
<path d="M5.26156 4.45999C3.81558 3.26615 4.65977 0.917725 6.5349 0.917725H23.2569H34.4906H42.1155C44.4477 0.917725 46.7066 1.73288 48.5013 3.22217L52.0612 6.17615L53.155 7.03983C55.5567 8.93625 56.9579 11.828 56.9579 14.8882V19.1675V28.2925C56.9579 33.332 52.8726 37.4174 47.833 37.4174H45.7242H34.4906H23.2569H21.1481C16.1086 37.4174 12.0232 33.332 12.0232 28.2925V19.1675V14.7542C12.0232 11.7705 10.6908 8.94257 8.38994 7.04289L5.26156 4.45999Z"/>
</mask>
<path d="M5.26156 4.45999C3.81558 3.26615 4.65977 0.917725 6.5349 0.917725H23.2569H34.4906H42.1155C44.4477 0.917725 46.7066 1.73288 48.5013 3.22217L52.0612 6.17615L53.155 7.03983C55.5567 8.93625 56.9579 11.828 56.9579 14.8882V19.1675V28.2925C56.9579 33.332 52.8726 37.4174 47.833 37.4174H45.7242H34.4906H23.2569H21.1481C16.1086 37.4174 12.0232 33.332 12.0232 28.2925V19.1675V14.7542C12.0232 11.7705 10.6908 8.94257 8.38994 7.04289L5.26156 4.45999Z" fill="#6B43CB"/>
<path d="M52.0612 6.17615L50.1454 8.48481L50.1735 8.50807L50.2021 8.53064L52.0612 6.17615ZM48.5013 3.22217L50.4171 0.913504L48.5013 3.22217ZM6.5349 3.91772H23.2569V-2.08228H6.5349V3.91772ZM23.2569 3.91772H34.4906V-2.08228H23.2569V3.91772ZM15.0232 19.1675V14.7542H9.02321V19.1675H15.0232ZM10.3 4.72949L7.17158 2.14659L3.35154 6.7734L6.47992 9.35629L10.3 4.72949ZM15.0232 28.2925V19.1675H9.02321V28.2925H15.0232ZM34.4906 34.4174H23.2569V40.4174H34.4906V34.4174ZM23.2569 34.4174H21.1481V40.4174H23.2569V34.4174ZM47.833 34.4174H45.7242V40.4174H47.833V34.4174ZM45.7242 34.4174H34.4906V40.4174H45.7242V34.4174ZM53.9579 19.1675V28.2925H59.9579V19.1675H53.9579ZM50.2021 8.53064L51.2959 9.39433L55.0141 4.68533L53.9203 3.82165L50.2021 8.53064ZM53.9579 14.8882V19.1675H59.9579V14.8882H53.9579ZM34.4906 3.91772H42.1155V-2.08228H34.4906V3.91772ZM46.5856 5.53084L50.1454 8.48481L53.9769 3.86748L50.4171 0.913504L46.5856 5.53084ZM42.1155 3.91772C43.7481 3.91772 45.3293 4.48833 46.5856 5.53084L50.4171 0.913504C48.0839 -1.02258 45.1474 -2.08228 42.1155 -2.08228V3.91772ZM9.02321 28.2925C9.02321 34.9889 14.4517 40.4174 21.1481 40.4174V34.4174C17.7654 34.4174 15.0232 31.6751 15.0232 28.2925H9.02321ZM51.2959 9.39433C52.9771 10.7218 53.9579 12.746 53.9579 14.8882H59.9579C59.9579 10.9099 58.1364 7.15068 55.0141 4.68533L51.2959 9.39433ZM15.0232 14.7542C15.0232 10.8753 13.2911 7.19907 10.3 4.72949L6.47992 9.35629C8.09054 10.6861 9.02321 12.6656 9.02321 14.7542H15.0232ZM47.833 40.4174C54.5294 40.4174 59.9579 34.9889 59.9579 28.2925H53.9579C53.9579 31.6751 51.2157 34.4174 47.833 34.4174V40.4174ZM6.5349 -2.08228C1.84705 -2.08228 -0.263398 3.78878 3.35154 6.7734L7.17158 2.14659C7.89456 2.74351 7.47249 3.91772 6.5349 3.91772V-2.08228Z" fill="#33325E" mask="url(#path-1-inside-1_176_326)"/>
<path d="M44.0224 24.4992C44.0224 24.7625 43.9098 25.0234 43.6916 25.2055C43.302 25.5301 42.7225 25.4776 42.398 25.0879L34.9377 16.1353L27.4774 25.0879C27.1528 25.4776 26.5734 25.5301 26.1833 25.2055C25.7936 24.8804 25.7403 24.3021 26.0657 23.9114L34.2316 14.1118C34.406 13.9018 34.6647 13.7809 34.937 13.7809C35.2096 13.7809 35.468 13.9015 35.6425 14.1118L43.8084 23.9114C43.9525 24.0837 44.0222 24.2926 44.0222 24.4995L44.0224 24.4992Z" fill="#C9D2FF"/>
</svg>
