<svg width="49" height="38" viewBox="0 0 49 38" fill="none" xmlns="http://www.w3.org/2000/svg">
<path d="M42.373 7.38441L42.3586 7.37381L42.3444 7.36286L38.2404 4.19159C36.752 3.04145 34.9241 2.41751 33.0431 2.41751H24.3931H12.3297H9.39117C5.18005 2.41751 1.76627 5.8313 1.76627 10.0424V19.1673V23.2329C1.76627 25.9367 3.05262 28.4792 5.23095 30.0809L6.41327 30.9502L6.4277 30.9609L6.44186 30.9718L10.5459 34.1431C12.0343 35.2932 13.8622 35.9171 15.7432 35.9171H24.3931H36.4566H39.3951C43.6062 35.9171 47.02 32.5034 47.02 28.2922V19.1673V15.1018C47.02 12.398 45.7337 9.85548 43.5553 8.25377L42.373 7.38441Z" fill="#6B43CB" stroke="#33325E" stroke-width="3"/>
<path d="M33.7458 15.6403C33.7458 15.3771 33.6332 15.1162 33.415 14.9342C33.0254 14.6097 32.4461 14.6621 32.1217 15.0517L24.6624 24.0031L17.2032 15.0517C16.8787 14.6621 16.2994 14.6097 15.9093 14.9342C15.5197 15.2592 15.4664 15.8374 15.7917 16.2281L23.9564 26.0263C24.1309 26.2362 24.3895 26.3571 24.6618 26.3571C24.9343 26.3571 25.1927 26.2365 25.3671 26.0263L33.5318 16.2281C33.6759 16.0559 33.7456 15.847 33.7456 15.64L33.7458 15.6403Z" fill="#C9D2FF"/>
</svg>
