<svg width="111" height="111" viewBox="0 0 111 111" fill="none" xmlns="http://www.w3.org/2000/svg">
<g filter="url(#filter0_f_1457_16694)">
<circle cx="55.5" cy="55.5" r="23.5" fill="#6568FF" fill-opacity="0.35"/>
</g>
<rect x="31.9841" y="12.9841" width="50.0317" height="50.0317" rx="6.09524" fill="#272A6A" stroke="#6568FF" stroke-width="2.03175"/>
<path d="M33 27.46L34.3379 28.6306C34.7788 29.0164 35.0317 29.5738 35.0317 30.1597V45.8396C35.0317 46.4255 34.7788 46.9828 34.3379 47.3687L33 48.5393V27.46Z" fill="#6568FF"/>
<path d="M81 48.54L79.6621 47.3694C79.2212 46.9836 78.9683 46.4262 78.9683 45.8403L78.9683 30.1604C78.9683 29.5745 79.2212 29.0172 79.6621 28.6313L81 27.4607L81 48.54Z" fill="#6568FF"/>
<path d="M62.8125 30.1504H51.1875C47.5 30.1504 44.5 33.1504 44.5 36.8379V43.8129C44.5 47.5004 47.5 50.5004 51.1875 50.5004H62.8125C66.5 50.5004 69.5 47.5004 69.5 43.8129V36.8379C69.5 33.1504 66.5 30.1504 62.8125 30.1504ZM60.125 38.0254C60.125 37.3379 60.6875 36.7754 61.375 36.7754C62.0625 36.7754 62.625 37.3379 62.625 38.0254C62.625 38.7129 62.0625 39.2879 61.375 39.2879C60.6875 39.2879 60.125 38.7379 60.125 38.0504V38.0254ZM54.6625 43.0879C54.475 43.2754 54.2375 43.3629 54 43.3629C53.7625 43.3629 53.525 43.2754 53.3375 43.0879L52.05 41.8004L50.8125 43.0379C50.625 43.2254 50.3875 43.3129 50.15 43.3129C49.9125 43.3129 49.675 43.2254 49.4875 43.0379C49.125 42.6754 49.125 42.0754 49.4875 41.7129L50.725 40.4754L49.525 39.2754C49.1625 38.9129 49.1625 38.3129 49.525 37.9504C49.8875 37.5879 50.4875 37.5879 50.85 37.9504L52.05 39.1504L53.2875 37.9129C53.65 37.5504 54.25 37.5504 54.6125 37.9129C54.975 38.2754 54.975 38.8754 54.6125 39.2379L53.375 40.4754L54.6625 41.7629C55.025 42.1254 55.025 42.7254 54.6625 43.0879ZM58.925 41.7504C58.2375 41.7504 57.6625 41.1879 57.6625 40.5004C57.6625 39.8129 58.2125 39.2504 58.9 39.2504H58.925C59.6125 39.2504 60.175 39.8129 60.175 40.5004C60.175 41.1879 59.625 41.7504 58.925 41.7504ZM61.375 44.2129C60.6875 44.2129 60.125 43.6629 60.125 42.9754V42.9504C60.125 42.2629 60.6875 41.7004 61.375 41.7004C62.0625 41.7004 62.625 42.2629 62.625 42.9504C62.625 43.6379 62.075 44.2129 61.375 44.2129ZM63.85 41.7504C63.1625 41.7504 62.5875 41.1879 62.5875 40.5004C62.5875 39.8129 63.1375 39.2504 63.825 39.2504H63.85C64.5375 39.2504 65.1 39.8129 65.1 40.5004C65.1 41.1879 64.55 41.7504 63.85 41.7504Z" fill="#6568FF"/>
<path d="M59.0492 26.3875L59.0367 27.5625C59.0242 28.6625 58.1117 29.575 56.9992 29.575C56.8117 29.575 56.6992 29.7 56.6992 29.8625C56.6992 30.025 56.8242 30.15 56.9867 30.15H54.9742C54.9617 30.0625 54.9492 29.9625 54.9492 29.8625C54.9492 28.7375 55.8617 27.825 56.9742 27.825C57.1617 27.825 57.2867 27.7 57.2867 27.5375L57.2992 26.3625C57.3117 25.8875 57.6992 25.5 58.1742 25.5H58.1867C58.6742 25.5 59.0492 25.9 59.0492 26.3875Z" fill="#6568FF"/>
<defs>
<filter id="filter0_f_1457_16694" x="0" y="0" width="111" height="111" filterUnits="userSpaceOnUse" color-interpolation-filters="sRGB">
<feFlood flood-opacity="0" result="BackgroundImageFix"/>
<feBlend mode="normal" in="SourceGraphic" in2="BackgroundImageFix" result="shape"/>
<feGaussianBlur stdDeviation="16" result="effect1_foregroundBlur_1457_16694"/>
</filter>
</defs>
</svg>
