<svg width="1020" height="240" viewBox="0 0 1020 240" fill="none" xmlns="http://www.w3.org/2000/svg">
<g filter="url(#filter0_bd_1457_16922)">
<rect x="68" y="49" width="884" height="244" rx="10" fill="#222224" fill-opacity="0.3" shape-rendering="crispEdges"/>
<rect x="68.3693" y="49.3693" width="883.261" height="243.261" rx="9.63068" stroke="url(#paint0_linear_1457_16922)" stroke-width="0.738636" shape-rendering="crispEdges"/>
</g>
<rect x="87" y="80" width="841" height="28" rx="5" fill="url(#paint1_radial_1457_16922)"/>
<rect x="87" y="80" width="841" height="28" rx="5" fill="white" fill-opacity="0.05"/>
<path opacity="0.7" d="M105.912 99H107.052V95.568H109.212L111.156 99H112.476L110.388 95.364C111.504 94.98 112.176 94.056 112.176 92.82C112.176 91.14 110.928 90.06 109.104 90.06H105.912V99ZM107.052 94.572V91.056H109.104C110.244 91.056 111 91.764 111 92.808C111 93.864 110.244 94.572 109.104 94.572H107.052ZM115.974 92.496C114.798 92.496 113.766 93.168 113.406 94.032L114.33 94.512C114.606 93.888 115.206 93.48 115.974 93.48C116.814 93.48 117.414 93.96 117.414 94.692V94.872L115.206 95.364C113.922 95.652 113.166 96.3 113.166 97.236C113.166 98.352 114.078 99.144 115.434 99.144C116.25 99.144 117.006 98.748 117.438 98.112V99H118.446V94.692C118.446 93.396 117.426 92.496 115.974 92.496ZM115.494 98.22C114.738 98.22 114.258 97.836 114.258 97.236C114.258 96.72 114.726 96.324 115.446 96.168L117.414 95.712V96.264C117.414 97.38 116.61 98.22 115.494 98.22ZM122.64 92.496C121.86 92.496 121.176 92.82 120.804 93.372V92.64H119.796V99H120.828V95.148C120.828 94.152 121.464 93.492 122.412 93.492C123.372 93.492 123.984 94.14 123.984 95.148V99H125.016V94.812C125.016 93.48 124.02 92.496 122.64 92.496ZM131.672 92.64H130.436L127.508 95.76V90.06H126.476V99H127.508V97.164L128.636 95.952L130.484 99H131.672L129.32 95.184L131.672 92.64Z" fill="white"/>
<path opacity="0.7" d="M223.912 99H225.052V95.568H227.104C228.94 95.568 230.176 94.488 230.176 92.82C230.176 91.14 228.928 90.06 227.104 90.06H223.912V99ZM225.052 94.572V91.056H227.104C228.244 91.056 229 91.764 229 92.808C229 93.864 228.244 94.572 227.104 94.572H225.052ZM231.456 99H232.488V90.06H231.456V99ZM236.517 92.496C235.341 92.496 234.309 93.168 233.949 94.032L234.873 94.512C235.149 93.888 235.749 93.48 236.517 93.48C237.357 93.48 237.957 93.96 237.957 94.692V94.872L235.749 95.364C234.465 95.652 233.709 96.3 233.709 97.236C233.709 98.352 234.621 99.144 235.977 99.144C236.793 99.144 237.549 98.748 237.981 98.112V99H238.989V94.692C238.989 93.396 237.969 92.496 236.517 92.496ZM236.037 98.22C235.281 98.22 234.801 97.836 234.801 97.236C234.801 96.72 235.269 96.324 235.989 96.168L237.957 95.712V96.264C237.957 97.38 237.153 98.22 236.037 98.22ZM244.827 92.628L242.871 97.548L240.915 92.628H239.739L242.283 98.94L242.007 99.6C241.815 100.044 241.575 100.62 240.639 100.62C240.387 100.62 240.099 100.584 239.979 100.548V101.472C240.219 101.568 240.531 101.604 240.819 101.604C242.307 101.604 242.763 100.596 243.087 99.792L246.027 92.628H244.827ZM252.59 95.544C252.59 93.924 251.438 92.496 249.626 92.496C247.85 92.496 246.53 93.888 246.53 95.808C246.53 97.728 247.886 99.144 249.71 99.144C251.018 99.144 252.05 98.436 252.446 97.56L251.546 97.08C251.21 97.728 250.622 98.208 249.722 98.208C248.606 98.208 247.658 97.392 247.61 96.132H252.542C252.578 95.928 252.59 95.724 252.59 95.544ZM247.634 95.244C247.778 94.092 248.63 93.408 249.626 93.408C250.562 93.408 251.438 94.188 251.45 95.244H247.634ZM256.41 92.568C255.642 92.568 255.03 92.844 254.694 93.432V92.64H253.698V99H254.73V95.208C254.73 94.152 255.342 93.552 256.254 93.552H256.926V92.568H256.41Z" fill="white"/>
<path opacity="0.7" d="M160.912 99H162.052V95.064H166.432V94.068H162.052V91.056H166.744V90.06H160.912V99ZM169.931 92.496C168.755 92.496 167.723 93.168 167.363 94.032L168.287 94.512C168.563 93.888 169.163 93.48 169.931 93.48C170.771 93.48 171.371 93.96 171.371 94.692V94.872L169.163 95.364C167.879 95.652 167.123 96.3 167.123 97.236C167.123 98.352 168.035 99.144 169.391 99.144C170.207 99.144 170.963 98.748 171.395 98.112V99H172.403V94.692C172.403 93.396 171.383 92.496 169.931 92.496ZM169.451 98.22C168.695 98.22 168.215 97.836 168.215 97.236C168.215 96.72 168.683 96.324 169.403 96.168L171.371 95.712V96.264C171.371 97.38 170.567 98.22 169.451 98.22ZM176.573 99.144C177.809 99.144 178.877 98.4 179.273 97.464L178.349 96.984C178.037 97.68 177.401 98.148 176.573 98.148C175.373 98.148 174.485 97.14 174.485 95.82C174.485 94.476 175.373 93.492 176.573 93.492C177.401 93.492 178.037 93.96 178.349 94.656L179.273 94.176C178.877 93.228 177.821 92.496 176.573 92.496C174.749 92.496 173.393 93.9 173.393 95.808C173.393 97.716 174.749 99.144 176.573 99.144ZM183.038 99.072C183.218 99.072 183.47 99.06 183.674 99.012V98.172C183.542 98.196 183.362 98.208 183.23 98.208C182.138 98.208 182.066 97.464 182.066 97.056V93.624H183.602V92.64H182.066V90.576H181.034V91.704C181.034 92.268 180.674 92.64 180.122 92.64H179.798V93.624H181.034V97.056C181.034 98.34 181.754 99.072 183.038 99.072ZM184.801 91.464H185.833V90.06H184.801V91.464ZM184.801 99H185.833V92.64H184.801V99ZM190.239 99.144C192.075 99.144 193.515 97.74 193.515 95.808C193.515 93.876 192.087 92.496 190.239 92.496C188.391 92.496 186.963 93.876 186.963 95.808C186.963 97.74 188.403 99.144 190.239 99.144ZM190.239 98.148C189.003 98.148 188.055 97.152 188.055 95.82C188.055 94.488 189.003 93.492 190.239 93.492C191.475 93.492 192.423 94.488 192.423 95.82C192.423 97.152 191.475 98.148 190.239 98.148ZM197.585 92.496C196.805 92.496 196.121 92.82 195.749 93.372V92.64H194.741V99H195.773V95.148C195.773 94.152 196.409 93.492 197.357 93.492C198.317 93.492 198.929 94.14 198.929 95.148V99H199.961V94.812C199.961 93.48 198.965 92.496 197.585 92.496Z" fill="white"/>
<path opacity="0.7" d="M427.912 99H429.052V95.568H431.212L433.156 99H434.476L432.388 95.364C433.504 94.98 434.176 94.056 434.176 92.82C434.176 91.14 432.928 90.06 431.104 90.06H427.912V99ZM429.052 94.572V91.056H431.104C432.244 91.056 433 91.764 433 92.808C433 93.864 432.244 94.572 431.104 94.572H429.052ZM438.313 99.144C440.149 99.144 441.589 97.74 441.589 95.808C441.589 93.876 440.161 92.496 438.313 92.496C436.465 92.496 435.037 93.876 435.037 95.808C435.037 97.74 436.477 99.144 438.313 99.144ZM438.313 98.148C437.077 98.148 436.129 97.152 436.129 95.82C436.129 94.488 437.077 93.492 438.313 93.492C439.549 93.492 440.497 94.488 440.497 95.82C440.497 97.152 439.549 98.148 438.313 98.148ZM442.815 99H443.847V90.06H442.815V99ZM451.129 95.544C451.129 93.924 449.977 92.496 448.165 92.496C446.389 92.496 445.069 93.888 445.069 95.808C445.069 97.728 446.425 99.144 448.249 99.144C449.557 99.144 450.589 98.436 450.985 97.56L450.085 97.08C449.749 97.728 449.161 98.208 448.261 98.208C447.145 98.208 446.197 97.392 446.149 96.132H451.081C451.117 95.928 451.129 95.724 451.129 95.544ZM446.173 95.244C446.317 94.092 447.169 93.408 448.165 93.408C449.101 93.408 449.977 94.188 449.989 95.244H446.173Z" fill="white"/>
<path opacity="0.7" d="M643.032 99.144C644.82 99.144 646.044 98.136 646.044 96.66C646.044 95.46 645.312 94.704 643.848 94.26L642.252 93.78C641.376 93.528 640.908 93 640.908 92.316C640.908 91.476 641.616 90.912 642.696 90.912C643.788 90.912 644.604 91.488 644.976 92.544L645.972 92.076C645.564 90.888 644.328 89.916 642.684 89.916C640.968 89.916 639.768 90.936 639.768 92.388C639.768 93.492 640.488 94.392 641.916 94.812L643.584 95.316C644.472 95.58 644.904 95.988 644.904 96.744C644.904 97.572 644.16 98.148 643.032 98.148C641.844 98.148 640.92 97.5 640.5 96.276L639.492 96.72C639.924 98.076 641.28 99.144 643.032 99.144ZM650.206 99.144C651.442 99.144 652.51 98.4 652.906 97.464L651.982 96.984C651.67 97.68 651.034 98.148 650.206 98.148C649.006 98.148 648.118 97.14 648.118 95.82C648.118 94.476 649.006 93.492 650.206 93.492C651.034 93.492 651.67 93.96 651.982 94.656L652.906 94.176C652.51 93.228 651.454 92.496 650.206 92.496C648.382 92.496 647.026 93.9 647.026 95.808C647.026 97.716 648.382 99.144 650.206 99.144ZM656.923 99.144C658.759 99.144 660.199 97.74 660.199 95.808C660.199 93.876 658.771 92.496 656.923 92.496C655.075 92.496 653.647 93.876 653.647 95.808C653.647 97.74 655.087 99.144 656.923 99.144ZM656.923 98.148C655.687 98.148 654.739 97.152 654.739 95.82C654.739 94.488 655.687 93.492 656.923 93.492C658.159 93.492 659.107 94.488 659.107 95.82C659.107 97.152 658.159 98.148 656.923 98.148ZM664.137 92.568C663.369 92.568 662.757 92.844 662.421 93.432V92.64H661.425V99H662.457V95.208C662.457 94.152 663.069 93.552 663.981 93.552H664.653V92.568H664.137ZM671.461 95.544C671.461 93.924 670.309 92.496 668.497 92.496C666.721 92.496 665.401 93.888 665.401 95.808C665.401 97.728 666.757 99.144 668.581 99.144C669.889 99.144 670.921 98.436 671.317 97.56L670.417 97.08C670.081 97.728 669.493 98.208 668.593 98.208C667.477 98.208 666.529 97.392 666.481 96.132H671.413C671.449 95.928 671.461 95.724 671.461 95.544ZM666.505 95.244C666.649 94.092 667.501 93.408 668.497 93.408C669.433 93.408 670.309 94.188 670.321 95.244H666.505Z" fill="white"/>
<path opacity="0.7" d="M729.912 99H731.052V95.568H733.104C734.94 95.568 736.176 94.488 736.176 92.82C736.176 91.14 734.928 90.06 733.104 90.06H729.912V99ZM731.052 94.572V91.056H733.104C734.244 91.056 735 91.764 735 92.808C735 93.864 734.244 94.572 733.104 94.572H731.052ZM740.138 99.144C741.974 99.144 743.414 97.74 743.414 95.808C743.414 93.876 741.986 92.496 740.138 92.496C738.29 92.496 736.862 93.876 736.862 95.808C736.862 97.74 738.302 99.144 740.138 99.144ZM740.138 98.148C738.902 98.148 737.954 97.152 737.954 95.82C737.954 94.488 738.902 93.492 740.138 93.492C741.374 93.492 742.322 94.488 742.322 95.82C742.322 97.152 741.374 98.148 740.138 98.148ZM744.544 91.464H745.576V90.06H744.544V91.464ZM744.544 99H745.576V92.64H744.544V99ZM749.909 92.496C749.129 92.496 748.445 92.82 748.073 93.372V92.64H747.065V99H748.097V95.148C748.097 94.152 748.733 93.492 749.681 93.492C750.641 93.492 751.253 94.14 751.253 95.148V99H752.285V94.812C752.285 93.48 751.289 92.496 749.909 92.496ZM756.409 99.072C756.589 99.072 756.841 99.06 757.045 99.012V98.172C756.913 98.196 756.733 98.208 756.601 98.208C755.509 98.208 755.437 97.464 755.437 97.056V93.624H756.973V92.64H755.437V90.576H754.405V91.704C754.405 92.268 754.045 92.64 753.493 92.64H753.169V93.624H754.405V97.056C754.405 98.34 755.125 99.072 756.409 99.072ZM760.489 99.144C761.857 99.144 762.805 98.388 762.805 97.284C762.805 96.432 762.229 95.808 761.161 95.496L760.081 95.172C759.529 95.004 759.169 94.716 759.169 94.284C759.169 93.78 759.625 93.444 760.309 93.444C761.065 93.444 761.665 93.84 761.929 94.524L762.793 94.104C762.421 93.108 761.485 92.496 760.309 92.496C758.989 92.496 758.101 93.24 758.101 94.344C758.101 95.208 758.653 95.82 759.721 96.12L760.765 96.408C761.353 96.576 761.737 96.828 761.737 97.284C761.737 97.812 761.233 98.196 760.489 98.196C759.697 98.196 759.013 97.776 758.689 96.972L757.813 97.404C758.221 98.484 759.241 99.144 760.489 99.144Z" fill="white"/>
<path opacity="0.7" d="M805.8 90.06H804.492L801.252 99H802.452L803.196 96.864H807.096L807.84 99H809.04L805.8 90.06ZM803.544 95.868L805.152 91.296L806.748 95.868H803.544ZM817.442 92.64L815.894 97.452L814.43 92.64H813.302L811.838 97.476L810.29 92.64H809.126L811.346 99H812.318L813.878 94.056L815.426 99H816.386L818.606 92.64H817.442ZM821.806 92.496C820.63 92.496 819.598 93.168 819.238 94.032L820.162 94.512C820.438 93.888 821.038 93.48 821.806 93.48C822.646 93.48 823.246 93.96 823.246 94.692V94.872L821.038 95.364C819.754 95.652 818.998 96.3 818.998 97.236C818.998 98.352 819.91 99.144 821.266 99.144C822.082 99.144 822.838 98.748 823.27 98.112V99H824.278V94.692C824.278 93.396 823.258 92.496 821.806 92.496ZM821.326 98.22C820.57 98.22 820.09 97.836 820.09 97.236C820.09 96.72 820.558 96.324 821.278 96.168L823.246 95.712V96.264C823.246 97.38 822.442 98.22 821.326 98.22ZM828.34 92.568C827.572 92.568 826.96 92.844 826.624 93.432V92.64H825.628V99H826.66V95.208C826.66 94.152 827.272 93.552 828.184 93.552H828.856V92.568H828.34ZM835.076 90.06V93.576C834.62 92.904 833.768 92.496 832.808 92.496C831.02 92.496 829.604 93.9 829.604 95.82C829.604 97.74 831.008 99.144 832.82 99.144C833.78 99.144 834.632 98.76 835.1 98.076V99H836.108V90.06H835.076ZM832.88 98.148C831.62 98.148 830.696 97.164 830.696 95.82C830.696 94.488 831.62 93.492 832.88 93.492C834.14 93.492 835.076 94.488 835.076 95.82C835.076 97.164 834.14 98.148 832.88 98.148ZM839.907 99.144C841.275 99.144 842.223 98.388 842.223 97.284C842.223 96.432 841.647 95.808 840.579 95.496L839.499 95.172C838.947 95.004 838.587 94.716 838.587 94.284C838.587 93.78 839.043 93.444 839.727 93.444C840.483 93.444 841.083 93.84 841.347 94.524L842.211 94.104C841.839 93.108 840.903 92.496 839.727 92.496C838.407 92.496 837.519 93.24 837.519 94.344C837.519 95.208 838.071 95.82 839.139 96.12L840.183 96.408C840.771 96.576 841.155 96.828 841.155 97.284C841.155 97.812 840.651 98.196 839.907 98.196C839.115 98.196 838.431 97.776 838.107 96.972L837.231 97.404C837.639 98.484 838.659 99.144 839.907 99.144Z" fill="white"/>
<path opacity="0.7" d="M536.436 88.57L532.852 93.68L529.268 88.57H528.064V99H529.394V91.006L532.796 95.892H532.908L536.31 91.062V99H537.64V88.57H536.436ZM546.277 94.968C546.277 93.078 544.933 91.412 542.819 91.412C540.747 91.412 539.207 93.036 539.207 95.276C539.207 97.516 540.789 99.168 542.917 99.168C544.443 99.168 545.647 98.342 546.109 97.32L545.059 96.76C544.667 97.516 543.981 98.076 542.931 98.076C541.629 98.076 540.523 97.124 540.467 95.654H546.221C546.263 95.416 546.277 95.178 546.277 94.968ZM540.495 94.618C540.663 93.274 541.657 92.476 542.819 92.476C543.911 92.476 544.933 93.386 544.947 94.618H540.495ZM555.508 91.412C554.472 91.412 553.604 91.888 553.128 92.728C552.68 91.916 551.826 91.412 550.804 91.412C549.922 91.412 549.166 91.79 548.746 92.434V91.58H547.57V99H548.774V94.506C548.774 93.33 549.474 92.574 550.524 92.574C551.588 92.574 552.274 93.316 552.274 94.506V99H553.478V94.506C553.478 93.33 554.178 92.574 555.228 92.574C556.292 92.574 556.978 93.316 556.978 94.506V99H558.182V94.114C558.182 92.546 557.048 91.412 555.508 91.412ZM563.739 91.412C562.605 91.412 561.611 91.888 561.093 92.672V88.57H559.889V99H561.065V97.922C561.611 98.72 562.619 99.168 563.725 99.168C565.825 99.168 567.477 97.53 567.477 95.29C567.477 93.05 565.825 91.412 563.739 91.412ZM563.655 98.006C562.185 98.006 561.093 96.858 561.093 95.29C561.093 93.736 562.185 92.574 563.655 92.574C565.111 92.574 566.203 93.736 566.203 95.29C566.203 96.858 565.111 98.006 563.655 98.006ZM575.549 94.968C575.549 93.078 574.205 91.412 572.091 91.412C570.019 91.412 568.479 93.036 568.479 95.276C568.479 97.516 570.061 99.168 572.189 99.168C573.715 99.168 574.919 98.342 575.381 97.32L574.331 96.76C573.939 97.516 573.253 98.076 572.203 98.076C570.901 98.076 569.795 97.124 569.739 95.654H575.493C575.535 95.416 575.549 95.178 575.549 94.968ZM569.767 94.618C569.935 93.274 570.929 92.476 572.091 92.476C573.183 92.476 574.205 93.386 574.219 94.618H569.767ZM580.006 91.496C579.11 91.496 578.396 91.818 578.004 92.504V91.58H576.842V99H578.046V94.576C578.046 93.344 578.76 92.644 579.824 92.644H580.608V91.496H580.006ZM584.491 99.168C586.087 99.168 587.193 98.286 587.193 96.998C587.193 96.004 586.521 95.276 585.275 94.912L584.015 94.534C583.371 94.338 582.951 94.002 582.951 93.498C582.951 92.91 583.483 92.518 584.281 92.518C585.163 92.518 585.863 92.98 586.171 93.778L587.179 93.288C586.745 92.126 585.653 91.412 584.281 91.412C582.741 91.412 581.705 92.28 581.705 93.568C581.705 94.576 582.349 95.29 583.595 95.64L584.813 95.976C585.499 96.172 585.947 96.466 585.947 96.998C585.947 97.614 585.359 98.062 584.491 98.062C583.567 98.062 582.769 97.572 582.391 96.634L581.369 97.138C581.845 98.398 583.035 99.168 584.491 99.168Z" fill="white"/>
<g filter="url(#filter1_d_1457_16922)">
<path d="M116.657 149H118.827V138.57L114.697 138.584V140.404H116.657V149Z" fill="white"/>
</g>
<circle cx="118" cy="144" r="13" stroke="url(#paint2_linear_1457_16922)" stroke-width="2" stroke-linecap="round"/>
<rect x="217" y="126" width="36" height="36" rx="18" fill="url(#paint3_radial_1457_16922)"/>
<rect x="217" y="126" width="36" height="36" rx="18" fill="white" fill-opacity="0.05"/>
<rect x="157" y="126" width="36" height="36" rx="18" fill="url(#paint4_radial_1457_16922)"/>
<rect x="157" y="126" width="36" height="36" rx="18" fill="white" fill-opacity="0.05"/>
<rect x="157" y="181" width="36" height="36" rx="18" fill="url(#paint5_radial_1457_16922)"/>
<rect x="157" y="181" width="36" height="36" rx="18" fill="white" fill-opacity="0.05"/>
<rect x="273.01" y="136" width="132.693" height="15" rx="2" transform="rotate(0.0387057 273.01 136)" fill="url(#paint6_radial_1457_16922)"/>
<rect x="273.01" y="136" width="132.693" height="15" rx="2" transform="rotate(0.0387057 273.01 136)" fill="white" fill-opacity="0.05"/>
<rect x="640" y="137" width="67" height="15" rx="2" fill="url(#paint7_radial_1457_16922)"/>
<rect x="640" y="137" width="67" height="15" rx="2" fill="white" fill-opacity="0.05"/>
<rect x="730" y="138" width="34" height="15" rx="2" fill="url(#paint8_radial_1457_16922)"/>
<rect x="730" y="138" width="34" height="15" rx="2" fill="white" fill-opacity="0.05"/>
<rect x="427" y="136" width="67" height="15" rx="2" fill="url(#paint9_radial_1457_16922)"/>
<rect x="427" y="136" width="67" height="15" rx="2" fill="white" fill-opacity="0.05"/>
<g filter="url(#filter2_d_1457_16922)">
<path d="M113.858 203H120.942V201.18H116.532L118.954 198.688C120.2 197.414 120.816 196.462 120.816 195.328C120.816 193.578 119.472 192.402 117.484 192.402C115.748 192.402 114.362 193.284 113.886 194.684L115.594 195.664C115.874 194.852 116.532 194.362 117.344 194.362C118.142 194.362 118.646 194.838 118.646 195.594C118.646 196.252 118.282 196.742 116.644 198.436L113.844 201.32L113.858 203Z" fill="white"/>
</g>
<circle cx="118" cy="198" r="13" stroke="url(#paint10_linear_1457_16922)" stroke-width="2" stroke-linecap="round"/>
<rect x="217" y="180" width="36" height="36" rx="18" fill="url(#paint11_radial_1457_16922)"/>
<rect x="217" y="180" width="36" height="36" rx="18" fill="white" fill-opacity="0.05"/>
<rect x="273.01" y="190" width="133.294" height="15" rx="2" transform="rotate(0.0387057 273.01 190)" fill="url(#paint12_radial_1457_16922)"/>
<rect x="273.01" y="190" width="133.294" height="15" rx="2" transform="rotate(0.0387057 273.01 190)" fill="white" fill-opacity="0.05"/>
<rect x="640" y="191" width="67" height="15" rx="2" fill="url(#paint13_radial_1457_16922)"/>
<rect x="640" y="191" width="67" height="15" rx="2" fill="white" fill-opacity="0.05"/>
<rect x="730" y="192" width="34" height="15" rx="2" fill="url(#paint14_radial_1457_16922)"/>
<rect x="730" y="192" width="34" height="15" rx="2" fill="white" fill-opacity="0.05"/>
<rect x="427" y="190" width="67" height="15" rx="2" fill="url(#paint15_radial_1457_16922)"/>
<rect x="427" y="190" width="67" height="15" rx="2" fill="white" fill-opacity="0.05"/>
<defs>
<filter id="filter0_bd_1457_16922" x="-358" y="-377" width="1736" height="1096" filterUnits="userSpaceOnUse" color-interpolation-filters="sRGB">
<feFlood flood-opacity="0" result="BackgroundImageFix"/>
<feGaussianBlur in="BackgroundImageFix" stdDeviation="213"/>
<feComposite in2="SourceAlpha" operator="in" result="effect1_backgroundBlur_1457_16922"/>
<feColorMatrix in="SourceAlpha" type="matrix" values="0 0 0 0 0 0 0 0 0 0 0 0 0 0 0 0 0 0 127 0" result="hardAlpha"/>
<feOffset dy="19"/>
<feGaussianBlur stdDeviation="34"/>
<feComposite in2="hardAlpha" operator="out"/>
<feColorMatrix type="matrix" values="0 0 0 0 0.081125 0 0 0 0 0.081125 0 0 0 0 0.0916667 0 0 0 1 0"/>
<feBlend mode="normal" in2="effect1_backgroundBlur_1457_16922" result="effect2_dropShadow_1457_16922"/>
<feBlend mode="normal" in="SourceGraphic" in2="effect2_dropShadow_1457_16922" result="shape"/>
</filter>
<filter id="filter1_d_1457_16922" x="110.697" y="134.57" width="12.1289" height="18.4297" filterUnits="userSpaceOnUse" color-interpolation-filters="sRGB">
<feFlood flood-opacity="0" result="BackgroundImageFix"/>
<feColorMatrix in="SourceAlpha" type="matrix" values="0 0 0 0 0 0 0 0 0 0 0 0 0 0 0 0 0 0 127 0" result="hardAlpha"/>
<feOffset/>
<feGaussianBlur stdDeviation="2"/>
<feComposite in2="hardAlpha" operator="out"/>
<feColorMatrix type="matrix" values="0 0 0 0 0.227451 0 0 0 0 0.721569 0 0 0 0 1 0 0 0 1 0"/>
<feBlend mode="normal" in2="BackgroundImageFix" result="effect1_dropShadow_1457_16922"/>
<feBlend mode="normal" in="SourceGraphic" in2="effect1_dropShadow_1457_16922" result="shape"/>
</filter>
<filter id="filter2_d_1457_16922" x="109.844" y="188.402" width="15.0977" height="18.5977" filterUnits="userSpaceOnUse" color-interpolation-filters="sRGB">
<feFlood flood-opacity="0" result="BackgroundImageFix"/>
<feColorMatrix in="SourceAlpha" type="matrix" values="0 0 0 0 0 0 0 0 0 0 0 0 0 0 0 0 0 0 127 0" result="hardAlpha"/>
<feOffset/>
<feGaussianBlur stdDeviation="2"/>
<feComposite in2="hardAlpha" operator="out"/>
<feColorMatrix type="matrix" values="0 0 0 0 0.227451 0 0 0 0 0.721569 0 0 0 0 1 0 0 0 1 0"/>
<feBlend mode="normal" in2="BackgroundImageFix" result="effect1_dropShadow_1457_16922"/>
<feBlend mode="normal" in="SourceGraphic" in2="effect1_dropShadow_1457_16922" result="shape"/>
</filter>
<linearGradient id="paint0_linear_1457_16922" x1="510" y1="49" x2="510" y2="293" gradientUnits="userSpaceOnUse">
<stop stop-color="white" stop-opacity="0.35"/>
<stop offset="1" stop-color="white" stop-opacity="0"/>
</linearGradient>
<radialGradient id="paint1_radial_1457_16922" cx="0" cy="0" r="1" gradientUnits="userSpaceOnUse" gradientTransform="translate(-18.125 110.722) rotate(0.69005) scale(1130.18 180.324)">
<stop stop-color="#35383C"/>
<stop offset="1" stop-opacity="0"/>
</radialGradient>
<linearGradient id="paint2_linear_1457_16922" x1="104" y1="144" x2="136.746" y2="145.513" gradientUnits="userSpaceOnUse">
<stop stop-color="#9A9A9C"/>
<stop offset="0.255208" stop-color="#8869C0"/>
<stop offset="0.484375" stop-color="#3FC2EA"/>
<stop offset="0.666667" stop-color="#C2FFFF"/>
<stop offset="0.927083" stop-color="white"/>
</linearGradient>
<radialGradient id="paint3_radial_1457_16922" cx="0" cy="0" r="1" gradientUnits="userSpaceOnUse" gradientTransform="translate(212.5 165.5) rotate(19.8879) scale(51.4431 218.033)">
<stop stop-color="#35383C"/>
<stop offset="1" stop-opacity="0"/>
</radialGradient>
<radialGradient id="paint4_radial_1457_16922" cx="0" cy="0" r="1" gradientUnits="userSpaceOnUse" gradientTransform="translate(152.5 165.5) rotate(19.8879) scale(51.4431 218.033)">
<stop stop-color="#35383C"/>
<stop offset="1" stop-opacity="0"/>
</radialGradient>
<radialGradient id="paint5_radial_1457_16922" cx="0" cy="0" r="1" gradientUnits="userSpaceOnUse" gradientTransform="translate(152.5 220.5) rotate(19.8879) scale(51.4431 218.033)">
<stop stop-color="#35383C"/>
<stop offset="1" stop-opacity="0"/>
</radialGradient>
<radialGradient id="paint6_radial_1457_16922" cx="0" cy="0" r="1" gradientUnits="userSpaceOnUse" gradientTransform="translate(256.423 152.458) rotate(2.34175) scale(178.456 96.5283)">
<stop stop-color="#35383C"/>
<stop offset="1" stop-opacity="0"/>
</radialGradient>
<radialGradient id="paint7_radial_1457_16922" cx="0" cy="0" r="1" gradientUnits="userSpaceOnUse" gradientTransform="translate(631.625 153.458) rotate(4.6303) scale(90.326 96.2937)">
<stop stop-color="#35383C"/>
<stop offset="1" stop-opacity="0"/>
</radialGradient>
<radialGradient id="paint8_radial_1457_16922" cx="0" cy="0" r="1" gradientUnits="userSpaceOnUse" gradientTransform="translate(725.75 154.458) rotate(9.06786) scale(46.2657 95.4016)">
<stop stop-color="#35383C"/>
<stop offset="1" stop-opacity="0"/>
</radialGradient>
<radialGradient id="paint9_radial_1457_16922" cx="0" cy="0" r="1" gradientUnits="userSpaceOnUse" gradientTransform="translate(418.625 152.458) rotate(4.6303) scale(90.326 96.2937)">
<stop stop-color="#35383C"/>
<stop offset="1" stop-opacity="0"/>
</radialGradient>
<linearGradient id="paint10_linear_1457_16922" x1="104" y1="198" x2="136.746" y2="199.513" gradientUnits="userSpaceOnUse">
<stop stop-color="#9A9A9C"/>
<stop offset="0.255208" stop-color="#8869C0"/>
<stop offset="0.484375" stop-color="#3FC2EA"/>
<stop offset="0.666667" stop-color="#C2FFFF"/>
<stop offset="0.927083" stop-color="white"/>
</linearGradient>
<radialGradient id="paint11_radial_1457_16922" cx="0" cy="0" r="1" gradientUnits="userSpaceOnUse" gradientTransform="translate(212.5 219.5) rotate(19.8879) scale(51.4431 218.033)">
<stop stop-color="#35383C"/>
<stop offset="1" stop-opacity="0"/>
</radialGradient>
<radialGradient id="paint12_radial_1457_16922" cx="0" cy="0" r="1" gradientUnits="userSpaceOnUse" gradientTransform="translate(256.348 206.458) rotate(2.33121) scale(179.262 96.5291)">
<stop stop-color="#35383C"/>
<stop offset="1" stop-opacity="0"/>
</radialGradient>
<radialGradient id="paint13_radial_1457_16922" cx="0" cy="0" r="1" gradientUnits="userSpaceOnUse" gradientTransform="translate(631.625 207.458) rotate(4.6303) scale(90.326 96.2937)">
<stop stop-color="#35383C"/>
<stop offset="1" stop-opacity="0"/>
</radialGradient>
<radialGradient id="paint14_radial_1457_16922" cx="0" cy="0" r="1" gradientUnits="userSpaceOnUse" gradientTransform="translate(725.75 208.458) rotate(9.06786) scale(46.2657 95.4016)">
<stop stop-color="#35383C"/>
<stop offset="1" stop-opacity="0"/>
</radialGradient>
<radialGradient id="paint15_radial_1457_16922" cx="0" cy="0" r="1" gradientUnits="userSpaceOnUse" gradientTransform="translate(418.625 206.458) rotate(4.6303) scale(90.326 96.2937)">
<stop stop-color="#35383C"/>
<stop offset="1" stop-opacity="0"/>
</radialGradient>
</defs>
</svg>
