<svg width="830" height="237" viewBox="0 0 830 237" fill="none" xmlns="http://www.w3.org/2000/svg">
<g filter="url(#filter0_bd_1217_13040)">
<rect x="68" y="49" width="694" height="243.709" rx="10" fill="#222224" fill-opacity="0.3" shape-rendering="crispEdges"/>
<rect x="68.3693" y="49.3693" width="693.261" height="242.971" rx="9.63068" stroke="url(#paint0_linear_1217_13040)" stroke-width="0.738636" shape-rendering="crispEdges"/>
</g>
<rect x="99" y="80" width="632" height="28" rx="5" fill="url(#paint1_radial_1217_13040)"/>
<rect x="99" y="80" width="632" height="28" rx="5" fill="white" fill-opacity="0.05"/>
<path opacity="0.7" d="M117.912 100H119.052V96.568H121.212L123.156 100H124.476L122.388 96.364C123.504 95.98 124.176 95.056 124.176 93.82C124.176 92.14 122.928 91.06 121.104 91.06H117.912V100ZM119.052 95.572V92.056H121.104C122.244 92.056 123 92.764 123 93.808C123 94.864 122.244 95.572 121.104 95.572H119.052ZM127.974 93.496C126.798 93.496 125.766 94.168 125.406 95.032L126.33 95.512C126.606 94.888 127.206 94.48 127.974 94.48C128.814 94.48 129.414 94.96 129.414 95.692V95.872L127.206 96.364C125.922 96.652 125.166 97.3 125.166 98.236C125.166 99.352 126.078 100.144 127.434 100.144C128.25 100.144 129.006 99.748 129.438 99.112V100H130.446V95.692C130.446 94.396 129.426 93.496 127.974 93.496ZM127.494 99.22C126.738 99.22 126.258 98.836 126.258 98.236C126.258 97.72 126.726 97.324 127.446 97.168L129.414 96.712V97.264C129.414 98.38 128.61 99.22 127.494 99.22ZM134.64 93.496C133.86 93.496 133.176 93.82 132.804 94.372V93.64H131.796V100H132.828V96.148C132.828 95.152 133.464 94.492 134.412 94.492C135.372 94.492 135.984 95.14 135.984 96.148V100H137.016V95.812C137.016 94.48 136.02 93.496 134.64 93.496ZM143.672 93.64H142.436L139.508 96.76V91.06H138.476V100H139.508V98.164L140.636 96.952L142.484 100H143.672L141.32 96.184L143.672 93.64Z" fill="white"/>
<path opacity="0.7" d="M199.912 99H201.052V95.568H203.104C204.94 95.568 206.176 94.488 206.176 92.82C206.176 91.14 204.928 90.06 203.104 90.06H199.912V99ZM201.052 94.572V91.056H203.104C204.244 91.056 205 91.764 205 92.808C205 93.864 204.244 94.572 203.104 94.572H201.052ZM207.456 99H208.488V90.06H207.456V99ZM212.517 92.496C211.341 92.496 210.309 93.168 209.949 94.032L210.873 94.512C211.149 93.888 211.749 93.48 212.517 93.48C213.357 93.48 213.957 93.96 213.957 94.692V94.872L211.749 95.364C210.465 95.652 209.709 96.3 209.709 97.236C209.709 98.352 210.621 99.144 211.977 99.144C212.793 99.144 213.549 98.748 213.981 98.112V99H214.989V94.692C214.989 93.396 213.969 92.496 212.517 92.496ZM212.037 98.22C211.281 98.22 210.801 97.836 210.801 97.236C210.801 96.72 211.269 96.324 211.989 96.168L213.957 95.712V96.264C213.957 97.38 213.153 98.22 212.037 98.22ZM220.827 92.628L218.871 97.548L216.915 92.628H215.739L218.283 98.94L218.007 99.6C217.815 100.044 217.575 100.62 216.639 100.62C216.387 100.62 216.099 100.584 215.979 100.548V101.472C216.219 101.568 216.531 101.604 216.819 101.604C218.307 101.604 218.763 100.596 219.087 99.792L222.027 92.628H220.827ZM228.59 95.544C228.59 93.924 227.438 92.496 225.626 92.496C223.85 92.496 222.53 93.888 222.53 95.808C222.53 97.728 223.886 99.144 225.71 99.144C227.018 99.144 228.05 98.436 228.446 97.56L227.546 97.08C227.21 97.728 226.622 98.208 225.722 98.208C224.606 98.208 223.658 97.392 223.61 96.132H228.542C228.578 95.928 228.59 95.724 228.59 95.544ZM223.634 95.244C223.778 94.092 224.63 93.408 225.626 93.408C226.562 93.408 227.438 94.188 227.45 95.244H223.634ZM232.41 92.568C231.642 92.568 231.03 92.844 230.694 93.432V92.64H229.698V99H230.73V95.208C230.73 94.152 231.342 93.552 232.254 93.552H232.926V92.568H232.41Z" fill="white"/>
<path opacity="0.7" d="M489.808 99H490.948V91.056H493.36V90.06H487.372V91.056H489.808V99ZM494.423 91.464H495.455V90.06H494.423V91.464ZM494.423 99H495.455V92.64H494.423V99ZM503.748 92.496C502.86 92.496 502.116 92.904 501.708 93.624C501.324 92.928 500.592 92.496 499.716 92.496C498.96 92.496 498.312 92.82 497.952 93.372V92.64H496.944V99H497.976V95.148C497.976 94.14 498.576 93.492 499.476 93.492C500.388 93.492 500.976 94.128 500.976 95.148V99H502.008V95.148C502.008 94.14 502.608 93.492 503.508 93.492C504.42 93.492 505.008 94.128 505.008 95.148V99H506.04V94.812C506.04 93.468 505.068 92.496 503.748 92.496ZM513.203 95.544C513.203 93.924 512.051 92.496 510.239 92.496C508.463 92.496 507.143 93.888 507.143 95.808C507.143 97.728 508.499 99.144 510.323 99.144C511.631 99.144 512.663 98.436 513.059 97.56L512.159 97.08C511.823 97.728 511.235 98.208 510.335 98.208C509.219 98.208 508.271 97.392 508.223 96.132H513.155C513.191 95.928 513.203 95.724 513.203 95.544ZM508.247 95.244C508.391 94.092 509.243 93.408 510.239 93.408C511.175 93.408 512.051 94.188 512.063 95.244H508.247Z" fill="white"/>
<path opacity="0.7" d="M603.808 98H604.948V90.056H607.36V89.06H601.372V90.056H603.808V98ZM610.591 98.144C612.427 98.144 613.867 96.74 613.867 94.808C613.867 92.876 612.439 91.496 610.591 91.496C608.743 91.496 607.315 92.876 607.315 94.808C607.315 96.74 608.755 98.144 610.591 98.144ZM610.591 97.148C609.355 97.148 608.407 96.152 608.407 94.82C608.407 93.488 609.355 92.492 610.591 92.492C611.827 92.492 612.775 93.488 612.775 94.82C612.775 96.152 611.827 97.148 610.591 97.148ZM617.64 98.072C617.82 98.072 618.072 98.06 618.276 98.012V97.172C618.144 97.196 617.964 97.208 617.832 97.208C616.74 97.208 616.668 96.464 616.668 96.056V92.624H618.204V91.64H616.668V89.576H615.636V90.704C615.636 91.268 615.276 91.64 614.724 91.64H614.4V92.624H615.636V96.056C615.636 97.34 616.356 98.072 617.64 98.072ZM621.947 91.496C620.771 91.496 619.739 92.168 619.379 93.032L620.303 93.512C620.579 92.888 621.179 92.48 621.947 92.48C622.787 92.48 623.387 92.96 623.387 93.692V93.872L621.179 94.364C619.895 94.652 619.139 95.3 619.139 96.236C619.139 97.352 620.051 98.144 621.407 98.144C622.223 98.144 622.979 97.748 623.411 97.112V98H624.419V93.692C624.419 92.396 623.399 91.496 621.947 91.496ZM621.467 97.22C620.711 97.22 620.231 96.836 620.231 96.236C620.231 95.72 620.699 95.324 621.419 95.168L623.387 94.712V95.264C623.387 96.38 622.583 97.22 621.467 97.22ZM625.769 98H626.801V89.06H625.769V98ZM635.352 91.64V92.516C634.908 91.88 634.128 91.496 633.192 91.496C631.464 91.496 630.084 92.804 630.084 94.58C630.084 96.332 631.476 97.676 633.204 97.676C634.092 97.676 634.86 97.34 635.328 96.752V97.736C635.328 98.948 634.38 99.644 633.264 99.644C632.28 99.644 631.656 99.104 631.404 98.492L630.492 98.984C630.9 99.944 631.944 100.64 633.288 100.64C635.052 100.64 636.36 99.416 636.36 97.736V91.64H635.352ZM633.252 96.68C632.028 96.68 631.176 95.816 631.176 94.58C631.176 93.32 632.076 92.492 633.24 92.492C634.452 92.492 635.328 93.368 635.328 94.58C635.328 95.78 634.488 96.68 633.252 96.68ZM640.392 91.496C639.216 91.496 638.184 92.168 637.824 93.032L638.748 93.512C639.024 92.888 639.624 92.48 640.392 92.48C641.232 92.48 641.832 92.96 641.832 93.692V93.872L639.624 94.364C638.34 94.652 637.584 95.3 637.584 96.236C637.584 97.352 638.496 98.144 639.852 98.144C640.668 98.144 641.424 97.748 641.856 97.112V98H642.864V93.692C642.864 92.396 641.844 91.496 640.392 91.496ZM639.912 97.22C639.156 97.22 638.676 96.836 638.676 96.236C638.676 95.72 639.144 95.324 639.864 95.168L641.832 94.712V95.264C641.832 96.38 641.028 97.22 639.912 97.22ZM651.018 91.496C650.13 91.496 649.386 91.904 648.978 92.624C648.594 91.928 647.862 91.496 646.986 91.496C646.23 91.496 645.582 91.82 645.222 92.372V91.64H644.214V98H645.246V94.148C645.246 93.14 645.846 92.492 646.746 92.492C647.658 92.492 648.246 93.128 648.246 94.148V98H649.278V94.148C649.278 93.14 649.878 92.492 650.778 92.492C651.69 92.492 652.278 93.128 652.278 94.148V98H653.31V93.812C653.31 92.468 652.338 91.496 651.018 91.496ZM660.472 94.544C660.472 92.924 659.32 91.496 657.508 91.496C655.732 91.496 654.412 92.888 654.412 94.808C654.412 96.728 655.768 98.144 657.592 98.144C658.9 98.144 659.932 97.436 660.328 96.56L659.428 96.08C659.092 96.728 658.504 97.208 657.604 97.208C656.488 97.208 655.54 96.392 655.492 95.132H660.424C660.46 94.928 660.472 94.724 660.472 94.544ZM655.516 94.244C655.66 93.092 656.512 92.408 657.508 92.408C658.444 92.408 659.32 93.188 659.332 94.244H655.516ZM666.932 91.496C665.948 91.496 665.084 91.916 664.652 92.612V91.64H663.644V100.4H664.676V97.124C665.144 97.76 665.972 98.144 666.908 98.144C668.72 98.144 670.148 96.74 670.148 94.808C670.148 92.876 668.72 91.496 666.932 91.496ZM666.872 97.148C665.6 97.148 664.676 96.164 664.676 94.82C664.676 93.476 665.612 92.492 666.872 92.492C668.12 92.492 669.056 93.476 669.056 94.82C669.056 96.164 668.132 97.148 666.872 97.148ZM674.282 98.144C676.118 98.144 677.558 96.74 677.558 94.808C677.558 92.876 676.13 91.496 674.282 91.496C672.434 91.496 671.006 92.876 671.006 94.808C671.006 96.74 672.446 98.144 674.282 98.144ZM674.282 97.148C673.046 97.148 672.098 96.152 672.098 94.82C672.098 93.488 673.046 92.492 674.282 92.492C675.518 92.492 676.466 93.488 676.466 94.82C676.466 96.152 675.518 97.148 674.282 97.148ZM678.688 90.464H679.72V89.06H678.688V90.464ZM678.688 98H679.72V91.64H678.688V98ZM684.054 91.496C683.274 91.496 682.59 91.82 682.218 92.372V91.64H681.21V98H682.242V94.148C682.242 93.152 682.878 92.492 683.826 92.492C684.786 92.492 685.398 93.14 685.398 94.148V98H686.43V93.812C686.43 92.48 685.434 91.496 684.054 91.496ZM690.554 98.072C690.734 98.072 690.986 98.06 691.19 98.012V97.172C691.058 97.196 690.878 97.208 690.746 97.208C689.654 97.208 689.582 96.464 689.582 96.056V92.624H691.118V91.64H689.582V89.576H688.55V90.704C688.55 91.268 688.19 91.64 687.638 91.64H687.314V92.624H688.55V96.056C688.55 97.34 689.27 98.072 690.554 98.072ZM694.633 98.144C696.001 98.144 696.949 97.388 696.949 96.284C696.949 95.432 696.373 94.808 695.305 94.496L694.225 94.172C693.673 94.004 693.313 93.716 693.313 93.284C693.313 92.78 693.769 92.444 694.453 92.444C695.209 92.444 695.809 92.84 696.073 93.524L696.937 93.104C696.565 92.108 695.629 91.496 694.453 91.496C693.133 91.496 692.245 92.24 692.245 93.344C692.245 94.208 692.797 94.82 693.865 95.12L694.909 95.408C695.497 95.576 695.881 95.828 695.881 96.284C695.881 96.812 695.377 97.196 694.633 97.196C693.841 97.196 693.157 96.776 692.833 95.972L691.957 96.404C692.365 97.484 693.385 98.144 694.633 98.144Z" fill="white"/>
<g filter="url(#filter1_d_1217_13040)">
<path d="M128.657 149H130.827V138.57L126.697 138.584V140.404H128.657V149Z" fill="white"/>
</g>
<circle cx="130" cy="144" r="13" stroke="url(#paint2_linear_1217_13040)" stroke-width="2" stroke-linecap="round"/>
<rect x="199" y="126" width="36" height="36" rx="18" fill="url(#paint3_radial_1217_13040)"/>
<rect x="199" y="126" width="36" height="36" rx="18" fill="white" fill-opacity="0.05"/>
<rect x="255.01" y="136" width="155.504" height="15" rx="2" transform="rotate(0.0387057 255.01 136)" fill="url(#paint4_radial_1217_13040)"/>
<rect x="255.01" y="136" width="155.504" height="15" rx="2" transform="rotate(0.0387057 255.01 136)" fill="white" fill-opacity="0.05"/>
<rect x="602" y="137" width="67" height="15" rx="2" fill="url(#paint5_radial_1217_13040)"/>
<rect x="602" y="137" width="67" height="15" rx="2" fill="white" fill-opacity="0.05"/>
<rect x="490" y="137" width="67" height="15" rx="2" fill="url(#paint6_radial_1217_13040)"/>
<rect x="490" y="137" width="67" height="15" rx="2" fill="white" fill-opacity="0.05"/>
<g filter="url(#filter2_d_1217_13040)">
<path d="M125.858 203H132.942V201.18H128.532L130.954 198.688C132.2 197.414 132.816 196.462 132.816 195.328C132.816 193.578 131.472 192.402 129.484 192.402C127.748 192.402 126.362 193.284 125.886 194.684L127.594 195.664C127.874 194.852 128.532 194.362 129.344 194.362C130.142 194.362 130.646 194.838 130.646 195.594C130.646 196.252 130.282 196.742 128.644 198.436L125.844 201.32L125.858 203Z" fill="white"/>
</g>
<circle cx="130" cy="198" r="13" stroke="url(#paint7_linear_1217_13040)" stroke-width="2" stroke-linecap="round"/>
<rect x="199" y="180" width="36" height="36" rx="18" fill="url(#paint8_radial_1217_13040)"/>
<rect x="199" y="180" width="36" height="36" rx="18" fill="white" fill-opacity="0.05"/>
<rect x="255.01" y="190" width="155.504" height="15" rx="2" transform="rotate(0.0387057 255.01 190)" fill="url(#paint9_radial_1217_13040)"/>
<rect x="255.01" y="190" width="155.504" height="15" rx="2" transform="rotate(0.0387057 255.01 190)" fill="white" fill-opacity="0.05"/>
<rect x="602" y="191" width="67" height="15" rx="2" fill="url(#paint10_radial_1217_13040)"/>
<rect x="602" y="191" width="67" height="15" rx="2" fill="white" fill-opacity="0.05"/>
<rect x="490" y="191" width="67" height="15" rx="2" fill="url(#paint11_radial_1217_13040)"/>
<rect x="490" y="191" width="67" height="15" rx="2" fill="white" fill-opacity="0.05"/>
<defs>
<filter id="filter0_bd_1217_13040" x="-358" y="-377" width="1546" height="1095.71" filterUnits="userSpaceOnUse" color-interpolation-filters="sRGB">
<feFlood flood-opacity="0" result="BackgroundImageFix"/>
<feGaussianBlur in="BackgroundImageFix" stdDeviation="213"/>
<feComposite in2="SourceAlpha" operator="in" result="effect1_backgroundBlur_1217_13040"/>
<feColorMatrix in="SourceAlpha" type="matrix" values="0 0 0 0 0 0 0 0 0 0 0 0 0 0 0 0 0 0 127 0" result="hardAlpha"/>
<feOffset dy="19"/>
<feGaussianBlur stdDeviation="34"/>
<feComposite in2="hardAlpha" operator="out"/>
<feColorMatrix type="matrix" values="0 0 0 0 0.081125 0 0 0 0 0.081125 0 0 0 0 0.0916667 0 0 0 1 0"/>
<feBlend mode="normal" in2="effect1_backgroundBlur_1217_13040" result="effect2_dropShadow_1217_13040"/>
<feBlend mode="normal" in="SourceGraphic" in2="effect2_dropShadow_1217_13040" result="shape"/>
</filter>
<filter id="filter1_d_1217_13040" x="122.697" y="134.57" width="12.1289" height="18.4299" filterUnits="userSpaceOnUse" color-interpolation-filters="sRGB">
<feFlood flood-opacity="0" result="BackgroundImageFix"/>
<feColorMatrix in="SourceAlpha" type="matrix" values="0 0 0 0 0 0 0 0 0 0 0 0 0 0 0 0 0 0 127 0" result="hardAlpha"/>
<feOffset/>
<feGaussianBlur stdDeviation="2"/>
<feComposite in2="hardAlpha" operator="out"/>
<feColorMatrix type="matrix" values="0 0 0 0 0.227451 0 0 0 0 0.721569 0 0 0 0 1 0 0 0 1 0"/>
<feBlend mode="normal" in2="BackgroundImageFix" result="effect1_dropShadow_1217_13040"/>
<feBlend mode="normal" in="SourceGraphic" in2="effect1_dropShadow_1217_13040" result="shape"/>
</filter>
<filter id="filter2_d_1217_13040" x="121.844" y="188.402" width="15.0977" height="18.5979" filterUnits="userSpaceOnUse" color-interpolation-filters="sRGB">
<feFlood flood-opacity="0" result="BackgroundImageFix"/>
<feColorMatrix in="SourceAlpha" type="matrix" values="0 0 0 0 0 0 0 0 0 0 0 0 0 0 0 0 0 0 127 0" result="hardAlpha"/>
<feOffset/>
<feGaussianBlur stdDeviation="2"/>
<feComposite in2="hardAlpha" operator="out"/>
<feColorMatrix type="matrix" values="0 0 0 0 0.227451 0 0 0 0 0.721569 0 0 0 0 1 0 0 0 1 0"/>
<feBlend mode="normal" in2="BackgroundImageFix" result="effect1_dropShadow_1217_13040"/>
<feBlend mode="normal" in="SourceGraphic" in2="effect1_dropShadow_1217_13040" result="shape"/>
</filter>
<linearGradient id="paint0_linear_1217_13040" x1="415" y1="49" x2="415" y2="292.709" gradientUnits="userSpaceOnUse">
<stop stop-color="white" stop-opacity="0.35"/>
<stop offset="1" stop-color="white" stop-opacity="0"/>
</linearGradient>
<radialGradient id="paint1_radial_1217_13040" cx="0" cy="0" r="1" gradientUnits="userSpaceOnUse" gradientTransform="translate(20 110.722) rotate(0.918213) scale(849.359 180.314)">
<stop stop-color="#35383C"/>
<stop offset="1" stop-opacity="0"/>
</radialGradient>
<linearGradient id="paint2_linear_1217_13040" x1="116" y1="144" x2="148.746" y2="145.513" gradientUnits="userSpaceOnUse">
<stop stop-color="#9A9A9C"/>
<stop offset="0.255208" stop-color="#8869C0"/>
<stop offset="0.484375" stop-color="#3FC2EA"/>
<stop offset="0.666667" stop-color="#C2FFFF"/>
<stop offset="0.927083" stop-color="white"/>
</linearGradient>
<radialGradient id="paint3_radial_1217_13040" cx="0" cy="0" r="1" gradientUnits="userSpaceOnUse" gradientTransform="translate(194.5 165.5) rotate(19.8879) scale(51.4431 218.033)">
<stop stop-color="#35383C"/>
<stop offset="1" stop-opacity="0"/>
</radialGradient>
<radialGradient id="paint4_radial_1217_13040" cx="0" cy="0" r="1" gradientUnits="userSpaceOnUse" gradientTransform="translate(235.572 152.458) rotate(1.99854) scale(209.086 96.5502)">
<stop stop-color="#35383C"/>
<stop offset="1" stop-opacity="0"/>
</radialGradient>
<radialGradient id="paint5_radial_1217_13040" cx="0" cy="0" r="1" gradientUnits="userSpaceOnUse" gradientTransform="translate(593.625 153.458) rotate(4.6303) scale(90.326 96.2937)">
<stop stop-color="#35383C"/>
<stop offset="1" stop-opacity="0"/>
</radialGradient>
<radialGradient id="paint6_radial_1217_13040" cx="0" cy="0" r="1" gradientUnits="userSpaceOnUse" gradientTransform="translate(481.625 153.458) rotate(4.6303) scale(90.326 96.2937)">
<stop stop-color="#35383C"/>
<stop offset="1" stop-opacity="0"/>
</radialGradient>
<linearGradient id="paint7_linear_1217_13040" x1="116" y1="198" x2="148.746" y2="199.513" gradientUnits="userSpaceOnUse">
<stop stop-color="#9A9A9C"/>
<stop offset="0.255208" stop-color="#8869C0"/>
<stop offset="0.484375" stop-color="#3FC2EA"/>
<stop offset="0.666667" stop-color="#C2FFFF"/>
<stop offset="0.927083" stop-color="white"/>
</linearGradient>
<radialGradient id="paint8_radial_1217_13040" cx="0" cy="0" r="1" gradientUnits="userSpaceOnUse" gradientTransform="translate(194.5 219.5) rotate(19.8879) scale(51.4431 218.033)">
<stop stop-color="#35383C"/>
<stop offset="1" stop-opacity="0"/>
</radialGradient>
<radialGradient id="paint9_radial_1217_13040" cx="0" cy="0" r="1" gradientUnits="userSpaceOnUse" gradientTransform="translate(235.572 206.458) rotate(1.99854) scale(209.086 96.5502)">
<stop stop-color="#35383C"/>
<stop offset="1" stop-opacity="0"/>
</radialGradient>
<radialGradient id="paint10_radial_1217_13040" cx="0" cy="0" r="1" gradientUnits="userSpaceOnUse" gradientTransform="translate(593.625 207.458) rotate(4.6303) scale(90.326 96.2937)">
<stop stop-color="#35383C"/>
<stop offset="1" stop-opacity="0"/>
</radialGradient>
<radialGradient id="paint11_radial_1217_13040" cx="0" cy="0" r="1" gradientUnits="userSpaceOnUse" gradientTransform="translate(481.625 207.458) rotate(4.6303) scale(90.326 96.2937)">
<stop stop-color="#35383C"/>
<stop offset="1" stop-opacity="0"/>
</radialGradient>
</defs>
</svg>
