<svg width="111" height="111" viewBox="0 0 111 111" fill="none" xmlns="http://www.w3.org/2000/svg">
<g filter="url(#filter0_f_1457_16986)">
<circle cx="55.5" cy="55.5" r="23.5" fill="#85FFA0" fill-opacity="0.39"/>
</g>
<rect x="31.9841" y="12.9841" width="50.0317" height="50.0317" rx="6.09524" fill="#08684B" stroke="#85FFA0" stroke-width="2.03175"/>
<path d="M33 27.4609L34.3379 28.6316C34.7788 29.0174 35.0317 29.5748 35.0317 30.1607V45.8406C35.0317 46.4265 34.7788 46.9838 34.3379 47.3696L33 48.5403V27.4609Z" fill="#85FFA0"/>
<path d="M81 48.5391L79.6621 47.3684C79.2212 46.9826 78.9683 46.4252 78.9683 45.8393L78.9683 30.1594C78.9683 29.5735 79.2212 29.0162 79.6621 28.6304L81 27.4597L81 48.5391Z" fill="#85FFA0"/>
<path d="M62.3333 53H51.6667V38.0659C51.6667 37.783 51.779 37.5116 51.9791 37.3116C52.1791 37.1115 52.4504 36.9991 52.7333 36.9991H61.2667C61.5496 36.9991 61.8209 37.1115 62.0209 37.3116C62.221 37.5116 62.3333 37.783 62.3333 38.0659V53ZM71.9333 53H62.3333V47.8442C62.3333 47.5613 62.4457 47.2899 62.6458 47.0899C62.8458 46.8898 63.1171 46.7774 63.4 46.7774H71.9333C72.2162 46.7774 72.4875 46.8898 72.6876 47.0899C72.8876 47.2899 73 47.5613 73 47.8442V51.9333C73 52.2162 72.8876 52.4875 72.6876 52.6876C72.4875 52.8876 72.2162 53 71.9333 53ZM51.6667 53V44.2884C51.6667 44.0055 51.5543 43.7342 51.3542 43.5341C51.1542 43.3341 50.8829 43.2217 50.6 43.2217H42.0667C41.7838 43.2217 41.5125 43.3341 41.3124 43.5341C41.1124 43.7342 41 44.0055 41 44.2884V51.9333C41 52.2162 41.1124 52.4875 41.3124 52.6876C41.5125 52.8876 41.7838 53 42.0667 53H51.6667ZM54.8773 24.7549L56.4933 21.329C56.537 21.231 56.608 21.1478 56.698 21.0895C56.7879 21.0311 56.8928 21 57 21C57.1072 21 57.2121 21.0311 57.302 21.0895C57.392 21.1478 57.463 21.231 57.5067 21.329L59.1244 24.7549L62.7369 25.3079C63.2009 25.379 63.3858 25.9763 63.0498 26.3177L60.4364 28.9845L61.0533 32.75C61.1316 33.2336 60.648 33.6034 60.232 33.3741L57 31.5962L53.768 33.3741C53.3538 33.6016 52.8684 33.2336 52.9467 32.75L53.5636 28.9845L50.9502 26.3177C50.6124 25.9763 50.7991 25.379 51.2613 25.3079L54.8773 24.7549Z" fill="#85FFA0"/>
<path d="M62.3333 53H51.6667M62.3333 53V38.0659C62.3333 37.783 62.221 37.5116 62.0209 37.3116C61.8209 37.1115 61.5496 36.9991 61.2667 36.9991H52.7333C52.4504 36.9991 52.1791 37.1115 51.9791 37.3116C51.779 37.5116 51.6667 37.783 51.6667 38.0659V53M62.3333 53H71.9333C72.2162 53 72.4875 52.8876 72.6876 52.6876C72.8876 52.4875 73 52.2162 73 51.9333V47.8442C73 47.5613 72.8876 47.2899 72.6876 47.0899C72.4875 46.8898 72.2162 46.7774 71.9333 46.7774H63.4C63.1171 46.7774 62.8458 46.8898 62.6458 47.0899C62.4457 47.2899 62.3333 47.5613 62.3333 47.8442V53ZM51.6667 53V44.2884C51.6667 44.0055 51.5543 43.7342 51.3542 43.5341C51.1542 43.3341 50.8829 43.2217 50.6 43.2217H42.0667C41.7838 43.2217 41.5125 43.3341 41.3124 43.5341C41.1124 43.7342 41 44.0055 41 44.2884V51.9333C41 52.2162 41.1124 52.4875 41.3124 52.6876C41.5125 52.8876 41.7838 53 42.0667 53H51.6667ZM54.8773 24.7549L56.4933 21.329C56.537 21.231 56.608 21.1478 56.698 21.0895C56.7879 21.0311 56.8928 21 57 21C57.1072 21 57.2121 21.0311 57.302 21.0895C57.392 21.1478 57.463 21.231 57.5067 21.329L59.1244 24.7549L62.7369 25.3079C63.2009 25.379 63.3858 25.9763 63.0498 26.3177L60.4364 28.9845L61.0533 32.75C61.1316 33.2336 60.648 33.6034 60.232 33.3741L57 31.5962L53.768 33.3741C53.3538 33.6016 52.8684 33.2336 52.9467 32.75L53.5636 28.9845L50.9502 26.3177C50.6124 25.9763 50.7991 25.379 51.2613 25.3079L54.8773 24.7549Z" stroke="#08684B" stroke-linecap="round" stroke-linejoin="round"/>
<defs>
<filter id="filter0_f_1457_16986" x="0" y="0" width="111" height="111" filterUnits="userSpaceOnUse" color-interpolation-filters="sRGB">
<feFlood flood-opacity="0" result="BackgroundImageFix"/>
<feBlend mode="normal" in="SourceGraphic" in2="BackgroundImageFix" result="shape"/>
<feGaussianBlur stdDeviation="16" result="effect1_foregroundBlur_1457_16986"/>
</filter>
</defs>
</svg>
