<svg width="111" height="111" viewBox="0 0 111 111" fill="none" xmlns="http://www.w3.org/2000/svg">
<g filter="url(#filter0_f_1457_16807)">
<circle cx="55.5" cy="55.5" r="23.5" fill="#FF7FE3" fill-opacity="0.57"/>
</g>
<rect x="31.9841" y="12.9841" width="50.0317" height="50.0317" rx="6.09524" fill="#600868" stroke="#FF7FE3" stroke-width="2.03175"/>
<path d="M33 27.4609L34.3379 28.6316C34.7788 29.0174 35.0317 29.5748 35.0317 30.1607V45.8406C35.0317 46.4265 34.7788 46.9838 34.3379 47.3696L33 48.5403V27.4609Z" fill="#FF7FE3"/>
<path d="M81 48.5391L79.6621 47.3684C79.2212 46.9826 78.9683 46.4252 78.9683 45.8393L78.9683 30.1594C78.9683 29.5735 79.2212 29.0162 79.6621 28.6304L81 27.4597L81 48.5391Z" fill="#FF7FE3"/>
<path d="M51.6875 25.5V32.75H44.5C44.5 28.2375 47.1875 25.525 51.6875 25.5Z" fill="#FF7FE3"/>
<path d="M69.5 32.75H62.3125V25.5C66.8125 25.525 69.5 28.2375 69.5 32.75Z" fill="#FF7FE3"/>
<path d="M69.5 43.375C69.45 47.8125 66.775 50.475 62.3125 50.5V43.375H69.5Z" fill="#FF7FE3"/>
<path d="M51.6875 43.375V50.5C47.225 50.475 44.55 47.8125 44.5 43.375H51.6875Z" fill="#FF7FE3"/>
<path d="M51.6875 34.625H44.5V41.5H51.6875V34.625Z" fill="#FF7FE3"/>
<path d="M69.5 34.625H62.3125V41.5H69.5V34.625Z" fill="#FF7FE3"/>
<path d="M60.4375 34.625H53.5625V41.5H60.4375V34.625Z" fill="#FF7FE3"/>
<path d="M60.4375 25.5H53.5625V32.75H60.4375V25.5Z" fill="#FF7FE3"/>
<path d="M60.4375 43.375H53.5625V50.5H60.4375V43.375Z" fill="#FF7FE3"/>
<defs>
<filter id="filter0_f_1457_16807" x="0" y="0" width="111" height="111" filterUnits="userSpaceOnUse" color-interpolation-filters="sRGB">
<feFlood flood-opacity="0" result="BackgroundImageFix"/>
<feBlend mode="normal" in="SourceGraphic" in2="BackgroundImageFix" result="shape"/>
<feGaussianBlur stdDeviation="16" result="effect1_foregroundBlur_1457_16807"/>
</filter>
</defs>
</svg>
