<svg width="54" height="54" viewBox="0 0 54 54" fill="none" xmlns="http://www.w3.org/2000/svg">
<rect x="1.98413" y="1.98413" width="50.0317" height="50.0317" rx="6.09524" fill="#600868" stroke="#FF7FE3" stroke-width="2.03175"/>
<path d="M3 16.4609L4.33791 17.6316C4.77883 18.0174 5.03175 18.5748 5.03175 19.1607V34.8406C5.03175 35.4265 4.77883 35.9838 4.33791 36.3696L3 37.5403V16.4609Z" fill="#FF7FE3"/>
<path d="M51 37.5391L49.6621 36.3684C49.2212 35.9826 48.9683 35.4252 48.9683 34.8393L48.9683 19.1594C48.9683 18.5735 49.2212 18.0162 49.6621 17.6304L51 16.4597L51 37.5391Z" fill="#FF7FE3"/>
<path d="M21.6875 14.5V21.75H14.5C14.5 17.2375 17.1875 14.525 21.6875 14.5Z" fill="#FF7FE3"/>
<path d="M39.5 21.75H32.3125V14.5C36.8125 14.525 39.5 17.2375 39.5 21.75Z" fill="#FF7FE3"/>
<path d="M39.5 32.375C39.45 36.8125 36.775 39.475 32.3125 39.5V32.375H39.5Z" fill="#FF7FE3"/>
<path d="M21.6875 32.375V39.5C17.225 39.475 14.55 36.8125 14.5 32.375H21.6875Z" fill="#FF7FE3"/>
<path d="M21.6875 23.625H14.5V30.5H21.6875V23.625Z" fill="#FF7FE3"/>
<path d="M39.5 23.625H32.3125V30.5H39.5V23.625Z" fill="#FF7FE3"/>
<path d="M30.4375 23.625H23.5625V30.5H30.4375V23.625Z" fill="#FF7FE3"/>
<path d="M30.4375 14.5H23.5625V21.75H30.4375V14.5Z" fill="#FF7FE3"/>
<path d="M30.4375 32.375H23.5625V39.5H30.4375V32.375Z" fill="#FF7FE3"/>
</svg>
