<svg width="111" height="111" viewBox="0 0 111 111" fill="none" xmlns="http://www.w3.org/2000/svg">
<g filter="url(#filter0_f_1457_16888)">
<circle cx="55.5" cy="55.5" r="23.5" fill="#6568FF" fill-opacity="0.35"/>
</g>
<rect x="31.9841" y="12.9841" width="50.0317" height="50.0317" rx="6.09524" fill="#272A6A" stroke="#6568FF" stroke-width="2.03175"/>
<path d="M33 27.4609L34.3379 28.6316C34.7788 29.0174 35.0317 29.5748 35.0317 30.1607V45.8406C35.0317 46.4265 34.7788 46.9838 34.3379 47.3696L33 48.5403V27.4609Z" fill="#6568FF"/>
<path d="M81 48.5391L79.6621 47.3684C79.2212 46.9826 78.9683 46.4252 78.9683 45.8393L78.9683 30.1594C78.9683 29.5735 79.2212 29.0162 79.6621 28.6304L81 27.4597L81 48.5391Z" fill="#6568FF"/>
<path d="M69.5 51.4375H48.25C45.6625 51.4375 43.5625 49.3375 43.5625 46.75V25.5C43.5625 24.9875 43.9875 24.5625 44.5 24.5625C45.0125 24.5625 45.4375 24.9875 45.4375 25.5V46.75C45.4375 48.3 46.7 49.5625 48.25 49.5625H69.5C70.0125 49.5625 70.4375 49.9875 70.4375 50.5C70.4375 51.0125 70.0125 51.4375 69.5 51.4375Z" fill="#6568FF"/>
<path d="M48.2498 45.1873C48.0373 45.1873 47.8123 45.1123 47.6373 44.9623C47.2498 44.6248 47.1998 44.0373 47.5373 43.6373L53.2748 36.9373C53.8998 36.2123 54.7998 35.7748 55.7498 35.7373C56.6998 35.7123 57.6373 36.0623 58.3123 36.7373L59.4998 37.9248C59.8123 38.2373 60.2123 38.3873 60.6623 38.3873C61.0998 38.3748 61.4998 38.1748 61.7873 37.8373L67.5248 31.1373C67.8623 30.7498 68.4498 30.6998 68.8498 31.0373C69.2373 31.3748 69.2873 31.9623 68.9498 32.3623L63.2123 39.0623C62.5873 39.7873 61.6873 40.2248 60.7373 40.2623C59.7748 40.2873 58.8498 39.9373 58.1748 39.2623L56.9998 38.0748C56.6873 37.7623 56.2748 37.5998 55.8373 37.6123C55.3998 37.6248 54.9998 37.8248 54.7123 38.1623L48.9748 44.8623C48.7748 45.0748 48.5123 45.1873 48.2498 45.1873Z" fill="#6568FF"/>
<defs>
<filter id="filter0_f_1457_16888" x="0" y="0" width="111" height="111" filterUnits="userSpaceOnUse" color-interpolation-filters="sRGB">
<feFlood flood-opacity="0" result="BackgroundImageFix"/>
<feBlend mode="normal" in="SourceGraphic" in2="BackgroundImageFix" result="shape"/>
<feGaussianBlur stdDeviation="16" result="effect1_foregroundBlur_1457_16888"/>
</filter>
</defs>
</svg>
