<svg width="631" height="132" viewBox="0 0 631 132" fill="none" xmlns="http://www.w3.org/2000/svg">
<rect x="0.374272" y="0.374272" width="331.251" height="135.251" rx="14.8269" fill="#222224" fill-opacity="0.3"/>
<rect x="24" y="21" width="80" height="15" rx="2" fill="url(#paint0_radial_50_31935)"/>
<rect x="24" y="21" width="80" height="15" rx="2" fill="white" fill-opacity="0.05"/>
<rect x="0.374272" y="0.374272" width="331.251" height="135.251" rx="14.8269" stroke="url(#paint1_linear_50_31935)" stroke-width="0.748545"/>
<g clip-path="url(#clip0_50_31935)">
<rect x="351" width="280" height="174" rx="15.2012" fill="#222224" fill-opacity="0.3"/>
<rect x="370" y="16" width="92" height="18" rx="2" fill="url(#paint2_radial_50_31935)"/>
<rect x="370" y="16" width="92" height="18" rx="2" fill="white" fill-opacity="0.05"/>
<rect x="466" y="87" width="50" height="11" rx="2" fill="url(#paint3_radial_50_31935)"/>
<rect x="466" y="87" width="50" height="11" rx="2" fill="white" fill-opacity="0.05"/>
<rect x="467" y="104" width="38" height="11" rx="2" fill="url(#paint4_radial_50_31935)"/>
<rect x="467" y="104" width="38" height="11" rx="2" fill="white" fill-opacity="0.05"/>
<g filter="url(#filter0_f_50_31935)">
<path d="M492.363 45.832C501.632 45.832 510.789 47.8544 519.196 51.7581C527.602 55.6618 535.056 61.3528 541.037 68.434C547.018 75.5152 551.381 83.8161 553.823 92.7575C556.266 101.699 556.727 111.065 555.177 120.204C553.626 129.342 550.1 138.032 544.845 145.667C539.589 153.302 532.731 159.699 524.749 164.41C516.767 169.122 507.853 172.035 498.63 172.947C489.406 173.859 480.094 172.747 471.344 169.689" stroke="#79CFFF" stroke-width="3"/>
</g>
<g filter="url(#filter1_f_50_31935)">
<path d="M492.363 45.832C501.632 45.832 510.789 47.8544 519.196 51.7581C527.602 55.6618 535.056 61.3528 541.037 68.434C547.018 75.5152 551.381 83.8161 553.823 92.7575C556.266 101.699 556.727 111.065 555.177 120.204C553.626 129.342 550.1 138.032 544.845 145.667C539.589 153.302 532.731 159.699 524.749 164.41C516.767 169.122 507.853 172.035 498.63 172.947C489.406 173.859 480.094 172.747 471.344 169.689" stroke="#79CFFF" stroke-width="2"/>
</g>
<g filter="url(#filter2_f_50_31935)">
<path d="M492.363 45.832C501.632 45.832 510.789 47.8544 519.196 51.7581C527.602 55.6618 535.056 61.3528 541.037 68.434C547.018 75.5152 551.381 83.8161 553.823 92.7575C556.266 101.699 556.727 111.065 555.177 120.204C553.626 129.342 550.1 138.032 544.845 145.667C539.589 153.302 532.731 159.699 524.749 164.41C516.767 169.122 507.853 172.035 498.63 172.947C489.406 173.859 480.094 172.747 471.344 169.689" stroke="#79CFFF"/>
</g>
<g style="mix-blend-mode:color-dodge">
<path d="M492.363 45.832C501.632 45.832 510.789 47.8544 519.196 51.7581C527.602 55.6618 535.056 61.3528 541.037 68.434C547.018 75.5152 551.381 83.8161 553.823 92.7575C556.266 101.699 556.727 111.065 555.177 120.204C553.626 129.342 550.1 138.032 544.845 145.667C539.589 153.302 532.731 159.699 524.749 164.41C516.767 169.122 507.853 172.035 498.63 172.947C489.406 173.859 480.094 172.747 471.344 169.689" stroke="#79CFFF" stroke-width="3" stroke-linecap="round"/>
</g>
<g filter="url(#filter3_f_50_31935)">
<path d="M464.165 167.505C455.742 163.637 448.264 157.978 442.253 150.922C436.242 143.867 431.843 135.584 429.363 126.654C426.882 117.723 426.38 108.358 427.892 99.2133C429.404 90.0685 432.893 81.3637 438.115 73.7062C443.338 66.0487 450.168 59.6229 458.13 54.8772C466.092 50.1314 474.993 47.1801 484.213 46.229" stroke="#6568FF" stroke-width="3"/>
</g>
<g filter="url(#filter4_f_50_31935)">
<path d="M464.165 167.505C455.742 163.637 448.264 157.978 442.253 150.922C436.242 143.867 431.843 135.584 429.363 126.654C426.882 117.723 426.38 108.358 427.892 99.2133C429.404 90.0685 432.893 81.3637 438.115 73.7062C443.338 66.0487 450.168 59.6229 458.13 54.8772C466.092 50.1314 474.993 47.1801 484.213 46.229" stroke="#6568FF" stroke-width="2"/>
</g>
<g filter="url(#filter5_f_50_31935)">
<path d="M464.165 167.505C455.742 163.637 448.264 157.978 442.253 150.922C436.242 143.867 431.843 135.584 429.363 126.654C426.882 117.723 426.38 108.358 427.892 99.2133C429.404 90.0685 432.893 81.3637 438.115 73.7062C443.338 66.0487 450.168 59.6229 458.13 54.8772C466.092 50.1314 474.993 47.1801 484.213 46.229" stroke="#6568FF"/>
</g>
<g style="mix-blend-mode:color-dodge">
<path d="M464.165 167.505C455.742 163.637 448.264 157.978 442.253 150.922C436.242 143.867 431.843 135.584 429.363 126.654C426.882 117.723 426.38 108.358 427.892 99.2133C429.404 90.0685 432.893 81.3637 438.115 73.7062C443.338 66.0487 450.168 59.6229 458.13 54.8772C466.092 50.1314 474.993 47.1801 484.213 46.229" stroke="#6568FF" stroke-width="3" stroke-linecap="round"/>
</g>
</g>
<rect x="351.374" y="0.374272" width="279.251" height="173.251" rx="14.8269" stroke="url(#paint5_linear_50_31935)" stroke-width="0.748545"/>
<path d="M44.1841 87.6679C30.4589 87.6679 24 107.305 24 107.305V157H309V73.2405C309 73.2405 309 90.4733 293.66 90.874C278.32 91.2748 266.21 52 250.062 52C233.915 52 221.805 73.2405 206.868 73.2405C191.932 73.2405 179.418 52.0003 165.289 52C151.16 51.9997 145.912 68.0305 121.288 68.0305C96.6629 68.0305 93.8371 107.305 81.7266 107.305C69.6161 107.305 57.9093 87.6679 44.1841 87.6679Z" fill="url(#paint6_linear_50_31935)"/>
<g style="mix-blend-mode:color-dodge">
<path d="M24 107C24 107 30.4589 87.471 44.1841 87.471C57.9093 87.471 69.6161 107 81.7266 107C93.8371 107 96.6629 67.942 121.288 67.942C145.912 67.942 151.16 51.9997 165.289 52C179.418 52.0003 191.932 73.1232 206.868 73.1232C221.805 73.1232 233.915 52 250.062 52C266.21 52 278.32 91.058 293.66 90.6594C309 90.2609 309 73.1232 309 73.1232" stroke="#79CFFF" stroke-width="1.5"/>
</g>
<g filter="url(#filter6_b_50_31935)">
<ellipse cx="164" cy="52.5" rx="8" ry="7.5" fill="white" fill-opacity="0.1"/>
</g>
<g filter="url(#filter7_d_50_31935)">
<ellipse cx="164.5" cy="52" rx="3.5" ry="3" fill="#00D1FF"/>
</g>
<defs>
<filter id="filter0_f_50_31935" x="440.85" y="14.332" width="146.725" height="190.424" filterUnits="userSpaceOnUse" color-interpolation-filters="sRGB">
<feFlood flood-opacity="0" result="BackgroundImageFix"/>
<feBlend mode="normal" in="SourceGraphic" in2="BackgroundImageFix" result="shape"/>
<feGaussianBlur stdDeviation="15" result="effect1_foregroundBlur_50_31935"/>
</filter>
<filter id="filter1_f_50_31935" x="441.014" y="14.832" width="146.061" height="189.424" filterUnits="userSpaceOnUse" color-interpolation-filters="sRGB">
<feFlood flood-opacity="0" result="BackgroundImageFix"/>
<feBlend mode="normal" in="SourceGraphic" in2="BackgroundImageFix" result="shape"/>
<feGaussianBlur stdDeviation="15" result="effect1_foregroundBlur_50_31935"/>
</filter>
<filter id="filter2_f_50_31935" x="461.18" y="35.332" width="105.395" height="148.424" filterUnits="userSpaceOnUse" color-interpolation-filters="sRGB">
<feFlood flood-opacity="0" result="BackgroundImageFix"/>
<feBlend mode="normal" in="SourceGraphic" in2="BackgroundImageFix" result="shape"/>
<feGaussianBlur stdDeviation="5" result="effect1_foregroundBlur_50_31935"/>
</filter>
<filter id="filter3_f_50_31935" x="395.539" y="14.7363" width="118.828" height="184.131" filterUnits="userSpaceOnUse" color-interpolation-filters="sRGB">
<feFlood flood-opacity="0" result="BackgroundImageFix"/>
<feBlend mode="normal" in="SourceGraphic" in2="BackgroundImageFix" result="shape"/>
<feGaussianBlur stdDeviation="15" result="effect1_foregroundBlur_50_31935"/>
</filter>
<filter id="filter4_f_50_31935" x="396.039" y="15.2344" width="118.277" height="183.18" filterUnits="userSpaceOnUse" color-interpolation-filters="sRGB">
<feFlood flood-opacity="0" result="BackgroundImageFix"/>
<feBlend mode="normal" in="SourceGraphic" in2="BackgroundImageFix" result="shape"/>
<feGaussianBlur stdDeviation="15" result="effect1_foregroundBlur_50_31935"/>
</filter>
<filter id="filter5_f_50_31935" x="416.539" y="35.7324" width="77.7266" height="142.227" filterUnits="userSpaceOnUse" color-interpolation-filters="sRGB">
<feFlood flood-opacity="0" result="BackgroundImageFix"/>
<feBlend mode="normal" in="SourceGraphic" in2="BackgroundImageFix" result="shape"/>
<feGaussianBlur stdDeviation="5" result="effect1_foregroundBlur_50_31935"/>
</filter>
<filter id="filter6_b_50_31935" x="155" y="44" width="18" height="17" filterUnits="userSpaceOnUse" color-interpolation-filters="sRGB">
<feFlood flood-opacity="0" result="BackgroundImageFix"/>
<feGaussianBlur in="BackgroundImageFix" stdDeviation="0.5"/>
<feComposite in2="SourceAlpha" operator="in" result="effect1_backgroundBlur_50_31935"/>
<feBlend mode="normal" in="SourceGraphic" in2="effect1_backgroundBlur_50_31935" result="shape"/>
</filter>
<filter id="filter7_d_50_31935" x="157" y="47" width="15" height="14" filterUnits="userSpaceOnUse" color-interpolation-filters="sRGB">
<feFlood flood-opacity="0" result="BackgroundImageFix"/>
<feColorMatrix in="SourceAlpha" type="matrix" values="0 0 0 0 0 0 0 0 0 0 0 0 0 0 0 0 0 0 127 0" result="hardAlpha"/>
<feOffset dy="2"/>
<feGaussianBlur stdDeviation="2"/>
<feComposite in2="hardAlpha" operator="out"/>
<feColorMatrix type="matrix" values="0 0 0 0 0.229167 0 0 0 0 0.7225 0 0 0 0 1 0 0 0 1 0"/>
<feBlend mode="normal" in2="BackgroundImageFix" result="effect1_dropShadow_50_31935"/>
<feBlend mode="normal" in="SourceGraphic" in2="effect1_dropShadow_50_31935" result="shape"/>
</filter>
<radialGradient id="paint0_radial_50_31935" cx="0" cy="0" r="1" gradientUnits="userSpaceOnUse" gradientTransform="translate(14 37.4583) rotate(3.8804) scale(107.747 96.3875)">
<stop stop-color="#35383C"/>
<stop offset="1" stop-opacity="0"/>
</radialGradient>
<linearGradient id="paint1_linear_50_31935" x1="166" y1="0" x2="166" y2="136" gradientUnits="userSpaceOnUse">
<stop stop-color="white" stop-opacity="0.35"/>
<stop offset="1" stop-color="white" stop-opacity="0"/>
</linearGradient>
<radialGradient id="paint2_radial_50_31935" cx="0" cy="0" r="1" gradientUnits="userSpaceOnUse" gradientTransform="translate(358.5 35.75) rotate(4.04856) scale(123.934 115.642)">
<stop stop-color="#35383C"/>
<stop offset="1" stop-opacity="0"/>
</radialGradient>
<radialGradient id="paint3_radial_50_31935" cx="0" cy="0" r="1" gradientUnits="userSpaceOnUse" gradientTransform="translate(459.75 99.0694) rotate(4.55038) scale(67.3999 70.6233)">
<stop stop-color="#35383C"/>
<stop offset="1" stop-opacity="0"/>
</radialGradient>
<radialGradient id="paint4_radial_50_31935" cx="0" cy="0" r="1" gradientUnits="userSpaceOnUse" gradientTransform="translate(462.25 116.069) rotate(5.97818) scale(51.3417 70.4613)">
<stop stop-color="#35383C"/>
<stop offset="1" stop-opacity="0"/>
</radialGradient>
<linearGradient id="paint5_linear_50_31935" x1="491" y1="0" x2="491" y2="174" gradientUnits="userSpaceOnUse">
<stop stop-color="white" stop-opacity="0.35"/>
<stop offset="1" stop-color="white" stop-opacity="0"/>
</linearGradient>
<linearGradient id="paint6_linear_50_31935" x1="166.5" y1="52" x2="166.5" y2="157" gradientUnits="userSpaceOnUse">
<stop stop-color="#00D1FF" stop-opacity="0.1"/>
<stop offset="1" stop-color="#00D1FF" stop-opacity="0"/>
</linearGradient>
<clipPath id="clip0_50_31935">
<rect x="351" width="280" height="174" rx="15.2012" fill="white"/>
</clipPath>
</defs>
</svg>
