<svg width="111" height="111" viewBox="0 0 111 111" fill="none" xmlns="http://www.w3.org/2000/svg">
<g filter="url(#filter0_f_1457_16649)">
<circle cx="55.5" cy="55.5" r="23.5" fill="#6568FF" fill-opacity="0.35"/>
</g>
<rect x="31.9841" y="12.9841" width="50.0317" height="50.0317" rx="6.09524" fill="#272A6A" stroke="#6568FF" stroke-width="2.03175"/>
<path d="M33 27.46L34.3379 28.6306C34.7788 29.0164 35.0317 29.5738 35.0317 30.1597V45.8396C35.0317 46.4255 34.7788 46.9828 34.3379 47.3687L33 48.5393V27.46Z" fill="#6568FF"/>
<path d="M81 48.54L79.6621 47.3694C79.2212 46.9836 78.9683 46.4262 78.9683 45.8403L78.9683 30.1604C78.9683 29.5745 79.2212 29.0172 79.6621 28.6313L81 27.4607L81 48.54Z" fill="#6568FF"/>
<path fill-rule="evenodd" clip-rule="evenodd" d="M70.9724 31.5725C70.9724 33.5455 66.978 35.145 62.0507 35.145C57.1233 35.145 53.1289 33.5455 53.1289 31.5725C53.1289 29.5995 57.1233 28 62.0507 28C66.978 28 70.9724 29.5995 70.9724 31.5725ZM71.1715 33.6261C71.1703 33.627 71.1696 33.6252 71.1696 33.6205C71.1696 33.5303 71.0964 33.4571 71.0062 33.4571C70.9609 33.4571 70.92 33.4754 70.8904 33.5051C69.8862 34.8692 66.3083 35.8781 62.0486 35.8781C59.4208 35.8781 57.0524 35.4941 55.3878 34.8797C56.2462 36.1171 56.7848 37.6537 56.8837 39.3152C58.3522 39.6644 60.1313 39.8688 62.0486 39.8688C67.0869 39.8688 71.1715 38.4573 71.1715 36.7161V33.6261ZM56.2649 43.3228C56.6519 42.2888 56.8529 41.2512 56.8928 40.2459C58.3563 40.5462 60.0654 40.7186 61.891 40.7186C66.2515 40.7186 70.155 39.7349 71.5095 38.3745C71.5612 38.3304 71.6282 38.3037 71.7015 38.3037C71.8648 38.3037 71.9972 38.4361 71.9972 38.5994C71.9972 38.6055 71.998 38.6093 71.9993 38.611L71.9991 40.5713L71.9995 40.6074C71.9995 42.7707 68.3191 44.1799 63.0777 44.1799C60.4769 44.1799 57.9663 43.9457 56.2649 43.3228ZM53.8593 47.1315C54.6127 46.354 55.2753 45.4309 55.8093 44.3658C55.8613 44.2619 55.9114 44.158 55.9595 44.0538C57.6187 44.7418 60.0731 45.189 63.2474 45.056C66.3812 45.056 69.1716 44.3878 70.9664 43.4622V45.3031C70.9678 45.3294 70.9685 45.3557 70.9685 45.3821C70.9685 47.9047 68.3265 48.9546 62.0468 48.9546C57.2244 48.632 54.8948 48.0481 53.8593 47.1315ZM59.5792 30.5976L60.8862 32.4285L63.8629 32.4593L64.7341 30.5976L63.0028 31.0591L62.1427 29.8219L61.3477 31.0429L59.5792 30.5976ZM52.6394 41.7358C54.1793 37.4094 52.5017 33.2459 49.653 32.2319C46.8043 31.2179 43.2465 33.903 41.7066 38.2294C40.1666 42.5557 41.2275 46.8849 44.0763 47.8989C46.925 48.9129 51.0994 46.0621 52.6394 41.7358ZM44.4691 40.4624L45.5569 37.4007L46.1729 39.2519L48.3757 37.4002L47.8529 40.4245L49.7598 40.1203L47.3849 42.77L44.4691 40.4624ZM46.0728 48.7892C49.5162 49.2885 53.2958 47.5193 55.2139 43.6937C57.3296 39.4737 55.7658 34.9562 52.6831 33.2805C52.3189 33.0979 51.9394 32.9659 51.5498 32.8819C53.9398 34.9466 54.8264 39.1797 52.8423 43.1371C51.3647 46.0842 48.6597 48.1508 46.0728 48.7892Z" fill="#6568FF"/>
<defs>
<filter id="filter0_f_1457_16649" x="0" y="0" width="111" height="111" filterUnits="userSpaceOnUse" color-interpolation-filters="sRGB">
<feFlood flood-opacity="0" result="BackgroundImageFix"/>
<feBlend mode="normal" in="SourceGraphic" in2="BackgroundImageFix" result="shape"/>
<feGaussianBlur stdDeviation="16" result="effect1_foregroundBlur_1457_16649"/>
</filter>
</defs>
</svg>
