<svg width="21" height="16" viewBox="0 0 21 16" fill="none" xmlns="http://www.w3.org/2000/svg">
<path d="M17.8567 2.14186C20.1154 5.41076 21.2309 9.09799 20.8139 13.3428C20.8122 13.3608 20.8027 13.3773 20.7877 13.3881C19.0772 14.6244 17.4199 15.3747 15.7859 15.8723C15.7732 15.8761 15.7596 15.8759 15.747 15.8717C15.7344 15.8675 15.7234 15.8595 15.7157 15.8489C15.3382 15.3319 14.9952 14.7868 14.6947 14.2144C14.6774 14.1807 14.6932 14.1401 14.7287 14.1268C15.2734 13.9248 15.7914 13.6827 16.2897 13.396C16.3289 13.3733 16.3314 13.318 16.2952 13.2914C16.1894 13.2141 16.0847 13.1329 15.9844 13.0517C15.9657 13.0367 15.9404 13.0338 15.9192 13.0438C12.6844 14.5142 9.14094 14.5142 5.86794 13.0438C5.84669 13.0345 5.82144 13.0377 5.80319 13.0525C5.70319 13.1337 5.59819 13.2141 5.49344 13.2914C5.45719 13.318 5.46019 13.3733 5.49969 13.396C5.99794 13.6772 6.51594 13.9248 7.05994 14.1278C7.09519 14.1411 7.11194 14.1807 7.09444 14.2144C6.80044 14.7876 6.45744 15.3326 6.07294 15.8496C6.05619 15.8705 6.02869 15.8801 6.00269 15.8723C4.37644 15.3747 2.7192 14.6244 1.0087 13.3881C0.99445 13.3773 0.9842 13.3601 0.9827 13.3421C0.634201 9.67036 1.34445 5.95262 3.93719 2.14112C3.94344 2.13103 3.95294 2.12316 3.96394 2.11848C5.23969 1.54217 6.60644 1.11818 8.03494 0.876037C8.06094 0.8721 8.08694 0.883912 8.10044 0.906551C8.27694 1.21415 8.47869 1.60861 8.61519 1.93097C10.1209 1.70458 11.6502 1.70458 13.1874 1.93097C13.3239 1.6155 13.5187 1.21415 13.6944 0.906551C13.7007 0.89532 13.7104 0.886322 13.7222 0.880842C13.7339 0.875363 13.7471 0.873681 13.7599 0.876037C15.1892 1.11892 16.5559 1.54291 17.8307 2.11848C17.8419 2.12316 17.8512 2.13103 17.8567 2.14186ZM9.38069 9.12309C9.39644 8.03764 8.59244 7.13945 7.58319 7.13945C6.58219 7.13945 5.78594 8.02976 5.78594 9.12309C5.78594 10.2162 6.59794 11.1065 7.58319 11.1065C8.58444 11.1065 9.38069 10.2162 9.38069 9.12309ZM16.0262 9.12309C16.0419 8.03764 15.2379 7.13945 14.2289 7.13945C13.2277 7.13945 12.4314 8.02976 12.4314 9.12309C12.4314 10.2162 13.2434 11.1065 14.2289 11.1065C15.2379 11.1065 16.0262 10.2162 16.0262 9.12309Z" fill="white"/>
</svg>
