<svg width="14" height="10" viewBox="0 0 14 10" fill="none" xmlns="http://www.w3.org/2000/svg">
<path fill-rule="evenodd" clip-rule="evenodd" d="M13.2942 2.90708C10.4707 -0.969028 3.52926 -0.969028 0.705755 2.90708C-0.235251 4.1989 -0.235252 5.8011 0.705754 7.09292C3.52926 10.969 10.4707 10.969 13.2942 7.09292C14.2353 5.8011 14.2353 4.1989 13.2942 2.90708ZM8.51634 5.00043C8.51634 5.79818 7.83731 6.44488 6.99967 6.44488C6.16204 6.44488 5.48301 5.79818 5.48301 5.00043C5.48301 4.20269 6.16204 3.55599 6.99967 3.55599C7.83731 3.55599 8.51634 4.20269 8.51634 5.00043ZM9.91634 5.00043C9.91634 6.53456 8.61051 7.77821 6.99967 7.77821C5.38884 7.77821 4.08301 6.53456 4.08301 5.00043C4.08301 3.46631 5.38884 2.22266 6.99967 2.22266C8.61051 2.22266 9.91634 3.46631 9.91634 5.00043Z" fill="white"/>
</svg>
