<svg width="17" height="17" viewBox="0 0 17 17" fill="none" xmlns="http://www.w3.org/2000/svg">
<path d="M12.2334 3.13379H5.56676C3.56676 3.13379 2.23343 4.10186 2.23343 6.36071V10.8784C2.23343 13.1372 3.56676 14.1053 5.56676 14.1053H12.2334C14.2334 14.1053 15.5668 13.1372 15.5668 10.8784V6.36071C15.5668 4.10186 14.2334 3.13379 12.2334 3.13379ZM12.5468 7.06417L10.4601 8.67763C10.0201 9.01969 9.4601 9.18749 8.9001 9.18749C8.3401 9.18749 7.77343 9.01969 7.3401 8.67763L5.25343 7.06417C5.0401 6.89637 5.00676 6.58659 5.17343 6.38007C5.34676 6.17354 5.6601 6.13482 5.87343 6.30262L7.9601 7.91608C8.46676 8.30976 9.32676 8.30976 9.83343 7.91608L11.9201 6.30262C12.1334 6.13482 12.4534 6.16709 12.6201 6.38007C12.7934 6.58659 12.7601 6.89637 12.5468 7.06417Z" fill="white"/>
</svg>
