<svg width="17" height="17" viewBox="0 0 17 17" fill="none" xmlns="http://www.w3.org/2000/svg">
<g clip-path="url(#clip0_2019_33687)">
<path fill-rule="evenodd" clip-rule="evenodd" d="M10.461 1.71426C10.3306 1.55337 10.1631 1.40034 9.94831 1.28131C9.41291 0.984547 8.58425 0.899169 8.07784 0.875537C7.83389 0.864154 7.53725 1.03518 7.41572 1.24175L7.2692 1.49077C7.78859 1.33003 8.35275 1.27999 8.96107 1.37394C9.47983 1.45406 9.98113 1.56883 10.461 1.71426ZM3.11041 9.73685C2.65603 7.95738 4.74578 1.08145 9.15258 1.76206C10.4482 1.96217 11.6348 2.37838 12.6511 2.94874C12.7965 2.85049 12.9776 2.78797 13.1335 2.79612C13.7628 2.82904 14.9229 2.93851 15.6632 3.30265C16.2928 3.61236 16.6188 4.10625 16.7796 4.45526C16.8798 4.67248 16.8486 5.04208 16.7582 5.26332L16.0716 6.94349C16.2378 7.55473 16.2816 8.18703 16.1849 8.8222L15.9876 15.2255C15.9803 15.4635 15.8575 15.814 15.6797 15.9772C15.3501 16.2797 14.746 16.6918 13.8777 16.7243C12.8734 16.7618 11.5155 16.2915 10.8462 16.0306C10.6194 15.9423 10.4057 15.673 10.3652 15.4382L9.93793 12.9626C9.17092 13.0784 8.51531 13.0987 8.10877 13.0315C6.43894 12.7555 3.56479 11.5163 3.11041 9.73685ZM4.24689 5.74387C4.5514 4.97046 5.08982 4.06368 5.73949 3.58305C6.737 2.84509 7.98625 2.77926 8.97124 3.14796C9.59887 3.38288 10.7717 3.94311 11.5707 4.75813C12.8425 6.05532 13.6173 7.86955 13.1432 9.07388C12.6877 10.2308 11.0465 11.2252 9.40196 11.5953C8.16769 11.8732 6.51037 11.3431 5.84346 11.0935C4.217 10.4847 4.06898 9.9984 3.84753 9.34686C3.62615 8.69529 3.47495 7.70489 4.24689 5.74387ZM4.77501 5.95752C5.05899 5.23605 5.55631 4.38846 6.14977 3.93544C6.95787 3.31862 7.9396 3.19072 8.77082 3.40151C8.04811 3.34618 7.26959 3.53331 6.60481 4.04152C5.99275 4.50935 5.47965 5.38441 5.1865 6.12916C4.44318 8.01736 4.57288 8.96504 4.77202 9.58714C4.8789 9.92099 4.96658 10.2094 5.25853 10.4925C4.62493 10.1135 4.51745 9.75217 4.37481 9.30788C4.18127 8.70499 4.05494 7.78666 4.77501 5.95752ZM2.58344 10.0298C2.49888 9.69866 2.50243 9.19095 2.59264 8.58833L1.0515 11.7093C0.945543 11.9239 0.860898 12.2929 0.918886 12.5243C0.994259 12.825 1.16548 13.2148 1.55437 13.4517C2.00613 13.7267 2.75158 13.7953 3.22571 13.8093C3.46982 13.8164 3.77899 13.6482 3.91612 13.4511L4.72104 12.2944C3.69624 11.722 2.81785 10.9478 2.58344 10.0298Z" fill="url(#paint0_linear_2019_33687)"/>
<path fill-rule="evenodd" clip-rule="evenodd" d="M10.461 1.71426C10.3306 1.55337 10.1631 1.40034 9.94831 1.28131C9.41291 0.984547 8.58425 0.899169 8.07784 0.875537C7.83389 0.864154 7.53725 1.03518 7.41572 1.24175L7.2692 1.49077C7.78859 1.33003 8.35275 1.27999 8.96107 1.37394C9.47983 1.45406 9.98113 1.56883 10.461 1.71426ZM3.11041 9.73685C2.65603 7.95738 4.74578 1.08145 9.15258 1.76206C10.4482 1.96217 11.6348 2.37838 12.6511 2.94874C12.7965 2.85049 12.9776 2.78797 13.1335 2.79612C13.7628 2.82904 14.9229 2.93851 15.6632 3.30265C16.2928 3.61236 16.6188 4.10625 16.7796 4.45526C16.8798 4.67248 16.8486 5.04208 16.7582 5.26332L16.0716 6.94349C16.2378 7.55473 16.2816 8.18703 16.1849 8.8222L15.9876 15.2255C15.9803 15.4635 15.8575 15.814 15.6797 15.9772C15.3501 16.2797 14.746 16.6918 13.8777 16.7243C12.8734 16.7618 11.5155 16.2915 10.8462 16.0306C10.6194 15.9423 10.4057 15.673 10.3652 15.4382L9.93793 12.9626C9.17092 13.0784 8.51531 13.0987 8.10877 13.0315C6.43894 12.7555 3.56479 11.5163 3.11041 9.73685ZM4.24689 5.74387C4.5514 4.97046 5.08982 4.06368 5.73949 3.58305C6.737 2.84509 7.98625 2.77926 8.97124 3.14796C9.59887 3.38288 10.7717 3.94311 11.5707 4.75813C12.8425 6.05532 13.6173 7.86955 13.1432 9.07388C12.6877 10.2308 11.0465 11.2252 9.40196 11.5953C8.16769 11.8732 6.51037 11.3431 5.84346 11.0935C4.217 10.4847 4.06898 9.9984 3.84753 9.34686C3.62615 8.69529 3.47495 7.70489 4.24689 5.74387ZM4.77501 5.95752C5.05899 5.23605 5.55631 4.38846 6.14977 3.93544C6.95787 3.31862 7.9396 3.19072 8.77082 3.40151C8.04811 3.34618 7.26959 3.53331 6.60481 4.04152C5.99275 4.50935 5.47965 5.38441 5.1865 6.12916C4.44318 8.01736 4.57288 8.96504 4.77202 9.58714C4.8789 9.92099 4.96658 10.2094 5.25853 10.4925C4.62493 10.1135 4.51745 9.75217 4.37481 9.30788C4.18127 8.70499 4.05494 7.78666 4.77501 5.95752ZM2.58344 10.0298C2.49888 9.69866 2.50243 9.19095 2.59264 8.58833L1.0515 11.7093C0.945543 11.9239 0.860898 12.2929 0.918886 12.5243C0.994259 12.825 1.16548 13.2148 1.55437 13.4517C2.00613 13.7267 2.75158 13.7953 3.22571 13.8093C3.46982 13.8164 3.77899 13.6482 3.91612 13.4511L4.72104 12.2944C3.69624 11.722 2.81785 10.9478 2.58344 10.0298Z" fill="white"/>
</g>
<defs>
<linearGradient id="paint0_linear_2019_33687" x1="0.900024" y1="0.875" x2="16.7512" y2="16.8164" gradientUnits="userSpaceOnUse">
<stop stop-color="#FF00EE"/>
<stop offset="0.438272" stop-color="#DD00FF"/>
<stop offset="0.839506" stop-color="#6500FC"/>
</linearGradient>
<clipPath id="clip0_2019_33687">
<rect width="16" height="16" fill="white" transform="translate(0.900024 0.875)"/>
</clipPath>
</defs>
</svg>
