<svg width="18" height="18" viewBox="0 0 18 18" fill="none" xmlns="http://www.w3.org/2000/svg">
<path d="M8.90013 12.9231C9.52529 12.9231 10.0321 12.4163 10.0321 11.7911C10.0321 11.166 9.52529 10.6592 8.90013 10.6592C8.27498 10.6592 7.76819 11.166 7.76819 11.7911C7.76819 12.4163 8.27498 12.9231 8.90013 12.9231Z" fill="white"/>
<path d="M13.2612 7.49284V6.62478C13.2612 4.74978 12.8099 2.26367 8.90013 2.26367C4.99041 2.26367 4.53902 4.74978 4.53902 6.62478V7.49284C2.59458 7.73589 1.95569 8.722 1.95569 11.1456V12.4373C1.95569 15.2845 2.82374 16.1526 5.67097 16.1526H12.1293C14.9765 16.1526 15.8446 15.2845 15.8446 12.4373V11.1456C15.8446 8.722 15.2057 7.73589 13.2612 7.49284ZM8.90013 13.8887C7.74041 13.8887 6.80291 12.9442 6.80291 11.7914C6.80291 10.6317 7.74735 9.69423 8.90013 9.69423C10.0529 9.69423 10.9974 10.6387 10.9974 11.7914C10.9974 12.9512 10.0599 13.8887 8.90013 13.8887ZM5.67097 7.43034C5.61541 7.43034 5.5668 7.43034 5.51124 7.43034V6.62478C5.51124 4.59006 6.08763 3.23589 8.90013 3.23589C11.7126 3.23589 12.289 4.59006 12.289 6.62478V7.43728C12.2335 7.43728 12.1849 7.43728 12.1293 7.43728H5.67097V7.43034Z" fill="white"/>
</svg>
