<svg width="25" height="25" viewBox="0 0 25 25" fill="none" xmlns="http://www.w3.org/2000/svg">
<path d="M18.44 9.18514C19.7986 9.18514 20.9 8.08376 20.9 6.72514C20.9 5.36652 19.7986 4.26514 18.44 4.26514C17.0814 4.26514 15.98 5.36652 15.98 6.72514C15.98 8.08376 17.0814 9.18514 18.44 9.18514Z" stroke="url(#paint0_linear_2020_34066)" stroke-width="1.5" stroke-miterlimit="10" stroke-linecap="round" stroke-linejoin="round"/>
<path d="M7.36003 9.18514C8.71865 9.18514 9.82002 8.08376 9.82002 6.72514C9.82002 5.36652 8.71865 4.26514 7.36003 4.26514C6.00141 4.26514 4.90002 5.36652 4.90002 6.72514C4.90002 8.08376 6.00141 9.18514 7.36003 9.18514Z" stroke="url(#paint1_linear_2020_34066)" stroke-width="1.5" stroke-miterlimit="10" stroke-linecap="round" stroke-linejoin="round"/>
<path d="M18.44 21.4849C19.7986 21.4849 20.9 20.3836 20.9 19.0249C20.9 17.6663 19.7986 16.5649 18.44 16.5649C17.0814 16.5649 15.98 17.6663 15.98 19.0249C15.98 20.3836 17.0814 21.4849 18.44 21.4849Z" stroke="url(#paint2_linear_2020_34066)" stroke-width="1.5" stroke-miterlimit="10" stroke-linecap="round" stroke-linejoin="round"/>
<path d="M7.36003 21.4849C8.71865 21.4849 9.82002 20.3836 9.82002 19.0249C9.82002 17.6663 8.71865 16.5649 7.36003 16.5649C6.00141 16.5649 4.90002 17.6663 4.90002 19.0249C4.90002 20.3836 6.00141 21.4849 7.36003 21.4849Z" stroke="url(#paint3_linear_2020_34066)" stroke-width="1.5" stroke-miterlimit="10" stroke-linecap="round" stroke-linejoin="round"/>
<defs>
<linearGradient id="paint0_linear_2020_34066" x1="16.0443" y1="4.71829" x2="21.319" y2="5.01547" gradientUnits="userSpaceOnUse">
<stop stop-color="#00D1FF"/>
<stop offset="1" stop-color="#3AB8FF"/>
</linearGradient>
<linearGradient id="paint1_linear_2020_34066" x1="4.96434" y1="4.71829" x2="10.2391" y2="5.01547" gradientUnits="userSpaceOnUse">
<stop stop-color="#00D1FF"/>
<stop offset="1" stop-color="#3AB8FF"/>
</linearGradient>
<linearGradient id="paint2_linear_2020_34066" x1="16.0443" y1="17.0181" x2="21.319" y2="17.3153" gradientUnits="userSpaceOnUse">
<stop stop-color="#00D1FF"/>
<stop offset="1" stop-color="#3AB8FF"/>
</linearGradient>
<linearGradient id="paint3_linear_2020_34066" x1="4.96434" y1="17.0181" x2="10.2391" y2="17.3153" gradientUnits="userSpaceOnUse">
<stop stop-color="#00D1FF"/>
<stop offset="1" stop-color="#3AB8FF"/>
</linearGradient>
</defs>
</svg>
