<svg width="17" height="17" viewBox="0 0 17 17" fill="none" xmlns="http://www.w3.org/2000/svg">
<path d="M13.7934 10.5357L13.1267 9.42898C12.9867 9.18232 12.8601 8.71565 12.8601 8.44232V6.75565C12.8601 5.18898 11.9401 3.83565 10.6134 3.20232C10.2667 2.58898 9.62673 2.20898 8.8934 2.20898C8.16673 2.20898 7.5134 2.60232 7.16673 3.22232C5.86673 3.86898 4.96673 5.20898 4.96673 6.75565V8.44232C4.96673 8.71565 4.84007 9.18232 4.70007 9.42232L4.02673 10.5357C3.76007 10.9823 3.70007 11.4757 3.86673 11.929C4.02673 12.3757 4.40673 12.7223 4.90007 12.889C6.1934 13.329 7.5534 13.5423 8.9134 13.5423C10.2734 13.5423 11.6334 13.329 12.9267 12.8957C13.3934 12.7423 13.7534 12.389 13.9267 11.929C14.1001 11.469 14.0534 10.9623 13.7934 10.5357Z" fill="white"/>
<path d="M10.7866 14.2157C10.5066 14.989 9.76656 15.5423 8.8999 15.5423C8.37323 15.5423 7.85323 15.329 7.48656 14.949C7.27323 14.749 7.11323 14.4823 7.0199 14.209C7.10656 14.2223 7.19323 14.229 7.28656 14.2423C7.4399 14.2623 7.5999 14.2823 7.7599 14.2957C8.1399 14.329 8.52656 14.349 8.91323 14.349C9.29323 14.349 9.67323 14.329 10.0466 14.2957C10.1866 14.2823 10.3266 14.2757 10.4599 14.2557C10.5666 14.2423 10.6732 14.229 10.7866 14.2157Z" fill="white"/>
</svg>
