<svg width="20" height="21" viewBox="0 0 20 21" fill="none" xmlns="http://www.w3.org/2000/svg">
<rect x="-0.000854492" y="0.875" width="20" height="20" rx="10" fill="#6568FF"/>
<path d="M10.9391 10.8748L13.8058 8.0148C13.9313 7.88926 14.0019 7.719 14.0019 7.54146C14.0019 7.36393 13.9313 7.19367 13.8058 7.06813C13.6803 6.9426 13.51 6.87207 13.3325 6.87207C13.1549 6.87207 12.9847 6.9426 12.8591 7.06813L9.99914 9.9348L7.13914 7.06813C7.0136 6.9426 6.84334 6.87207 6.6658 6.87207C6.48827 6.87207 6.318 6.9426 6.19247 7.06813C6.06693 7.19367 5.99641 7.36393 5.99641 7.54146C5.99641 7.719 6.06693 7.88926 6.19247 8.0148L9.05914 10.8748L6.19247 13.7348C6.12998 13.7968 6.08039 13.8705 6.04654 13.9517C6.0127 14.033 5.99527 14.1201 5.99527 14.2081C5.99527 14.2961 6.0127 14.3833 6.04654 14.4645C6.08039 14.5458 6.12998 14.6195 6.19247 14.6815C6.25444 14.7439 6.32818 14.7935 6.40942 14.8274C6.49066 14.8612 6.57779 14.8787 6.6658 14.8787C6.75381 14.8787 6.84095 14.8612 6.92219 14.8274C7.00343 14.7935 7.07716 14.7439 7.13914 14.6815L9.99914 11.8148L12.8591 14.6815C12.9211 14.7439 12.9948 14.7935 13.0761 14.8274C13.1573 14.8612 13.2445 14.8787 13.3325 14.8787C13.4205 14.8787 13.5076 14.8612 13.5889 14.8274C13.6701 14.7935 13.7438 14.7439 13.8058 14.6815C13.8683 14.6195 13.9179 14.5458 13.9517 14.4645C13.9856 14.3833 14.003 14.2961 14.003 14.2081C14.003 14.1201 13.9856 14.033 13.9517 13.9517C13.9179 13.8705 13.8683 13.7968 13.8058 13.7348L10.9391 10.8748Z" fill="#1E1D1E"/>
</svg>
