<svg width="21" height="21" viewBox="0 0 21 21" fill="none" xmlns="http://www.w3.org/2000/svg">
<rect x="0.900024" y="0.875" width="20" height="20" rx="10" fill="#85FFA0"/>
<path d="M15.2741 7.06073C15.1635 6.98331 15.0386 6.92845 14.9068 6.89927C14.7749 6.8701 14.6386 6.86719 14.5056 6.89071C14.3726 6.91423 14.2456 6.96372 14.1317 7.03635C14.0179 7.10899 13.9195 7.20334 13.8421 7.31402L9.9327 12.8971L7.36942 11.1462C7.16384 11.0056 6.91081 10.9524 6.666 10.9983C6.42119 11.0442 6.20466 11.1855 6.06403 11.3911C5.9234 11.5967 5.8702 11.8497 5.91613 12.0945C5.96207 12.3394 6.10337 12.5559 6.30895 12.6965L9.74489 15.0434C9.85071 15.1156 9.9703 15.1652 10.0962 15.1891C10.2221 15.213 10.3515 15.2107 10.4765 15.1823C10.6097 15.159 10.7371 15.1096 10.8512 15.037C10.9653 14.9644 11.064 14.87 11.1416 14.7592L15.5275 8.49355C15.6839 8.26981 15.745 7.99317 15.6974 7.72442C15.6498 7.45566 15.4975 7.21678 15.2739 7.06027" fill="#1E1D1E"/>
</svg>
