<svg width="15" height="13" viewBox="0 0 15 13" fill="none" xmlns="http://www.w3.org/2000/svg">
<path d="M14.2737 0.639979C14.1158 0.529524 13.9377 0.451251 13.7496 0.409632C13.5615 0.368012 13.367 0.363862 13.1773 0.397418C12.9876 0.430974 12.8063 0.501578 12.6439 0.605198C12.4815 0.708818 12.341 0.843424 12.2306 1.00133L6.65328 8.96655L2.99635 6.46855C2.70305 6.26793 2.34207 6.19203 1.99281 6.25756C1.64355 6.32309 1.33463 6.52468 1.134 6.81797C0.933376 7.11127 0.857479 7.47226 0.923008 7.82152C0.988537 8.17077 1.19012 8.4797 1.48342 8.68032L6.38534 12.0285C6.53631 12.1316 6.70693 12.2024 6.88651 12.2365C7.0661 12.2706 7.25079 12.2672 7.42903 12.2267C7.61914 12.1935 7.80083 12.123 7.96367 12.0194C8.12651 11.9159 8.26731 11.7811 8.37798 11.623L14.6352 2.68412C14.8582 2.36492 14.9454 1.97025 14.8776 1.58683C14.8097 1.20341 14.5924 0.862604 14.2734 0.63931" fill="#85FFA0"/>
</svg>
