<svg width="13" height="13" viewBox="0 0 13 13" fill="none" xmlns="http://www.w3.org/2000/svg">
<path d="M10.4785 4.7249L8.21346 2.4599C7.73846 1.9849 7.08346 1.7299 6.41346 1.7649L3.91346 1.8849C2.91346 1.9299 2.11846 2.7249 2.06846 3.7199L1.94846 6.2199C1.91846 6.8899 2.16846 7.5449 2.64346 8.0199L4.90846 10.2849C5.83846 11.2149 7.34846 11.2149 8.28346 10.2849L10.4785 8.0899C11.4135 7.1649 11.4135 5.6549 10.4785 4.7249ZM5.31346 6.5649C4.51846 6.5649 3.87346 5.9199 3.87346 5.1249C3.87346 4.3299 4.51846 3.6849 5.31346 3.6849C6.10846 3.6849 6.75346 4.3299 6.75346 5.1249C6.75346 5.9199 6.10846 6.5649 5.31346 6.5649Z" fill="url(#paint0_linear_34_38867)"/>
<defs>
<linearGradient id="paint0_linear_34_38867" x1="2.06675" y1="2.61099" x2="11.9661" y2="3.16949" gradientUnits="userSpaceOnUse">
<stop stop-color="#00D1FF"/>
<stop offset="1" stop-color="#3AB8FF"/>
</linearGradient>
</defs>
</svg>
