<svg width="16" height="17" viewBox="0 0 16 17" fill="none" xmlns="http://www.w3.org/2000/svg">
<path d="M14.6136 11.6667C14.3936 13.4401 12.9402 14.8934 11.1669 15.1134C10.0936 15.2467 9.09357 14.9534 8.31357 14.3801C7.8669 14.0534 7.97357 13.3601 8.5069 13.2001C10.5136 12.5934 12.0936 11.0067 12.7069 9.00006C12.8669 8.4734 13.5602 8.36673 13.8869 8.80673C14.4536 9.5934 14.7469 10.5934 14.6136 11.6667Z" fill="white"/>
<path d="M6.65967 1.83301C3.71967 1.83301 1.33301 4.21967 1.33301 7.15967C1.33301 10.0997 3.71967 12.4863 6.65967 12.4863C9.59967 12.4863 11.9863 10.0997 11.9863 7.15967C11.9797 4.21967 9.59967 1.83301 6.65967 1.83301ZM6.03301 6.41301L7.63967 6.97301C8.21967 7.17967 8.49967 7.58634 8.49967 8.21301C8.49967 8.93301 7.92634 9.52634 7.22634 9.52634H7.16634V9.55967C7.16634 9.83301 6.93967 10.0597 6.66634 10.0597C6.39301 10.0597 6.16634 9.83301 6.16634 9.55967V9.51967C5.42634 9.48634 4.83301 8.86634 4.83301 8.09301C4.83301 7.81967 5.05967 7.59301 5.33301 7.59301C5.60634 7.59301 5.83301 7.81967 5.83301 8.09301C5.83301 8.33301 6.00634 8.52634 6.21967 8.52634H7.21967C7.37301 8.52634 7.49301 8.38634 7.49301 8.21301C7.49301 7.97967 7.45301 7.96634 7.29967 7.91301L5.69301 7.35301C5.11967 7.15301 4.83301 6.74634 4.83301 6.11301C4.83301 5.39301 5.40634 4.79967 6.10634 4.79967H6.16634V4.77301C6.16634 4.49967 6.39301 4.27301 6.66634 4.27301C6.93967 4.27301 7.16634 4.49967 7.16634 4.77301V4.81301C7.90634 4.84634 8.49967 5.46634 8.49967 6.23967C8.49967 6.51301 8.27301 6.73967 7.99967 6.73967C7.72634 6.73967 7.49967 6.51301 7.49967 6.23967C7.49967 5.99967 7.32634 5.80634 7.11301 5.80634H6.11301C5.95967 5.80634 5.83967 5.94634 5.83967 6.11967C5.83301 6.34634 5.87301 6.35967 6.03301 6.41301Z" fill="white"/>
</svg>
