<svg width="16" height="17" viewBox="0 0 16 17" fill="none" xmlns="http://www.w3.org/2000/svg">
<path d="M10.3866 8.43061C10.3866 9.75061 9.31995 10.8173 7.99995 10.8173C6.67995 10.8173 5.61328 9.75061 5.61328 8.43061C5.61328 7.11061 6.67995 6.04395 7.99995 6.04395C9.31995 6.04395 10.3866 7.11061 10.3866 8.43061Z" stroke="white" stroke-linecap="round" stroke-linejoin="round"/>
<path d="M7.9999 13.9445C10.3532 13.9445 12.5466 12.5578 14.0732 10.1578C14.6732 9.2178 14.6732 7.6378 14.0732 6.6978C12.5466 4.2978 10.3532 2.91113 7.9999 2.91113C5.64656 2.91113 3.45323 4.2978 1.92656 6.6978C1.32656 7.6378 1.32656 9.2178 1.92656 10.1578C3.45323 12.5578 5.64656 13.9445 7.9999 13.9445Z" stroke="white" stroke-linecap="round" stroke-linejoin="round"/>
</svg>
