<svg width="20" height="21" viewBox="0 0 20 21" fill="none" xmlns="http://www.w3.org/2000/svg">
<path d="M14.9999 6.842C14.9499 6.83366 14.8916 6.83366 14.8416 6.842C13.6916 6.80033 12.7749 5.85866 12.7749 4.69199C12.7749 3.50033 13.7332 2.54199 14.9249 2.54199C16.1166 2.54199 17.0749 3.50866 17.0749 4.69199C17.0666 5.85866 16.1499 6.80033 14.9999 6.842Z" stroke="#6568FF" stroke-width="1.5" stroke-linecap="round" stroke-linejoin="round"/>
<path d="M14.1415 12.9088C15.2831 13.1005 16.5415 12.9005 17.4248 12.3088C18.5998 11.5255 18.5998 10.2421 17.4248 9.45879C16.5331 8.86713 15.2581 8.66712 14.1165 8.86712" stroke="#6568FF" stroke-width="1.5" stroke-linecap="round" stroke-linejoin="round"/>
<path d="M4.9749 6.842C5.0249 6.83366 5.08324 6.83366 5.13324 6.842C6.28324 6.80033 7.1999 5.85866 7.1999 4.69199C7.1999 3.50033 6.24157 2.54199 5.0499 2.54199C3.85824 2.54199 2.8999 3.50866 2.8999 4.69199C2.90824 5.85866 3.8249 6.80033 4.9749 6.842Z" stroke="#6568FF" stroke-width="1.5" stroke-linecap="round" stroke-linejoin="round"/>
<path d="M5.83328 12.9088C4.69162 13.1005 3.43328 12.9005 2.54995 12.3088C1.37495 11.5255 1.37495 10.2421 2.54995 9.45879C3.44162 8.86713 4.71662 8.66712 5.85828 8.86712" stroke="#6568FF" stroke-width="1.5" stroke-linecap="round" stroke-linejoin="round"/>
<path d="M10.0001 13.0666C9.95014 13.0583 9.89181 13.0583 9.84181 13.0666C8.69181 13.0249 7.77515 12.0833 7.77515 10.9166C7.77515 9.72494 8.73348 8.7666 9.92514 8.7666C11.1168 8.7666 12.0751 9.73327 12.0751 10.9166C12.0668 12.0833 11.1501 13.0333 10.0001 13.0666Z" stroke="#6568FF" stroke-width="1.5" stroke-linecap="round" stroke-linejoin="round"/>
<path d="M7.5751 15.6918C6.4001 16.4751 6.4001 17.7585 7.5751 18.5418C8.90843 19.4335 11.0918 19.4335 12.4251 18.5418C13.6001 17.7585 13.6001 16.4751 12.4251 15.6918C11.1001 14.8085 8.90843 14.8085 7.5751 15.6918Z" stroke="#6568FF" stroke-width="1.5" stroke-linecap="round" stroke-linejoin="round"/>
</svg>
