<svg width="25" height="24" viewBox="0 0 25 24" fill="none" xmlns="http://www.w3.org/2000/svg">
<path d="M12.5 22.7504C8.5 22.7504 5.25 19.8804 5.25 16.3504V12.6504C5.25 12.2404 5.59 11.9004 6 11.9004C6.41 11.9004 6.75 12.2404 6.75 12.6504C6.75 15.2704 9.22 17.2504 12.5 17.2504C15.78 17.2504 18.25 15.2704 18.25 12.6504C18.25 12.2404 18.59 11.9004 19 11.9004C19.41 11.9004 19.75 12.2404 19.75 12.6504V16.3504C19.75 19.8804 16.5 22.7504 12.5 22.7504ZM6.75 16.4604C6.82 19.1104 9.37 21.2504 12.5 21.2504C15.63 21.2504 18.18 19.1104 18.25 16.4604C16.95 17.8704 14.89 18.7504 12.5 18.7504C10.11 18.7504 8.06 17.8704 6.75 16.4604Z" fill="#6568FF"/>
<path d="M12.5 13.75C9.74 13.75 7.25999 12.51 6.04999 10.51C5.52999 9.66 5.25 8.67 5.25 7.65C5.25 5.93 6.02 4.31 7.41 3.09C8.77 1.9 10.58 1.25 12.5 1.25C14.42 1.25 16.22 1.9 17.59 3.08C18.98 4.31 19.75 5.93 19.75 7.65C19.75 8.67 19.47 9.65 18.95 10.51C17.74 12.51 15.26 13.75 12.5 13.75ZM12.5 2.75C10.94 2.75 9.48001 3.27 8.39001 4.23C7.33001 5.15 6.75 6.37 6.75 7.65C6.75 8.4 6.94999 9.1 7.32999 9.73C8.27999 11.29 10.26 12.25 12.5 12.25C14.74 12.25 16.72 11.28 17.67 9.73C18.06 9.1 18.25 8.4 18.25 7.65C18.25 6.37 17.67 5.15 16.6 4.21C15.51 3.27 14.06 2.75 12.5 2.75Z" fill="#6568FF"/>
<path d="M12.5 18.75C8.37 18.75 5.25 16.13 5.25 12.65V7.65C5.25 4.12 8.5 1.25 12.5 1.25C14.42 1.25 16.22 1.9 17.59 3.08C18.98 4.31 19.75 5.93 19.75 7.65V12.65C19.75 16.13 16.63 18.75 12.5 18.75ZM12.5 2.75C9.33 2.75 6.75 4.95 6.75 7.65V12.65C6.75 15.27 9.22 17.25 12.5 17.25C15.78 17.25 18.25 15.27 18.25 12.65V7.65C18.25 6.37 17.67 5.15 16.6 4.21C15.51 3.27 14.06 2.75 12.5 2.75Z" fill="#6568FF"/>
</svg>
