<svg width="15" height="13" viewBox="0 0 15 13" fill="none" xmlns="http://www.w3.org/2000/svg">
<path d="M13.9371 0.697596C13.7792 0.587141 13.6012 0.508868 13.4131 0.467249C13.2249 0.425629 13.0305 0.421479 12.8407 0.455035C12.651 0.488591 12.4698 0.559195 12.3073 0.662815C12.1449 0.766435 12.0045 0.901041 11.8941 1.05894L6.31673 9.02416L2.6598 6.52617C2.36651 6.32554 2.00552 6.24965 1.65626 6.31518C1.307 6.3807 0.998082 6.58229 0.797455 6.87559C0.596829 7.16889 0.520931 7.52987 0.58646 7.87913C0.651989 8.22839 0.853577 8.53731 1.14688 8.73794L6.04879 12.0861C6.19976 12.1892 6.37038 12.26 6.54997 12.2941C6.72955 12.3282 6.91424 12.3248 7.09248 12.2843C7.2826 12.2511 7.46428 12.1806 7.62712 12.0771C7.78996 11.9735 7.93076 11.8388 8.04143 11.6806L14.2987 2.74173C14.5217 2.42254 14.6088 2.02787 14.541 1.64445C14.4732 1.26103 14.2559 0.920222 13.9369 0.696927" fill="#85FFA0"/>
</svg>
