<svg width="25" height="24" viewBox="0 0 25 24" fill="none" xmlns="http://www.w3.org/2000/svg">
<path d="M13.25 15.9203H13.9C14.55 15.9203 15.09 15.3403 15.09 14.6403C15.09 13.7703 14.78 13.6003 14.27 13.4203L13.26 13.0703V15.9203H13.25Z" fill="#6568FF"/>
<path d="M12.4701 1.90041C6.95007 1.92041 2.48007 6.41041 2.50007 11.9304C2.52007 17.4504 7.01007 21.9204 12.5301 21.9004C18.0501 21.8804 22.5201 17.3904 22.5001 11.8704C22.4801 6.35041 17.9901 1.89041 12.4701 1.90041ZM14.7601 12.0004C15.5401 12.2704 16.5901 12.8504 16.5901 14.6404C16.5901 16.1804 15.3801 17.4204 13.9001 17.4204H13.2501V18.0004C13.2501 18.4104 12.9101 18.7504 12.5001 18.7504C12.0901 18.7504 11.7501 18.4104 11.7501 18.0004V17.4204H11.3901C9.75007 17.4204 8.42007 16.0404 8.42007 14.3404C8.42007 13.9304 8.76007 13.5904 9.17007 13.5904C9.58007 13.5904 9.92007 13.9304 9.92007 14.3404C9.92007 15.2104 10.5801 15.9204 11.3901 15.9204H11.7501V12.5404L10.2401 12.0004C9.46007 11.7304 8.41007 11.1504 8.41007 9.36041C8.41007 7.82041 9.62007 6.58041 11.1001 6.58041H11.7501V6.00041C11.7501 5.59041 12.0901 5.25041 12.5001 5.25041C12.9101 5.25041 13.2501 5.59041 13.2501 6.00041V6.58041H13.6101C15.2501 6.58041 16.5801 7.96041 16.5801 9.66041C16.5801 10.0704 16.2401 10.4104 15.8301 10.4104C15.4201 10.4104 15.0801 10.0704 15.0801 9.66041C15.0801 8.79041 14.4201 8.08041 13.6101 8.08041H13.2501V11.4604L14.7601 12.0004Z" fill="#6568FF"/>
<path d="M9.91992 9.37008C9.91992 10.2401 10.2299 10.4101 10.7399 10.5901L11.7499 10.9401V8.08008H11.0999C10.4499 8.08008 9.91992 8.66008 9.91992 9.37008Z" fill="#6568FF"/>
</svg>
