<svg width="20" height="21" viewBox="0 0 20 21" fill="none" xmlns="http://www.w3.org/2000/svg">
<path d="M10.0001 2.04199C5.40841 2.04199 1.66675 5.78366 1.66675 10.3753C1.66675 14.967 5.40841 18.7087 10.0001 18.7087C14.5917 18.7087 18.3334 14.967 18.3334 10.3753C18.3334 5.78366 14.5917 2.04199 10.0001 2.04199ZM12.8001 12.292C13.0417 12.5337 13.0417 12.9337 12.8001 13.1753C12.6751 13.3003 12.5167 13.3587 12.3584 13.3587C12.2001 13.3587 12.0417 13.3003 11.9167 13.1753L10.0001 11.2587L8.08341 13.1753C7.95841 13.3003 7.80008 13.3587 7.64175 13.3587C7.48342 13.3587 7.32508 13.3003 7.20008 13.1753C6.95842 12.9337 6.95842 12.5337 7.20008 12.292L9.11675 10.3753L7.20008 8.45866C6.95842 8.21699 6.95842 7.81699 7.20008 7.57533C7.44175 7.33366 7.84175 7.33366 8.08341 7.57533L10.0001 9.49199L11.9167 7.57533C12.1584 7.33366 12.5584 7.33366 12.8001 7.57533C13.0417 7.81699 13.0417 8.21699 12.8001 8.45866L10.8834 10.3753L12.8001 12.292Z" fill="#FF7FE3"/>
</svg>
