<svg width="20" height="21" viewBox="0 0 20 21" fill="none" xmlns="http://www.w3.org/2000/svg">
<path d="M17.9667 9.32546L16.8334 8.00879C16.6167 7.75879 16.4417 7.29212 16.4417 6.95879V5.54212C16.4417 4.65879 15.7167 3.93379 14.8334 3.93379H13.4167C13.0917 3.93379 12.6167 3.75879 12.3667 3.54212L11.0501 2.40879C10.4751 1.91712 9.5334 1.91712 8.95007 2.40879L7.64173 3.55046C7.39173 3.75879 6.91673 3.93379 6.59173 3.93379H5.15006C4.26673 3.93379 3.54173 4.65879 3.54173 5.54212V6.96712C3.54173 7.29212 3.36673 7.75879 3.1584 8.00879L2.0334 9.33379C1.55007 9.90879 1.55007 10.8421 2.0334 11.4171L3.1584 12.7421C3.36673 12.9921 3.54173 13.4588 3.54173 13.7838V15.2088C3.54173 16.0921 4.26673 16.8171 5.15006 16.8171H6.59173C6.91673 16.8171 7.39173 16.9921 7.64173 17.2088L8.9584 18.3421C9.5334 18.8338 10.4751 18.8338 11.0584 18.3421L12.3751 17.2088C12.6251 16.9921 13.0917 16.8171 13.4251 16.8171H14.8417C15.7251 16.8171 16.4501 16.0921 16.4501 15.2088V13.7921C16.4501 13.4671 16.6251 12.9921 16.8417 12.7421L17.9751 11.4255C18.4584 10.8505 18.4584 9.90045 17.9667 9.32546ZM13.4667 8.80046L9.44173 12.8255C9.32507 12.9421 9.16673 13.0088 9.00007 13.0088C8.8334 13.0088 8.67507 12.9421 8.5584 12.8255L6.54173 10.8088C6.30007 10.5671 6.30007 10.1671 6.54173 9.92546C6.7834 9.68379 7.1834 9.68379 7.42507 9.92546L9.00007 11.5005L12.5834 7.91712C12.8251 7.67546 13.2251 7.67546 13.4667 7.91712C13.7084 8.15879 13.7084 8.55879 13.4667 8.80046Z" fill="#85FFA0"/>
</svg>
