<svg width="253" height="167" viewBox="0 0 253 167" fill="none" xmlns="http://www.w3.org/2000/svg">
<path d="M223.935 25.3207L223.921 25.3114L223.907 25.3018L190.873 2.95925C189.467 2.00824 187.809 1.5 186.111 1.5H126.117H63.0586H10.0002C5.30579 1.5 1.50021 5.30558 1.50021 10V41.75V83.5V119.794C1.50021 122.685 2.96927 125.377 5.39999 126.941L28.299 141.679L28.3134 141.689L28.3276 141.698L61.3608 164.041C62.7668 164.992 64.4254 165.5 66.1229 165.5H126.117H189.175H242.234C246.928 165.5 250.734 161.694 250.734 157V125.25V83.5V47.2061C250.734 44.3154 249.265 41.6229 246.834 40.0585L223.935 25.3207Z" fill="#6B43CB" stroke="#131227" stroke-width="3"/>
</svg>
