<svg width="28" height="22" viewBox="0 0 28 22" fill="none" xmlns="http://www.w3.org/2000/svg">
<path d="M24.303 5.47684C24.3195 5.71553 24.3195 5.95421 24.3195 6.1951C24.3195 13.5349 18.7318 22 8.51456 22V21.9956C5.49635 22 2.54084 21.1355 0 19.5054C0.438872 19.5582 0.879945 19.5846 1.32212 19.5857C3.82336 19.5879 6.25311 18.7486 8.22088 17.2032C5.84393 17.1581 3.75956 15.6083 3.03141 13.3457C3.86406 13.5063 4.722 13.4733 5.53925 13.2501C2.94781 12.7265 1.08343 10.4496 1.08343 7.8054C1.08343 7.7812 1.08343 7.7581 1.08343 7.735C1.85558 8.16507 2.72013 8.40376 3.60447 8.43016C1.16373 6.79896 0.411374 3.55196 1.88528 1.01332C4.7055 4.48361 8.86654 6.59327 13.3334 6.81656C12.8857 4.88728 13.4972 2.86561 14.9404 1.50939C17.1776 -0.593674 20.6963 -0.485881 22.7994 1.75028C24.0434 1.50499 25.2357 1.04852 26.3268 0.401763C25.9122 1.68758 25.0443 2.77981 23.885 3.47387C24.986 3.34408 26.0618 3.0493 27.0748 2.59942C26.329 3.71695 25.3897 4.69039 24.303 5.47684Z" fill="white"/>
</svg>
