<svg width="28" height="21" viewBox="0 0 28 21" fill="none" xmlns="http://www.w3.org/2000/svg">
<path d="M23.7032 1.74079C21.9186 0.935051 20.0048 0.341422 18.0039 0.00142624C17.9674 -0.00513558 17.931 0.0112628 17.9123 0.0440602C17.6661 0.474793 17.3935 1.03672 17.2026 1.47839C15.0505 1.16136 12.9094 1.16136 10.8014 1.47839C10.6104 1.0269 10.3279 0.474793 10.0807 0.0440602C10.0619 0.012357 10.0255 -0.0040413 9.98906 0.00142624C7.98923 0.340336 6.07549 0.933965 4.28976 1.74079C4.2743 1.74734 4.26105 1.75829 4.25225 1.77249C0.62229 7.10863 -0.372109 12.3136 0.11571 17.4541C0.117917 17.4792 0.132265 17.5033 0.152131 17.5186C2.54708 19.2492 4.86699 20.2998 7.14383 20.9962C7.18026 21.0071 7.21887 20.994 7.24206 20.9645C7.78065 20.2408 8.26075 19.4777 8.67239 18.6752C8.69668 18.6282 8.67349 18.5725 8.62384 18.5539C7.86232 18.2696 7.1372 17.9231 6.43968 17.5295C6.38451 17.4978 6.3801 17.4202 6.43085 17.383C6.57763 17.2748 6.72446 17.1621 6.86461 17.0484C6.88997 17.0277 6.92531 17.0233 6.95512 17.0364C11.5375 19.095 16.4985 19.095 21.0268 17.0364C21.0566 17.0222 21.0919 17.0266 21.1184 17.0474C21.2586 17.1611 21.4054 17.2748 21.5533 17.383C21.604 17.4202 21.6007 17.4978 21.5455 17.5295C20.848 17.9307 20.1229 18.2696 19.3603 18.5528C19.3106 18.5714 19.2885 18.6282 19.3128 18.6752C19.7333 19.4766 20.2134 20.2396 20.742 20.9634C20.7641 20.994 20.8038 21.0071 20.8403 20.9962C23.1282 20.2998 25.4481 19.2492 27.843 17.5186C27.864 17.5033 27.8772 17.4803 27.8794 17.4552C28.4633 11.5122 26.9016 6.34993 23.7396 1.77357C23.7319 1.75829 23.7186 1.74734 23.7032 1.74079ZM9.35669 14.3241C7.97708 14.3241 6.84032 13.0778 6.84032 11.5472C6.84032 10.0167 7.95504 8.77039 9.35669 8.77039C10.7694 8.77039 11.8951 10.0276 11.873 11.5472C11.873 13.0778 10.7583 14.3241 9.35669 14.3241ZM18.6605 14.3241C17.281 14.3241 16.1442 13.0778 16.1442 11.5472C16.1442 10.0167 17.2589 8.77039 18.6605 8.77039C20.0732 8.77039 21.199 10.0276 21.1769 11.5472C21.1769 13.0778 20.0732 14.3241 18.6605 14.3241Z" fill="white"/>
</svg>
