<svg width="23" height="23" viewBox="0 0 23 23" fill="none" xmlns="http://www.w3.org/2000/svg">
<path d="M11.4998 7.55408C10.955 8.09886 10.0716 8.09886 9.52682 7.55408C8.98204 7.00931 8.98204 6.12586 9.52682 5.58108L13.4732 1.63454C15.6527 -0.544845 19.186 -0.544845 21.3655 1.63454C23.5448 3.81409 23.5448 7.34735 21.3655 9.52682L17.4193 13.473C16.8745 14.0178 15.9911 14.0178 15.4463 13.473C14.9013 12.9282 14.9013 12.0448 15.4463 11.4998L19.3925 7.55381C20.4821 6.46403 20.4821 4.69723 19.3925 3.60763C18.3027 2.51785 16.5359 2.51785 15.4463 3.60763L11.4998 7.55408ZM11.5002 15.4459C12.045 14.9011 12.9284 14.9011 13.4732 15.4459C14.0181 15.9909 14.0181 16.8741 13.4732 17.4191L9.52681 21.3655C7.34743 23.5448 3.814 23.5448 1.63453 21.3655C-0.544845 19.1861 -0.544845 15.6527 1.63453 13.4732L5.58072 9.527C6.12568 8.98222 7.00894 8.98222 7.5539 9.527C8.09868 10.072 8.09868 10.9554 7.5539 11.5002L3.60772 15.4464C2.51794 16.536 2.51794 18.3028 3.60772 19.3925C4.69732 20.4822 6.46412 20.4822 7.5539 19.3925L11.5002 15.4459ZM15.4464 7.55363C15.9911 8.09841 15.9911 8.98186 15.4464 9.52664L9.52681 15.4457C8.98204 15.9907 8.09859 15.9907 7.55381 15.4457C7.00903 14.901 7.00903 14.0175 7.55381 13.4727L13.4729 7.55363C14.0179 7.00868 14.9011 7.00868 15.4461 7.55363H15.4464Z" fill="white"/>
</svg>
