<svg width="109" height="25" viewBox="0 0 109 25" fill="none" xmlns="http://www.w3.org/2000/svg">
<path d="M0 16.548L16.308 0.348V10.5L26.568 0.348V24H20.412V13.74L10.044 24.108V14.064L0 24V16.548ZM34.7414 6.468L41.2214 0.419999V6.504V24H34.7414V6.468ZM28.8014 6.54L34.9214 0.419999H49.4294L43.3094 6.54H28.8014ZM45.4236 6.54L51.6876 0.311998V10.356L61.7316 0.419999H69.1476L45.4236 24.072V6.54ZM64.3995 6.9L70.8795 0.419999V24H64.3995V6.9ZM77.1435 0.419999C79.5435 0.419999 81.4515 1.044 82.8675 2.292C84.2835 3.516 84.9915 5.364 84.9915 7.836C84.9915 9.948 84.2835 11.712 82.8675 13.128C81.4755 14.52 79.6275 15.216 77.3235 15.216C76.3155 15.216 75.8115 15.12 75.8115 14.928L75.9555 14.784L76.3515 14.604L72.4995 11.652L75.4155 11.616C76.3755 11.616 77.1075 11.364 77.6115 10.86C78.1155 10.356 78.3675 9.72 78.3675 8.952C78.3675 8.184 78.1395 7.584 77.6835 7.152C77.2515 6.72 76.4955 6.504 75.4155 6.504L70.8795 6.54V0.419999H77.1435ZM84.8115 24.18L72.2835 11.652H79.9515L84.8115 16.62V24.18ZM94.9537 9.42C97.1857 9.42 99.0217 10.104 100.462 11.472C101.902 12.816 102.622 14.508 102.622 16.548C102.622 18.54 101.914 20.28 100.498 21.768C99.0817 23.256 97.3777 24 95.3857 24H89.7697H86.0977V18.096L94.7377 18.132C95.1457 18.132 95.4817 17.988 95.7457 17.7C96.0097 17.388 96.1417 17.028 96.1417 16.62C96.1417 15.732 95.5777 15.288 94.4497 15.288C92.1217 15.288 90.2017 14.544 88.6897 13.056C87.1777 11.568 86.4217 9.708 86.4217 7.476C86.4217 5.484 87.1657 3.816 88.6537 2.472C90.1657 1.104 91.9417 0.419999 93.9817 0.419999H108.562L102.406 6.576L93.7657 6.54C93.3817 6.54 93.0577 6.624 92.7937 6.792C92.5537 6.936 92.4097 7.2 92.3617 7.584C92.3617 8.28 92.6137 8.76 93.1177 9.024C93.6217 9.288 94.2337 9.42 94.9537 9.42Z" fill="white"/>
</svg>
