<svg width="220" height="54" viewBox="0 0 220 54" fill="none" xmlns="http://www.w3.org/2000/svg">
<path d="M211 8.96189L211.033 8.98982L211.069 9.01573L214.753 11.7249C216.931 13.3266 218.218 15.8691 218.218 18.573V26.9805V40.4474V43.9143C218.218 48.6087 214.412 52.4143 209.718 52.4143H202.599H102.852H68.6145H34.3766H20.5702C18.7419 52.4143 16.9624 51.8248 15.4956 50.7333L8.37505 45.4342L4.65727 42.2974C2.74314 40.6823 1.63867 38.3053 1.63867 35.8009V26.9805V13.5136V10.0467C1.63867 5.35224 5.44425 1.54666 10.1387 1.54666H17.2576H34.3766H68.6145H102.852H198.992C200.973 1.54666 202.893 2.23889 204.418 3.50372L211 8.96189Z" fill="#444444" stroke="#33325E" stroke-width="3"/>
</svg>
